<?xml version="1.0" encoding="UTF-8"?>
<svg width="403px" height="403px" viewBox="0 0 403 403" version="1.1" xmlns="http://www.w3.org/2000/svg" xmlns:xlink="http://www.w3.org/1999/xlink">
    <!-- Generator: Sketch 40.1 (33804) - http://www.bohemiancoding.com/sketch -->
    <title>Group 2</title>
    <desc>Created with Sketch.</desc>
    <defs></defs>
    <g id="Page-1" stroke="none" stroke-width="1" fill="none" fill-rule="evenodd">
        <g id="Desktop-HD" transform="translate(-623.000000, -349.000000)">
            <g id="Group-2" transform="translate(623.000000, 349.000000)">
                <rect id="Rectangle" fill="#FFFFFF" x="0" y="0" width="403" height="403"></rect>
                <g id="drone(1)" transform="translate(7.000000, 78.000000)">
                    <g id="Layer_1">
                        <path d="M214.680713,114.195089 L174.641228,114.195089 C173.24804,117.297327 171.277188,120.825861 168.947228,124.268673 C168.198891,125.387703 168.02899,126.774713 168.47305,128.034297 C168.923287,129.293881 169.932653,130.254594 171.216178,130.65 C178.394495,132.821644 186.497228,133.965386 194.66097,133.965386 C202.818535,133.965386 210.927446,132.821644 218.105762,130.65 C219.383109,130.260772 220.399426,129.293109 220.849663,128.034297 C221.293723,126.774713 221.117644,125.382297 220.375485,124.268673 C218.044752,120.825861 216.073901,117.297327 214.680713,114.195089 L214.680713,114.195089 Z" id="Shape" fill="#0092FF"></path>
                        <ellipse id="Oval" fill="#093568" cx="194.661743" cy="53.0230099" rx="77.2748317" ry="32.3499208"></ellipse>
                        <path d="M271.935802,53.0230099 C271.935802,70.8950495 237.334693,85.3729307 194.66097,85.3729307 C151.987248,85.3729307 117.386139,70.8888713 117.386139,53.0230099" id="Shape" fill="#041D35"></path>
                        <path d="M166.599505,45.7234455 C166.599505,57.591802 156.993921,67.2151485 145.107802,67.2151485 C133.25798,67.2151485 48.1059208,57.591802 48.1059208,45.7234455 C48.1059208,33.8674455 133.25798,24.244099 145.107802,24.244099 C156.994693,24.2433267 166.599505,33.8666733 166.599505,45.7234455 L166.599505,45.7234455 Z" id="Shape" fill="#093568"></path>
                        <path d="M145.107802,24.2433267 C156.994693,24.2433267 166.599505,33.8666733 166.599505,45.7226733" id="Shape" fill="#074584"></path>
                        <g id="Group" transform="translate(44.019802, 27.029703)" fill="#041D35">
                            <path d="M122.579703,18.6937426 C122.579703,30.562099 136.406554,55.8132475 124.538198,55.8132475 C112.669842,55.8132475 4.07994059,30.567505 4.07994059,18.6937426" id="Shape"></path>
                            <path d="M25.4928713,23.748297 C25.4928713,30.5922178 19.9510099,36.127901 13.1194455,36.127901 L13.1194455,36.127901 C6.27552475,36.127901 0.764554455,30.5922178 0.764554455,23.748297 L0.764554455,12.6769307 C0.764554455,5.84536634 6.27552475,0.309683168 13.1194455,0.309683168 L13.1194455,0.309683168 C19.9510099,0.309683168 25.4928713,5.84536634 25.4928713,12.6769307 L25.4928713,23.748297 L25.4928713,23.748297 Z" id="Shape"></path>
                        </g>
                        <path d="M69.5126733,38.5752475 C69.5126733,45.4068119 63.9708119,50.942495 57.1392475,50.942495 L57.1392475,50.942495 C50.2953267,50.942495 44.7843564,45.4068119 44.7843564,38.5752475 L44.7843564,27.5038812 C44.7843564,20.6723168 50.2953267,15.1242772 57.1392475,15.1242772 L57.1392475,15.1242772 C63.9708119,15.1242772 69.5126733,20.6723168 69.5126733,27.5038812 L69.5126733,38.5752475 L69.5126733,38.5752475 Z" id="Shape" fill="#093568"></path>
                        <path d="M45.1612277,27.497703 C46.4694653,32.9175446 51.3170495,36.9449703 57.1392475,36.9449703 C62.9606733,36.9449703 67.8028515,32.9175446 69.1234455,27.497703 C67.8036238,22.0894455 62.9614455,18.0504356 57.1392475,18.0504356 C51.3178218,18.0504356 46.4694653,22.096396 45.1612277,27.497703 L45.1612277,27.497703 Z" id="Shape" fill="#041D35"></path>
                        <ellipse id="Oval" fill="#00B1FF" cx="57.1330693" cy="17.6496238" rx="57.1330693" ry="9.03950495"></ellipse>
                        <ellipse id="Oval" fill="#0092FF" cx="57.1392475" cy="17.6496238" rx="31.7421386" ry="9.03950495"></ellipse>
                        <path d="M113.90703,17.6496238 C113.90703,18.5315644 113.207347,19.2312475 112.319228,19.2312475 L1.94691089,19.2312475 C1.07732673,19.2312475 0.371465347,18.5315644 0.371465347,17.6496238 L0.371465347,17.6496238 C0.371465347,16.7676832 1.07732673,16.0556436 1.94691089,16.0556436 L112.32,16.0556436 C113.201941,16.0556436 113.90703,16.7730891 113.90703,17.6496238 L113.90703,17.6496238 L113.90703,17.6496238 Z" id="Shape" fill="#00CFFF"></path>
                        <path d="M69.7188713,6.67556436 C69.7188713,10.3014059 74.5795842,13.2576832 70.9236238,13.2576832 L43.3425149,13.2576832 C39.7050891,13.2576832 44.5588515,10.3014059 44.5588515,6.67556436 L44.5588515,6.67556436 C44.5588515,3.01342574 47.5151287,0.0695049505 51.1533267,0.0695049505 L63.1128119,0.0695049505 C66.7564158,0.0687326733 69.7188713,3.01342574 69.7188713,6.67556436 L69.7188713,6.67556436 L69.7188713,6.67556436 Z" id="Shape" fill="#041D35"></path>
                        <path d="M222.723208,45.7234455 C222.723208,57.591802 232.328792,67.2151485 244.208733,67.2151485 C256.064733,67.2151485 341.216792,57.591802 341.216792,45.7234455 C341.216792,33.8674455 256.064733,24.244099 244.208733,24.244099 C232.32802,24.2433267 222.723208,33.8666733 222.723208,45.7234455 L222.723208,45.7234455 Z" id="Shape" fill="#093568"></path>
                        <path d="M244.214911,24.2433267 C232.334198,24.2433267 222.729386,33.8666733 222.729386,45.7226733" id="Shape" fill="#074584"></path>
                        <g id="Group" transform="translate(215.465347, 27.029703)" fill="#041D35">
                            <path d="M7.25786139,18.6937426 C7.25786139,30.562099 -6.5689901,55.8132475 5.29936634,55.8132475 C17.1677228,55.8132475 125.758396,30.5682772 125.758396,18.6937426" id="Shape"></path>
                            <path d="M104.344693,23.748297 C104.344693,30.5922178 109.886554,36.127901 116.718119,36.127901 L116.718119,36.127901 C123.555861,36.127901 129.079188,30.5922178 129.079188,23.748297 L129.079188,12.6769307 C129.079188,5.84536634 123.555861,0.309683168 116.718119,0.309683168 L116.718119,0.309683168 C109.886554,0.309683168 104.344693,5.84536634 104.344693,12.6769307 L104.344693,23.748297 L104.344693,23.748297 Z" id="Shape"></path>
                        </g>
                        <path d="M319.81004,38.5752475 C319.81004,45.4068119 325.351901,50.942495 332.183465,50.942495 L332.183465,50.942495 C339.021208,50.942495 344.544535,45.4068119 344.544535,38.5752475 L344.544535,27.5038812 C344.544535,20.6723168 339.021208,15.1242772 332.183465,15.1242772 L332.183465,15.1242772 C325.351901,15.1242772 319.81004,20.6723168 319.81004,27.5038812 L319.81004,38.5752475 L319.81004,38.5752475 Z" id="Shape" fill="#093568"></path>
                        <path d="M344.161485,27.497703 C342.853248,32.9175446 337.999485,36.9449703 332.183465,36.9449703 C326.36204,36.9449703 321.513683,32.9175446 320.193861,27.497703 C321.513683,22.0894455 326.36204,18.0504356 332.183465,18.0504356 C337.998713,18.0566139 342.853248,22.096396 344.161485,27.497703 L344.161485,27.497703 Z" id="Shape" fill="#041D35"></path>
                        <ellipse id="Oval" fill="#00B1FF" cx="332.202" cy="17.6496238" rx="57.1392475" ry="9.03950495"></ellipse>
                        <ellipse id="Oval" fill="#0092FF" cx="332.202" cy="17.6496238" rx="31.7421386" ry="9.03950495"></ellipse>
                        <path d="M275.415683,17.6496238 C275.415683,18.5315644 276.115366,19.2312475 277.003485,19.2312475 L387.376574,19.2312475 C388.246158,19.2312475 388.95202,18.5315644 388.95202,17.6496238 L388.95202,17.6496238 C388.95202,16.7676832 388.246158,16.0556436 387.376574,16.0556436 L277.003485,16.0556436 C276.120772,16.0556436 275.415683,16.7730891 275.415683,17.6496238 L275.415683,17.6496238 L275.415683,17.6496238 Z" id="Shape" fill="#00CFFF"></path>
                        <path d="M319.603842,6.67556436 C319.603842,10.3014059 314.743129,13.2576832 318.399089,13.2576832 L345.980198,13.2576832 C349.617624,13.2576832 344.763861,10.3014059 344.763861,6.67556436 L344.763861,6.67556436 C344.763861,3.01342574 341.807584,0.0695049505 338.169386,0.0695049505 L326.209901,0.0695049505 C322.572475,0.0687326733 319.603842,3.01342574 319.603842,6.67556436 L319.603842,6.67556436 L319.603842,6.67556436 Z" id="Shape" fill="#041D35"></path>
                        <path d="M231.221347,56.1553663 L219.432535,56.1553663 C217.643941,56.1553663 215.941069,56.9523564 214.78497,58.3146535 C213.136158,60.2615644 205.593327,63.1506535 194.655564,63.1506535 C183.711624,63.1506535 176.187327,60.2607921 174.538515,58.3146535 C173.37701,56.9461782 171.679545,56.1553663 169.884772,56.1553663 L158.101366,56.1553663 C154.737327,56.1553663 152.018139,58.8745545 152.018139,62.2385941 L152.018139,74.7031485 C152.018139,76.2484752 152.614337,77.7443762 153.66695,78.8765347 C155.990733,81.3339208 159.208812,82.3564158 162.317228,83.3418416 C168.266851,85.2215644 168.911703,85.9938416 168.911703,88.2025545 C168.911703,93.154396 164.215485,103.61103 157.469644,113.618198 C156.399267,115.224535 156.143644,117.24404 156.794673,119.062752 C157.445703,120.881465 158.917663,122.280832 160.761089,122.840733 C171.13895,125.979267 182.861347,127.640436 194.656337,127.640436 C206.451327,127.640436 218.179901,125.98004 228.557762,122.840733 C230.407366,122.280832 231.86697,120.882238 232.524178,119.062752 C233.16903,117.24404 232.913406,115.224535 231.84303,113.618198 C225.108772,103.61103 220.406376,93.1605743 220.406376,88.2025545 C220.406376,85.9946139 221.051228,85.2215644 226.988495,83.3418416 C230.103089,82.3564158 233.321168,81.3346931 235.64495,78.8765347 C236.703743,77.7451485 237.293762,76.2484752 237.293762,74.7031485 L237.293762,62.2385941 C237.304574,58.8807327 234.579208,56.1553663 231.221347,56.1553663 L231.221347,56.1553663 Z" id="Shape" fill="#081E34"></path>
                        <g id="Group" transform="translate(181.485149, 29.346535)" fill="#0092FF">
                            <path d="M25.5917228,1.8380198 C25.5917228,2.47051485 25.0804752,2.98176238 24.4479802,2.98176238 L1.89748515,2.98176238 C1.2649901,2.98176238 0.753742574,2.47051485 0.753742574,1.8380198 L0.753742574,1.8380198 C0.753742574,1.20552475 1.2649901,0.694277228 1.89748515,0.694277228 L24.4479802,0.694277228 C25.0812475,0.694277228 25.5917228,1.20475248 25.5917228,1.8380198 L25.5917228,1.8380198 L25.5917228,1.8380198 Z" id="Shape"></path>
                            <path d="M25.5917228,8.68116832 C25.5917228,9.31366337 25.0804752,9.82491089 24.4479802,9.82491089 L1.89748515,9.82491089 C1.2649901,9.82491089 0.753742574,9.31366337 0.753742574,8.68116832 L0.753742574,8.68116832 C0.753742574,8.04867327 1.2649901,7.53742574 1.89748515,7.53742574 L24.4479802,7.53742574 C25.0812475,7.53742574 25.5917228,8.04867327 25.5917228,8.68116832 L25.5917228,8.68116832 L25.5917228,8.68116832 Z" id="Shape"></path>
                            <path d="M25.5917228,15.5250891 C25.5917228,16.1575842 25.0804752,16.6688317 24.4479802,16.6688317 L1.89748515,16.6688317 C1.2649901,16.6688317 0.753742574,16.1575842 0.753742574,15.5250891 L0.753742574,15.5250891 C0.753742574,14.8925941 1.2649901,14.3813465 1.89748515,14.3813465 L24.4479802,14.3813465 C25.0812475,14.3813465 25.5917228,14.8925941 25.5917228,15.5250891 L25.5917228,15.5250891 L25.5917228,15.5250891 Z" id="Shape"></path>
                        </g>
                        <path d="M101.023129,170.178238 C103.675129,167.526238 107.988297,167.526238 110.634891,170.178238 C156.958396,216.501743 232.358911,216.501743 278.682416,170.178238 C281.334416,167.526238 285.635228,167.526238 288.281822,170.178238 C290.928416,172.830238 290.933822,177.13105 288.281822,179.777644 C236.659723,231.399743 152.657584,231.411327 101.030079,179.777644 C98.3827129,177.131822 98.3773069,172.83101 101.023129,170.178238 L101.023129,170.178238 Z" id="Shape" fill="#39E3FF"></path>
                        <path d="M131.147347,143.163208 C132.942119,141.356851 135.855921,141.356851 137.656099,143.163208 C169.081604,174.588713 220.228752,174.588713 251.65503,143.150851 C253.45598,141.356079 256.369782,141.356079 258.16996,143.163208 C259.970911,144.95798 259.970911,147.865604 258.16996,149.67196 C223.149505,184.68701 166.167802,184.698594 131.141168,149.67196 C129.346396,147.865604 129.346396,144.95798 131.147347,143.163208 L131.147347,143.163208 Z" id="Shape" fill="#00CFFF"></path>
                    </g>
                </g>
            </g>
        </g>
    </g>
</svg>