<?xml version="1.0" encoding="UTF-8"?>
<svg width="322px" height="581px" viewBox="0 0 322 581" version="1.1" xmlns="http://www.w3.org/2000/svg" xmlns:xlink="http://www.w3.org/1999/xlink">
    <!-- Generator: Sketch 40.1 (33804) - http://www.bohemiancoding.com/sketch -->
    <title>Group 3</title>
    <desc>Created with Sketch.</desc>
    <defs></defs>
    <g id="Page-1" stroke="none" stroke-width="1" fill="none" fill-rule="evenodd">
        <g id="Desktop-HD" transform="translate(-320.000000, -209.000000)">
            <g id="Group-3" transform="translate(320.000000, 209.000000)">
                <g id="robot(4)">
                    <g id="Layer_1">
                        <path d="M161.002,90.32 C156.277,90.32 152.449,86.491 152.449,81.767 L152.449,23.369 C152.449,18.646 156.277,14.816 161.002,14.816 C165.727,14.816 169.555,18.645 169.555,23.369 L169.555,81.767 C169.555,86.49 165.727,90.32 161.002,90.32 L161.002,90.32 Z" id="Shape" fill="#2BA5F7"></path>
                        <g id="Group" transform="translate(76.000000, 363.000000)"></g>
                        <g id="Group" transform="translate(5.000000, 108.000000)"></g>
                        <g id="Group" transform="translate(0.000000, 237.000000)"></g>
                        <g id="Group" transform="translate(69.000000, 100.000000)"></g>
                        <circle id="Oval" fill="#F7B239" cx="161.006" cy="14.816" r="14.816"></circle>
                        <g id="Group-2" transform="translate(0.000000, 52.000000)">
                            <rect id="Rectangle-path" fill="#E09B2D" x="96.825" y="156.645" width="128.351" height="34.782"></rect>
                            <path d="M269.126,29.047 L269.126,165.768 L225.175,165.768 L96.825,165.768 L52.874,165.768 L52.874,29.047 C52.874,13.07 65.829,0.115 81.806,0.115 L161.006,0.115 L240.195,0.115 C256.182,0.116 269.126,13.071 269.126,29.047 L269.126,29.047 Z" id="Shape" fill="#F95428"></path>
                            <path d="M101.192,0.116 L81.805,0.116 C65.828,0.116 52.873,13.071 52.873,29.048 L52.873,165.769 L72.26,165.769 L72.26,29.047 C72.261,13.071 85.216,0.116 101.192,0.116 L101.192,0.116 Z" id="Shape" fill="#E54728"></path>
                            <rect id="Rectangle-path" fill="#F7B239" x="76.606" y="311.784" width="33.413" height="121.303"></rect>
                            <rect id="Rectangle-path" fill="#F7B239" x="211.992" y="311.784" width="33.402" height="121.303"></rect>
                            <path d="M211.992,312.924 L211.992,355.027 L245.394,355.027 L245.394,312.924 L211.992,312.924 L211.992,312.924 Z M76.606,355.027 L110.019,355.027 L110.019,312.924 L76.606,312.924 L76.606,355.027 L76.606,355.027 Z" id="Shape" fill="#E09B2D"></path>
                            <rect id="Rectangle-path" fill="#F7B239" x="253.799" y="212.091" width="62.299" height="35.17"></rect>
                            <rect id="Rectangle-path" fill="#F7B239" x="5.468" y="212.091" width="63.166" height="35.17"></rect>
                            <path d="M108.251,56.576 C124.764,56.576 138.141,69.964 138.141,86.466 C138.141,102.979 124.764,116.356 108.251,116.356 C91.75,116.356 78.373,102.979 78.373,86.466 C78.373,69.964 91.75,56.576 108.251,56.576 L108.251,56.576 Z" id="Shape" fill="#F7B239"></path>
                            <path d="M213.749,56.576 C230.25,56.576 243.639,69.964 243.639,86.466 C243.639,102.979 230.251,116.356 213.749,116.356 C197.236,116.356 183.859,102.979 183.859,86.466 C183.859,69.964 197.236,56.576 213.749,56.576 L213.749,56.576 Z" id="Shape" fill="#F7B239"></path>
                            <polygon id="Shape" fill="#F95428" points="129.36 419.562 129.36 460 57.265 460 57.265 419.562 76.606 419.562 110.019 419.562"></polygon>
                            <polygon id="Shape" fill="#F95428" points="264.735 419.562 264.735 460 192.651 460 192.651 419.562 211.992 419.562 245.394 419.562"></polygon>
                            <path d="M321.253,217.611 L321.253,358.027 L289.368,358.027 L289.368,247.261 L289.368,212.091 L289.368,185.725 L289.368,185.725 C306.978,185.725 321.253,200.001 321.253,217.611 L321.253,217.611 Z" id="Shape" fill="#F95428"></path>
                            <path d="M32.632,247.261 L32.632,358.027 L0.747,358.027 L0.747,217.611 C0.747,200.001 15.022,185.726 32.632,185.726 L32.632,185.726 L32.632,212.092 L32.632,247.261 L32.632,247.261 Z" id="Shape" fill="#F95428"></path>
                            <polygon id="Shape" fill="#2BA5F7" points="269.126 247.261 269.126 325.309 245.395 325.309 245.395 325.298 211.993 325.298 211.993 325.309 110.019 325.309 110.019 325.298 76.606 325.298 76.606 325.309 52.875 325.309 52.875 247.261 52.875 212.091 52.875 185.725 96.826 185.725 225.177 185.725 269.128 185.725 269.128 212.091 269.126 247.261"></polygon>
                            <rect id="Rectangle-path" fill="#2197D8" x="52.874" y="185.725" width="38.043" height="139.572"></rect>
                            <path d="M146.698,86.467 C146.698,65.271 129.453,48.026 108.257,48.026 C87.059,48.026 69.815,65.271 69.815,86.467 C69.815,107.663 87.06,124.908 108.257,124.908 C129.453,124.908 146.698,107.663 146.698,86.467 L146.698,86.467 Z M86.92,86.467 C86.92,74.703 96.492,65.131 108.257,65.131 C120.022,65.131 129.593,74.702 129.593,86.467 C129.593,98.231 120.022,107.803 108.257,107.803 C96.492,107.803 86.92,98.231 86.92,86.467 L86.92,86.467 Z" id="Shape" fill="#4D4D4D"></path>
                            <path d="M213.748,124.908 C234.944,124.908 252.189,107.663 252.189,86.467 C252.189,65.271 234.944,48.026 213.748,48.026 C192.55,48.026 175.306,65.271 175.306,86.467 C175.306,107.663 192.55,124.908 213.748,124.908 L213.748,124.908 Z M213.748,65.13 C225.512,65.13 235.083,74.701 235.083,86.466 C235.083,98.231 225.512,107.802 213.748,107.802 C201.984,107.802 192.411,98.231 192.411,86.466 C192.411,74.701 201.983,65.13 213.748,65.13 L213.748,65.13 Z" id="Shape" fill="#4D4D4D"></path>
                            <circle id="Oval" fill="#4D4D4D" cx="221.275" cy="219.127" r="8.553"></circle>
                            <circle id="Oval" fill="#4D4D4D" cx="100.725" cy="219.127" r="8.553"></circle>
                            <path d="M208.469,278.906 L113.532,278.906 C113.532,267.833 117.33,257.638 123.681,249.564 C132.382,238.525 145.862,231.432 161.006,231.432 C187.223,231.432 208.469,252.689 208.469,278.906 L208.469,278.906 Z" id="Shape" fill="#E09B2D"></path>
                            <path d="M199.813,278.906 L113.531,278.906 C113.531,267.833 117.329,257.638 123.68,249.564 C131.754,243.212 141.938,239.415 153.022,239.415 C176.515,239.415 196.027,256.486 199.813,278.906 L199.813,278.906 Z" id="Shape" fill="#F7B239"></path>
                            <circle id="Oval-2" stroke="#979797" fill="#FFFFFF" cx="228" cy="424" r="92"></circle>
                            <polygon id="Shape" fill="#000000" points="236.678728 409.603573 261.292153 374.377755 231.340507 346.448258 189.512531 361.49072 190.904934 400.911147"></polygon>
                            <polygon id="Shape" fill="#000000" points="220.731815 480.979654 243.256821 504.440579 282.601722 487.644378 289.027284 452.881336 249.970414 448.072531"></polygon>
                            <path d="M141.823952,456.689803 L142.321159,457.298447 C155.70503,491.44396 188.927952,515.634592 227.817851,515.634592 C278.529288,515.634592 319.634962,474.529288 319.634962,423.817111 C319.634592,373.107895 278.528918,332 227.817481,332 C177.107895,332 136,373.110487 136,423.817111 C136,435.171058 138.07472,446.040016 141.843944,456.080048 L141.823952,456.689803 L141.823952,456.689803 Z M140.786962,423.817111 C140.786962,412.221779 143.085666,401.158085 147.221408,391.028829 L168.941183,364.080789 L174.570769,355.053682 C189.302616,343.620137 207.772217,336.787332 227.820813,336.787332 C228.302841,336.787332 228.777095,336.81695 229.262085,336.822133 L238.975211,340.399952 L260.384,343.131815 C274.092926,348.685875 286.083654,357.62598 295.300314,368.925505 L291.735082,384.449626 L305.801272,424.118101 L314.787284,426.394221 C313.407469,473.196861 274.944435,510.843928 227.820443,510.843928 C204.357666,510.843928 183.051058,501.49695 167.382181,486.350455 L184.273899,471.84074 L168.153352,430.288209 L142.930913,421.600966 L142.347815,440.129433 C141.338592,434.846374 140.786962,429.396716 140.786962,423.817111 L140.786962,423.817111 Z" id="Shape" fill="#000000"></path>
                            <ellipse id="Oval-3" fill-opacity="0.347995924" fill="#535353" cx="228.5" cy="522.5" rx="66.5" ry="6.5"></ellipse>
                        </g>
                    </g>
                </g>
            </g>
        </g>
    </g>
</svg>