<?xml version="1.0" encoding="iso-8859-1"?>
<!-- Generator: Adobe Illustrator 19.0.0, SVG Export Plug-In . SVG Version: 6.00 Build 0)  -->
<svg version="1.1" id="Layer_1" xmlns="http://www.w3.org/2000/svg" xmlns:xlink="http://www.w3.org/1999/xlink" x="0px" y="0px"
	 viewBox="0 0 496 496" style="enable-background:new 0 0 496 496;" xml:space="preserve">
<rect x="112" y="290" style="fill:#FFB600;" width="240" height="72"/>
<polygon style="fill:#BE90D6;" points="201.6,314 140.8,374.8 80,286.8 140.8,253.2 "/>
<polygon style="fill:#8860A8;" points="201.6,314 140.8,374.8 80,286.8 140.8,322 "/>
<polygon style="fill:#BE90D6;" points="294.4,314 355.2,374.8 416,286.8 355.2,253.2 "/>
<polygon style="fill:#8860A8;" points="294.4,314 355.2,374.8 416,286.8 355.2,322 "/>
<path style="fill:#A87CC4;" d="M0,490h496V308.4c-56-45.6-145.6,39.2-248,39.2S56,262.8,0,308.4V490z"/>
<path style="fill:#8860A8;" d="M248,346c-102.4,0-192-83.2-248-37.6V490h248"/>
<polygon style="fill:#BDD5DB;" points="95.2,50.8 248,6 400.8,50.8 368,266.8 248,382.8 128,266.8 "/>
<polygon style="fill:#D1ACEA;" points="95.2,50.8 248,6 400.8,50.8 368,266.8 248,382.8 128,266.8 "/>
<polygon style="fill:#87B6C1;" points="95.2,50.8 248,6 400.8,50.8 368,266.8 248,382.8 200.8,173.2 "/>
<polyline style="fill:#8860A8;" points="248,6 400.8,50.8 368,266.8 248,382.8 "/>
<polyline style="fill:#BE90D6;" points="248,382.8 200.8,173.2 95.2,50.8 248,6 "/>
<g>
	<polyline style="fill:#A87CC4;" points="248,382.8 296,173.2 400.8,50.8 248,6 	"/>
	<path style="fill:#A87CC4;" d="M200.8,175.6c-3.2,4.8-19.2,13.6-44,4.8c-19.2-6.4-16.8-28-18.4-41.6c-0.8-5.6-6.4-31.2,10.4-21.6
		C165.6,128.4,203.2,170.8,200.8,175.6z"/>
</g>
<path style="fill:#FFCE00;" d="M200.8,175.6c-3.2,4.8-18.4-0.8-43.2-8.8c-19.2-6.4-17.6-13.6-19.2-27.2c-0.8-5.6,0.8-21.6,18.4-12
	C173.6,138,203.2,170.8,200.8,175.6z"/>
<path style="fill:#FFB600;" d="M200.8,175.6c-3.2,4.8-18.4-0.8-43.2-8.8c-19.2-6.4-17.6-13.6-19.2-27.2"/>
<ellipse style="fill:#FFCE00;" cx="168" cy="153.2" rx="5.6" ry="13.6"/>
<path style="fill:#FFB600;" d="M168,139.6c3.2,0,5.6,6.4,5.6,13.6c0,7.2-2.4,13.6-5.6,13.6"/>
<g>
	<circle style="fill:#FFF8DC;" cx="168" cy="147.6" r="3.2"/>
	<circle style="fill:#FFF8DC;" cx="168" cy="162.8" r="1.6"/>
</g>
<path style="fill:#BE90D6;" d="M295.2,175.6c3.2,4.8,19.2,13.6,44,4.8c19.2-6.4,16.8-28,18.4-41.6c0.8-5.6,6.4-31.2-10.4-21.6
	C330.4,128.4,292.8,170.8,295.2,175.6z"/>
<path style="fill:#FFCE00;" d="M295.2,175.6c3.2,4.8,18.4-0.8,43.2-8.8c19.2-6.4,17.6-13.6,19.2-27.2c0.8-5.6-0.8-21.6-18.4-12
	C322.4,138,292.8,170.8,295.2,175.6z"/>
<path style="fill:#FFB600;" d="M295.2,175.6c3.2,4.8,18.4-0.8,43.2-8.8c19.2-6.4,17.6-13.6,19.2-27.2"/>
<ellipse style="fill:#FFCE00;" cx="328" cy="153.2" rx="5.6" ry="13.6"/>
<path style="fill:#FFB600;" d="M328,139.6c-3.2,0-5.6,6.4-5.6,13.6c0,7.2,2.4,13.6,5.6,13.6"/>
<g>
	<circle style="fill:#FFF8DC;" cx="328" cy="147.6" r="3.2"/>
	<circle style="fill:#FFF8DC;" cx="328" cy="162.8" r="1.6"/>
</g>
<g>
	<polygon style="fill:#BE90D6;" points="130.4,183.6 168,220.4 168,207.6 	"/>
	<polygon style="fill:#BE90D6;" points="130.4,200.4 168,238 168,224.4 	"/>
	<polygon style="fill:#BE90D6;" points="130.4,217.2 168,254.8 168,242 	"/>
</g>
<g>
	<polygon style="fill:#A87CC4;" points="365.6,183.6 328,220.4 328,207.6 	"/>
	<polygon style="fill:#A87CC4;" points="365.6,200.4 328,238 328,224.4 	"/>
	<polygon style="fill:#A87CC4;" points="365.6,217.2 328,254.8 328,242 	"/>
</g>
<polygon style="fill:#FFCE00;" points="265.6,219.6 248,252.4 230.4,219.6 248,202 "/>
<polyline style="fill:#FFB600;" points="248,202 265.6,219.6 248,252.4 "/>
<polyline style="fill:#FF9100;" points="230.4,219.6 248,202 265.6,219.6 "/>
<g>
	
		<rect x="243.483" y="126.679" transform="matrix(-0.7071 0.7071 -0.7071 -0.7071 516.8148 48.8871)" style="fill:#FFCE00;" width="9.6" height="9.6"/>
	
		<rect x="243.239" y="86.795" transform="matrix(-0.7071 0.7071 -0.7071 -0.7071 488.196 -19.0266)" style="fill:#FFCE00;" width="9.6" height="9.6"/>
	
		<rect x="242.995" y="46.887" transform="matrix(-0.7071 0.7071 -0.7071 -0.7071 459.5602 -86.9813)" style="fill:#FFCE00;" width="9.6" height="9.6"/>
</g>
<polygon style="fill:#D1ACEA;" points="139.2,78.8 119.2,56.4 224,25.2 "/>
<g>
	<polygon style="fill:#A87CC4;" points="12,322 45.6,322 139.2,415.6 	"/>
	<circle style="fill:#A87CC4;" cx="100" cy="330.8" r="7.2"/>
	<circle style="fill:#A87CC4;" cx="128" cy="358.8" r="7.2"/>
	<circle style="fill:#A87CC4;" cx="156" cy="386.8" r="7.2"/>
	<circle style="fill:#A87CC4;" cx="184" cy="414.8" r="7.2"/>
</g>
<g>
	<polygon style="fill:#8860A8;" points="484,322 450.4,322 356.8,415.6 	"/>
	<circle style="fill:#8860A8;" cx="396" cy="330.8" r="7.2"/>
	<circle style="fill:#8860A8;" cx="368" cy="358.8" r="7.2"/>
	<circle style="fill:#8860A8;" cx="340" cy="386.8" r="7.2"/>
	<circle style="fill:#8860A8;" cx="312" cy="414.8" r="7.2"/>
</g>
<circle style="fill:#FFCE00;" cx="248" cy="434" r="31.2"/>
<path style="fill:#FFB600;" d="M248,402.8c16.8,0,31.2,13.6,31.2,31.2s-13.6,31.2-31.2,31.2"/>
<circle style="fill:#FFCE00;" cx="248" cy="434" r="21.6"/>
<path style="fill:#FFB600;" d="M226.4,434c0-12,9.6-21.6,21.6-21.6s21.6,9.6,21.6,21.6"/>
<g>
</g>
<g>
</g>
<g>
</g>
<g>
</g>
<g>
</g>
<g>
</g>
<g>
</g>
<g>
</g>
<g>
</g>
<g>
</g>
<g>
</g>
<g>
</g>
<g>
</g>
<g>
</g>
<g>
</g>
</svg>
