<?xml version="1.0" encoding="UTF-8"?>
<svg width="512px" height="442px" viewBox="0 0 512 442" version="1.1" xmlns="http://www.w3.org/2000/svg" xmlns:xlink="http://www.w3.org/1999/xlink">
    <!-- Generator: Sketch 40.1 (33804) - http://www.bohemiancoding.com/sketch -->
    <title>transporter</title>
    <desc>Created with Sketch.</desc>
    <defs></defs>
    <g id="Page-1" stroke="none" stroke-width="1" fill="none" fill-rule="evenodd">
        <g id="Desktop-HD" transform="translate(-569.000000, -219.000000)">
            <g id="transporter" transform="translate(569.000000, 219.000000)">
                <g id="Layer_1">
                    <path d="M322.207,441.69 L48.552,441.69 C22.069,441.69 0,419.621 0,393.138 C0,366.655 22.069,344.586 48.552,344.586 L322.207,344.586 C348.69,344.586 370.759,366.655 370.759,393.138 C370.759,419.621 348.69,441.69 322.207,441.69" id="Shape" fill="#535353"></path>
                    <g id="Group" transform="translate(35.000000, 371.000000)" fill="#A2A2A2">
                        <path d="M44.448,22.138 C44.448,9.779 34.738,0.069 22.379,0.069 C10.02,0.069 0.31,9.779 0.31,22.138 C0.31,34.497 10.02,44.207 22.379,44.207 C34.738,44.207 44.448,34.497 44.448,22.138" id="Shape"></path>
                        <path d="M300.448,22.138 C300.448,9.779 290.738,0.069 278.379,0.069 C266.02,0.069 256.31,9.779 256.31,22.138 C256.31,34.497 266.02,44.207 278.379,44.207 C290.738,44.207 300.448,34.497 300.448,22.138" id="Shape"></path>
                    </g>
                    <polygon id="Shape" fill="#FEC24C" points="459.034 0.31 476.689 0.31 512 106.241 494.345 300.448 459.035 300.448 432.552 62.103"></polygon>
                    <polygon id="Shape" fill="#BC8D2F" points="450.207 335.759 503.173 335.759 503.173 300.449 450.207 300.449"></polygon>
                    <path d="M456.386,441.69 L406.069,441.69 L459.035,335.759 L494.345,335.759 L506.704,371.952 C510.235,382.545 510.235,394.904 506.704,405.497 L506.704,405.497 C499.641,426.683 479.338,441.69 456.386,441.69" id="Shape" fill="#FEC24C"></path>
                    <polygon id="Shape" fill="#BC8D2F" points="440.497 44.448 256 44.448 141.241 159.207 214.51 159.207 273.655 97.414 435.2 89.469 432.552 62.103"></polygon>
                    <path d="M291.31,393.138 C291.31,382.545 299.255,373.717 308.965,371.069 L308.965,371.069 L185.379,371.069 L61.793,371.069 L61.793,371.069 C71.503,372.835 79.448,381.662 79.448,393.138 C79.448,404.614 71.503,412.559 61.793,415.207 L61.793,415.207 L185.379,415.207 L308.965,415.207 L308.965,415.207 C299.255,412.559 291.31,403.731 291.31,393.138" id="Shape" fill="#CBCDD1"></path>
                    <polygon id="Shape" fill="#BC8D2F" points="141.241 344.586 229.517 344.586 229.517 318.103 141.241 318.103 141.241 344.586"></polygon>
                    <path d="M123.586,176.862 L123.586,247.483 L27.366,247.483 C12.359,247.483 0,259.841 0,274.848 L0,318.103 L123.586,318.103 L264.827,318.103 L264.827,213.938 C264.827,206.876 263.944,199.814 261.296,193.635 C253.351,172.449 233.048,159.207 210.096,159.207 L141.241,159.207 C131.531,159.207 123.586,167.152 123.586,176.862" id="Shape" fill="#FEC24C"></path>
                    <g id="Group" transform="translate(0.000000, 159.000000)" fill="#BC8D2F">
                        <path d="M27.366,88.483 C12.359,88.483 0,100.841 0,115.848 L0,123.793 L44.138,123.793 C59.145,123.793 70.621,111.434 70.621,97.31 L70.621,88.482 L27.366,88.482 L27.366,88.483 Z" id="Shape"></path>
                        <path d="M208.331,0.207 L167.724,0.207 L167.724,62.883 C167.724,77.89 177.434,91.131 191.558,96.428 L264.827,122.911 L264.827,54.056 C264.827,36.401 255.999,19.628 240.993,8.153 C231.283,2.855 219.807,0.207 208.331,0.207" id="Shape"></path>
                    </g>
                </g>
            </g>
        </g>
    </g>
</svg>