<?xml version="1.0" encoding="iso-8859-1"?>
<!-- Generator: Adobe Illustrator 19.0.0, SVG Export Plug-In . SVG Version: 6.00 Build 0)  -->
<svg version="1.1" id="Layer_1" xmlns="http://www.w3.org/2000/svg" xmlns:xlink="http://www.w3.org/1999/xlink" x="0px" y="0px"
	 viewBox="0 0 511.999 511.999" style="enable-background:new 0 0 511.999 511.999;" xml:space="preserve">
<g>
	<path style="fill:#4ACFD9;" d="M391.862,414.375c26.623,0,48.282-21.659,48.282-48.282c0-26.623-21.659-48.282-48.282-48.282
		s-48.282,21.659-48.282,48.282C343.58,392.716,365.239,414.375,391.862,414.375z"/>
	<path style="fill:#4ACFD9;" d="M393.984,416.353c-32.806,0-59.496,26.689-59.496,59.495c0,0.057,0.001,0.115,0.002,0.17
		l0.603,28.192c0.092,4.328,3.627,7.789,7.956,7.789h102.472c4.396,0,7.959-3.562,7.959-7.959v-28.192
		C453.48,443.042,426.791,416.353,393.984,416.353z"/>
</g>
<g>
	<path style="fill:#0295AA;" d="M391.862,317.811c-26.623,0-48.282,21.659-48.282,48.282c0,26.623,21.659,48.282,48.282,48.282
		c0.712,0,1.418-0.023,2.122-0.054v-96.457C393.28,317.835,392.574,317.811,391.862,317.811z"/>
	<path style="fill:#0295AA;" d="M334.488,475.848c0,0.057,0.001,0.115,0.002,0.17l0.603,28.192c0.092,4.328,3.627,7.789,7.956,7.789
		h50.935v-95.647C361.178,416.353,334.488,443.042,334.488,475.848z"/>
</g>
<g>
	<path style="fill:#CDD4D5;" d="M255.963,414.375c26.623,0,48.282-21.659,48.282-48.282c0-26.623-21.659-48.282-48.282-48.282
		c-26.623,0-48.282,21.659-48.282,48.282C207.681,392.716,229.341,414.375,255.963,414.375z"/>
	<path style="fill:#CDD4D5;" d="M258.085,416.353c-32.806,0-59.496,26.689-59.496,59.495c0,0.057,0.001,0.115,0.002,0.17
		l0.603,28.192c0.092,4.328,3.627,7.789,7.956,7.789h102.472c4.396,0,7.959-3.562,7.959-7.959v-28.192
		C317.582,443.042,290.892,416.353,258.085,416.353z"/>
</g>
<g>
	<path style="fill:#9BAAAB;" d="M255.963,317.811c-26.623,0-48.282,21.659-48.282,48.282c0,26.623,21.659,48.282,48.282,48.282
		c0.712,0,1.418-0.023,2.122-0.054v-96.457C257.382,317.835,256.675,317.811,255.963,317.811z"/>
	<path style="fill:#9BAAAB;" d="M198.589,475.848c0,0.057,0.001,0.115,0.002,0.17l0.603,28.192c0.092,4.328,3.627,7.789,7.956,7.789
		h50.935v-95.647C225.279,416.353,198.589,443.042,198.589,475.848z"/>
</g>
<g>
	<path style="fill:#FF8C29;" d="M115.892,414.375c26.623,0,48.282-21.659,48.282-48.282c0-26.623-21.659-48.282-48.282-48.282
		s-48.282,21.659-48.282,48.282C67.611,392.716,89.271,414.375,115.892,414.375z"/>
	<path style="fill:#FF8C29;" d="M118.015,416.353c-32.806,0-59.496,26.689-59.496,59.495c0,0.057,0.001,0.115,0.002,0.17
		l0.603,28.192c0.092,4.328,3.627,7.789,7.956,7.789h102.472c4.396,0,7.959-3.562,7.959-7.959v-28.192
		C177.512,443.042,150.822,416.353,118.015,416.353z"/>
</g>
<g>
	<path style="fill:#FD6A33;" d="M115.892,317.811c-26.623,0-48.282,21.659-48.282,48.282c0,26.623,21.659,48.282,48.282,48.282
		c0.712,0,1.418-0.023,2.122-0.054v-96.457C117.311,317.835,116.604,317.811,115.892,317.811z"/>
	<path style="fill:#FD6A33;" d="M58.519,475.848c0,0.057,0.001,0.115,0.002,0.17l0.603,28.192c0.092,4.328,3.627,7.789,7.956,7.789
		h50.935v-95.647C85.209,416.353,58.519,443.042,58.519,475.848z"/>
</g>
<path style="fill:#365558;" d="M385.495,266.876H261.872v-76.933c0-4.396-3.562-7.959-7.959-7.959c-4.396,0-7.959,3.562-7.959,7.959
	v76.933H113.843c-4.396,0-7.959,3.562-7.959,7.959v21.223c0,4.396,3.562,7.959,7.959,7.959s7.959-3.562,7.959-7.959v-13.264h124.153
	v13.265c0,4.396,3.562,7.959,7.959,7.959c4.396,0,7.959-3.562,7.959-7.959v-13.264h115.664v13.264c0,4.396,3.562,7.959,7.959,7.959
	s7.959-3.562,7.959-7.959v-21.223C393.454,270.439,389.891,266.876,385.495,266.876z"/>
<g>
	<path style="fill:#4ACFD9;" d="M125.817,74.886H92.803c-4.396,0-7.959-3.562-7.959-7.959s3.562-7.959,7.959-7.959h33.014
		c4.396,0,7.959,3.562,7.959,7.959C133.776,71.323,130.214,74.886,125.817,74.886z"/>
	<path style="fill:#4ACFD9;" d="M114.026,122.908c-2.036,0-4.074-0.777-5.628-2.33c-3.108-3.109-3.108-8.147,0-11.256l21.01-21.01
		c3.109-3.107,8.147-3.107,11.256,0c3.108,3.109,3.108,8.147,0,11.256l-21.01,21.01C118.1,122.13,116.062,122.908,114.026,122.908z"
		/>
	<path style="fill:#4ACFD9;" d="M134.821,47.873c-2.036,0-4.074-0.777-5.628-2.33l-21.008-21.01c-3.108-3.109-3.108-8.147,0-11.256
		c3.109-3.107,8.147-3.107,11.256,0l21.009,21.01c3.108,3.109,3.108,8.147,0,11.256C138.895,47.096,136.857,47.873,134.821,47.873z"
		/>
	<path style="fill:#4ACFD9;" d="M423.514,74.886H390.5c-4.396,0-7.959-3.562-7.959-7.959s3.562-7.959,7.959-7.959h33.014
		c4.396,0,7.959,3.562,7.959,7.959C431.472,71.323,427.91,74.886,423.514,74.886z"/>
	<path style="fill:#4ACFD9;" d="M402.291,122.908c-2.036,0-4.074-0.777-5.628-2.33l-21.01-21.01c-3.108-3.109-3.108-8.147,0-11.256
		c3.109-3.107,8.147-3.107,11.256,0l21.01,21.01c3.108,3.109,3.108,8.147,0,11.256C406.365,122.13,404.327,122.908,402.291,122.908z
		"/>
	<path style="fill:#4ACFD9;" d="M381.495,47.873c-2.036,0-4.074-0.777-5.628-2.33c-3.108-3.109-3.108-8.147,0-11.256l21.01-21.01
		c3.109-3.107,8.147-3.107,11.255,0c3.108,3.109,3.108,8.147,0,11.256l-21.01,21.01C385.568,47.096,383.531,47.873,381.495,47.873z"
		/>
</g>
<path style="fill:#FF8C29;" d="M253.382,0c-24.801,0-48.117,9.657-65.655,27.195s-27.195,40.854-27.195,65.655
	s9.657,48.117,27.195,65.655c17.537,17.536,40.854,27.195,65.655,27.195s48.117-9.657,65.655-27.195
	c17.536-17.537,27.195-40.854,27.195-65.655s-9.657-48.117-27.195-65.655C301.501,9.657,278.184,0,253.382,0z"/>
<g>
	<path style="fill:#FFFFFF;" d="M305.752,92.318c-3.836,0-7.215-2.78-7.847-6.689c-0.396-2.446-0.997-4.871-1.789-7.205
		c-1.41-4.163,0.82-8.681,4.983-10.093c4.165-1.412,8.681,0.82,10.092,4.983c1.074,3.169,1.89,6.457,2.426,9.773
		c0.702,4.339-2.246,8.424-6.585,9.127C306.602,92.285,306.174,92.318,305.752,92.318z"/>
	<path style="fill:#FFFFFF;" d="M294.124,66.851c-2.277,0-4.538-0.972-6.113-2.858c-8.618-10.322-21.239-16.242-34.627-16.242
		c-4.396,0-7.959-3.562-7.959-7.959s3.562-7.959,7.959-7.959c18.12,0,35.195,8.003,46.845,21.957
		c2.817,3.374,2.366,8.393-1.008,11.21C297.733,66.244,295.923,66.851,294.124,66.851z"/>
</g>
<path style="fill:#F0353D;" d="M291.584,93.379h-9.02v-4.775c0-4.396-3.562-7.959-7.959-7.959s-7.959,3.562-7.959,7.959v4.775
	h-26.528v-4.775c0-4.396-3.562-7.959-7.959-7.959c-4.396,0-7.959,3.562-7.959,7.959v4.775h-9.02c-4.396,0-7.959,3.562-7.959,7.959
	s3.562,7.959,7.959,7.959h9.02v59.954c0,4.396,3.562,7.959,7.959,7.959c4.396,0,7.959-3.562,7.959-7.959v-59.954h26.528v59.954
	c0,4.396,3.562,7.959,7.959,7.959s7.959-3.562,7.959-7.959v-59.954h9.02c4.396,0,7.959-3.562,7.959-7.959
	C299.543,96.943,295.981,93.379,291.584,93.379z"/>
<path style="fill:#CDD4D5;" d="M287.34,169.781h-67.913c-4.395,0-7.959,3.563-7.959,7.959v59.424c0,4.395,3.563,7.959,7.959,7.959
	h67.913c2.198,0,4.187-0.89,5.627-2.331c1.44-1.44,2.331-3.43,2.331-5.627V177.74C295.298,173.345,291.735,169.781,287.34,169.781z"
	/>
<path style="fill:#9BAAAB;" d="M253.382,169.781v75.341h33.956c2.198,0,4.187-0.89,5.627-2.331c1.44-1.44,2.331-3.43,2.331-5.627
	V177.74c0-4.395-3.563-7.959-7.959-7.959H253.382z"/>
<rect x="211.464" y="199.494" style="fill:#687F82;" width="83.83" height="15.917"/>
<rect x="211.464" y="199.494" style="fill:#9BAAAB;" width="41.915" height="15.917"/>
<g>
</g>
<g>
</g>
<g>
</g>
<g>
</g>
<g>
</g>
<g>
</g>
<g>
</g>
<g>
</g>
<g>
</g>
<g>
</g>
<g>
</g>
<g>
</g>
<g>
</g>
<g>
</g>
<g>
</g>
</svg>
