<?xml version="1.0" encoding="UTF-8"?>
<svg width="170px" height="56px" viewBox="0 0 170 56" version="1.1" xmlns="http://www.w3.org/2000/svg" xmlns:xlink="http://www.w3.org/1999/xlink">
    <!-- Generator: Sketch 40.1 (33804) - http://www.bohemiancoding.com/sketch -->
    <title>paytm</title>
    <desc>Created with Sketch.</desc>
    <defs></defs>
    <g id="Page-1" stroke="none" stroke-width="1" fill="none" fill-rule="evenodd">
        <g id="Desktop-HD" transform="translate(-1054.000000, -457.000000)">
            <g id="paytm" transform="translate(1054.000000, 457.000000)">
                <g id="Layer_1">
                    <g id="Group">
                        <path d="M133.049587,11.9460672 C133.752066,11.382241 134.103306,11.1003279 134.454545,10.8184148 C139.336777,6.66019674 145.588843,7.11830551 149.768595,12.0517846 C150.190083,12.5451325 150.400826,12.5803716 150.822314,12.157502 C151.103306,11.8403498 151.419421,11.5936758 151.700413,11.2765236 C154.966942,8.06976218 159.28719,7.11830551 163.326446,8.91550145 C167.576446,10.8184148 169.859504,14.1661327 169.894628,18.8529379 C169.964876,28.9665699 169.929752,39.0449629 169.929752,49.158595 C169.929752,52.7529868 167.716942,55.0082916 164.169421,55.0082916 C162.764463,55.0082916 161.359504,54.9025742 159.954545,55.0435307 C158.514463,55.1844872 158.092975,54.7263785 158.092975,53.2110956 C158.163223,43.3441375 158.128099,33.4771794 158.128099,23.6102212 L158.128099,22.3768515 C158.092975,20.0863076 157.179752,19.1348509 155.002066,19.0291335 C153.035124,18.9234161 151.665289,20.1215468 151.454545,22.1301775 C151.419421,22.5882863 151.454545,23.0816342 151.454545,23.539743 L151.454545,49.0881167 C151.454545,52.8234651 149.311983,55.0082916 145.588843,54.9730524 C143.692149,54.9378133 141.128099,55.8187917 140.039256,54.5854219 C139.090909,53.5282478 139.72314,51.0262692 139.72314,49.158595 L139.72314,22.9054385 C139.72314,19.8043945 137.721074,18.2186334 135.121901,19.2758075 C133.506198,19.9453511 132.979339,21.2491991 132.979339,22.9406776 C133.014463,31.1161572 132.979339,39.2563977 132.979339,47.4318773 L132.979339,49.3700298 C132.873967,52.788226 130.696281,54.9378133 127.32438,54.9730524 C125.919421,55.0082916 124.514463,54.867335 123.109504,55.0082916 C121.599174,55.1492481 121.142562,54.7263785 121.177686,53.1053782 C121.247934,39.2563977 121.21281,25.4074172 121.21281,11.5231975 C121.21281,10.9241322 121.247934,10.360306 121.21281,9.76124072 C121.142562,8.98597972 121.458678,8.73930577 122.231405,8.73930577 C125.46281,8.77454491 128.659091,8.77454491 131.890496,8.73930577 C132.698347,8.73930577 133.084711,8.95074059 133.014463,9.83171899 C132.944215,10.4660234 133.014463,11.0298496 133.049587,11.9460672 L133.049587,11.9460672 Z" id="Shape" fill="#02B9EF"></path>
                        <path d="M58.5867769,31.045679 L58.5867769,45.4937248 C58.5516529,51.766291 55.285124,55.0082916 49.0330579,55.0435307 C46.2933884,55.0435307 43.518595,55.0787698 40.7789256,55.0435307 C35.2293388,54.9730524 31.1549587,51.2729431 30.8739669,45.7051596 C30.6632231,41.7231372 30.6280992,37.7058757 30.838843,33.7238533 C31.1198347,28.0151133 35.4752066,23.9978517 41.2355372,23.9273735 C42.7458678,23.8921343 44.2913223,23.9273735 45.8016529,23.9273735 C47.2768595,23.8921343 47.838843,23.0463951 47.803719,21.6368296 C47.803719,20.2272642 47.1714876,19.5929597 45.7665289,19.663438 C44.1859504,19.6986771 42.6053719,19.6986771 41.0247934,19.663438 C37.161157,19.5929597 35.018595,17.4786115 35.053719,13.6727848 C35.053719,12.1222628 34.3512397,10.0431538 35.3698347,9.12693627 C36.2479339,8.35167527 38.25,8.84502318 39.7603306,8.84502318 C43.6942149,8.80978404 47.5929752,8.84502318 51.5268595,8.84502318 C55.7066116,8.84502318 58.5516529,11.6993932 58.5867769,15.9280895 C58.6219008,20.9320469 58.5867769,26.0064825 58.5867769,31.045679 L58.5867769,31.045679 Z M47.838843,39.0449629 L47.838843,37.2830061 C47.838843,33.6886142 47.838843,33.6886142 44.2561983,33.8295707 C42.464876,33.900049 41.481405,34.8162665 41.446281,36.6839408 C41.411157,38.1639845 41.411157,39.6087891 41.446281,41.0888328 C41.481405,43.6260506 42.6053719,44.2955942 46.2582645,44.4013116 C48.9628099,44.4717898 47.5929752,42.5688765 47.838843,41.5117024 C47.9793388,40.7364414 47.803719,39.855463 47.838843,39.0449629 L47.838843,39.0449629 Z" id="Shape" fill="#06306F"></path>
                        <path d="M89.8471074,27.2046131 C89.8471074,32.596201 89.9173554,38.0230279 89.8119835,43.4146158 C89.7417355,47.5728338 88.7582645,51.3434214 84.7541322,53.563487 C83.1384298,54.4444654 81.3822314,54.9378133 79.5557851,54.9730524 C75.5165289,55.0435307 71.4772727,54.9730524 67.4380165,55.0435307 C66.4545455,55.0435307 66.2438017,54.6911393 66.2789256,53.8101609 C66.3491736,52.3301172 66.2438017,50.8853126 66.3140496,49.4052689 C66.3842975,46.586138 68.5268595,44.4365507 71.3367769,44.3308333 C73.1632231,44.260355 74.9545455,44.2955942 76.7809917,44.3308333 C78.2561983,44.3308333 79.0640496,43.731768 79.0640496,42.1460069 C79.0640496,40.5250066 78.2913223,39.9611804 76.8161157,39.9259413 C74.357438,39.855463 71.8987603,40.2078544 69.4752066,39.5030716 C65.2954545,38.2697019 62.2396694,34.7810274 62.1342975,30.4466137 C61.9235537,23.5749821 62.0640496,16.7033505 62.0289256,9.83171899 C62.0289256,9.056458 62.2747934,8.80978404 63.0475207,8.84502318 C65.927686,8.88026231 68.7727273,8.91550145 71.6528926,8.84502318 C72.9173554,8.80978404 72.7417355,9.51456677 72.7417355,10.2898278 L72.7417355,25.7950477 C72.7417355,28.0503524 73.7954545,29.248483 75.7623967,29.3189613 C78.0805785,29.3894396 79.0991736,28.4379829 79.0991736,26.0769608 C79.0991736,20.8615686 79.1342975,15.6109373 79.0640496,10.3955452 C79.0640496,9.1621754 79.3801653,8.80978404 80.6095041,8.84502318 C83.1735537,8.95074059 85.7727273,8.98597972 88.3367769,8.84502318 C89.7417355,8.77454491 89.9524793,9.30313195 89.9173554,10.5365017 C89.8119835,16.0690461 89.8471074,21.6368296 89.8471074,27.2046131 L89.8471074,27.2046131 Z" id="Shape" fill="#06306F"></path>
                        <path d="M0.351239669,35.203897 L0.351239669,17.9367203 C0.351239669,12.2984585 3.79338843,8.77454491 9.44834711,8.84502318 C13.1363636,8.88026231 16.8243802,8.42215354 20.4772727,9.12693627 C25.1487603,10.0431538 28.0991736,13.6727848 28.1342975,18.5005465 C28.1694215,23.6102212 28.1342975,28.719896 28.1342975,33.8295707 C28.1342975,40.2430935 24.3760331,44.1546376 17.9834711,44.3308333 C16.0516529,44.4013116 14.1198347,44.3660724 12.1880165,44.3308333 C11.3099174,44.2955942 10.9235537,44.5775073 10.9586777,45.5289639 C11.0289256,46.9385294 10.9938017,48.3480948 10.9586777,49.7576603 C10.8884298,52.788226 8.74586777,54.9730524 5.76033058,55.0082916 C4.00413223,55.0435307 1.79132231,55.7483134 0.667355372,54.7263785 C-0.386363636,53.7749218 0.386363636,51.5196171 0.351239669,49.8281385 C0.316115702,44.9651378 0.351239669,40.0668978 0.351239669,35.203897 L0.351239669,35.203897 Z M10.9586777,26.5703087 L10.9586777,29.9180266 C10.9586777,33.900049 10.9586777,33.900049 14.927686,33.5476576 C16.6487603,33.4067011 17.4566116,32.5609618 17.4917355,30.8342441 C17.5268595,28.8608525 17.4214876,26.8522218 17.5268595,24.8788301 C17.7376033,19.1700901 16.6838843,19.7339163 12.0475207,19.6986771 C11.2045455,19.6986771 10.9235537,19.9453511 10.9235537,20.7910903 C10.9938017,22.6940037 10.9586777,24.6321562 10.9586777,26.5703087 L10.9586777,26.5703087 Z" id="Shape" fill="#06306F"></path>
                        <path d="M99.7871901,35.2743753 C99.7871901,30.5875702 99.7520661,25.8655259 99.822314,21.1787208 C99.822314,20.0863076 99.5764463,19.6281988 98.3822314,19.663438 C96.8016529,19.7339163 94.6942149,20.192025 93.8161157,19.416764 C92.7272727,18.3948291 93.5702479,16.2100026 93.4297521,14.5185241 L93.4297521,14.1661327 C93.4297521,12.5098933 92.9028926,10.5717409 93.6053719,9.33837109 C94.3078512,8.10500132 96.4504132,8.88026231 97.9607438,8.49263182 C100.946281,7.71737082 103.194215,5.99065315 105.020661,3.59439189 C106.285124,1.97339163 107.865702,0.810500132 109.902893,0.422869634 C110.991736,0.211434817 111.659091,0.352391362 111.588843,1.76195681 C111.483471,3.73534843 111.588843,5.7439792 111.553719,7.75260996 C111.518595,8.59834923 111.834711,8.88026231 112.677686,8.84502318 C114.082645,8.80978404 115.487603,8.88026231 116.892562,8.80978404 C117.735537,8.77454491 118.016529,9.09169713 117.981405,9.9374364 C117.946281,12.8270456 117.946281,15.6814156 117.981405,18.5710248 C117.981405,19.3815249 117.770661,19.8043945 116.892562,19.6986771 C116.716942,19.663438 116.541322,19.6986771 116.365702,19.6986771 C114.820248,19.8396337 112.677686,18.9938944 111.869835,20.0510685 C111.097107,21.0377643 111.588843,23.0816342 111.588843,24.6673953 C111.588843,34.2524404 111.553719,43.8022463 111.623967,53.3872913 C111.623967,54.7263785 111.272727,55.1492481 109.938017,55.0435307 C108.673554,54.9378133 107.373967,55.0435307 106.07438,55.0082916 C102.280992,54.867335 99.7871901,52.2948781 99.7871901,48.4890514 C99.7871901,44.0841593 99.7871901,39.6792673 99.7871901,35.2743753 L99.7871901,35.2743753 Z" id="Shape" fill="#02B9EF"></path>
                    </g>
                </g>
            </g>
        </g>
    </g>
</svg>