<?xml version="1.0" encoding="UTF-8"?>
<svg width="282px" height="71px" viewBox="0 0 282 71" version="1.1" xmlns="http://www.w3.org/2000/svg" xmlns:xlink="http://www.w3.org/1999/xlink">
    <!-- Generator: Sketch 40.1 (33804) - http://www.bohemiancoding.com/sketch -->
    <title>Group 6</title>
    <desc>Created with Sketch.</desc>
    <defs>
        <path d="M33.3506581,66.7919887 C51.769718,66.7919887 66.7013162,51.8400928 66.7013162,33.3959944 C66.7013162,14.951896 51.769718,0 33.3506581,0 C14.9315982,0 0,14.951896 0,33.3959944 C0,51.8400928 14.9315982,66.7919887 33.3506581,66.7919887 Z" id="path-1"></path>
        <filter x="-50%" y="-50%" width="200%" height="200%" filterUnits="objectBoundingBox" id="filter-2">
            <feOffset dx="0" dy="1" in="SourceAlpha" result="shadowOffsetOuter1"></feOffset>
            <feGaussianBlur stdDeviation="1" in="shadowOffsetOuter1" result="shadowBlurOuter1"></feGaussianBlur>
            <feColorMatrix values="0 0 0 0 0   0 0 0 0 0   0 0 0 0 0  0 0 0 0.124377264 0" type="matrix" in="shadowBlurOuter1"></feColorMatrix>
        </filter>
    </defs>
    <g id="Page-1" stroke="none" stroke-width="1" fill="none" fill-rule="evenodd">
        <g id="Desktop-HD" transform="translate(-133.000000, -444.000000)">
            <g id="Group-6" transform="translate(135.000000, 445.000000)">
                <g id="Group-3" transform="translate(87.000000, 9.000000)" fill="#001B24">
                    <g id="Group-5">
                        <g id="Group-4">
                            <g id="Group-2">
                                <g id="Main-Logo-Unit">
                                    <g id="Group-Copy">
                                        <path d="M18.5376567,11.956134 C20.1312441,12.6485776 21.537908,13.5982004 22.757691,14.8050307 C23.9774739,16.0118612 24.9316446,17.4165114 25.6202318,19.019024 C26.3088189,20.6215364 26.6531073,22.3526195 26.6531073,24.2123254 C26.6531073,26.032463 26.3088189,27.7536542 25.6202318,29.3759508 C24.9316446,30.9982474 23.9774739,32.4226815 22.757691,33.6492959 C21.537908,34.8759105 20.1312441,35.8354251 18.5376567,36.5278687 C16.9440693,37.2203124 15.2226273,37.566529 13.373279,37.566529 L5.40538198,37.566529 L5.40538198,51.5472262 L0.152472103,51.5472262 L0.152472103,24.2123254 C0.152472103,22.3526195 0.496760505,20.6215364 1.18534764,19.019024 C1.87393478,17.4165114 2.81826867,16.0118612 4.01837769,14.8050307 C5.21848669,13.5982004 6.62515073,12.6485776 8.23841203,11.956134 C9.8516733,11.2636903 11.5632785,10.9174737 13.373279,10.9174737 C15.2226273,10.9174737 16.9440693,11.2636903 18.5376567,11.956134 L18.5376567,11.956134 Z M13.373279,32.2841996 C14.4750184,32.2841996 15.5177204,32.0764696 16.5014163,31.6610034 C17.4851122,31.2455372 18.3409148,30.6718068 19.0688498,29.9397949 C19.7967848,29.2077831 20.3673198,28.3471875 20.7804721,27.3579822 C21.1936244,26.368777 21.4001974,25.3202352 21.4001974,24.2123254 C21.4001974,23.1044155 21.1936244,22.0657656 20.7804721,21.0963445 C20.3673198,20.1269234 19.7967848,19.2762196 19.0688498,18.5442078 C18.3409148,17.8121959 17.4851122,17.2384655 16.5014163,16.8229993 C15.5177204,16.4075331 14.4750184,16.1998032 13.373279,16.1998032 C12.2715396,16.1998032 11.2386744,16.4075331 10.2746524,16.8229993 C9.31063034,17.2384655 8.46466458,17.8121959 7.73672961,18.5442078 C7.00879464,19.2762196 6.43825958,20.1269234 6.0251073,21.0963445 C5.61195501,22.0657656 5.40538198,23.1044155 5.40538198,24.2123254 L5.40538198,32.2841996 L13.373279,32.2841996 L13.373279,32.2841996 Z M28.4237511,0.115406698 L33.676661,0.115406698 L33.676661,37.447825 L28.4237511,37.447825 L28.4237511,0.115406698 L28.4237511,0.115406698 Z M35.6833905,10.7987696 L40.877279,10.7987696 L40.877279,37.447825 L35.6833905,37.447825 L35.6833905,10.7987696 L35.6833905,10.7987696 Z M42.5889013,24.1529733 C42.5889013,22.2932675 42.9331897,20.5621844 43.6217769,18.9596719 C44.3103639,17.3571594 45.2546978,15.9525091 46.4548068,14.7456787 C47.6549158,13.5388484 49.0615799,12.5892256 50.6748412,11.896782 C52.2881025,11.2043383 53.9997077,10.8581217 55.8097082,10.8581217 C57.6590565,10.8581217 59.3804984,11.2043383 60.9740858,11.896782 C62.5676732,12.5892256 63.9743373,13.5388484 65.1941202,14.7456787 C66.4139031,15.9525091 67.3680738,17.3571594 68.056661,18.9596719 C68.7452481,20.5621844 69.0895365,22.2932675 69.0895365,24.1529733 L69.0895365,37.507177 L63.8366266,37.507177 L63.8366266,24.1529733 C63.8366266,23.0450635 63.6300536,22.0064136 63.2169013,21.0369925 C62.803749,20.0675714 62.2332139,19.2168676 61.505279,18.4848558 C60.777344,17.7528439 59.9215414,17.1791135 58.9378455,16.7636473 C57.9541496,16.3481811 56.9114476,16.1404512 55.8097082,16.1404512 C54.7079687,16.1404512 53.6751035,16.3481811 52.7110815,16.7636473 C51.7470596,17.1791135 50.9010937,17.7528439 50.1731588,18.4848558 C49.4452238,19.2168676 48.8746888,20.0675714 48.4615365,21.0369925 C48.0483842,22.0064136 47.8418111,23.0450635 47.8418111,24.1529733 L47.8418111,37.507177 L42.5889013,37.507177 L42.5889013,24.1529733 L42.5889013,24.1529733 Z M86.736953,32.1654955 L86.736953,37.447825 L84.1400082,37.447825 C82.3300084,37.447825 80.6184026,37.1016084 79.0051416,36.4091647 C77.3918803,35.7167211 75.9753795,34.7572064 74.7555965,33.5305919 C73.5358136,32.3039774 72.5816429,30.8795433 71.8930558,29.2572468 C71.2044687,27.6349502 70.8601802,25.9137589 70.8601802,24.0936213 L70.8601802,0.115406698 L76.1130901,0.115406698 L76.1130901,16.1404512 L86.736953,16.1404512 L86.736953,21.4227806 L76.1130901,21.4227806 L76.1130901,24.0936213 C76.1130901,25.2015311 76.3196631,26.250073 76.7328155,27.2392782 C77.1459677,28.2284834 77.7165028,29.0890791 78.4444378,29.8210909 C79.1723727,30.5531028 80.0281753,31.1268332 81.0118715,31.5422994 C81.9955674,31.9577656 83.0382695,32.1654955 84.1400082,32.1654955 L86.736953,32.1654955 L86.736953,32.1654955 Z M101.905468,10.7987696 C103.754816,10.7987696 105.476258,11.1449863 107.069845,11.83743 C108.663433,12.5298736 110.070097,13.4794963 111.28988,14.6863267 C112.509663,15.8931571 113.463834,17.2978074 114.152421,18.9003199 C114.841007,20.5028324 115.185297,22.2339155 115.185297,24.0936213 L115.185297,37.447825 L109.932386,37.447825 L109.932386,24.0936213 C109.932386,22.9857115 109.725813,21.9470616 109.312661,20.9776405 C108.899508,20.0082193 108.328974,19.1575156 107.601039,18.4255038 C106.873104,17.6934919 106.017301,17.1197615 105.033605,16.7042953 C104.049909,16.2888291 103.007207,16.0810991 101.905468,16.0810991 C100.803728,16.0810991 99.7708632,16.2888291 98.806841,16.7042953 C97.8428189,17.1197615 96.9968533,17.6934919 96.2689185,18.4255038 C95.5409836,19.1575156 94.9704481,20.0082193 94.5572965,20.9776405 C94.1441442,21.9470616 93.9375708,22.9857115 93.9375708,24.0936213 L93.9375708,37.447825 L88.6846606,37.447825 L88.6846606,0.115406698 L93.9375708,0.115406698 L93.9375708,13.5289624 C95.0393104,12.6584618 96.268912,11.9858124 97.6264119,11.5109939 C98.9839125,11.0361754 100.41025,10.7987696 101.905468,10.7987696 L101.905468,10.7987696 L101.905468,10.7987696 Z" id="plinth"></path>
                                    </g>
                                    <text id="2017" font-family="HelveticaNeue, Helvetica Neue" font-size="29.5" font-weight="normal">
                                        <tspan x="126.5" y="37.0676692">2017</tspan>
                                    </text>
                                    <path d="M10.6321674,41.8859764 L10.6321674,51.5192195 L10.0659404,51.5192195 L10.0659404,41.8859764 L7.5,41.8859764 L7.5,41.3082707 L13.1981078,41.3082707 L13.1981078,41.8859764 L10.6321674,41.8859764 Z M13.9363532,47.287525 L19.3979358,47.287525 C19.2641431,46.8494293 19.0371767,46.4691102 18.7170298,46.1465562 C18.1531891,45.578476 17.474679,45.2944402 16.6814794,45.2944402 C15.8882797,45.2944402 15.2097696,45.578476 14.6459289,46.1465562 C14.3114471,46.4883671 14.0749242,46.8686863 13.9363532,47.287525 L13.9363532,47.287525 Z M13.8288417,47.8724521 C13.8145068,47.9735511 13.8073394,48.0818698 13.8073394,48.1974115 C13.8073394,48.9965751 14.088061,49.6777797 14.6495126,50.2410456 C15.2109642,50.8043115 15.8882797,51.0859402 16.6814794,51.0859402 C17.474679,51.0859402 18.1531891,50.8019044 18.7170298,50.2338242 C18.812596,50.1375395 18.9033826,50.036442 18.9893922,49.9305287 L19.5986239,50.1471684 C19.5269492,50.2675243 19.3764346,50.4408343 19.1470757,50.6671035 C18.4685555,51.3555396 17.6466983,51.6997525 16.6814794,51.6997525 C15.7258171,51.6997525 14.9075435,51.3567432 14.2266342,50.6707142 C13.5457248,49.9846852 13.2052752,49.1602592 13.2052752,48.1974115 C13.2052752,47.2249354 13.5457248,46.3968988 14.2266342,45.7132769 C14.9075435,45.029655 15.7258171,44.6878492 16.6814794,44.6878492 C17.6466983,44.6878492 18.4685555,45.029655 19.1470757,45.7132769 C19.7443646,46.3198709 20.0430046,47.0395888 20.0430046,47.8724521 L13.8288417,47.8724521 Z M26.3861812,50.0099633 L26.9882454,50.2338242 C26.8783443,50.3830656 26.75411,50.5274906 26.615539,50.6671035 C25.9370188,51.3555396 25.1151616,51.6997525 24.1499427,51.6997525 C23.1942804,51.6997525 22.3760068,51.3567432 21.6950975,50.6707142 C21.0141881,49.9846852 20.6737385,49.1578522 20.6737385,48.1901902 C20.6737385,47.2225283 21.0141881,46.3968988 21.6950975,45.7132769 C22.3760068,45.029655 23.1942804,44.6878492 24.1499427,44.6878492 C25.1151616,44.6878492 25.9370188,45.029655 26.615539,45.7132769 C26.75411,45.8528898 26.8783443,45.9973148 26.9882454,46.1465562 L26.3861812,46.3704172 C26.3240631,46.2933893 26.2571678,46.2163627 26.1854931,46.1393349 C25.6216524,45.576069 24.9431423,45.2944402 24.1499427,45.2944402 C23.3615213,45.2944402 22.6865949,45.5772725 22.1251433,46.1429455 C21.5636918,46.7086185 21.2829702,47.3910266 21.2829702,48.1901902 C21.2829702,48.9893538 21.5636918,49.6717619 22.1251433,50.2374349 C22.6865949,50.8031079 23.3615213,51.0859402 24.1499427,51.0859402 C24.9431423,51.0859402 25.6216524,50.8019044 26.1854931,50.2338242 C26.2571678,50.1616107 26.3240631,50.0869911 26.3861812,50.0099633 L26.3861812,50.0099633 Z M28.0346904,41.3082707 L28.6080849,41.3082707 L28.6080849,45.5760718 C29.085916,45.1090906 29.664083,44.8756036 30.3426032,44.8756036 C31.0736848,44.8756036 31.6697702,45.1078871 32.1308773,45.5724611 C32.5919843,46.0370351 32.8297018,46.6207528 32.8440367,47.3236316 L32.8440367,51.5192195 L32.2706422,51.5192195 L32.2706422,47.3814022 C32.2706422,46.8470217 32.0795126,46.392083 31.6972477,46.0165724 C31.3149828,45.6410618 30.8634391,45.4533093 30.3426032,45.4533093 C29.816989,45.4533093 29.3654453,45.6386547 28.9879587,46.0093511 C28.8159395,46.1778494 28.6893162,46.3535665 28.6080849,46.5365076 L28.6080849,51.5192195 L28.0346904,51.5192195 L28.0346904,41.3082707 Z M34.8007454,46.6520487 L34.8007454,51.5192195 L34.2273509,51.5192195 L34.2273509,45.2511123 L34.8007454,45.2511123 L34.8007454,45.6555063 C35.316803,45.1355686 35.9188612,44.8756036 36.6069381,44.8756036 C37.342798,44.8756036 37.9412725,45.1078871 38.4023796,45.5724611 C38.8634866,46.0370351 39.0988149,46.6207528 39.1083716,47.3236316 L39.1083716,51.5192195 L38.5421445,51.5192195 L38.5421445,47.3814022 C38.5421445,46.8470217 38.3510149,46.392083 37.96875,46.0165724 C37.5864851,45.6410618 37.1325523,45.4533093 36.6069381,45.4533093 C36.0861021,45.4533093 35.6345585,45.6386547 35.2522936,46.0093511 C35.0468262,46.2163633 34.8963116,46.4305937 34.8007454,46.6520487 L34.8007454,46.6520487 Z M43.8102064,44.6878492 C44.7754253,44.6878492 45.596088,45.029655 46.272219,45.7132769 C46.9483501,46.3968988 47.2864106,47.2249354 47.2864106,48.1974115 C47.2864106,49.1602592 46.9483501,49.9846852 46.272219,50.6707142 C45.596088,51.3567432 44.7754253,51.6997525 43.8102064,51.6997525 C42.8545442,51.6997525 42.0362706,51.3567432 41.3553612,50.6707142 C40.6744519,49.9846852 40.3340023,49.1602592 40.3340023,48.1974115 C40.3340023,47.2249354 40.6744519,46.3968988 41.3553612,45.7132769 C42.0362706,45.029655 42.8545442,44.6878492 43.8102064,44.6878492 L43.8102064,44.6878492 Z M41.7782397,46.1465562 C41.2167881,46.7146363 40.9360665,47.3982479 40.9360665,48.1974115 C40.9360665,48.9965751 41.2167881,49.6777797 41.7782397,50.2410456 C42.3396913,50.8043115 43.0170067,51.0859402 43.8102064,51.0859402 C44.6034061,51.0859402 45.2807216,50.8043115 45.8421732,50.2410456 C46.4036247,49.6777797 46.6843463,48.9965751 46.6843463,48.1974115 C46.6843463,47.3982479 46.4036247,46.7146363 45.8421732,46.1465562 C45.2807216,45.578476 44.6034061,45.2944402 43.8102064,45.2944402 C43.0170067,45.2944402 42.3396913,45.578476 41.7782397,46.1465562 L41.7782397,46.1465562 Z M48.1465023,47.4536154 L51.7302179,47.4536154 L51.7302179,48.0313211 L48.1465023,48.0313211 L48.1465023,47.4536154 Z M61.7431193,41.3082707 L61.7431193,51.5192195 L61.1697248,51.5192195 L61.1697248,41.9293043 L57.2491399,47.106992 L53.3213876,41.9293043 L53.3213876,51.5192195 L52.7479931,51.5192195 L52.7479931,41.3082707 L53.5794151,41.3082707 L57.2491399,46.1465562 L60.9116972,41.3082707 L61.7431193,41.3082707 Z M69.8136468,51.5192195 L69.2402523,51.5192195 L69.2402523,50.2410456 C69.1303511,50.390287 69.0108951,50.5323049 68.8818807,50.6671035 C68.2033605,51.3555396 67.3815033,51.6997525 66.4162844,51.6997525 C65.4606221,51.6997525 64.6423486,51.3567432 63.9614392,50.6707142 C63.2805299,49.9846852 62.9400803,49.1602592 62.9400803,48.1974115 C62.9400803,47.2249354 63.2805299,46.3968988 63.9614392,45.7132769 C64.6423486,45.029655 65.4606221,44.6878492 66.4162844,44.6878492 C67.3815033,44.6878492 68.2033605,45.029655 68.8818807,45.7132769 C69.0108951,45.8480756 69.1303511,45.9900935 69.2402523,46.1393349 L69.2402523,45.2511123 L69.8136468,45.2511123 L69.8136468,51.5192195 Z M69.2402523,48.7606746 L69.2402523,47.6269271 C69.1351294,47.0636612 68.8723263,46.5702092 68.4518349,46.1465562 C67.8879941,45.578476 67.2094841,45.2944402 66.4162844,45.2944402 C65.6230847,45.2944402 64.9457692,45.578476 64.3843177,46.1465562 C63.8228661,46.7146363 63.5421445,47.3982479 63.5421445,48.1974115 C63.5421445,48.9965751 63.8228661,49.6777797 64.3843177,50.2410456 C64.9457692,50.8043115 65.6230847,51.0859402 66.4162844,51.0859402 C67.2094841,51.0859402 67.8879941,50.8019044 68.4518349,50.2338242 C68.8723263,49.8101713 69.1351294,49.3191263 69.2402523,48.7606746 L69.2402523,48.7606746 Z M71.7345183,46.6520487 L71.7345183,51.5192195 L71.1611239,51.5192195 L71.1611239,45.2511123 L71.7345183,45.2511123 L71.7345183,45.6555063 C72.250576,45.1355686 72.8526342,44.8756036 73.540711,44.8756036 C74.276571,44.8756036 74.8750455,45.1078871 75.3361525,45.5724611 C75.7972596,46.0370351 76.0325879,46.6207528 76.0421445,47.3236316 L76.0421445,51.5192195 L75.4759174,51.5192195 L75.4759174,47.3814022 C75.4759174,46.8470217 75.2847878,46.392083 74.9025229,46.0165724 C74.520258,45.6410618 74.0663253,45.4533093 73.540711,45.4533093 C73.0198751,45.4533093 72.5683314,45.6386547 72.1860665,46.0093511 C71.9805991,46.2163633 71.8300846,46.4305937 71.7345183,46.6520487 L71.7345183,46.6520487 Z M84.1556766,51.5192195 L83.5822821,51.5192195 L83.5822821,50.2410456 C83.4723809,50.390287 83.352925,50.5323049 83.2239106,50.6671035 C82.5453903,51.3555396 81.7235331,51.6997525 80.7583142,51.6997525 C79.8026519,51.6997525 78.9843784,51.3567432 78.303469,50.6707142 C77.6225597,49.9846852 77.2821101,49.1602592 77.2821101,48.1974115 C77.2821101,47.2249354 77.6225597,46.3968988 78.303469,45.7132769 C78.9843784,45.029655 79.8026519,44.6878492 80.7583142,44.6878492 C81.7235331,44.6878492 82.5453903,45.029655 83.2239106,45.7132769 C83.352925,45.8480756 83.4723809,45.9900935 83.5822821,46.1393349 L83.5822821,45.2511123 L84.1556766,45.2511123 L84.1556766,51.5192195 Z M83.5822821,48.7606746 L83.5822821,47.6269271 C83.4771593,47.0636612 83.2143561,46.5702092 82.7938647,46.1465562 C82.2300239,45.578476 81.5515139,45.2944402 80.7583142,45.2944402 C79.9651145,45.2944402 79.2877991,45.578476 78.7263475,46.1465562 C78.1648959,46.7146363 77.8841743,47.3982479 77.8841743,48.1974115 C77.8841743,48.9965751 78.1648959,49.6777797 78.7263475,50.2410456 C79.2877991,50.8043115 79.9651145,51.0859402 80.7583142,51.0859402 C81.5515139,51.0859402 82.2300239,50.8019044 82.7938647,50.2338242 C83.2143561,49.8101713 83.4771593,49.3191263 83.5822821,48.7606746 L83.5822821,48.7606746 Z M91.459289,47.5980418 C91.3493878,47.0492186 91.0889738,46.5653949 90.678039,46.1465562 C90.1141983,45.578476 89.4356882,45.2944402 88.6424885,45.2944402 C87.8492888,45.2944402 87.1719734,45.578476 86.6105218,46.1465562 C86.0490702,46.7146363 85.7683486,47.3982479 85.7683486,48.1974115 C85.7683486,48.9965751 86.0490702,49.6789832 86.6105218,50.2446562 C87.1719734,50.8103292 87.8492888,51.0931615 88.6424885,51.0931615 C89.4356882,51.0931615 90.1141983,50.8091257 90.678039,50.2410456 C91.0841955,49.8318353 91.3446095,49.3528257 91.459289,48.8040026 L91.459289,47.5980418 Z M91.4521216,50.2771522 C91.3422204,50.4119508 91.2275426,50.5419333 91.1080849,50.6671035 C90.4295647,51.3555396 89.6077074,51.6997525 88.6424885,51.6997525 C87.6868263,51.6997525 86.8685527,51.3567432 86.1876433,50.6707142 C85.506734,49.9846852 85.1662844,49.1602592 85.1662844,48.1974115 C85.1662844,47.2249354 85.506734,46.3981023 86.1876433,45.7168875 C86.8685527,45.0356728 87.6868263,44.6950705 88.6424885,44.6950705 C89.6077074,44.6950705 90.4295647,45.0344693 91.1080849,45.7132769 C91.2370993,45.8480756 91.3565553,45.9900935 91.4664564,46.1393349 L91.4664564,45.2511123 L92.0398509,45.2511123 L92.0398509,50.1182831 C92.0398509,51.0618738 91.7077633,51.8658396 91.043578,52.5302045 C90.3650578,53.2186406 89.5455897,53.5628535 88.5851491,53.5628535 C87.6247085,53.5628535 86.8028513,53.2186406 86.1195528,52.5302045 C85.9809817,52.3905916 85.8567475,52.2461666 85.7468463,52.0969252 L86.3489106,51.8730643 C86.4110286,51.9500921 86.4803131,52.0247116 86.5567661,52.0969252 C87.1158285,52.6650054 87.7919494,52.9490412 88.5851491,52.9490412 C89.3735705,52.9490412 90.0496914,52.6650054 90.6135321,52.0969252 C91.1248114,51.5818017 91.4043384,50.9752168 91.4521216,50.2771522 L91.4521216,50.2771522 Z M93.6596904,47.287525 L99.1212729,47.287525 C98.9874802,46.8494293 98.7605138,46.4691102 98.440367,46.1465562 C97.8765262,45.578476 97.1980162,45.2944402 96.4048165,45.2944402 C95.6116168,45.2944402 94.9331068,45.578476 94.3692661,46.1465562 C94.0347843,46.4883671 93.7982614,46.8686863 93.6596904,47.287525 L93.6596904,47.287525 Z M93.5521789,47.8724521 C93.537844,47.9735511 93.5306766,48.0818698 93.5306766,48.1974115 C93.5306766,48.9965751 93.8113982,49.6777797 94.3728498,50.2410456 C94.9343014,50.8043115 95.6116168,51.0859402 96.4048165,51.0859402 C97.1980162,51.0859402 97.8765262,50.8019044 98.440367,50.2338242 C98.5359332,50.1375395 98.6267198,50.036442 98.7127294,49.9305287 L99.321961,50.1471684 C99.2502863,50.2675243 99.0997718,50.4408343 98.8704128,50.6671035 C98.1918926,51.3555396 97.3700354,51.6997525 96.4048165,51.6997525 C95.4491542,51.6997525 94.6308807,51.3567432 93.9499713,50.6707142 C93.269062,49.9846852 92.9286124,49.1602592 92.9286124,48.1974115 C92.9286124,47.2249354 93.269062,46.3968988 93.9499713,45.7132769 C94.6308807,45.029655 95.4491542,44.6878492 96.4048165,44.6878492 C97.3700354,44.6878492 98.1918926,45.029655 98.8704128,45.7132769 C99.4677018,46.3198709 99.7663417,47.0395888 99.7663417,47.8724521 L93.5521789,47.8724521 Z M100.733945,45.2511123 L101.307339,45.2511123 L101.307339,45.4027601 C101.660934,45.0561349 102.083809,44.8828249 102.575975,44.8828249 C103.087254,44.8828249 103.522074,45.0633561 103.880447,45.424424 C103.976013,45.5207088 104.059633,45.6266204 104.131307,45.7421622 C104.20776,45.6314347 104.296158,45.525523 104.396502,45.424424 C104.754876,45.0633561 105.189695,44.8828249 105.700975,44.8828249 C106.212254,44.8828249 106.647074,45.0633561 107.005447,45.424424 C107.344707,45.7758634 107.523891,46.1946959 107.543005,46.680934 L107.543005,51.5192195 L106.96961,51.5192195 L106.96961,46.680934 L106.976778,46.680934 C106.962443,46.3487515 106.838208,46.0671228 106.604071,45.8360394 C106.350821,45.585699 106.049791,45.4605306 105.700975,45.4605306 C105.34738,45.4605306 105.045156,45.585699 104.794295,45.8360394 C104.543433,46.0863798 104.418005,46.3993006 104.418005,46.7748112 L104.418005,51.5192195 L103.851778,51.5192195 L103.851778,46.680934 L103.858945,46.680934 C103.839832,46.3487515 103.713208,46.0671228 103.479071,45.8360394 C103.225821,45.585699 102.924791,45.4605306 102.575975,45.4605306 C102.227158,45.4605306 101.928518,45.585699 101.680046,45.8360394 C101.460244,46.0526801 101.336009,46.3174592 101.307339,46.6303847 L101.307339,51.5192195 L100.733945,51.5192195 L100.733945,45.2511123 Z M109.356365,47.287525 L114.817947,47.287525 C114.684155,46.8494293 114.457188,46.4691102 114.137041,46.1465562 C113.573201,45.578476 112.894691,45.2944402 112.101491,45.2944402 C111.308291,45.2944402 110.629781,45.578476 110.06594,46.1465562 C109.731459,46.4883671 109.494936,46.8686863 109.356365,47.287525 L109.356365,47.287525 Z M109.248853,47.8724521 C109.234518,47.9735511 109.227351,48.0818698 109.227351,48.1974115 C109.227351,48.9965751 109.508072,49.6777797 110.069524,50.2410456 C110.630976,50.8043115 111.308291,51.0859402 112.101491,51.0859402 C112.894691,51.0859402 113.573201,50.8019044 114.137041,50.2338242 C114.232608,50.1375395 114.323394,50.036442 114.409404,49.9305287 L115.018635,50.1471684 C114.946961,50.2675243 114.796446,50.4408343 114.567087,50.6671035 C113.888567,51.3555396 113.06671,51.6997525 112.101491,51.6997525 C111.145829,51.6997525 110.327555,51.3567432 109.646646,50.6707142 C108.965736,49.9846852 108.625287,49.1602592 108.625287,48.1974115 C108.625287,47.2249354 108.965736,46.3968988 109.646646,45.7132769 C110.327555,45.029655 111.145829,44.6878492 112.101491,44.6878492 C113.06671,44.6878492 113.888567,45.029655 114.567087,45.7132769 C115.164376,46.3198709 115.463016,47.0395888 115.463016,47.8724521 L109.248853,47.8724521 Z M117.004014,46.6520487 L117.004014,51.5192195 L116.430619,51.5192195 L116.430619,45.2511123 L117.004014,45.2511123 L117.004014,45.6555063 C117.520071,45.1355686 118.12213,44.8756036 118.810206,44.8756036 C119.546066,44.8756036 120.144541,45.1078871 120.605648,45.5724611 C121.066755,46.0370351 121.302083,46.6207528 121.31164,47.3236316 L121.31164,51.5192195 L120.745413,51.5192195 L120.745413,47.3814022 C120.745413,46.8470217 120.554283,46.392083 120.172018,46.0165724 C119.789753,45.6410618 119.335821,45.4533093 118.810206,45.4533093 C118.28937,45.4533093 117.837827,45.6386547 117.455562,46.0093511 C117.250095,46.2163633 117.09958,46.4305937 117.004014,46.6520487 L117.004014,46.6520487 Z M123.519209,45.2511123 L123.519209,42.5864446 L124.085436,42.5864446 L124.085436,45.2511123 L125.354071,45.2511123 L125.354071,45.828818 L124.085436,45.828818 L124.085436,51.5192195 L123.519209,51.5192195 L123.519209,45.828818 L122.250573,45.828818 L122.250573,45.2511123 L123.519209,45.2511123 Z M130.027236,51.5192195 L130.027236,41.3082707 L130.600631,41.3082707 L130.600631,50.9415138 L134.463876,50.9415138 L134.463876,51.5192195 L130.027236,51.5192195 Z M136.255734,45.2511123 L136.255734,51.5192195 L135.689507,51.5192195 L135.689507,45.2511123 L136.255734,45.2511123 Z M136.373997,43.2002569 C136.486287,43.3109844 136.542431,43.443374 136.542431,43.5974296 C136.542431,43.7611137 136.486287,43.8983175 136.373997,44.009045 C136.261706,44.1197725 136.12911,44.1751354 135.976204,44.1751354 C135.81852,44.1751354 135.683535,44.1197725 135.571244,44.009045 C135.458954,43.8983175 135.40281,43.7611137 135.40281,43.5974296 C135.40281,43.443374 135.458954,43.3109844 135.571244,43.2002569 C135.683535,43.0895295 135.81852,43.0341666 135.976204,43.0341666 C136.12911,43.0341666 136.261706,43.0895295 136.373997,43.2002569 L136.373997,43.2002569 Z M138.606651,45.2511123 L138.606651,42.5864446 L139.172878,42.5864446 L139.172878,45.2511123 L140.441514,45.2511123 L140.441514,45.828818 L139.172878,45.828818 L139.172878,51.5192195 L138.606651,51.5192195 L138.606651,45.828818 L137.338016,45.828818 L137.338016,45.2511123 L138.606651,45.2511123 Z M141.774656,47.287525 L147.236239,47.287525 C147.102446,46.8494293 146.875479,46.4691102 146.555333,46.1465562 C145.991492,45.578476 145.312982,45.2944402 144.519782,45.2944402 C143.726582,45.2944402 143.048072,45.578476 142.484232,46.1465562 C142.14975,46.4883671 141.913227,46.8686863 141.774656,47.287525 L141.774656,47.287525 Z M141.667144,47.8724521 C141.65281,47.9735511 141.645642,48.0818698 141.645642,48.1974115 C141.645642,48.9965751 141.926364,49.6777797 142.487815,50.2410456 C143.049267,50.8043115 143.726582,51.0859402 144.519782,51.0859402 C145.312982,51.0859402 145.991492,50.8019044 146.555333,50.2338242 C146.650899,50.1375395 146.741685,50.036442 146.827695,49.9305287 L147.436927,50.1471684 C147.365252,50.2675243 147.214737,50.4408343 146.985378,50.6671035 C146.306858,51.3555396 145.485001,51.6997525 144.519782,51.6997525 C143.56412,51.6997525 142.745846,51.3567432 142.064937,50.6707142 C141.384028,49.9846852 141.043578,49.1602592 141.043578,48.1974115 C141.043578,47.2249354 141.384028,46.3968988 142.064937,45.7132769 C142.745846,45.029655 143.56412,44.6878492 144.519782,44.6878492 C145.485001,44.6878492 146.306858,45.029655 146.985378,45.7132769 C147.582667,46.3198709 147.881307,47.0395888 147.881307,47.8724521 L141.667144,47.8724521 Z M151.049312,45.7566048 C150.643155,45.8191899 150.244172,46.0791549 149.852351,46.5365076 C149.460529,46.9938602 149.264622,47.4560202 149.264622,47.9230013 L149.264622,51.5192195 L148.691227,51.5192195 L148.691227,45.2511123 L149.264622,45.2511123 L149.264622,46.6087208 C149.503537,45.9780555 149.993307,45.5086743 150.733945,45.200563 L151.049312,45.7566048 Z M158.453268,51.5192195 L157.879874,51.5192195 L157.879874,50.2410456 C157.769973,50.390287 157.650517,50.5323049 157.521502,50.6671035 C156.842982,51.3555396 156.021125,51.6997525 155.055906,51.6997525 C154.100244,51.6997525 153.28197,51.3567432 152.601061,50.6707142 C151.920151,49.9846852 151.579702,49.1602592 151.579702,48.1974115 C151.579702,47.2249354 151.920151,46.3968988 152.601061,45.7132769 C153.28197,45.029655 154.100244,44.6878492 155.055906,44.6878492 C156.021125,44.6878492 156.842982,45.029655 157.521502,45.7132769 C157.650517,45.8480756 157.769973,45.9900935 157.879874,46.1393349 L157.879874,45.2511123 L158.453268,45.2511123 L158.453268,51.5192195 Z M157.879874,48.7606746 L157.879874,47.6269271 C157.774751,47.0636612 157.511948,46.5702092 157.091456,46.1465562 C156.527616,45.578476 155.849106,45.2944402 155.055906,45.2944402 C154.262706,45.2944402 153.585391,45.578476 153.023939,46.1465562 C152.462488,46.7146363 152.181766,47.3982479 152.181766,48.1974115 C152.181766,48.9965751 152.462488,49.6777797 153.023939,50.2410456 C153.585391,50.8043115 154.262706,51.0859402 155.055906,51.0859402 C155.849106,51.0859402 156.527616,50.8019044 157.091456,50.2338242 C157.511948,49.8101713 157.774751,49.3191263 157.879874,48.7606746 L157.879874,48.7606746 Z M162.001147,45.7566048 C161.59499,45.8191899 161.196007,46.0791549 160.804186,46.5365076 C160.412364,46.9938602 160.216456,47.4560202 160.216456,47.9230013 L160.216456,51.5192195 L159.643062,51.5192195 L159.643062,45.2511123 L160.216456,45.2511123 L160.216456,46.6087208 C160.455372,45.9780555 160.945142,45.5086743 161.68578,45.200563 L162.001147,45.7566048 Z M164.287557,53.9022556 L163.649656,53.9022556 L165.290998,50.3565867 L162.925745,45.2511123 L163.563647,45.2511123 L165.606365,49.6272332 L167.65625,45.2511123 L168.294151,45.2511123 L164.287557,53.9022556 Z M177.28211,41.3082707 L177.28211,41.8859764 L173.418865,41.8859764 L173.418865,46.1248922 L177.28211,46.1248922 L177.28211,46.702598 L173.418865,46.702598 L173.418865,51.5192195 L172.84547,51.5192195 L172.84547,41.3082707 L177.28211,41.3082707 Z M178.436067,47.287525 L183.897649,47.287525 C183.763856,46.8494293 183.53689,46.4691102 183.216743,46.1465562 C182.652902,45.578476 181.974392,45.2944402 181.181193,45.2944402 C180.387993,45.2944402 179.709483,45.578476 179.145642,46.1465562 C178.81116,46.4883671 178.574638,46.8686863 178.436067,47.287525 L178.436067,47.287525 Z M178.328555,47.8724521 C178.31422,47.9735511 178.307053,48.0818698 178.307053,48.1974115 C178.307053,48.9965751 178.587774,49.6777797 179.149226,50.2410456 C179.710678,50.8043115 180.387993,51.0859402 181.181193,51.0859402 C181.974392,51.0859402 182.652902,50.8019044 183.216743,50.2338242 C183.312309,50.1375395 183.403096,50.036442 183.489106,49.9305287 L184.098337,50.1471684 C184.026662,50.2675243 183.876148,50.4408343 183.646789,50.6671035 C182.968269,51.3555396 182.146412,51.6997525 181.181193,51.6997525 C180.22553,51.6997525 179.407257,51.3567432 178.726347,50.6707142 C178.045438,49.9846852 177.704989,49.1602592 177.704989,48.1974115 C177.704989,47.2249354 178.045438,46.3968988 178.726347,45.7132769 C179.407257,45.029655 180.22553,44.6878492 181.181193,44.6878492 C182.146412,44.6878492 182.968269,45.029655 183.646789,45.7132769 C184.244078,46.3198709 184.542718,47.0395888 184.542718,47.8724521 L178.328555,47.8724521 Z M187.122993,48.1540836 C186.640384,47.8893005 186.305907,47.6630347 186.119553,47.4752794 C185.828076,47.1816108 185.682339,46.8277696 185.682339,46.4137451 C185.682339,45.9997206 185.828076,45.6446758 186.119553,45.3486001 C186.41103,45.0525245 186.76223,44.9044889 187.173165,44.9044889 C187.5841,44.9044889 187.925744,45.0416926 188.198108,45.3161042 C188.460915,45.5808873 188.592317,45.8841798 188.592317,46.2259907 L188.592317,46.254876 L188.097764,46.457073 C188.054759,46.134519 187.954416,45.8914036 187.796732,45.7277195 C187.639047,45.5640354 187.431194,45.4821946 187.173165,45.4821946 C186.919915,45.4821946 186.702505,45.5736638 186.520929,45.7566048 C186.339353,45.9395459 186.248567,46.1585904 186.248567,46.4137451 C186.248567,46.6688997 186.339353,46.8879443 186.520929,47.0708854 C186.626052,47.1816128 186.84824,47.3452945 187.1875,47.5619352 C187.727449,47.8556038 188.112097,48.1179758 188.341456,48.3490593 C188.69983,48.7149414 188.879014,49.1506235 188.879014,49.6561185 C188.879014,50.1760563 188.69983,50.617756 188.341456,50.981231 C187.983083,51.344706 187.548263,51.5264408 187.036984,51.5264408 C186.525705,51.5264408 186.090885,51.344706 185.732511,50.981231 C185.374138,50.617756 185.194954,50.2193838 185.194954,49.7861023 L185.761181,49.6416759 C185.761181,50.0123722 185.88661,50.3240895 186.137471,50.576837 C186.388333,50.8295845 186.688167,50.9559564 187.036984,50.9559564 C187.385801,50.9559564 187.68683,50.8295845 187.94008,50.576837 C188.193331,50.3240895 188.319954,50.0171864 188.319954,49.6561185 C188.319954,49.3046791 188.193331,49.0037937 187.94008,48.7534533 C187.806288,48.6186546 187.533928,48.4188667 187.122993,48.1540836 L187.122993,48.1540836 Z M190.914564,45.2511123 L190.914564,42.5864446 L191.480791,42.5864446 L191.480791,45.2511123 L192.749427,45.2511123 L192.749427,45.828818 L191.480791,45.828818 L191.480791,51.5192195 L190.914564,51.5192195 L190.914564,45.828818 L189.645929,45.828818 L189.645929,45.2511123 L190.914564,45.2511123 Z" id="Techno-Management-Li"></path>
                                </g>
                            </g>
                        </g>
                    </g>
                </g>
                <g id="Group-2">
                    <g id="Oval-1">
                        <use fill="black" fill-opacity="1" filter="url(#filter-2)" xlink:href="#path-1"></use>
                        <use fill="#FFFFFF" fill-rule="evenodd" xlink:href="#path-1"></use>
                    </g>
                    <g id="Page-1" transform="translate(11.210305, 14.593208)">
                        <path d="M15.9167185,5.59729011 C16.8555065,5.59729011 17.6159893,6.35569089 17.6159893,7.2919088 C17.6159893,8.22741259 16.8555065,8.9865275 15.9167185,8.9865275 C14.9779304,8.9865275 14.2174477,8.22741259 14.2174477,7.2919088 C14.2174477,6.35569089 14.9779304,5.59729011 15.9167185,5.59729011" id="Fill-2" fill="#589FD7"></path>
                        <path d="M5.90047315,31.1044793 C6.83926118,31.1044793 7.59974394,31.8628801 7.59974394,32.799098 C7.59974394,33.7346018 6.83926118,34.4937167 5.90047315,34.4937167 C4.96168511,34.4937167 4.20120236,33.7346018 4.20120236,32.799098 C4.20120236,31.8628801 4.96168511,31.1044793 5.90047315,31.1044793" id="Fill-4" fill="#FDEC58"></path>
                        <path d="M7.1167443,26.2884201 C8.05553233,26.2884201 8.81601509,27.0468209 8.81601509,27.9830388 C8.81601509,28.9185426 8.05553233,29.6776575 7.1167443,29.6776575 C6.17795626,29.6776575 5.41747351,28.9185426 5.41747351,27.9830388 C5.41747351,27.0468209 6.17795626,26.2884201 7.1167443,26.2884201" id="Fill-6" fill="#589FD7"></path>
                        <path d="M11.9113661,16.4103571 L11.9113661,16.4103571 C12.5630038,16.6860093 12.8673402,17.4372689 12.5909312,18.0871226 L9.72086067,24.8298912 C9.44445168,25.4797449 8.69112978,25.7832481 8.03949202,25.5068817 L8.03949202,25.5068817 C7.38713816,25.2312294 7.08351793,24.4799699 7.35992692,23.8301161 L10.2299974,17.0880617 C10.5064064,16.4374938 11.2597283,16.1347048 11.9113661,16.4103571" id="Fill-8" fill="#589FD7"></path>
                        <path d="M15.0880644,9.01980572 L15.0880644,9.01980572 C15.6974531,9.27760486 15.981739,9.97958976 15.7232322,10.586596 L13.6788082,15.389801 C13.4195853,15.9975214 12.7163894,16.281029 12.1070006,16.0232299 C11.4976119,15.7654308 11.2140421,15.0634458 11.4725489,14.4564396 L13.5169729,9.65323462 C13.7754797,9.04551422 14.4786757,8.76200659 15.0880644,9.01980572" id="Fill-10" fill="#589FD7"></path>
                        <path d="M1.96551195,33.2449977 C2.90429999,33.2449977 3.66478274,34.0033985 3.66478274,34.9396164 C3.66478274,35.8751202 2.90429999,36.6342351 1.96551195,36.6342351 C1.02672392,36.6342351 0.266241165,35.8751202 0.266241165,34.9396164 C0.266241165,34.0033985 1.02672392,33.2449977 1.96551195,33.2449977" id="Fill-12" fill="#FDEC58"></path>
                        <path d="M33.0874452,9.1647731 C34.0262332,9.1647731 34.786716,9.92317389 34.786716,10.8593918 C34.786716,11.7948956 34.0262332,12.5540105 33.0874452,12.5540105 C32.1486572,12.5540105 31.3881744,11.7948956 31.3881744,10.8593918 C31.3881744,9.92317389 32.1486572,9.1647731 33.0874452,9.1647731" id="Fill-14" fill="#EE5451"></path>
                        <path d="M26.2907201,6.16809024 C27.2295081,6.16809024 27.9899909,6.92649102 27.9899909,7.86270894 C27.9899909,8.79821273 27.2295081,9.55732763 26.2907201,9.55732763 C25.3519321,9.55732763 24.5914493,8.79821273 24.5914493,7.86270894 C24.5914493,6.92649102 25.3519321,6.16809024 26.2907201,6.16809024" id="Fill-16" fill="#26A69A"></path>
                        <path d="M36.5573805,10.6987137 C37.4961685,10.6987137 38.2566513,11.4571144 38.2566513,12.3933324 C38.2566513,13.3288362 37.4961685,14.0879511 36.5573805,14.0879511 C35.6185925,14.0879511 34.8581097,13.3288362 34.8581097,12.3933324 C34.8581097,11.4571144 35.6185925,10.6987137 36.5573805,10.6987137" id="Fill-18" fill="#EE5451"></path>
                        <path d="M13.5915174,0.246137021 C14.5303054,0.246137021 15.2907882,1.0045378 15.2907882,1.94075572 C15.2907882,2.87625951 14.5303054,3.63537441 13.5915174,3.63537441 C12.6527294,3.63537441 11.8922466,2.87625951 11.8922466,1.94075572 C11.8922466,1.0045378 12.6527294,0.246137021 13.5915174,0.246137021" id="Fill-20" fill="#26A69A"></path>
                        <path d="M29.6890469,7.55934862 C30.6278349,7.55934862 31.3883176,8.31774941 31.3883176,9.25396732 C31.3883176,10.1894711 30.6278349,10.948586 29.6890469,10.948586 C28.7502588,10.948586 27.9897761,10.1894711 27.9897761,9.25396732 C27.9897761,8.31774941 28.7502588,7.55934862 29.6890469,7.55934862" id="Fill-22" fill="#26A69A"></path>
                        <path d="M15.2980206,3.02422621 L15.59448,2.39008318 C15.8128861,1.92233129 16.3707167,1.72023391 16.8397526,1.93804204 L24.2426441,5.38083881 C24.7116801,5.59864694 24.9143322,6.15495034 24.6959262,6.62270224 L24.3994668,7.25684526 C24.1810607,7.72459716 23.6232302,7.92669454 23.1541942,7.70888641 L15.7513027,4.26608964 C15.2822668,4.0482815 15.0796146,3.49197811 15.2980206,3.02422621" id="Fill-24" fill="#26A69A"></path>
                        <path d="M9.94270394,29.1424208 C10.881492,29.1424208 11.6419747,29.9008216 11.6419747,30.8370395 C11.6419747,31.7725433 10.881492,32.5316582 9.94270394,32.5316582 C9.00391591,32.5316582 8.24343315,31.7725433 8.24343315,30.8370395 C8.24343315,29.9008216 9.00391591,29.1424208 9.94270394,29.1424208" id="Fill-26" fill="#FDEC58"></path>
                        <path d="M26.5638351,20.6979637 C27.0206976,20.4558754 27.5878373,20.6286936 27.8305903,21.0843054 L28.1936456,21.7655807 C28.4363986,22.2211924 28.2652541,22.7853512 27.8040951,23.0302961 L25.3128338,24.3514274 L17.3592726,28.5683357 C16.9031262,28.8104241 16.3367026,28.6368917 16.0932335,28.1812799 L15.7308943,27.5007188 C15.4874252,27.045107 15.6592858,26.4802341 16.1175804,26.2374316 L26.5638351,20.6979637 Z" id="Fill-28" fill="#EE5451"></path>
                        <path d="M44.2968321,12.2968541 L44.6598875,12.9774152 C44.9026404,13.433027 44.7293477,13.9993281 44.2724852,14.2414165 L30.2386424,21.6825993 C29.7817799,21.9246877 29.2146402,21.7518695 28.9718873,21.2962577 L28.6088319,20.6156965 C28.366079,20.1600848 28.5393716,19.5937836 28.9962342,19.3516952 L43.0293609,11.9105124 C43.4862234,11.668424 44.0540792,11.8412423 44.2968321,12.2968541" id="Fill-30" fill="#775BA7"></path>
                        <path d="M13.5915174,27.1802909 C14.5303054,27.1802909 15.2907882,27.9386917 15.2907882,28.8749096 C15.2907882,29.8104134 14.5303054,30.5695283 13.5915174,30.5695283 C12.6527294,30.5695283 11.8922466,29.8104134 11.8922466,28.8749096 C11.8922466,27.9386917 12.6527294,27.1802909 13.5915174,27.1802909" id="Fill-32" fill="#FDEC58"></path>
                        <path d="M46.680967,9.69986699 C47.6197551,9.69986699 48.3802378,10.4582678 48.3802378,11.3944857 C48.3802378,12.3299895 47.6197551,13.0891044 46.680967,13.0891044 C45.742179,13.0891044 44.9816963,12.3299895 44.9816963,11.3944857 C44.9816963,10.4582678 45.742179,9.69986699 46.680967,9.69986699" id="Fill-34" fill="#775BA7"></path>
                    </g>
                </g>
            </g>
        </g>
    </g>
</svg>