<?xml version="1.0" ?><!DOCTYPE svg  PUBLIC '-//W3C//DTD SVG 1.1//EN'  'http://www.w3.org/Graphics/SVG/1.1/DTD/svg11.dtd'><svg enable-background="new 0 0 512 512" height="512px" id="Layer_1" version="1.1" viewBox="0 0 512 512" width="512px" xml:space="preserve" xmlns="http://www.w3.org/2000/svg" xmlns:xlink="http://www.w3.org/1999/xlink"><g id="google"><path d="M254.5,16.5c-131.996,0-239,107.004-239,239s107.004,239,239,239s239-107.004,239-239   S386.496,16.5,254.5,16.5z M412.892,413.892C370.584,456.2,314.333,479.5,254.5,479.5c-59.833,0-116.084-23.3-158.392-65.608   C53.8,371.584,30.5,315.333,30.5,255.5c0-59.833,23.3-116.084,65.608-158.392C138.416,54.8,194.667,31.5,254.5,31.5   c59.833,0,116.084,23.3,158.392,65.608C455.2,139.416,478.5,195.667,478.5,255.5C478.5,315.333,455.2,371.584,412.892,413.892z" fill="#C1211D"/><path d="M329.931,273.5h10.239c2.757,0,5.33-1.813,5.33-4.569V232.5h35.608c2.74,0,4.98-2,4.98-5h0.412v-9.763   c0-2.74-2.66-5.237-5.4-5.237h-35.6v-35.701c0-2.757-2.582-5.299-5.339-5.299h-10.239c-2.757,0-5.423,2.543-5.423,5.299V212.5   h-35.532c-2.724,0-4.468,2.497-4.468,5.237v10.255c0,2.74,1.745,4.508,4.468,4.508H324.5v36.431   C324.5,271.687,327.175,273.5,329.931,273.5z" fill="#C1211D"/><path d="M275.456,330.498c0-20.461-6.572-32.693-24.227-45.188c-7.556-5.349-14.431-13.2-14.562-15.62   c0-4.414,0.402-6.506,10.255-14.185c12.757-9.984,19.772-23.329,19.772-37.202c0-12.569-3.831-23.803-10.386-31.803h5.062   c1.05,0,2.076-0.102,2.929-0.709l14.152-10.122c1.747-1.272,2.502-3.584,1.813-5.651c-0.673-2.051-2.56-3.518-4.725-3.518H212.26   c-6.924,0-13.955,1.345-20.863,3.733c-23.061,7.95-39.182,27.656-39.182,47.846c0,28.566,22.151,50.266,51.735,50.955   c-0.574,2.256-0.861,4.569-0.861,6.767c0,4.389,1.124,8.699,3.413,12.699c-0.263,0-0.533,0-0.82,0   c-28.214,0-53.671,13.767-63.352,34.359c-2.519,5.374-3.798,10.752-3.798,16.101c0,5.185,1.329,10.171,3.954,14.88   c6.071,10.87,19.115,19.303,36.754,23.742c9.106,2.305,18.886,3.474,29.042,3.474c9.131,0,17.819-1.192,25.876-3.514   C259.237,370.265,275.456,351.788,275.456,330.498z M184.875,217.257c-1.37-10.46,0.812-19.902,6.038-25.85   c3.364-3.848,7.769-5.906,12.724-5.906h0.558c13.988,1,27.369,16.076,29.838,34.838c1.378,10.493-0.943,20.322-6.235,26.328   c-3.364,3.848-7.72,5.834-12.88,5.834h-0.222C200.996,252.5,187.328,235.986,184.875,217.257z M208.158,360.993   c-20.666,0-36.844-12.536-36.844-28.706c0-14.882,18.902-27.787,40.438-27.787h0.591c4.676,0,9.262,0.599,13.569,1.928   c1.469,1.009,2.896,1.907,4.274,2.834c9.968,6.793,16.572,11.242,18.418,18.461c0.418,1.805,0.624,3.598,0.624,5.362   C249.228,351.618,235.412,360.993,208.158,360.993z" fill="#C1211D"/></g></svg>