<?xml version="1.0" encoding="UTF-8"?>
<svg width="50px" height="50px" viewBox="0 0 50 50" version="1.1" xmlns="http://www.w3.org/2000/svg" xmlns:xlink="http://www.w3.org/1999/xlink">
    <!-- Generator: Sketch 3.8.3 (29802) - http://www.bohemiancoding.com/sketch -->
    <title>1472518322_facebook_circle</title>
    <desc>Created with Sketch.</desc>
    <defs></defs>
    <g id="Page-1" stroke="none" stroke-width="1" fill="none" fill-rule="evenodd">
        <g id="Desktop-HD" transform="translate(-695.000000, -1263.000000)" stroke="#F26631">
            <g id="Group-2" transform="translate(603.000000, 1264.000000)">
                <g id="1472518322_facebook_circle" transform="translate(93.000000, 0.000000)">
                    <g id="Layer_1">
                        <path d="M24,48 C37.254834,48 48,37.254834 48,24 C48,10.745166 37.254834,0 24,0 C10.745166,0 0,10.745166 0,24 C0,37.254834 10.745166,48 24,48 Z" id="Oval"></path>
                        <path d="M25.9,19.5 L25.9,16.9 C25.9,15.9 26.6,15.7 27,15.7 L29.8,15.7 L29.8,11.3 L25.9,11.3 C21.5,11.3 20.6,14.6 20.6,16.6 L20.6,19.5 L18.1,19.5 L18.1,24 L20.6,24 L20.6,36.7 L25.9,36.7 L25.9,24 L29.5,24 L29.9,19.5 L25.9,19.5 Z" id="Shape"></path>
                    </g>
                </g>
            </g>
        </g>
    </g>
</svg>