<?xml version="1.0" encoding="UTF-8"?>
<svg width="121px" height="118px" viewBox="0 0 121 118" version="1.1" xmlns="http://www.w3.org/2000/svg" xmlns:xlink="http://www.w3.org/1999/xlink">
    <!-- Generator: Sketch 3.8.3 (29802) - http://www.bohemiancoding.com/sketch -->
    <title>1469758392_mark-github</title>
    <desc>Created with Sketch.</desc>
    <defs></defs>
    <g id="Page-1" stroke="none" stroke-width="1" fill="none" fill-rule="evenodd">
        <g id="Desktop-HD" transform="translate(-1066.000000, -1095.000000)" stroke="#F26631">
            <g id="1469758392_mark-github" transform="translate(1067.000000, 1096.000000)">
                <path d="M0,59.4514515 C0,85.7227227 17.04675,108.002503 40.691957,115.862054 C43.6662598,116.406406 44.7521348,114.570262 44.7521348,113.002695 C44.7521348,111.587471 44.6976318,106.899399 44.6685791,101.935435 C28.1230469,105.52772 24.6257949,94.9249249 24.6257949,94.9249249 C21.9166855,88.0595596 18.0199004,86.2307307 18.0199004,86.2307307 C12.6124893,82.544044 18.430125,82.6166166 18.430125,82.6166166 C24.4040645,83.0302222 27.5491973,88.7417417 27.5491973,88.7417417 C32.8586426,97.8278278 41.4799834,95.2007007 44.864627,93.6766767 C45.4054727,89.8448448 46.9452676,87.2177177 48.6414824,85.7372372 C35.4334121,84.235043 21.539,79.1331331 21.539,56.3525445 C21.539,49.8572412 23.8596162,44.5595596 27.6582031,40.3974935 C27.0516982,38.887984 25.0034805,32.839031 28.2464629,24.6565606 C28.2464629,24.6565606 33.2363281,23.059964 44.6103574,30.7526567 C49.3531582,29.4282362 54.4411055,28.7750831 59.4998838,28.7532533 C64.5550596,28.7750831 69.6464932,29.4354354 74.3967314,30.7598559 C85.7491455,23.059964 90.7462158,24.6637598 90.7462158,24.6637598 C94.0001221,32.8535455 91.9519043,38.8951832 91.3417969,40.3974935 C95.1549102,44.5595596 97.4573975,49.8573574 97.4573975,56.3525445 C97.4573975,79.1911912 83.5411377,84.2204124 70.2858857,85.6936937 C72.428583,87.537037 74.3242158,91.1511512 74.3242158,96.6956957 C74.3242158,104.64245 74.2442627,111.050551 74.2442627,113.01001 C74.2442627,114.592092 75.3264189,116.442635 78.3406982,115.862054 C101.967893,107.987988 119,85.7082082 119,59.4514515 C119,26.6196196 92.3586426,0 59.5,0 C26.6413574,0 0,26.6196196 0,59.4514515 Z" id="Shape"></path>
            </g>
        </g>
    </g>
</svg>