<?xml version="1.0" encoding="UTF-8"?>
<svg width="50px" height="50px" viewBox="0 0 50 50" version="1.1" xmlns="http://www.w3.org/2000/svg" xmlns:xlink="http://www.w3.org/1999/xlink">
    <!-- Generator: Sketch 3.8.3 (29802) - http://www.bohemiancoding.com/sketch -->
    <title>1472518295_google_circle</title>
    <desc>Created with Sketch.</desc>
    <defs></defs>
    <g id="Page-1" stroke="none" stroke-width="1" fill="none" fill-rule="evenodd">
        <g id="Desktop-HD" transform="translate(-602.000000, -1263.000000)" stroke="#F26631">
            <g id="Group-2" transform="translate(603.000000, 1264.000000)">
                <g id="1472518295_google_circle">
                    <g id="Layer_1">
                        <circle id="Oval" cx="24" cy="24" r="24"></circle>
                        <g id="Group" transform="translate(12.000000, 11.000000)">
                            <path d="M12.8,14.8 C12.1,14.3 10.8,13.1 10.8,12.5 C10.8,11.7 11,11.3 12.2,10.3 C13.4,9.3 14.3,8 14.3,6.4 C14.3,4.5 13.5,2.7 11.9,2 L14.3,2 L16,0.8 L8.5,0.8 C5.1,0.8 1.9,3.4 1.9,6.3 C1.9,9.3 4.2,11.8 7.6,11.8 L8.3,11.8 C8.1,12.2 7.9,12.7 7.9,13.2 C7.9,14 8.4,14.7 8.9,15.3 L7.6,15.3 C3.4,15.3 0.2,18 0.2,20.7 C0.2,23.4 3.7,25.1 7.9,25.1 C12.7,25.1 15.3,22.4 15.3,19.7 C15.4,17.6 14.8,16.2 12.8,14.8 L12.8,14.8 Z M8.7,11.1 C6.8,11 4.9,8.9 4.6,6.4 C4.3,3.8 5.6,1.9 7.5,2 C9.4,2.1 11.3,4.1 11.6,6.7 C12,9.1 10.7,11.1 8.7,11.1 L8.7,11.1 Z M8,24 C5.1,24 3,22.2 3,20 C3,17.8 5.6,16 8.5,16.1 C9.2,16.1 9.8,16.2 10.4,16.4 C12,17.5 13.1,18.1 13.4,19.4 C13.5,19.7 13.5,19.9 13.5,20.2 C13.5,22.2 12,24 8,24 L8,24 Z" id="Shape"></path>
                            <polygon id="Shape" points="20.8 11.3 20.8 8.4 18.4 8.4 18.4 11.3 15.5 11.3 15.5 13.6 18.4 13.6 18.4 16.6 20.8 16.6 20.8 13.6 23.7 13.6 23.7 11.3"></polygon>
                        </g>
                    </g>
                </g>
            </g>
        </g>
    </g>
</svg>