<?xml version="1.0" encoding="UTF-8"?>
<svg width="50px" height="50px" viewBox="0 0 50 50" version="1.1" xmlns="http://www.w3.org/2000/svg" xmlns:xlink="http://www.w3.org/1999/xlink">
    <!-- Generator: Sketch 3.8.3 (29802) - http://www.bohemiancoding.com/sketch -->
    <title>1472528404_linkedin_circle</title>
    <desc>Created with Sketch.</desc>
    <defs></defs>
    <g id="Page-1" stroke="none" stroke-width="1" fill="none" fill-rule="evenodd">
        <g id="Desktop-HD" transform="translate(-789.000000, -1263.000000)" stroke="#F26631">
            <g id="Group-2" transform="translate(603.000000, 1264.000000)">
                <g id="1472528404_linkedin_circle" transform="translate(187.000000, 0.000000)">
                    <g id="Layer_1">
                        <circle id="Oval" cx="24" cy="24" r="24"></circle>
                        <path d="M17.4,34.9 L12.8,34.9 L12.8,20.1 L17.4,20.1 L17.4,34.9 L17.4,34.9 Z M14.9,18.2 L14.9,18.2 C13.2,18.2 12.1,17.1 12.1,15.6 C12.1,14.1 13.2,13 14.9,13 C16.6,13 17.7,14.1 17.7,15.6 C17.7,17.1 16.7,18.2 14.9,18.2 L14.9,18.2 Z M35.9,34.9 L30.6,34.9 L30.6,27.2 C30.6,25.2 29.8,23.8 28,23.8 C26.6,23.8 25.9,24.7 25.5,25.6 C25.4,25.9 25.4,26.4 25.4,26.8 L25.4,34.8 L20.2,34.8 C20.2,34.8 20.3,21.2 20.2,20 L25.4,20 L25.4,22.3 C25.7,21.3 27.4,19.8 30,19.8 C33.3,19.8 35.9,21.9 35.9,26.5 L35.9,34.9 L35.9,34.9 Z" id="Shape" fill="#FFFFFF"></path>
                    </g>
                </g>
            </g>
        </g>
    </g>
</svg>