<?xml version="1.0" encoding="UTF-8"?>
<svg width="50px" height="50px" viewBox="0 0 50 50" version="1.1" xmlns="http://www.w3.org/2000/svg" xmlns:xlink="http://www.w3.org/1999/xlink">
    <!-- Generator: Sketch 3.8.3 (29802) - http://www.bohemiancoding.com/sketch -->
    <title>facebook</title>
    <desc>Created with Sketch.</desc>
    <defs></defs>
    <g id="Page-1" stroke="none" stroke-width="1" fill="none" fill-rule="evenodd">
        <g id="plinth-home" transform="translate(-1281.000000, -261.000000)">
            <g id="like" transform="translate(1281.000000, 261.000000)">
                <g id="scoial-register-copy">
                    <g id="fb-share">
                        <g id="facebook">
                            <g id="Layer_1">
                                <ellipse id="Oval" fill="#4E598F" cx="24.9513679" cy="24.9512671" rx="24.9512705" ry="24.9512671"></ellipse>
                                <text id="" font-family="Helvetica" font-size="5.08474576" font-weight="normal" fill="#000000">
                                    <tspan x="30.9322034" y="22.7966102">4E598F</tspan>
                                </text>
                                <rect id="Rectangle-5" fill="#364270" x="0" y="0" width="49.902541" height="49.902541"></rect>
                                <path d="M49.8631579,23.5574746 L38.1110136,11.8016566 C37.9162768,11.8606233 37.4305068,11.6346005 37.2169591,11.6774854 C32.1763158,12.5176392 27.3037037,11.6774854 22.4309942,13.021634 C20.078655,13.693757 19.9106238,16.550085 19.0705653,18.3983259 C17.8944444,21.7587462 18.0624756,25.455228 16.5501949,28.6476175 C15.5421053,30.83192 13.1897661,32.1760686 12.3496101,34.6964325 C12.0693957,35.7475994 12.0859649,37.0725473 11.7691033,38.0775155 L23.5605263,49.8632555 C24.0210526,49.8885965 24.4845029,49.9025341 24.9512671,49.9025341 C38.731384,49.9025341 49.9025341,38.7314125 49.9025341,24.9513307 C49.9026316,24.4834956 49.888694,24.0188769 49.8631579,23.5574746 L49.8631579,23.5574746 Z" id="Shape" fill="#364270"></path>
                                <g id="Group" transform="translate(10.623782, 10.623782)" fill="#FFFFFF">
                                    <path d="M24.7605263,0.0454191033 L3.89454191,0.0454191033 C1.76890838,0.0454191033 0.0456140351,1.76861598 0.0456140351,3.89434698 L0.0456140351,24.7603314 C0.0456140351,26.8861598 1.76881092,28.6092593 3.89454191,28.6092593 L14.1853801,28.6092593 L14.2032164,18.4024366 L11.5511696,18.4024366 C11.2065302,18.4024366 10.9268031,18.1236842 10.9256335,17.7790448 L10.9126706,14.488694 C10.911306,14.1423977 11.1921053,13.8606238 11.5384016,13.8606238 L14.18577,13.8606238 L14.18577,10.6814815 C14.18577,6.99220273 16.4389864,4.98333333 19.7300195,4.98333333 L22.4307992,4.98333333 C22.7761209,4.98333333 23.0565302,5.26345029 23.0565302,5.60906433 L23.0565302,8.38323587 C23.0565302,8.7288499 22.7764133,9.00896686 22.4311891,9.00896686 L20.7736842,9.00994152 C18.9839181,9.00994152 18.6371345,9.86033138 18.6371345,11.1086745 L18.6371345,13.8610136 L22.5699805,13.8610136 C22.9450292,13.8610136 23.2356725,14.1883041 23.1913255,14.5601365 L22.8013645,17.8504873 C22.76423,18.1654971 22.497076,18.4026316 22.1800195,18.4026316 L18.6548733,18.4026316 L18.637037,28.6098441 L24.7604288,28.6098441 C26.8860624,28.6098441 28.6093567,26.8864522 28.6093567,24.7608187 L28.6093567,3.89434698 C28.6094542,1.76871345 26.8861598,0.0454191033 24.7605263,0.0454191033 L24.7605263,0.0454191033 L24.7605263,0.0454191033 Z" id="Shape"></path>
                                    <polygon id="Shape" points="14.5305517 28.6091618 14.7867517 18.4023392 14.1595517 18.4023392 14.1595517 28.6091618"></polygon>
                                </g>
                            </g>
                        </g>
                    </g>
                </g>
            </g>
        </g>
    </g>
</svg>