<?xml version="1.0" encoding="UTF-8"?>
<svg width="74px" height="74px" viewBox="0 0 74 74" version="1.1" xmlns="http://www.w3.org/2000/svg" xmlns:xlink="http://www.w3.org/1999/xlink">
    <!-- Generator: Sketch 3.8.3 (29802) - http://www.bohemiancoding.com/sketch -->
    <title>Group 2</title>
    <desc>Created with Sketch.</desc>
    <defs>
        <path d="M34.7416107,69.556338 C53.9288725,69.556338 69.4832215,53.9856214 69.4832215,34.778169 C69.4832215,15.5707166 53.9288725,0 34.7416107,0 C15.5543489,0 0,15.5707166 0,34.778169 C0,53.9856214 15.5543489,69.556338 34.7416107,69.556338 Z" id="path-1"></path>
        <filter x="-50%" y="-50%" width="200%" height="200%" filterUnits="objectBoundingBox" id="filter-2">
            <feOffset dx="0" dy="1" in="SourceAlpha" result="shadowOffsetOuter1"></feOffset>
            <feGaussianBlur stdDeviation="1" in="shadowOffsetOuter1" result="shadowBlurOuter1"></feGaussianBlur>
            <feColorMatrix values="0 0 0 0 0   0 0 0 0 0   0 0 0 0 0  0 0 0 0.240064538 0" type="matrix" in="shadowBlurOuter1"></feColorMatrix>
        </filter>
    </defs>
    <g id="Page-1" stroke="none" stroke-width="1" fill="none" fill-rule="evenodd">
        <g id="Desktop-HD-Copy" transform="translate(-588.000000, -136.000000)">
            <g id="Group" transform="translate(590.000000, 137.000000)">
                <g id="Group-2">
                    <g id="Oval-1">
                        <use fill="black" fill-opacity="1" filter="url(#filter-2)" xlink:href="#path-1"></use>
                        <use fill="#FFFFFF" fill-rule="evenodd" xlink:href="#path-1"></use>
                    </g>
                    <g id="Page-1" transform="translate(15.181208, 19.288732)">
                        <path d="M14.5965574,5.1224085 C15.4574807,5.1224085 16.1548876,5.81646554 16.1548876,6.67325347 C16.1548876,7.52938786 15.4574807,8.22409844 14.5965574,8.22409844 C13.7356341,8.22409844 13.0382272,7.52938786 13.0382272,6.67325347 C13.0382272,5.81646554 13.7356341,5.1224085 14.5965574,5.1224085" id="Fill-2" fill="#589FD7"></path>
                        <path d="M5.41107736,28.4655335 C6.27200064,28.4655335 6.9694076,29.1595906 6.9694076,30.0163785 C6.9694076,30.8725129 6.27200064,31.5672235 5.41107736,31.5672235 C4.55015408,31.5672235 3.85274713,30.8725129 3.85274713,30.0163785 C3.85274713,29.1595906 4.55015408,28.4655335 5.41107736,28.4655335" id="Fill-4" fill="#FDEC58"></path>
                        <path d="M6.52646881,24.0580753 C7.38739209,24.0580753 8.08479904,24.7521323 8.08479904,25.6089202 C8.08479904,26.4650546 7.38739209,27.1597652 6.52646881,27.1597652 C5.66554553,27.1597652 4.96813857,26.4650546 4.96813857,25.6089202 C4.96813857,24.7521323 5.66554553,24.0580753 6.52646881,24.0580753" id="Fill-6" fill="#589FD7"></path>
                        <path d="M10.9234161,15.0180803 L10.9234161,15.0180803 C11.5210059,15.2703459 11.8001,15.9578676 11.5466169,16.5525869 L8.91459512,22.7232899 C8.66111198,23.3180092 7.97027195,23.5957627 7.37268218,23.3428436 L7.37268218,23.3428436 C6.77443573,23.0905781 6.4959983,22.4030564 6.74948143,21.8083371 L9.38150316,15.6382876 C9.63498629,15.0429148 10.3258263,14.7658148 10.9234161,15.0180803" id="Fill-8" fill="#589FD7"></path>
                        <path d="M14.4191192,9.68841502 L12.5442634,14.0841096 C12.3065409,14.6402702 11.6616693,14.8997247 11.1028244,14.6637976 C10.5439794,14.4278704 10.2839294,13.7854429 10.5209952,13.2299358 L12.395851,8.83424124 C12.6329168,8.27808065 13.2777884,8.01862619 13.8366334,8.2545533 C14.3954783,8.49048041 14.656185,9.13290797 14.4191192,9.68841502 Z" id="Fill-10" fill="#589FD7"></path>
                        <path d="M1.80248888,30.4244475 C2.66341216,30.4244475 3.36081911,31.1185045 3.36081911,31.9752924 C3.36081911,32.8314268 2.66341216,33.5261374 1.80248888,33.5261374 C0.941565603,33.5261374 0.244158647,32.8314268 0.244158647,31.9752924 C0.244158647,31.1185045 0.941565603,30.4244475 1.80248888,30.4244475" id="Fill-12" fill="#FDEC58"></path>
                        <path d="M30.3431134,8.38722145 C31.2040367,8.38722145 31.9014436,9.08127849 31.9014436,9.93806642 C31.9014436,10.7942008 31.2040367,11.4889114 30.3431134,11.4889114 C29.4821901,11.4889114 28.7847832,10.7942008 28.7847832,9.93806642 C28.7847832,9.08127849 29.4821901,8.38722145 30.3431134,8.38722145" id="Fill-14" fill="#EE5451"></path>
                        <path d="M24.1101208,5.64478119 C24.9710441,5.64478119 25.668451,6.33883823 25.668451,7.19562616 C25.668451,8.05176055 24.9710441,8.74647113 24.1101208,8.74647113 C23.2491975,8.74647113 22.5517906,8.05176055 22.5517906,7.19562616 C22.5517906,6.33883823 23.2491975,5.64478119 24.1101208,5.64478119" id="Fill-16" fill="#26A69A"></path>
                        <path d="M33.525246,9.79102044 C34.3861693,9.79102044 35.0835763,10.4850775 35.0835763,11.3418654 C35.0835763,12.1979998 34.3861693,12.8927104 33.525246,12.8927104 C32.6643228,12.8927104 31.9669158,12.1979998 31.9669158,11.3418654 C31.9669158,10.4850775 32.6643228,9.79102044 33.525246,9.79102044" id="Fill-18" fill="#EE5451"></path>
                        <path d="M12.4642127,0.225254426 C13.3251359,0.225254426 14.0225429,0.919311467 14.0225429,1.7760994 C14.0225429,2.63223379 13.3251359,3.32694437 12.4642127,3.32694437 C11.6032894,3.32694437 10.9058824,2.63223379 10.9058824,1.7760994 C10.9058824,0.919311467 11.6032894,0.225254426 12.4642127,0.225254426" id="Fill-20" fill="#26A69A"></path>
                        <path d="M27.2265843,6.91800334 C28.0875075,6.91800334 28.7849145,7.61206038 28.7849145,8.46884831 C28.7849145,9.3249827 28.0875075,10.0196933 27.2265843,10.0196933 C26.365661,10.0196933 25.668254,9.3249827 25.668254,8.46884831 C25.668254,7.61206038 26.365661,6.91800334 27.2265843,6.91800334" id="Fill-22" fill="#26A69A"></path>
                        <path d="M14.0291755,2.7676468 L14.301046,2.18730532 C14.5013371,1.75923812 15.0129002,1.57428695 15.4430335,1.77361595 L22.2319159,4.92432122 C22.6620492,5.12365022 22.847893,5.63275609 22.6476019,6.06082329 L22.3757314,6.64116477 C22.1754403,7.06923196 21.6638772,7.25418313 21.233744,7.05485413 L14.4448615,3.90414887 C14.0147282,3.70481987 13.8288844,3.195714 14.0291755,2.7676468" id="Fill-24" fill="#26A69A"></path>
                        <path d="M9.11803831,26.6699387 C9.97896159,26.6699387 10.6763685,27.3639957 10.6763685,28.2207837 C10.6763685,29.0769181 9.97896159,29.7716286 9.11803831,29.7716286 C8.25711504,29.7716286 7.55970808,29.0769181 7.55970808,28.2207837 C7.55970808,27.3639957 8.25711504,26.6699387 9.11803831,26.6699387" id="Fill-26" fill="#FDEC58"></path>
                        <path d="M24.3605831,18.9419207 C24.7795527,18.7203714 25.2996528,18.8785276 25.5222714,19.2954846 L25.8552142,19.9189596 C26.0778329,20.3359166 25.9208835,20.8522114 25.4979738,21.0763749 L23.2133421,22.2854196 L15.9194635,26.1445597 C15.5011507,26.366109 14.9817073,26.2072994 14.758432,25.7903423 L14.4261458,25.1675209 C14.2028705,24.7505638 14.3604766,24.2336155 14.7807595,24.0114127 L24.3605831,18.9419207 Z" id="Fill-28" fill="#EE5451"></path>
                        <path d="M40.6227737,11.2535725 L40.9557166,11.8763939 C41.1783352,12.293351 41.0194157,12.8116063 40.6004462,13.0331556 L27.7305954,19.8430185 C27.3116259,20.0645678 26.7915258,19.9064117 26.5689072,19.4894546 L26.2359643,18.8666332 C26.0133457,18.4496761 26.1722652,17.9314207 26.5912347,17.7098714 L39.4604288,10.9000086 C39.8793983,10.6784593 40.4001551,10.8366154 40.6227737,11.2535725" id="Fill-30" fill="#775BA7"></path>
                        <path d="M12.4642127,24.8742785 C13.3251359,24.8742785 14.0225429,25.5683356 14.0225429,26.4251235 C14.0225429,27.2812579 13.3251359,27.9759685 12.4642127,27.9759685 C11.6032894,27.9759685 10.9058824,27.2812579 10.9058824,26.4251235 C10.9058824,25.5683356 11.6032894,24.8742785 12.4642127,24.8742785" id="Fill-32" fill="#FDEC58"></path>
                        <path d="M42.8091642,8.87691725 C43.6700875,8.87691725 44.3674945,9.57097429 44.3674945,10.4277622 C44.3674945,11.2838966 43.6700875,11.9786072 42.8091642,11.9786072 C41.948241,11.9786072 41.250834,11.2838966 41.250834,10.4277622 C41.250834,9.57097429 41.948241,8.87691725 42.8091642,8.87691725" id="Fill-34" fill="#775BA7"></path>
                    </g>
                </g>
            </g>
        </g>
    </g>
</svg>