<?xml version="1.0" encoding="UTF-8"?>
<svg width="51px" height="51px" viewBox="0 0 51 51" version="1.1" xmlns="http://www.w3.org/2000/svg" xmlns:xlink="http://www.w3.org/1999/xlink">
    <!-- Generator: Sketch 3.8.3 (29802) - http://www.bohemiancoding.com/sketch -->
    <title>Layer_1</title>
    <desc>Created with Sketch.</desc>
    <defs></defs>
    <g id="Page-1" stroke="none" stroke-width="1" fill="none" fill-rule="evenodd">
        <g id="plinth-home" transform="translate(-1281.000000, -326.000000)">
            <g id="like" transform="translate(1281.000000, 261.000000)">
                <g id="twitter" transform="translate(0.000000, 65.000000)">
                    <g id="Layer_1">
                        <rect id="Rectangle-8" fill="#65A2D9" x="0" y="0" width="51" height="51"></rect>
                        <path d="M39.7992805,39.0150005 C40.3519626,39.0150005 40.3436875,39.0150005 39.7992805,39.0150005 L11.2007195,39.0150005 C10.6480374,39.0150005 10.6563125,39.0150005 11.2007195,39.0150005 L39.7992805,39.0150005 Z" id="Rectangle-9" fill="#D1D1D1"></path>
                        <path d="M36.9150807,16.2534609 C37.6764947,15.5301973 38.2488502,14.6252461 38.5716842,13.6154062 C38.6639225,13.3272363 38.350651,13.0777148 38.0903717,13.2321094 C37.1291412,13.802373 36.0938014,14.2297969 35.0130396,14.5033242 C34.950485,14.5192617 34.8859381,14.5272305 34.8208932,14.5272305 C34.6237662,14.5272305 34.432815,14.4542168 34.2819068,14.3215371 C33.1322154,13.3081113 31.6532154,12.75 30.1177369,12.75 C29.4531432,12.75 28.7824732,12.8535937 28.1239557,13.0578926 C26.0832584,13.6907109 24.5086334,15.374209 24.0143717,17.4509648 C23.8290982,18.2297109 23.7790943,19.0096523 23.865356,19.7682773 C23.8750182,19.8555352 23.8340787,19.9162969 23.8086783,19.9447852 C23.7638541,19.9947891 23.7007017,20.0235762 23.63486,20.0235762 C19.1454654,19.6074082 15.1171627,17.4554473 12.2701275,13.9626445 C12.1251959,13.7844434 11.8464889,13.8063574 11.7307428,14.0046797 C11.1733287,14.9615273 10.8786842,16.0555371 10.8786842,17.1688711 C10.8786842,18.8748809 11.5643951,20.482875 12.755026,21.6551777 C12.2542896,21.5363438 11.7695904,21.349377 11.3192564,21.0991582 C11.1013111,20.9782324 10.8334615,21.1340215 10.8303736,21.3831445 C10.7994947,23.9177051 12.2834752,26.1730605 14.5064576,27.1885781 C14.4616334,27.1895742 14.4168092,27.1899727 14.371985,27.1899727 C14.0196666,27.1899727 13.6626666,27.1563047 13.3116432,27.0888691 C13.0663053,27.0423516 12.8602135,27.2748398 12.936315,27.5125078 C13.6580846,29.7654727 15.5975787,31.4259609 17.9188756,31.8026836 C15.9925299,33.0959121 13.7489283,33.7779375 11.4141842,33.7779375 L10.6864381,33.7776387 C10.4618189,33.7776387 10.2720631,33.9239648 10.2152857,34.1412129 C10.1590064,34.354875 10.2625006,34.5807891 10.4539498,34.6920527 C13.0848326,36.223248 16.0859635,37.032375 19.1337115,37.032375 C21.801649,37.032375 24.2972623,36.5031504 26.5512232,35.4587461 C28.6176197,34.5015996 30.4435592,33.1333652 31.9785396,31.3919941 C33.4086314,29.7697559 34.5266471,27.8971992 35.3020064,25.8259219 C36.0409088,23.8520625 36.4315767,21.7452246 36.4315767,19.7344102 L36.4315767,19.6383867 C36.4315767,19.3155527 36.5775045,19.0117441 36.8324049,18.8046562 C37.7992135,18.0195352 38.6413111,17.0955586 39.3347916,16.0582266 C39.5180728,15.7845 39.2292057,15.4410469 38.9279869,15.574623 C38.279231,15.8623945 37.6060709,16.0893047 36.9150807,16.2534609 Z" id="Shape" fill="#FFFFFF"></path>
                    </g>
                </g>
            </g>
        </g>
    </g>
</svg>