<?xml version="1.0" encoding="UTF-8"?>
<svg width="292px" height="187px" viewBox="0 0 292 187" version="1.1" xmlns="http://www.w3.org/2000/svg" xmlns:xlink="http://www.w3.org/1999/xlink">
    <!-- Generator: Sketch 40.1 (33804) - http://www.bohemiancoding.com/sketch -->
    <title>debate</title>
    <desc>Created with Sketch.</desc>
    <defs></defs>
    <g id="Page-1" stroke="none" stroke-width="1" fill="none" fill-rule="evenodd">
        <g id="Artboard" transform="translate(-49.000000, -180.000000)">
            <g id="debate" transform="translate(49.000000, 180.000000)">
                <g id="Layer_1">
                    <g id="Group" transform="translate(74.140625, 9.176166)" fill="#666666">
                        <path d="M14.3884141,40.2235233 C12.5383203,40.2235233 11.0383984,38.7245596 11.0383984,36.8756477 L11.0383984,15.939171 L1.26039062,6.17253886 C-0.049046875,4.86564767 -0.0496171875,2.74544041 1.25925,1.43797927 C2.56754687,0.130518135 4.68910937,0.129378238 5.99683594,1.43683938 L16.7574922,12.1837824 C17.3859766,12.8118653 17.7395703,13.6633679 17.7395703,14.5519171 L17.7395703,36.8762176 C17.739,38.7239896 16.2385078,40.2235233 14.3884141,40.2235233 L14.3884141,40.2235233 Z" id="Shape"></path>
                        <path d="M129.336609,40.2235233 C127.485945,40.2235233 125.986594,38.7245596 125.986594,36.8756477 L125.986594,14.5513472 C125.986594,13.6633679 126.339047,12.8118653 126.968102,12.1837824 L137.721914,1.43683938 C139.02907,0.129948187 141.151773,0.129948187 142.45893,1.43683938 C143.767227,2.74430052 143.767227,4.86450777 142.45893,6.17139896 L132.686625,15.9374611 L132.686625,36.8750777 C132.686625,38.7239896 131.187273,40.2235233 129.336609,40.2235233 L129.336609,40.2235233 Z" id="Shape"></path>
                    </g>
                    <path d="M223.919516,3.29829016 C227.791937,7.17507772 227.791937,13.4559067 223.919516,17.3326943 C220.04025,21.2026425 213.755406,21.2026425 209.876141,17.3326943 C205.996875,13.4559067 205.996875,7.17507772 209.876141,3.29829016 C213.755406,-0.578497409 220.04025,-0.578497409 223.919516,3.29829016 L223.919516,3.29829016 Z" id="Shape" fill="#F73C3C"></path>
                    <path d="M81.4537422,3.29829016 C85.3330078,7.17507772 85.3330078,13.4559067 81.4537422,17.3326943 C77.5813203,21.2026425 71.2896328,21.2026425 67.4166406,17.3326943 C63.537375,13.4559067 63.537375,7.17507772 67.4166406,3.29829016 C71.2896328,-0.578497409 77.5813203,-0.578497409 81.4537422,3.29829016 L81.4537422,3.29829016 Z" id="Shape" fill="#4780D1"></path>
                    <polygon id="Shape" fill="#F73C3C" points="281.407016 57.1133679 281.407016 186.471088 206.760523 186.471088 197.072055 72.38 195.872687 58.2515544 195.872687 57.1133679"></polygon>
                    <polygon id="Shape" fill="#4780D1" points="96.1341562 57.1133679 96.1341562 58.2515544 94.9347891 72.38 85.2463203 186.471088 10.5998281 186.471088 10.5998281 57.1133679"></polygon>
                    <polygon id="Shape" fill="#4079BF" points="10.5998281 57.1133679 96.1341562 57.1133679 96.1341562 58.2515544 94.9347891 72.38 10.5998281 72.38"></polygon>
                    <polygon id="Shape" fill="#DD3636" points="281.407016 57.1133679 281.407016 72.38 197.072055 72.38 195.872687 58.2515544 195.872687 57.1133679"></polygon>
                    <g id="Group" transform="translate(0.000000, 36.533679)" fill="#CCCCCC">
                        <polygon id="Shape" points="292 11.7209845 292 21.9184974 281.407016 21.9184974 195.872687 21.9184974 185.272859 21.9184974 185.272859 0.143626943"></polygon>
                        <polygon id="Shape" points="106.727141 0.143626943 106.727141 21.9184974 96.1341563 21.9184974 10.5998281 21.9184974 0 21.9184974 0 11.7209845"></polygon>
                    </g>
                </g>
            </g>
        </g>
    </g>
</svg>