<?xml version="1.0" ?><svg height="512px" id="Layer_1" style="enable-background:new 0 0 512 512;" version="1.1" viewBox="0 0 512 512" width="512px" xml:space="preserve" xmlns="http://www.w3.org/2000/svg" xmlns:cc="http://creativecommons.org/ns#" xmlns:dc="http://purl.org/dc/elements/1.1/" xmlns:inkscape="http://www.inkscape.org/namespaces/inkscape" xmlns:rdf="http://www.w3.org/1999/02/22-rdf-syntax-ns#" xmlns:sodipodi="http://sodipodi.sourceforge.net/DTD/sodipodi-0.dtd" xmlns:svg="http://www.w3.org/2000/svg"><defs id="defs19"/><g id="g2996" transform="translate(0.32800146,0.07000866)"><g id="g2987" style="fill:none;stroke:#3c599b;stroke-width:10.19920349000000000;stroke-miterlimit:4;stroke-opacity:1;stroke-dasharray:none" transform="matrix(0.98046874,0,0,0.98046874,4.9935963,4.9986352)"><path d="m 511.672,255.92999 c 0,141.3849 -114.61511,256 -256,256 -141.3849,0 -256.00000293,-114.6151 -256.00000293,-256 C -0.32800293,114.5451 114.2871,-0.07000732 255.672,-0.07000732 c 141.38489,0 256,114.61510732 256,255.99999732 z" id="path2989" style="fill:none;stroke:#3c599b;stroke-width:10.19920349000000000;stroke-miterlimit:4;stroke-opacity:1;stroke-dasharray:none"/></g><g id="g2983" transform="translate(889.672,27.929991)"><path d="m -569.04671,178.74107 h -44.24162 v -29.01601 c 0,-10.89692 7.22213,-13.4374 12.30892,-13.4374 5.07517,0 31.22085,0 31.22085,0 V 88.38289 l -42.99733,-0.16782 c -47.73122,0 -58.59341,35.72891 -58.59341,58.59334 v 31.93266 h -27.60399 v 49.36309 h 27.60398 c 0,63.35027 0,139.68077 0,139.68077 h 58.06098 c 0,0 0,-77.08281 0,-139.68077 h 39.17799 l 5.06363,-49.36309 z" id="path2989-2" style="fill:#3c599b;fill-opacity:1"/></g></g><g id="Layer_1_1_"/></svg>