<?xml version="1.0" encoding="UTF-8"?>
<svg width="21px" height="20px" viewBox="0 0 21 20" version="1.1" xmlns="http://www.w3.org/2000/svg" xmlns:xlink="http://www.w3.org/1999/xlink">
    <!-- Generator: Sketch 40.1 (33804) - http://www.bohemiancoding.com/sketch -->
    <title>google</title>
    <desc>Created with Sketch.</desc>
    <defs></defs>
    <g id="webite-white" stroke="none" stroke-width="1" fill="none" fill-rule="evenodd">
        <g id="contactus" transform="translate(-583.000000, -484.000000)">
            <g id="google" transform="translate(583.200000, 484.000000)">
                <g id="Layer_1">
                    <circle id="Oval" fill="#000000" cx="10" cy="10" r="10"></circle>
                    <g id="Group" transform="translate(5.000000, 4.583333)" fill="#FFFFFF">
                        <path d="M5.33333333,6.16666667 C5.04166667,5.95833333 4.5,5.45833333 4.5,5.20833333 C4.5,4.875 4.58333333,4.70833333 5.08333333,4.29166667 C5.58333333,3.875 5.95833333,3.33333333 5.95833333,2.66666667 C5.95833333,1.875 5.625,1.125 4.95833333,0.833333333 L5.95833333,0.833333333 L6.66666667,0.333333333 L3.54166667,0.333333333 C2.125,0.333333333 0.791666667,1.41666667 0.791666667,2.625 C0.791666667,3.875 1.75,4.91666667 3.16666667,4.91666667 L3.45833333,4.91666667 C3.375,5.08333333 3.29166667,5.29166667 3.29166667,5.5 C3.29166667,5.83333333 3.5,6.125 3.70833333,6.375 L3.16666667,6.375 C1.41666667,6.375 0.0833333333,7.5 0.0833333333,8.625 C0.0833333333,9.75 1.54166667,10.4583333 3.29166667,10.4583333 C5.29166667,10.4583333 6.375,9.33333333 6.375,8.20833333 C6.41666667,7.33333333 6.16666667,6.75 5.33333333,6.16666667 L5.33333333,6.16666667 Z M3.625,4.625 C2.83333333,4.58333333 2.04166667,3.70833333 1.91666667,2.66666667 C1.79166667,1.58333333 2.33333333,0.791666667 3.125,0.833333333 C3.91666667,0.875 4.70833333,1.70833333 4.83333333,2.79166667 C5,3.79166667 4.45833333,4.625 3.625,4.625 L3.625,4.625 Z M3.33333333,10 C2.125,10 1.25,9.25 1.25,8.33333333 C1.25,7.41666667 2.33333333,6.66666667 3.54166667,6.70833333 C3.83333333,6.70833333 4.08333333,6.75 4.33333333,6.83333333 C5,7.29166667 5.45833333,7.54166667 5.58333333,8.08333333 C5.625,8.20833333 5.625,8.29166667 5.625,8.41666667 C5.625,9.25 5,10 3.33333333,10 L3.33333333,10 Z" id="Shape"></path>
                        <polygon id="Shape" points="8.66666667 4.70833333 8.66666667 3.5 7.66666667 3.5 7.66666667 4.70833333 6.45833333 4.70833333 6.45833333 5.66666667 7.66666667 5.66666667 7.66666667 6.91666667 8.66666667 6.91666667 8.66666667 5.66666667 9.875 5.66666667 9.875 4.70833333"></polygon>
                    </g>
                </g>
            </g>
        </g>
    </g>
</svg>