<?xml version="1.0" encoding="UTF-8"?>
<svg width="323px" height="253px" viewBox="0 0 323 253" version="1.1" xmlns="http://www.w3.org/2000/svg" xmlns:xlink="http://www.w3.org/1999/xlink">
    <!-- Generator: Sketch 40.1 (33804) - http://www.bohemiancoding.com/sketch -->
    <title>browser</title>
    <desc>Created with Sketch.</desc>
    <defs>
        <rect id="path-1" x="27" y="85" width="187" height="13"></rect>
        <mask id="mask-2" maskContentUnits="userSpaceOnUse" maskUnits="objectBoundingBox" x="0" y="0" width="187" height="13" fill="white">
            <use xlink:href="#path-1"></use>
        </mask>
        <rect id="path-3" x="27" y="105" width="187" height="13"></rect>
        <mask id="mask-4" maskContentUnits="userSpaceOnUse" maskUnits="objectBoundingBox" x="0" y="0" width="187" height="13" fill="white">
            <use xlink:href="#path-3"></use>
        </mask>
        <rect id="path-5" x="27" y="125" width="187" height="13"></rect>
        <mask id="mask-6" maskContentUnits="userSpaceOnUse" maskUnits="objectBoundingBox" x="0" y="0" width="187" height="13" fill="white">
            <use xlink:href="#path-5"></use>
        </mask>
        <rect id="path-7" x="27" y="145" width="187" height="13"></rect>
        <mask id="mask-8" maskContentUnits="userSpaceOnUse" maskUnits="objectBoundingBox" x="0" y="0" width="187" height="13" fill="white">
            <use xlink:href="#path-7"></use>
        </mask>
        <rect id="path-9" x="27" y="165" width="187" height="13"></rect>
        <mask id="mask-10" maskContentUnits="userSpaceOnUse" maskUnits="objectBoundingBox" x="0" y="0" width="187" height="13" fill="white">
            <use xlink:href="#path-9"></use>
        </mask>
        <rect id="path-11" x="27" y="185" width="187" height="13"></rect>
        <mask id="mask-12" maskContentUnits="userSpaceOnUse" maskUnits="objectBoundingBox" x="0" y="0" width="187" height="13" fill="white">
            <use xlink:href="#path-11"></use>
        </mask>
    </defs>
    <g id="Page-1" stroke="none" stroke-width="1" fill="none" fill-rule="evenodd">
        <g id="Desktop-HD" transform="translate(-82.000000, -364.000000)">
            <g id="browser" transform="translate(82.000000, 364.000000)">
                <g id="Layer_1">
                    <path d="M0.2,251.5 C0.2,252.3 0.8,252.9 1.6,252.9 L321.4,252.9 C322.2,252.9 322.8,252.3 322.8,251.5 L322.8,14.1 L0.2,14.1 L0.2,251.5 Z" id="Shape" fill="#2C3F4F"></path>
                    <path d="M322.8,50.4 L322.8,8.7 C322.8,4 319,0.2 314.3,0.2 L8.7,0.2 C4,0.2 0.2,4 0.2,8.7 L0.2,50.4 L322.8,50.4 L322.8,50.4 Z" id="Shape" fill="#EDF1F5"></path>
                    <g id="Group" transform="translate(210.000000, 14.000000)">
                        <circle id="Oval" fill="#FF6057" cx="74.5" cy="11.3" r="10.9"></circle>
                        <circle id="Oval" fill="#FFC12E" cx="42.9" cy="11.3" r="10.9"></circle>
                        <circle id="Oval" fill="#28CA40" cx="11.2" cy="11.3" r="10.9"></circle>
                    </g>
                </g>
                <use id="Rectangle-3" stroke="#979797" mask="url(#mask-2)" stroke-width="2" fill="#FFFFFF" opacity="0.499490489" xlink:href="#path-1"></use>
                <use id="Rectangle-3" stroke="#979797" mask="url(#mask-4)" stroke-width="2" fill="#FFFFFF" opacity="0.499490489" xlink:href="#path-3"></use>
                <use id="Rectangle-3" stroke="#979797" mask="url(#mask-6)" stroke-width="2" fill="#FFFFFF" opacity="0.499490489" xlink:href="#path-5"></use>
                <use id="Rectangle-3" stroke="#979797" mask="url(#mask-8)" stroke-width="2" fill="#FFFFFF" opacity="0.499490489" xlink:href="#path-7"></use>
                <use id="Rectangle-3" stroke="#979797" mask="url(#mask-10)" stroke-width="2" fill="#FFFFFF" opacity="0.499490489" xlink:href="#path-9"></use>
                <use id="Rectangle-3" stroke="#979797" mask="url(#mask-12)" stroke-width="2" fill="#FFFFFF" opacity="0.499490489" xlink:href="#path-11"></use>
                <g id="bugs" transform="translate(180.000000, 120.000000)">
                    <g id="Layer_1">
                        <g id="Group">
                            <path d="M78.5455312,39.4318261 C78.5455312,61.176087 60.9630469,78.8023281 39.2727656,78.8023281 C17.5824844,78.8023281 0,61.176087 0,39.4318261 C0,17.6875652 17.5824844,0.0613241107 39.2727656,0.0613241107 C60.9630469,0.0613241107 78.5455312,17.6875652 78.5455312,39.4318261" id="Shape" fill="#90BAE1"></path>
                            <g transform="translate(9.703125, 9.727273)" id="Shape" fill="#556080">
                                <path d="M23.6209922,8.05079842 C23.1183281,8.05079842 22.6156641,7.85794466 22.2326016,7.47392885 L18.3053672,3.53692095 C17.5375547,2.76719763 17.5375547,1.52316403 18.3053672,0.753440711 C19.0731797,-0.0162826087 20.314125,-0.0162826087 21.0819375,0.753440711 L25.0091719,4.69044862 C25.7769844,5.46017194 25.7769844,6.70420553 25.0091719,7.47392885 C24.6263203,7.85794466 24.1236563,8.05079842 23.6209922,8.05079842"></path>
                                <path d="M35.4026953,8.05079842 C34.9000312,8.05079842 34.3973672,7.85794466 34.0143047,7.47392885 C33.2464922,6.70420553 33.2464922,5.46017194 34.0143047,4.69044862 L37.9415391,0.753440711 C38.7093516,-0.0162826087 39.9502969,-0.0162826087 40.7181094,0.753440711 C41.4859219,1.52316403 41.4859219,2.76719763 40.7181094,3.53692095 L36.790875,7.47392885 C36.4082344,7.85794466 35.9055703,8.05079842 35.4026953,8.05079842"></path>
                                <path d="M15.7644141,21.8305375 C15.3912656,21.8305375 15.0124219,21.7241719 14.6766094,21.4998103 L9.28061719,17.8935296 L5.94822656,17.8935296 C4.86421875,17.8935296 3.98460937,17.0117312 3.98460937,15.9250257 C3.98460937,14.8383202 4.86421875,13.9565217 5.94822656,13.9565217 L10.4705156,13.9565217 L16.8562266,18.2242569 C17.7575625,18.8267134 18.0009844,20.0491779 17.4002344,20.9546601 C17.0211797,21.5232826 16.3987031,21.8305375 15.7644141,21.8305375"></path>
                                <path d="M2.01909375,37.5785692 C1.64594531,37.5785692 1.26710156,37.4722036 0.931289063,37.2478419 C0.029953125,36.6453854 -0.21346875,35.4229209 0.38728125,34.5174387 L4.89775781,27.7358379 L13.8029063,27.7358379 C14.8869141,27.7358379 15.7665234,28.6176364 15.7665234,29.7043419 C15.7665234,30.7910474 14.8869141,31.6728458 13.8029063,31.6728458 L6.99869531,31.6728458 L3.65470313,36.7024802 C3.27564844,37.2715257 2.65317188,37.5785692 2.01909375,37.5785692"></path>
                                <path d="M7.90994531,51.3583083 C7.53679687,51.3583083 7.15795312,51.2519427 6.82214062,51.027581 C5.92080469,50.4251245 5.67738281,49.2026601 6.27813281,48.2971779 L10.7886094,41.5155771 L17.7301406,41.5155771 C18.8141484,41.5155771 19.6937578,42.3973755 19.6937578,43.484081 C19.6937578,44.5707866 18.8141484,45.452585 17.7301406,45.452585 L12.8897578,45.452585 L9.54576562,50.4822194 C9.16671094,51.0512648 8.54423437,51.3583083 7.90994531,51.3583083"></path>
                                <path d="M43.2592734,21.8305375 C42.6249844,21.8305375 42.0025078,21.5234941 41.6236641,20.9544486 C41.0227031,20.0489664 41.2663359,18.826502 42.1676719,18.2240455 L48.5533828,13.9563103 L53.0756719,13.9563103 C54.1596797,13.9563103 55.0392891,14.8381087 55.0392891,15.9248142 C55.0392891,17.0115198 54.1594688,17.8933182 53.0756719,17.8933182 L49.7432813,17.8933182 L44.3472891,21.4995988 C44.0112656,21.7241719 43.6324219,21.8305375 43.2592734,21.8305375"></path>
                                <path d="M57.0048047,37.5785692 C56.3705156,37.5785692 55.7480391,37.2715257 55.3691953,36.7024802 L52.0252031,31.6728458 L45.2212031,31.6728458 C44.1371953,31.6728458 43.2575859,30.7910474 43.2575859,29.7043419 C43.2575859,28.6176364 44.1371953,27.7358379 45.2212031,27.7358379 L54.1263516,27.7358379 L58.6368281,34.5174387 C59.2377891,35.4229209 58.9941562,36.6453854 58.0928203,37.2478419 C57.7567969,37.472415 57.3777422,37.5785692 57.0048047,37.5785692"></path>
                                <path d="M51.1137422,51.3583083 C50.4794531,51.3583083 49.8569766,51.0512648 49.4781328,50.4822194 L46.1341406,45.452585 L41.2937578,45.452585 C40.20975,45.452585 39.3301406,44.5707866 39.3301406,43.484081 C39.3301406,42.3973755 40.20975,41.5155771 41.2937578,41.5155771 L48.2352891,41.5155771 L52.7457656,48.2971779 C53.3467266,49.2026601 53.1030938,50.4251245 52.2017578,51.027581 C51.8659453,51.2519427 51.4868906,51.3583083 51.1137422,51.3583083"></path>
                                <path d="M95.6245078,83.2971739 L76.7264063,64.3520415 C75.9645,63.5882391 74.7332578,63.5882391 73.9734609,64.3520415 L73.9243125,64.3991976 C73.1742188,65.1511581 71.9606953,65.163 71.1968906,64.4228814 L60.4302188,54.0015889 C58.8062109,56.0705375 56.9919375,57.9760257 54.9928828,59.6827391 L65.5924922,69.9445889 C66.3759141,70.7024704 66.3877266,71.9564427 65.6180156,72.7280692 C64.8580078,73.4899684 64.8580078,74.7240632 65.6180156,75.4859625 L84.8302031,94.7478656 C87.9976406,97.9210711 93.1932422,97.8187233 96.2290547,94.4408221 C99.0746016,91.2716344 98.6328984,86.3130514 95.6245078,83.2971739"></path>
                                <path d="M34.9050937,6.25823123 C31.8810937,3.40983202 27.1428047,3.40983202 24.1188047,6.25823123 C21.8351953,8.40986166 19.6948125,11.1696581 19.6948125,13.9571561 C19.6948125,13.9571561 20.4311953,23.7996759 29.5128984,23.7996759 C38.5946016,23.7996759 39.3309844,13.9571561 39.3309844,13.9571561 C39.3311953,11.1696581 37.1889141,8.4079585 34.9050937,6.25823123"></path>
                            </g>
                            <path d="M54.9249609,41.40033 C54.9249609,31.4867589 51.5200078,26.4080652 49.8881953,24.5419091 C49.6426641,24.2604526 49.3422891,24.0458182 49.0104844,23.9022352 C48.8474297,25.2881601 47.5358203,33.5263142 39.2158125,33.5263142 C30.8958047,33.5263142 29.5841953,25.2879486 29.4211406,23.9022352 C29.0893359,24.0460296 28.78875,24.2604526 28.5434297,24.5419091 C26.9116172,26.4080652 23.5066641,31.4867589 23.5066641,41.40033 C23.5066641,41.40033 23.2611328,49.028415 31.3611328,57.1485731 L32.5569375,58.3473538 C36.2348437,62.034413 42.1963594,62.034413 45.8742656,58.3473538 L47.0700703,57.1485731 C55.1702812,49.028415 54.9249609,41.40033 54.9249609,41.40033" id="Shape" fill="#F0C419"></path>
                            <polygon id="Shape" fill="#363E51" points="80.4393281 90.3456403 88.7711484 98.6981957 99.8793281 87.5621601 91.5477187 79.2098162"></polygon>
                        </g>
                    </g>
                </g>
            </g>
        </g>
    </g>
</svg>