<?xml version="1.0" encoding="UTF-8"?>
<svg width="246px" height="170px" viewBox="0 0 246 170" version="1.1" xmlns="http://www.w3.org/2000/svg" xmlns:xlink="http://www.w3.org/1999/xlink">
    <!-- Generator: Sketch 40.1 (33804) - http://www.bohemiancoding.com/sketch -->
    <title>Group 2</title>
    <desc>Created with Sketch.</desc>
    <defs></defs>
    <g id="Page-1" stroke="none" stroke-width="1" fill="none" fill-rule="evenodd">
        <g id="Desktop-HD" transform="translate(-768.000000, -603.000000)">
            <g id="Group-2" transform="translate(768.000000, 603.000000)">
                <g id="coding-(1)" transform="translate(40.000000, 0.000000)">
                    <g id="Layer_1">
                        <g id="Group">
                            <path d="M118.527111,156.784864 L49.1454035,156.784864 C49.1454035,150.380052 54.3229474,145.187228 60.7089123,145.187228 L106.963275,145.187228 C113.349567,145.1869 118.527111,150.380052 118.527111,156.784864" id="Shape" fill="#E8EDEE"></path>
                            <polygon id="Shape" fill="#B0B6BB" points="104.072561 145.1869 63.5999532 145.1869 69.3817076 121.991628 98.290807 121.991628"></polygon>
                            <path d="M167.672515,98.7960272 L0,98.7960272 L0,10.3633138 C0,4.75861088 4.53010526,0.215135983 10.1183158,0.215135983 L157.554526,0.215135983 C163.142737,0.215135983 167.672842,4.75861088 167.672842,10.3633138 L167.672842,98.7960272 L167.672515,98.7960272 Z" id="Shape" fill="#38454F"></path>
                            <path d="M157.554199,121.991628 L10.1183158,121.991628 C4.53010526,121.991628 0,117.448153 0,111.84345 L0,98.7960272 L167.672515,98.7960272 L167.672515,111.84345 C167.672515,117.448153 163.142409,121.991628 157.554199,121.991628" id="Shape" fill="#E8EDEE"></path>
                            <g transform="translate(22.923977, 11.495816)" id="Shape" fill="#EA6148">
                                <path d="M118.73048,75.7025753 L75.3668304,75.7025753 C73.7680468,75.7025753 72.4757895,74.4035481 72.4757895,72.8030021 C72.4757895,71.2024561 73.7680468,69.9034289 75.3668304,69.9034289 L118.73048,69.9034289 C120.329263,69.9034289 121.62152,71.2024561 121.62152,72.8030021 C121.621193,74.4035481 120.328936,75.7025753 118.73048,75.7025753"></path>
                                <path d="M32.0031813,58.3057929 L3.09408187,58.3057929 C1.49529825,58.3057929 0.203040936,57.0067657 0.203040936,55.4062197 C0.203040936,53.8056736 1.49529825,52.5066464 3.09408187,52.5066464 L32.0031813,52.5066464 C33.6019649,52.5066464 34.8942222,53.8056736 34.8942222,55.4062197 C34.8942222,57.0067657 33.6019649,58.3057929 32.0031813,58.3057929"></path>
                                <path d="M104.27593,58.3057929 L60.9122807,58.3057929 C59.3134971,58.3057929 58.0212398,57.0067657 58.0212398,55.4062197 C58.0212398,53.8056736 59.3134971,52.5066464 60.9122807,52.5066464 L104.27593,52.5066464 C105.874713,52.5066464 107.166971,53.8056736 107.166971,55.4062197 C107.166643,57.0067657 105.874386,58.3057929 104.27593,58.3057929"></path>
                                <path d="M46.457731,58.3057929 C46.0817778,58.3057929 45.706152,58.2187531 45.359345,58.0739059 C44.9833918,57.9290586 44.6945497,57.7260753 44.4053801,57.4649561 C43.8820585,56.9141423 43.5670175,56.189249 43.5670175,55.4062197 C43.5670175,54.6231904 43.8820585,53.8986255 44.4053801,53.3474833 C44.6945497,53.0866925 44.9837193,52.8837092 45.359345,52.7385335 C46.3971462,52.3036632 47.7008655,52.5355502 48.5104094,53.3474833 C49.0307836,53.8982971 49.3487719,54.6520941 49.3487719,55.4062197 C49.3487719,56.1600167 49.0307836,56.9138138 48.5104094,57.4649561 C47.9608889,57.9868661 47.2093099,58.3057929 46.457731,58.3057929"></path>
                                <path d="M60.9122807,75.7025753 L17.5486316,75.7025753 C15.949848,75.7025753 14.6575906,74.4035481 14.6575906,72.8030021 C14.6575906,71.2024561 15.949848,69.9034289 17.5486316,69.9034289 L60.9122807,69.9034289 C62.5110643,69.9034289 63.8033216,71.2024561 63.8033216,72.8030021 C63.8033216,74.4035481 62.5110643,75.7025753 60.9122807,75.7025753"></path>
                                <path d="M3.09408187,75.7025753 C2.71812865,75.7025753 2.34250292,75.6155356 1.99569591,75.4706883 C1.64888889,75.325841 1.33090058,75.1228577 1.04173099,74.8617385 C0.518409357,74.3109247 0.203368421,73.5860314 0.203368421,72.8030021 C0.203368421,72.4259393 0.290152047,72.049205 0.434573099,71.7013745 C0.578994152,71.3243117 0.781380117,71.0346172 1.04173099,70.7445941 C1.73567251,70.0778368 2.71845614,69.7878138 3.64065497,69.9618933 C3.8459883,69.9907971 4.01660819,70.0489331 4.19279532,70.1359728 C4.3634152,70.1941088 4.53960234,70.2808201 4.68435088,70.3967636 C4.85497076,70.5127071 5.00233918,70.6286506 5.14676023,70.7445941 C5.40678363,71.0346172 5.60916959,71.3246402 5.75391813,71.7013745 C5.89833918,72.049205 5.98512281,72.4262678 5.98512281,72.8030021 C5.98512281,73.5857029 5.6671345,74.3105962 5.14676023,74.8617385 C5.00233918,74.977682 4.85464327,75.0936255 4.68435088,75.209569 C4.53992982,75.3255126 4.3634152,75.4125523 4.19279532,75.4703598 C4.01660819,75.5573996 3.8459883,75.6152071 3.64065497,75.6444393 C3.47003509,75.6733431 3.26764912,75.7025753 3.09408187,75.7025753"></path>
                                <path d="M118.73048,58.3057929 C118.554292,58.3057929 118.354526,58.2768891 118.181287,58.2476569 C117.978901,58.2187531 117.805333,58.1606172 117.632094,58.0735774 C117.458526,58.0154414 117.285287,57.9287301 117.108772,57.8127866 C116.966971,57.6968431 116.82255,57.5808996 116.678129,57.4649561 C116.154807,56.9141423 115.839766,56.1603452 115.839766,55.4062197 C115.839766,54.6524226 116.154807,53.8986255 116.678129,53.3474833 L117.108772,52.9996527 C117.285287,52.8837092 117.458526,52.7966695 117.632094,52.7388619 C117.805661,52.6518222 117.978901,52.5940146 118.181287,52.5647824 C119.106433,52.3617992 120.115415,52.6807259 120.783158,53.3474833 C120.89876,53.4923305 121.014363,53.6375063 121.129965,53.8112573 C121.245567,53.9561046 121.329404,54.1301841 121.389988,54.3042636 C121.476772,54.4783431 121.534409,54.6520941 121.560608,54.8550774 C121.592374,55.0291569 121.621193,55.2321402 121.621193,55.4058912 C121.621193,55.5796423 121.592374,55.782954 121.560608,55.9859372 C121.534737,56.1600167 121.476772,56.3337678 121.389988,56.5078473 C121.329404,56.6819268 121.245567,56.8556778 121.129965,57.0297573 C121.014363,57.1746046 120.89876,57.3197803 120.783158,57.4646276 C120.638737,57.5805711 120.491041,57.6965146 120.349567,57.8124582 C120.176,57.9284017 119.999813,58.0154414 119.829193,58.073249 C119.653006,58.1602887 119.482386,58.2180962 119.277053,58.2473285 C119.106105,58.2768891 118.903719,58.3057929 118.73048,58.3057929"></path>
                                <path d="M118.73048,23.5125565 L75.3668304,23.5125565 C73.7680468,23.5125565 72.4757895,22.2135293 72.4757895,20.6129833 C72.4757895,19.0124372 73.7680468,17.71341 75.3668304,17.71341 L118.73048,17.71341 C120.329263,17.71341 121.62152,19.0124372 121.62152,20.6129833 C121.62152,22.2135293 120.328936,23.5125565 118.73048,23.5125565"></path>
                                <path d="M118.73048,40.9093389 L89.8213801,40.9093389 C88.2225965,40.9093389 86.9303392,39.6103117 86.9303392,38.0097657 C86.9303392,36.4092197 88.2225965,35.1101925 89.8213801,35.1101925 L118.73048,35.1101925 C120.329263,35.1101925 121.62152,36.4092197 121.62152,38.0097657 C121.62152,39.6103117 120.328936,40.9093389 118.73048,40.9093389"></path>
                                <path d="M66.6940351,40.9093389 L60.9122807,40.9093389 C59.3134971,40.9093389 58.0212398,39.6103117 58.0212398,38.0097657 C58.0212398,36.4092197 59.3134971,35.1101925 60.9122807,35.1101925 L66.6940351,35.1101925 C68.2928187,35.1101925 69.585076,36.4092197 69.585076,38.0097657 C69.585076,39.6103117 68.2928187,40.9093389 66.6940351,40.9093389"></path>
                                <path d="M104.27593,6.11610251 L60.9122807,6.11610251 C59.3134971,6.11610251 58.0212398,4.81707531 58.0212398,3.21652929 C58.0212398,1.61598326 59.3134971,0.316956067 60.9122807,0.316956067 L104.27593,0.316956067 C105.874713,0.316956067 107.166971,1.61598326 107.166971,3.21652929 C107.166971,4.81707531 105.874386,6.11610251 104.27593,6.11610251"></path>
                                <path d="M118.73048,6.11610251 C118.554292,6.11610251 118.354526,6.08719874 118.181287,6.05796653 C117.978901,6.02906276 117.805333,5.97092678 117.632094,5.88388703 C117.458526,5.82575105 117.285287,5.73903975 117.108772,5.62309623 C116.966971,5.50715272 116.82255,5.39120921 116.678129,5.27526569 C116.154807,4.72445188 115.839766,3.97065481 115.839766,3.21652929 C115.839766,2.46273222 116.154807,1.70893515 116.678129,1.15779289 L117.108772,0.809962343 C117.285287,0.694018828 117.458526,0.606979079 117.632094,0.549171548 C117.805661,0.462131799 117.978901,0.404324268 118.181287,0.37509205 C119.106433,0.172108787 120.115415,0.491035565 120.783158,1.15779289 C120.89876,1.30264017 121.014363,1.4478159 121.129965,1.62156695 C121.245567,1.76641423 121.329404,1.94049372 121.389988,2.11457322 C121.476772,2.28865272 121.534409,2.46240377 121.560608,2.66538703 C121.592374,2.83946653 121.621193,3.04244979 121.621193,3.21620084 C121.621193,3.38995188 121.592374,3.5932636 121.560608,3.79624686 C121.534737,3.97032636 121.476772,4.14407741 121.389988,4.3181569 C121.329404,4.4922364 121.245567,4.66598745 121.129965,4.84006695 C121.014363,4.98491423 120.89876,5.13008996 120.783158,5.27493724 C120.638737,5.39088075 120.491041,5.50682427 120.349567,5.62276778 C120.176,5.7387113 119.999813,5.82575105 119.829193,5.88355858 C119.653006,5.97059833 119.482386,6.02840586 119.277053,6.05763808 C119.106105,6.08687029 118.903719,6.11610251 118.73048,6.11610251"></path>
                                <path d="M63.8033216,23.5125565 C63.0517427,23.5125565 62.2972164,23.1936297 61.7506433,22.6717197 C61.4906199,22.3816967 61.2882339,22.0627699 61.1434854,21.7149393 C60.9987368,21.3671088 60.9122807,20.990046 60.9122807,20.6133117 C60.9122807,20.236249 60.9990643,19.8595146 61.1434854,19.5116841 C61.2879064,19.1638536 61.4902924,18.8449268 61.7506433,18.5549038 C62.4154386,17.8881464 63.4273684,17.5981234 64.3495673,17.7722029 C64.5549006,17.8011067 64.7255205,17.8592427 64.9017076,17.9462824 C65.0723275,18.0044184 65.2485146,18.0911297 65.3932632,18.2070732 C65.563883,18.3230167 65.7112515,18.4389603 65.8268538,18.5549038 C66.1160234,18.8449268 66.3184094,19.1638536 66.4628304,19.5116841 C66.6072515,19.8595146 66.6940351,20.2365774 66.6940351,20.6133117 C66.6940351,20.9903745 66.6072515,21.3671088 66.4628304,21.7149393 C66.3184094,22.0627699 66.1160234,22.3816967 65.8268538,22.6717197 C65.7112515,22.7876632 65.563883,22.9036067 65.3932632,23.0195502 C65.2488421,23.1354937 65.0723275,23.2225335 64.9017076,23.280341 C64.7255205,23.3673808 64.5549006,23.4251883 64.3495673,23.4544205 C64.1789474,23.4836527 63.9765614,23.5125565 63.8033216,23.5125565"></path>
                                <path d="M78.2578713,40.9093389 C77.4745263,40.9093389 76.7517661,40.5904121 76.205193,40.0685021 C75.6818713,39.5176883 75.3668304,38.7638912 75.3668304,38.0097657 C75.3668304,37.2559686 75.6818713,36.5021715 76.205193,35.9510293 C77.2747602,34.8783054 79.240655,34.8783054 80.3102222,35.9510293 C80.8305965,36.5018431 81.1485848,37.2556402 81.1485848,38.0097657 C81.1485848,38.212749 81.1197661,38.3868285 81.088,38.5898117 C81.0621287,38.7638912 81.0041637,38.9376423 80.9173801,39.1117218 C80.8567953,39.2858013 80.7729591,39.4595523 80.6573567,39.6336318 C80.5417544,39.7784791 80.426152,39.9236548 80.3105497,40.0685021 C79.7610292,40.5904121 79.038269,40.9093389 78.2578713,40.9093389"></path>
                            </g>
                            <polygon id="Shape" fill="#ECBA16" points="26.0180585 52.4051548 66.4906667 52.4051548 66.4906667 11.8131004 26.0180585 11.8131004"></polygon>
                        </g>
                    </g>
                </g>
                <g id="speakers" transform="translate(197.000000, 105.000000)">
                    <g id="Layer_1">
                        <g id="Group">
                            <path d="M2.89912796,0 L46.2801517,0 C47.7678009,0 48.9749194,1.21898214 48.9749194,2.71816071 L48.9749194,62.2254286 C48.9749194,63.7266964 47.7678009,64.9454464 46.2801517,64.9454464 L2.89912796,64.9454464 C1.40962085,64.9454464 0.20250237,63.7266964 0.20250237,62.2254286 L0.20250237,2.71816071 C0.202270142,1.21689286 1.40938863,0 2.89912796,0 L2.89912796,0 Z" id="Shape" fill="#324D5B"></path>
                            <path d="M24.5887109,32.5336607 C31.3274882,32.5336607 36.7920332,37.9841429 36.7920332,44.7039821 C36.7920332,51.428 31.3295782,56.8763929 24.5887109,56.8763929 C17.8478436,56.8763929 12.3874787,51.4259107 12.3874787,44.7039821 C12.3872464,37.9839107 17.8499336,32.5336607 24.5887109,32.5336607 L24.5887109,32.5336607 Z" id="Shape" fill="#ECBA16"></path>
                            <path d="M24.5887109,36.5457857 C29.0920664,36.5457857 32.7417536,40.1841607 32.7417536,44.6735714 C32.7417536,49.1629821 29.0918341,52.8013571 24.5887109,52.8013571 C20.0855877,52.8013571 16.4356682,49.1629821 16.4356682,44.6735714 C16.4356682,40.1841607 20.0853555,36.5457857 24.5887109,36.5457857 L24.5887109,36.5457857 Z" id="Shape" fill="#324D5B"></path>
                            <path d="M24.5887109,42.6462679 C25.7247678,42.6462679 26.6453175,43.5562679 26.6453175,44.6798393 C26.6453175,45.8010893 25.7247678,46.7113214 24.5887109,46.7113214 C23.452654,46.7113214 22.5341943,45.8013214 22.5341943,44.6798393 C22.5341943,43.5562679 23.452654,42.6462679 24.5887109,42.6462679 L24.5887109,42.6462679 Z" id="Shape" fill="#E4E7E7"></path>
                            <path d="M24.5887109,8.097375 C29.0920664,8.097375 32.7417536,11.73575 32.7417536,16.2251607 C32.7417536,20.7145714 29.0918341,24.3529464 24.5887109,24.3529464 C20.0855877,24.3529464 16.4356682,20.7145714 16.4356682,16.2251607 C16.4356682,11.73575 20.0853555,8.097375 24.5887109,8.097375 L24.5887109,8.097375 Z" id="Shape" fill="#E4E7E7"></path>
                            <path d="M24.5887109,10.1613571 C27.9520616,10.1613571 30.6811991,12.8915893 30.6811991,16.25975 C30.6811991,19.6258214 27.9520616,22.3560536 24.5887109,22.3560536 C21.2253602,22.3560536 18.4983128,19.6258214 18.4983128,16.25975 C18.4980806,12.8895 21.2253602,10.1613571 24.5887109,10.1613571 L24.5887109,10.1613571 Z" id="Shape" fill="#324D5B"></path>
                            <path d="M24.5887109,14.1997143 C25.7003839,14.1997143 26.6004976,15.1078571 26.6004976,16.2311964 C26.6004976,17.3545357 25.7001517,18.2626786 24.5887109,18.2626786 C23.4770379,18.2626786 22.5769242,17.3545357 22.5769242,16.2311964 C22.5769242,15.1078571 23.4770379,14.1997143 24.5887109,14.1997143 L24.5887109,14.1997143 Z" id="Shape" fill="#ECBA16"></path>
                        </g>
                    </g>
                </g>
                <g id="speakers" transform="translate(0.000000, 105.000000)">
                    <g id="Layer_1">
                        <g id="Group">
                            <path d="M2.89912796,0 L46.2801517,0 C47.7678009,0 48.9749194,1.21898214 48.9749194,2.71816071 L48.9749194,62.2254286 C48.9749194,63.7266964 47.7678009,64.9454464 46.2801517,64.9454464 L2.89912796,64.9454464 C1.40962085,64.9454464 0.20250237,63.7266964 0.20250237,62.2254286 L0.20250237,2.71816071 C0.202270142,1.21689286 1.40938863,0 2.89912796,0 L2.89912796,0 Z" id="Shape" fill="#324D5B"></path>
                            <path d="M24.5887109,32.5336607 C31.3274882,32.5336607 36.7920332,37.9841429 36.7920332,44.7039821 C36.7920332,51.428 31.3295782,56.8763929 24.5887109,56.8763929 C17.8478436,56.8763929 12.3874787,51.4259107 12.3874787,44.7039821 C12.3872464,37.9839107 17.8499336,32.5336607 24.5887109,32.5336607 L24.5887109,32.5336607 Z" id="Shape" fill="#ECBA16"></path>
                            <path d="M24.5887109,36.5457857 C29.0920664,36.5457857 32.7417536,40.1841607 32.7417536,44.6735714 C32.7417536,49.1629821 29.0918341,52.8013571 24.5887109,52.8013571 C20.0855877,52.8013571 16.4356682,49.1629821 16.4356682,44.6735714 C16.4356682,40.1841607 20.0853555,36.5457857 24.5887109,36.5457857 L24.5887109,36.5457857 Z" id="Shape" fill="#324D5B"></path>
                            <path d="M24.5887109,42.6462679 C25.7247678,42.6462679 26.6453175,43.5562679 26.6453175,44.6798393 C26.6453175,45.8010893 25.7247678,46.7113214 24.5887109,46.7113214 C23.452654,46.7113214 22.5341943,45.8013214 22.5341943,44.6798393 C22.5341943,43.5562679 23.452654,42.6462679 24.5887109,42.6462679 L24.5887109,42.6462679 Z" id="Shape" fill="#E4E7E7"></path>
                            <path d="M24.5887109,8.097375 C29.0920664,8.097375 32.7417536,11.73575 32.7417536,16.2251607 C32.7417536,20.7145714 29.0918341,24.3529464 24.5887109,24.3529464 C20.0855877,24.3529464 16.4356682,20.7145714 16.4356682,16.2251607 C16.4356682,11.73575 20.0853555,8.097375 24.5887109,8.097375 L24.5887109,8.097375 Z" id="Shape" fill="#E4E7E7"></path>
                            <path d="M24.5887109,10.1613571 C27.9520616,10.1613571 30.6811991,12.8915893 30.6811991,16.25975 C30.6811991,19.6258214 27.9520616,22.3560536 24.5887109,22.3560536 C21.2253602,22.3560536 18.4983128,19.6258214 18.4983128,16.25975 C18.4980806,12.8895 21.2253602,10.1613571 24.5887109,10.1613571 L24.5887109,10.1613571 Z" id="Shape" fill="#324D5B"></path>
                            <path d="M24.5887109,14.1997143 C25.7003839,14.1997143 26.6004976,15.1078571 26.6004976,16.2311964 C26.6004976,17.3545357 25.7001517,18.2626786 24.5887109,18.2626786 C23.4770379,18.2626786 22.5769242,17.3545357 22.5769242,16.2311964 C22.5769242,15.1078571 23.4770379,14.1997143 24.5887109,14.1997143 L24.5887109,14.1997143 Z" id="Shape" fill="#ECBA16"></path>
                        </g>
                    </g>
                </g>
            </g>
        </g>
    </g>
</svg>