<?xml version="1.0" encoding="UTF-8"?>
<svg width="21px" height="20px" viewBox="0 0 21 20" version="1.1" xmlns="http://www.w3.org/2000/svg" xmlns:xlink="http://www.w3.org/1999/xlink">
    <!-- Generator: Sketch 40.1 (33804) - http://www.bohemiancoding.com/sketch -->
    <title>github</title>
    <desc>Created with Sketch.</desc>
    <defs></defs>
    <g id="webite-white" stroke="none" stroke-width="1" fill="none" fill-rule="evenodd">
        <g id="contactus" transform="translate(-717.000000, -484.000000)" fill="#000000">
            <g id="github" transform="translate(717.800000, 484.000000)">
                <path d="M10,0 C4.47753906,0 0,4.48813753 0,10.0236703 C0,14.4530754 2.865,18.2095045 6.83898437,19.5346455 C7.33886719,19.6264247 7.52136719,19.316846 7.52136719,19.05255 C7.52136719,18.8139397 7.51220703,18.0235185 7.50732422,17.1865812 C4.7265625,17.7922497 4.13878906,16.0045907 4.13878906,16.0045907 C3.68347656,14.8470722 3.02855469,14.5387268 3.02855469,14.5387268 C2.11974609,13.9171418 3.0975,13.9293778 3.0975,13.9293778 C4.10152344,13.9991127 4.63011719,14.9620899 4.63011719,14.9620899 C5.52246094,16.4940278 6.97142578,16.0510873 7.54027344,15.7941328 C7.63117187,15.1480759 7.88996094,14.7051354 8.17503906,14.4555226 C5.95519531,14.2022487 3.62,13.3420533 3.62,9.50118647 C3.62,8.40606134 4.01001953,7.51285834 4.6484375,6.81112311 C4.54650391,6.55661586 4.20226562,5.53674656 4.74730469,4.15716063 C4.74730469,4.15716063 5.5859375,3.88797027 7.49753906,5.18497839 C8.29464844,4.96167764 9.14976563,4.85155431 9.99998047,4.84787374 C10.8495898,4.85155431 11.705293,4.96289144 12.5036523,5.18619219 C14.4116211,3.88797027 15.2514648,4.15837444 15.2514648,4.15837444 C15.7983398,5.53919375 15.4541016,6.55782967 15.3515625,6.81112311 C15.9924219,7.51285834 16.3793945,8.40608092 16.3793945,9.50118647 C16.3793945,13.3518421 14.0405273,14.1997819 11.8127539,14.448181 C12.1728711,14.7589735 12.4914648,15.3683226 12.4914648,16.3031473 C12.4914648,17.642991 12.4780273,18.7234134 12.4780273,19.0537834 C12.4780273,19.3205266 12.6599023,19.6325329 13.1665039,19.5346455 C17.1374609,18.2070574 20,14.4506282 20,10.0236703 C20,4.48813753 15.5224609,0 10,0 L10,0 Z" id="Shape"></path>
            </g>
        </g>
    </g>
</svg>