<?xml version="1.0" encoding="UTF-8"?>
<svg width="100px" height="100px" viewBox="0 0 100 100" version="1.1" xmlns="http://www.w3.org/2000/svg" xmlns:xlink="http://www.w3.org/1999/xlink">
    <!-- Generator: Sketch 40.1 (33804) - http://www.bohemiancoding.com/sketch -->
    <title>woman</title>
    <desc>Created with Sketch.</desc>
    <defs></defs>
    <g id="Page-1" stroke="none" stroke-width="1" fill="none" fill-rule="evenodd">
        <g id="Workshops-Details" transform="translate(-776.000000, -166.000000)">
            <g id="woman" transform="translate(776.000000, 166.000000)">
                <g id="Layer_1">
                    <circle id="Oval" fill="#90DFAA" cx="50" cy="50" r="50"></circle>
                    <g id="Group" transform="translate(28.373016, 33.730159)" fill="#2B3B4E">
                        <path d="M40.3571429,0 C40.3571429,0 38.3134921,19.8412698 43.0753968,33.2539683 L19.6230159,33.2539683 L19.6230159,0 L40.3571429,0 L40.3571429,0 Z" id="Shape"></path>
                        <path d="M2.8968254,0 C2.8968254,0 4.94047619,19.8412698 0.178571429,33.2539683 L23.6309524,33.2539683 L23.6309524,0 L2.8968254,0 L2.8968254,0 Z" id="Shape"></path>
                    </g>
                    <path d="M60.4960317,61.547619 C60.4960317,70.515873 55.7936508,73.6309524 49.9801587,73.6309524 C44.1865079,73.6309524 39.4642857,70.515873 39.4642857,61.547619 C39.4642857,52.5793651 44.1666667,41.1309524 49.9801587,41.1309524 C55.7936508,41.1309524 60.4960317,52.5793651 60.4960317,61.547619 L60.4960317,61.547619 Z" id="Shape" fill="#FFC66D"></path>
                    <path d="M69.3055556,33.7301587 C68.9087302,45.2380952 60.4166667,54.4246032 50,54.4246032 C41.1507937,54.4246032 33.6706349,47.7777778 31.3888889,38.7103175 C30.9126984,36.8452381 30.6746032,34.8809524 30.6746032,32.8571429 C30.6746032,20.952381 39.3253968,11.2896825 50,11.2896825 C50.8928571,11.2896825 51.7857143,11.3492063 52.6587302,11.4880952 C55.0992063,11.8650794 57.3809524,12.7380952 59.4246032,14.0277778 C65.3373016,17.718254 69.3253968,24.7619048 69.3253968,32.8571429 C69.3253968,33.1547619 69.3253968,33.452381 69.3055556,33.7301587 Z" id="Shape" fill="#FFD05B"></path>
                    <path d="M59.4246032,14.047619 C57.3809524,12.7579365 55.0992063,11.8849206 52.6587302,11.5079365 C51.7857143,11.3690476 50.8928571,11.3095238 50,11.3095238 C39.3253968,11.3095238 30.6746032,20.952381 30.6746032,32.8769841 C30.6746032,34.9007937 30.9325397,36.8849206 31.3888889,38.7301587 C43.8095238,36.1309524 51.031746,28.9880952 55.0793651,22.8968254 C57.9563492,28.6706349 63.1746032,32.8174603 69.2857143,33.75 C69.3055556,33.452381 69.3055556,33.1547619 69.3055556,32.8769841 C69.3253968,24.7619048 65.3373016,17.718254 59.4246032,14.047619 L59.4246032,14.047619 Z" id="Shape" fill="#2B3B4E"></path>
                    <path d="M63.2738095,65.5357143 C59.484127,68.4126984 54.9206349,70.0992063 50,70.0992063 C44.9206349,70.0992063 40.2380952,68.3134921 36.3888889,65.2777778 C35.3968254,69.1071429 32.7777778,72.3015873 28.4920635,72.8968254 C32.2420635,81.984127 40.4365079,88.3134921 49.9801587,88.3134921 C57.5595238,88.3134921 64.2857143,84.3253968 68.6309524,78.1349206 C64.2857143,75.9920635 62.5,70.4761905 63.2738095,65.5357143 L63.2738095,65.5357143 Z" id="Shape" fill="#FF7058"></path>
                    <path d="M83.4920635,87.1428571 C81.2103175,89.2063492 78.7301587,91.0515873 76.0912698,92.6587302 C78.0753968,81.0119048 81.4880952,69.3055556 81.4880952,69.3055556 C81.4880952,69.3055556 82.5793651,78.3134921 83.4920635,87.1428571 L83.4920635,87.1428571 Z" id="Shape" fill="#CED5E0"></path>
                    <path d="M76.0912698,92.6587302 C68.4920635,97.3214286 59.5634921,100 50,100 L50,87.7579365 C50,87.718254 50.0595238,87.6190476 50.1388889,87.4404762 L50.2579365,87.1825397 C50.2777778,87.1428571 50.297619,87.0833333 50.3174603,87.0436508 L50.6547619,86.2896825 C50.7539683,86.0714286 50.8531746,85.8333333 50.9722222,85.5753968 C52.1825397,82.6984127 54.4047619,77.3809524 56.3492063,71.8849206 C56.7063492,70.8531746 57.0634921,69.8214286 57.4007937,68.8095238 C57.5992063,68.2142857 57.797619,67.5992063 57.9761905,67.0039683 C58.6309524,64.8611111 59.2063492,62.797619 59.5833333,60.952381 C59.8809524,61.031746 60.1984127,61.1111111 60.4960317,61.2103175 C62.3611111,61.7261905 64.4047619,62.3412698 66.547619,63.0555556 C67.8769841,63.4920635 69.265873,63.968254 70.6349206,64.5039683 C74.3055556,65.8134921 78.0555556,67.4206349 81.4880952,69.3055556 C81.4880952,69.3055556 78.0753968,80.9920635 76.0912698,92.6587302 Z" id="Shape" fill="#E6E9EE"></path>
                    <path d="M64.3452381,67.4801587 L67.0634921,74.0674603 L50.952381,86.984127 L50,87.7380952 C50,87.7380952 50.3769841,86.9246032 50.952381,85.5357143 C53.015873,80.6746032 57.9365079,68.75 59.5833333,60.9126984 C59.9007937,59.3253968 60.0992063,57.9166667 60.1190476,56.7460317 C60.1190476,56.7460317 63.8888889,60.1785714 66.547619,62.9960317 C67.3809524,63.8690476 68.0952381,64.6825397 68.5515873,65.297619 L64.3452381,67.4801587 L64.3452381,67.4801587 Z" id="Shape" fill="#FFFFFF"></path>
                    <path d="M23.9087302,92.6587302 C21.2698413,91.0515873 18.7896825,89.2063492 16.5277778,87.1428571 C17.4404762,78.3333333 18.531746,69.3253968 18.531746,69.3253968 C18.531746,69.3253968 18.9285714,70.7142857 19.5436508,72.9960317 C19.6230159,73.3134921 19.7222222,73.6309524 19.8015873,73.9880952 C19.9007937,74.3253968 19.9801587,74.6825397 20.0793651,75.0595238 C20.1785714,75.4365079 20.2777778,75.8134921 20.3769841,76.2301587 C20.4960317,76.6666667 20.5952381,77.1031746 20.7142857,77.5595238 C20.8333333,78.0555556 20.9722222,78.5714286 21.0912698,79.1071429 C21.3888889,80.3571429 21.7063492,81.7063492 22.0238095,83.0952381 C22.1626984,83.7698413 22.3214286,84.4444444 22.4603175,85.1388889 C22.8571429,86.9444444 23.234127,88.7896825 23.5714286,90.6746032 C23.6507937,91.1309524 23.75,91.5873016 23.8293651,92.0436508 C23.8293651,92.2420635 23.8690476,92.4603175 23.9087302,92.6587302 L23.9087302,92.6587302 Z" id="Shape" fill="#CED5E0"></path>
                    <path d="M50,87.7579365 L50,100 C40.4365079,100 31.5079365,97.3214286 23.9087302,92.6587302 C23.8690476,92.4603175 23.8293651,92.2420635 23.7896825,92.0436508 C23.7103175,91.5873016 23.6309524,91.1309524 23.531746,90.6746032 C23.1944444,88.7896825 22.8174603,86.9246032 22.4206349,85.1388889 C22.281746,84.4444444 22.1230159,83.7698413 21.984127,83.0952381 C21.6666667,81.7063492 21.3690476,80.3769841 21.0515873,79.1071429 C20.9325397,78.5714286 20.7936508,78.0555556 20.6746032,77.5595238 C20.5555556,77.1031746 20.4563492,76.6468254 20.3373016,76.2301587 C20.2380952,75.8333333 20.1388889,75.4365079 20.0396825,75.0595238 C19.9404762,74.6825397 19.8611111,74.3253968 19.7619048,73.9880952 C19.6626984,73.6507937 19.5833333,73.3134921 19.5039683,72.9960317 C18.8888889,70.7142857 18.4920635,69.3253968 18.4920635,69.3253968 C21.9246032,67.4404762 25.6746032,65.8333333 29.3452381,64.4642857 C30.734127,63.9484127 32.1031746,63.4722222 33.4325397,63.015873 C35.5753968,62.3015873 37.6190476,61.6865079 39.484127,61.1706349 C39.8015873,61.0912698 40.0992063,60.9920635 40.3968254,60.9126984 C40.4563492,61.1507937 40.4960317,61.4087302 40.5555556,61.6666667 C40.734127,62.5 40.952381,63.3730159 41.2103175,64.265873 C41.3095238,64.6428571 41.4087302,65 41.5277778,65.3769841 C41.6865079,65.8928571 41.8452381,66.4285714 42.0039683,66.9642857 C42.0436508,67.1031746 42.1031746,67.2420635 42.1428571,67.3809524 C42.281746,67.8571429 42.4404762,68.3134921 42.5992063,68.7896825 C42.9365079,69.8015873 43.2936508,70.8333333 43.6507937,71.8452381 C44.1865079,73.3531746 44.7420635,74.8611111 45.297619,76.3095238 C45.4761905,76.765873 45.6547619,77.2222222 45.8134921,77.6785714 C45.952381,78.0555556 46.1111111,78.4126984 46.25,78.7698413 C46.3690476,79.0674603 46.4880952,79.3849206 46.6071429,79.6825397 C46.7460317,80.0396825 46.9047619,80.3968254 47.0436508,80.7539683 C47.2222222,81.2301587 47.4206349,81.7063492 47.5992063,82.1428571 C48.1547619,83.4722222 48.6309524,84.6428571 49.0277778,85.5555556 C49.1468254,85.8134921 49.2460317,86.0515873 49.3452381,86.2698413 L49.6825397,87.0238095 C49.8611111,87.4404762 49.9801587,87.6785714 50,87.7579365 L50,87.7579365 L50,87.7579365 Z" id="Shape" fill="#E6E9EE"></path>
                    <path d="M35.6547619,67.4801587 L32.9365079,74.0873016 L49.047619,87.0039683 L50,87.7579365 C50,87.7579365 49.6230159,86.9444444 49.047619,85.5555556 C46.984127,80.6944444 42.0634921,68.7698413 40.4166667,60.9325397 C40.0992063,59.3452381 39.9007937,57.9365079 39.8809524,56.765873 C39.8809524,56.765873 36.1111111,60.1984127 33.452381,63.015873 C32.6190476,63.8888889 31.9047619,64.702381 31.4484127,65.3174603 L35.6547619,67.4801587 L35.6547619,67.4801587 Z" id="Shape" fill="#FFFFFF"></path>
                </g>
            </g>
        </g>
    </g>
</svg>