<?xml version="1.0" encoding="UTF-8"?>
<svg width="824px" height="161px" viewBox="0 0 824 161" version="1.1" xmlns="http://www.w3.org/2000/svg" xmlns:xlink="http://www.w3.org/1999/xlink">
    <!-- Generator: Sketch 40.1 (33804) - http://www.bohemiancoding.com/sketch -->
    <title>clouds</title>
    <desc>Created with Sketch.</desc>
    <defs></defs>
    <g id="webite-white" stroke="none" stroke-width="1" fill="none" fill-rule="evenodd">
        <g id="Home" transform="translate(-376.000000, -133.000000)" fill="#96C8E9">
            <g id="clouds" transform="translate(376.000000, 133.000000)">
                <path d="M0,57.3954522 C0,49.1239589 6.70526651,42.4186924 14.9767598,42.4186924 C16.2252014,42.4186924 17.4185981,42.6161732 18.5779464,42.9038822 C22.4861362,38.683582 28.0269472,36 34.2322695,36 C46.0487696,36 55.6277217,45.5789522 55.6277217,57.3954522 L0,57.3954522 L0,57.3954522 Z" id="Shape"></path>
                <path d="M787.150948,14.3865874 C787.150948,8.98650985 791.529006,4.60845204 796.929083,4.60845204 C797.743975,4.60845204 798.523116,4.73726852 799.280126,4.92510224 C801.831487,2.17001854 805.44913,0.417660473 809.500891,0.417660473 C817.215692,0.417660473 823.46925,6.67178557 823.46925,14.3860199 L787.150948,14.3860199 L787.150948,14.3865874 Z" id="Shape"></path>
                <path d="M511.017241,147.079576 C509.588343,147.079576 508.237756,147.361042 506.943349,147.769056 C502.843353,141.875276 496.042183,138 488.318302,138 C480.594421,138 473.793251,141.875276 469.693255,147.769056 C468.398848,147.361042 467.048261,147.079576 465.619363,147.079576 C458.097502,147.079576 452,153.177078 452,160.698939 L524.636604,160.698939 C524.636604,153.177078 518.539102,147.079576 511.017241,147.079576 L511.017241,147.079576 Z" id="Shape"></path>
            </g>
        </g>
    </g>
</svg>