<?xml version="1.0" encoding="iso-8859-1"?>
<!-- Generator: Adobe Illustrator 19.0.0, SVG Export Plug-In . SVG Version: 6.00 Build 0)  -->
<svg version="1.1" id="Layer_1" xmlns="http://www.w3.org/2000/svg" xmlns:xlink="http://www.w3.org/1999/xlink" x="0px" y="0px"
	 viewBox="0 0 512.005 512.005" style="enable-background:new 0 0 512.005 512.005;" xml:space="preserve">
<g>
	<path style="fill:#E6E6E6;" d="M255.994,80.011c-1.562,0-3.134-0.415-4.573-1.28L163.145,25.21
		c-4.167-2.534-5.5-7.962-2.966-12.129c2.525-4.175,7.954-5.491,12.129-2.966l88.276,53.522c4.167,2.525,5.5,7.954,2.966,12.129
		C261.891,78.502,258.978,80.011,255.994,80.011"/>
	<path style="fill:#666666;" d="M158.359,35.313h-43.061c-5.173,0-9.366-4.193-9.366-9.366V9.369c0-5.173,4.193-9.366,9.366-9.366
		h43.061c5.173,0,9.366,4.193,9.366,9.366v16.578C167.725,31.12,163.532,35.313,158.359,35.313"/>
	<path style="fill:#E6E6E6;" d="M256.011,80.011c-2.984,0-5.897-1.51-7.556-4.246c-2.534-4.175-1.201-9.604,2.966-12.129
		l88.276-53.522c4.175-2.525,9.604-1.201,12.129,2.966c2.534,4.167,1.201,9.596-2.966,12.129l-88.276,53.522
		C259.145,79.597,257.574,80.011,256.011,80.011"/>
	<path style="fill:#666666;" d="M353.646,35.313h43.061c5.173,0,9.366-4.193,9.366-9.366V9.369c0-5.173-4.193-9.366-9.366-9.366
		h-43.061c-5.173,0-9.366,4.193-9.366,9.366v16.578C344.28,31.12,348.473,35.313,353.646,35.313"/>
	<g>
		<path style="fill:#628D3A;" d="M419.452,224.968l68.423,75.176h-52.966l-43.255-47.378L419.452,224.968z"/>
		<path style="fill:#628D3A;" d="M353.106,141.244H158.899l20.047-53.469c3.875-10.319,13.736-17.152,24.761-17.152h104.589
			c11.026,0,20.886,6.833,24.761,17.152L353.106,141.244z"/>
	</g>
	<path style="fill:#86C250;" d="M447.416,180.874l-8.271-22.06c-3.964-10.567-14.062-17.567-25.353-17.567H98.214
		c-11.29,0-21.389,7-25.353,17.567l-8.271,22.06c-7.08,18.873-2.472,40.139,11.785,54.396l92.248,92.257
		c5.076,5.076,11.961,7.927,19.147,7.927h28.831c9.702-10.814,23.737-17.655,39.398-17.655c15.669,0,29.705,6.841,39.406,17.655
		h28.831c7.177,0,14.071-2.851,19.147-7.927l92.248-92.257C449.887,221.013,454.495,199.747,447.416,180.874"/>
	<path style="fill:#E6E6E6;" d="M308.968,370.761c0,29.255-23.711,52.966-52.966,52.966s-52.966-23.711-52.966-52.966
		c0-29.255,23.711-52.966,52.966-52.966S308.968,341.507,308.968,370.761"/>
	<g>
		<path style="fill:#FFCE5D;" d="M206.911,247.175H163.85c-7.609,0-13.78-6.17-13.78-13.78v-25.406c0-7.609,6.17-13.78,13.78-13.78
			h43.061c7.609,0,13.78,6.17,13.78,13.78v25.406C220.691,241.005,214.52,247.175,206.911,247.175"/>
		<path style="fill:#FFCE5D;" d="M348.152,247.175h-43.061c-7.609,0-13.78-6.17-13.78-13.78v-25.406c0-7.609,6.17-13.78,13.78-13.78
			h43.061c7.609,0,13.78,6.17,13.78,13.78v25.406C361.932,241.005,355.761,247.175,348.152,247.175"/>
	</g>
	<g>
		<path style="fill:#628D3A;" d="M105.934,441.382l109.171-36.961c-7.442-9.039-11.935-20.595-12.041-33.192l-97.13,35.319V441.382z
			"/>
		<path style="fill:#628D3A;" d="M308.85,373.091c-0.547,12.535-5.429,23.923-13.215,32.724l110.433,35.566v-35.31L308.85,373.091z"
			/>
		<path style="fill:#628D3A;" d="M80.49,239.386l-54.007,60.751h52.966l28.84-32.953L80.49,239.386z"/>
	</g>
	<path style="fill:#666666;" d="M88.278,512.003H17.657c-9.746,0-17.655-7.909-17.655-17.655V317.796
		c0-9.746,7.91-17.655,17.655-17.655h70.621c9.754,0,17.655,7.91,17.655,17.655v176.552
		C105.933,504.093,98.032,512.003,88.278,512.003"/>
	<g>
		<path style="fill:#484848;" d="M4.899,310.451c-0.83-0.556-1.748-0.847-2.657-1.095C0.856,311.872,0,314.724,0,317.796v10.611
			l48.075,32.044c1.501,1.006,3.204,1.483,4.882,1.483c2.86,0,5.65-1.377,7.353-3.928c2.701-4.061,1.607-9.543-2.445-12.244
			L4.899,310.451z"/>
		<path style="fill:#484848;" d="M101.037,310.451l-52.966,35.31c-4.052,2.701-5.146,8.183-2.445,12.244
			c1.704,2.551,4.493,3.928,7.353,3.928c1.677,0,3.381-0.477,4.882-1.483l48.075-32.044v-10.611c0-3.072-0.856-5.923-2.242-8.439
			C102.785,309.604,101.867,309.895,101.037,310.451"/>
		<path style="fill:#484848;" d="M105.934,370.921c-1.686,0-3.39,0.318-4.899,1.324l-52.966,35.31
			c-4.052,2.701-5.146,8.183-2.445,12.244c1.704,2.551,4.502,3.928,7.353,3.928c1.677,0,3.381-0.477,4.89-1.483l48.066-32.044
			V370.921z"/>
		<path style="fill:#484848;" d="M4.899,372.244C3.39,371.238,1.686,370.92,0,370.92V390.2l48.075,32.044
			c1.501,1.006,3.204,1.483,4.882,1.483c2.86,0,5.65-1.377,7.353-3.928c2.701-4.061,1.607-9.543-2.445-12.244L4.899,372.244z"/>
		<path style="fill:#484848;" d="M105.934,432.71c-1.686,0-3.39,0.318-4.899,1.324l-52.966,35.31
			c-4.052,2.71-5.146,8.192-2.445,12.244c1.704,2.551,4.502,3.928,7.353,3.928c1.677,0,3.381-0.477,4.89-1.483l48.066-32.044V432.71
			z"/>
		<path style="fill:#484848;" d="M4.899,434.037c-1.51-1.015-3.213-1.333-4.899-1.324v19.279l48.075,32.044
			c1.501,1.006,3.204,1.483,4.882,1.483c2.86,0,5.65-1.377,7.353-3.928c2.701-4.061,1.607-9.543-2.445-12.244L4.899,434.037z"/>
	</g>
	<path style="fill:#666666;" d="M494.347,512.003h-70.621c-9.746,0-17.655-7.909-17.655-17.655V317.796
		c0-9.746,7.91-17.655,17.655-17.655h70.621c9.754,0,17.655,7.91,17.655,17.655v176.552
		C512.002,504.093,504.101,512.003,494.347,512.003"/>
	<g>
		<path style="fill:#484848;" d="M410.968,310.451c-0.83-0.556-1.748-0.847-2.657-1.095c-1.386,2.516-2.242,5.367-2.242,8.439
			v10.611l48.075,32.044c1.501,1.006,3.204,1.483,4.882,1.483c2.86,0,5.65-1.377,7.353-3.928c2.701-4.061,1.607-9.543-2.445-12.244
			L410.968,310.451z"/>
		<path style="fill:#484848;" d="M507.106,310.451l-52.966,35.31c-4.052,2.701-5.146,8.183-2.445,12.244
			c1.704,2.551,4.493,3.928,7.353,3.928c1.677,0,3.381-0.477,4.882-1.483l48.075-32.044v-10.611c0-3.072-0.856-5.923-2.242-8.439
			C508.854,309.604,507.936,309.895,507.106,310.451"/>
		<path style="fill:#484848;" d="M512.003,370.921c-1.686,0-3.39,0.318-4.899,1.324l-52.966,35.31
			c-4.052,2.701-5.146,8.183-2.445,12.244c1.704,2.551,4.502,3.928,7.353,3.928c1.677,0,3.381-0.477,4.89-1.483l48.066-32.044
			V370.921z"/>
		<path style="fill:#484848;" d="M410.968,372.244c-1.509-1.006-3.213-1.324-4.899-1.324V390.2l48.075,32.044
			c1.501,1.006,3.204,1.483,4.882,1.483c2.86,0,5.65-1.377,7.353-3.928c2.701-4.061,1.607-9.543-2.445-12.244L410.968,372.244z"/>
		<path style="fill:#484848;" d="M512.003,432.71c-1.686,0-3.39,0.318-4.899,1.324l-52.966,35.31
			c-4.052,2.71-5.146,8.192-2.445,12.244c1.704,2.551,4.502,3.928,7.353,3.928c1.677,0,3.381-0.477,4.89-1.483l48.066-32.044V432.71
			z"/>
		<path style="fill:#484848;" d="M410.968,434.037c-1.509-1.015-3.213-1.333-4.899-1.324v19.279l48.075,32.044
			c1.501,1.006,3.204,1.483,4.882,1.483c2.86,0,5.65-1.377,7.353-3.928c2.701-4.061,1.607-9.543-2.445-12.244L410.968,434.037z"/>
	</g>
</g>
<g>
</g>
<g>
</g>
<g>
</g>
<g>
</g>
<g>
</g>
<g>
</g>
<g>
</g>
<g>
</g>
<g>
</g>
<g>
</g>
<g>
</g>
<g>
</g>
<g>
</g>
<g>
</g>
<g>
</g>
</svg>
