<?xml version="1.0" encoding="iso-8859-1"?>
<!-- Generator: Adobe Illustrator 19.0.0, SVG Export Plug-In . SVG Version: 6.00 Build 0)  -->
<svg version="1.1" id="Capa_1" xmlns="http://www.w3.org/2000/svg" xmlns:xlink="http://www.w3.org/1999/xlink" x="0px" y="0px"
	 viewBox="0 0 59 59" style="enable-background:new 0 0 59 59;" xml:space="preserve">
<polygon style="fill:#38454F;" points="54.5,21 41.5,21 41.5,18 17.5,18 17.5,21 4.5,21 4.5,53 17.5,53 17.5,57 41.5,57 41.5,53 
	54.5,53 "/>
<circle style="fill:#50508A;stroke:#283238;stroke-width:4;stroke-linecap:round;stroke-miterlimit:10;" cx="29.5" cy="38" r="16"/>
<g>
	<path style="fill:#546A79;" d="M9.5,38c0-5.846,2.516-11.093,6.518-14.745C16.894,22.456,16.322,21,15.137,21L4.461,21
		C3.378,21,2.5,21.878,2.5,22.961v28.078C2.5,52.122,3.378,53,4.461,53h8.749c1.121,0,1.7-1.304,0.978-2.162
		C11.266,47.366,9.5,42.893,9.5,38z"/>
	<path style="fill:#546A79;" d="M43.863,21c-1.186,0-1.757,1.456-0.881,2.255C46.984,26.907,49.5,32.154,49.5,38
		c0,4.893-1.766,9.366-4.687,12.838C44.091,51.696,44.669,53,45.79,53h8.749c1.083,0,1.961-0.878,1.961-1.961V22.961
		c0-1.083-0.878-1.961-1.961-1.961H43.863z"/>
</g>
<circle style="fill:#434C6D;stroke:#7383BF;stroke-width:2;stroke-linecap:round;stroke-miterlimit:10;" cx="29.5" cy="38" r="8"/>
<rect x="5.5" y="16" style="fill:#283238;" width="8" height="5"/>
<path style="fill:#AFB6BB;" d="M41.5,53c-0.552,0-1,0.447-1,1v3h-22v-3c0-0.553-0.448-1-1-1s-1,0.447-1,1v4c0,0.553,0.448,1,1,1h24
	c0.552,0,1-0.447,1-1v-4C42.5,53.447,42.052,53,41.5,53z"/>
<circle style="fill:#38454F;" cx="29.5" cy="7" r="7"/>
<path style="fill:#546A79;" d="M29.5,14c-0.695,0-1.366-0.105-2-0.294V18h4v-4.294C30.866,13.895,30.195,14,29.5,14z"/>
<circle style="fill:#546A79;" cx="29.5" cy="7" r="3"/>
<path style="fill:#AFB6BB;" d="M41.5,16h-24c-0.552,0-1,0.447-1,1v3c0,0.553,0.448,1,1,1s1-0.447,1-1v-2h22v2c0,0.553,0.448,1,1,1
	s1-0.447,1-1v-3C42.5,16.447,42.052,16,41.5,16z"/>
<rect x="46.5" y="18" style="fill:#283238;" width="7" height="3"/>
<circle style="fill:#71C3A9;" cx="29.5" cy="36" r="3"/>
<circle style="fill:#D75E72;" cx="29.5" cy="47" r="2"/>
<g>
</g>
<g>
</g>
<g>
</g>
<g>
</g>
<g>
</g>
<g>
</g>
<g>
</g>
<g>
</g>
<g>
</g>
<g>
</g>
<g>
</g>
<g>
</g>
<g>
</g>
<g>
</g>
<g>
</g>
</svg>
