<?xml version="1.0" encoding="UTF-8"?>
<svg width="21px" height="20px" viewBox="0 0 21 20" version="1.1" xmlns="http://www.w3.org/2000/svg" xmlns:xlink="http://www.w3.org/1999/xlink">
    <!-- Generator: Sketch 40.1 (33804) - http://www.bohemiancoding.com/sketch -->
    <title>linkedin</title>
    <desc>Created with Sketch.</desc>
    <defs></defs>
    <g id="webite-white" stroke="none" stroke-width="1" fill="none" fill-rule="evenodd">
        <g id="contactus" transform="translate(-448.000000, -483.000000)">
            <g id="linkedin" transform="translate(448.600000, 483.000000)">
                <g id="Layer_1">
                    <circle id="Oval" fill="#000000" cx="10" cy="10" r="10"></circle>
                    <path d="M7.25,14.5416667 L5.33333333,14.5416667 L5.33333333,8.375 L7.25,8.375 L7.25,14.5416667 L7.25,14.5416667 Z M6.20833333,7.58333333 L6.20833333,7.58333333 C5.5,7.58333333 5.04166667,7.125 5.04166667,6.5 C5.04166667,5.875 5.5,5.41666667 6.20833333,5.41666667 C6.91666667,5.41666667 7.375,5.875 7.375,6.5 C7.375,7.125 6.95833333,7.58333333 6.20833333,7.58333333 L6.20833333,7.58333333 Z M14.9583333,14.5416667 L12.75,14.5416667 L12.75,11.3333333 C12.75,10.5 12.4166667,9.91666667 11.6666667,9.91666667 C11.0833333,9.91666667 10.7916667,10.2916667 10.625,10.6666667 C10.5833333,10.7916667 10.5833333,11 10.5833333,11.1666667 L10.5833333,14.5 L8.41666667,14.5 C8.41666667,14.5 8.45833333,8.83333333 8.41666667,8.33333333 L10.5833333,8.33333333 L10.5833333,9.29166667 C10.7083333,8.875 11.4166667,8.25 12.5,8.25 C13.875,8.25 14.9583333,9.125 14.9583333,11.0416667 L14.9583333,14.5416667 L14.9583333,14.5416667 Z" id="Shape" fill="#FFFFFF"></path>
                </g>
            </g>
        </g>
    </g>
</svg>