<?xml version="1.0" encoding="UTF-8"?>
<svg width="83px" height="79px" viewBox="0 0 83 79" version="1.1" xmlns="http://www.w3.org/2000/svg" xmlns:xlink="http://www.w3.org/1999/xlink">
    <!-- Generator: Sketch 40.1 (33804) - http://www.bohemiancoding.com/sketch -->
    <title>brain</title>
    <desc>Created with Sketch.</desc>
    <defs></defs>
    <g id="website" stroke="none" stroke-width="1" fill="none" fill-rule="evenodd">
        <g id="poster" transform="translate(-558.000000, -271.000000)">
            <g id="brain" transform="translate(558.000000, 271.000000)">
                <g id="Layer_1">
                    <path d="M55.9709235,71.6153766 C56.3773796,71.8105087 67.6696914,77.1122821 73.2425061,67.870183 C78.9177746,58.4579496 74.7429224,58.8163137 74.6525988,58.0467917 C74.5622752,57.2770831 82.9166452,48.5297167 72.7266914,41.9541746 C72.7266914,41.9541746 60.3448982,13.7172879 28.4856865,27.5132782 C28.4856865,27.5132782 18.6825938,26.094746 13.9103743,36.7967916 C13.9103743,36.7967916 2.04364941,41.1809216 6.94500916,55.2345386 C11.8463689,69.2883421 23.5841402,62.9711728 23.5841402,62.9711728 C25.1950348,71.7293591 35.3676331,73.8730142 42.6737644,70.0621548 C42.6737644,70.0621548 45.1246309,72.7697529 48.0911255,71.738127 C48.1948857,71.3307001 49.0053717,71.6336586 48.4701486,70.2524366 C49.219237,69.1480559 50.9193355,68.5596747 53.9627171,69.9597384 C54.1226496,70.0916298 54.4061237,70.3162369 54.3624549,70.2893736 L55.9709235,71.6153766 L55.9709235,71.6153766 Z" id="Shape" fill="#EC4B53"></path>
                    <path d="M14.8542929,37.1240016 C14.7156351,37.3545784 7.05418124,39.2760515 6.51410603,46.8483345 C5.68346515,58.4978715 13.8890998,66.7400583 23.7582556,61.7093433 C25.8181555,69.9886537 37.0550415,73.1085291 43.1595335,68.2257488 C43.1595335,68.2257488 44.7596043,72.2160701 48.469962,70.25225 L48.6509824,70.4501804 C49.5428342,70.437868 51.9011378,71.90509 53.9625305,69.9595518 C54.105294,70.0774519 54.3462191,70.2686665 54.3656274,70.2893736 C54.6571262,70.3210873 55.0708604,70.1936731 55.2798736,70.3136252 C67.88393,77.5458261 76.0653041,65.0974787 74.6828311,60.116013 C74.4893072,59.4194324 74.1533931,59.2957492 73.5692759,58.946153 C73.5692759,58.946153 73.3457064,58.0639544 74.1879176,57.0698252 C77.7640963,52.8489271 79.5972541,46.2886821 72.144067,42.6395622 C64.5953311,25.9290889 46.1769751,18.7078945 27.9536359,28.416184 C17.2614906,27.7815382 14.9746621,36.9236461 14.8542929,37.1240016 L14.8542929,37.1240016 L14.8542929,37.1240016 Z" id="Shape" fill="#FF5B61"></path>
                    <path d="M34.2186203,30.9482378 C33.8554598,31.0467367 33.4803558,30.8325764 33.3816343,30.4695485 C33.2829129,30.1065207 33.4971515,29.7315536 33.8603119,29.6330548 C33.8763611,29.6285776 39.2000395,28.1346789 40.4315379,32.4712385 C41.1944361,32.0533647 42.3570721,31.6769052 43.6971827,32.1276119 C43.5269862,30.6491969 43.9539703,28.6053465 47.2239073,27.7651218 C47.5885607,27.6720329 47.9597458,27.8923494 48.0528687,28.2570562 C48.1459915,28.6215764 47.9255945,28.9926259 47.5607545,29.0857148 C43.8179251,30.0477572 45.3948551,33.2008386 45.399334,33.2094199 L45.3970946,33.2107258 C45.5081328,33.4394371 45.4857386,33.7216884 45.3162886,33.9339832 C45.0820818,34.2278007 44.6528583,34.2757442 44.3593067,34.0408768 C42.6713384,32.6911818 41.201341,33.5293545 40.6599595,33.9388335 C40.6399913,36.476857 37.2136676,37.0486351 37.2035902,37.0501275 L37.2035902,37.049941 C37.0003621,37.0835201 36.7848173,37.0256894 36.6235785,36.873837 C32.6926372,33.1760273 28.3436695,37.8739358 28.3307928,37.8868078 L28.3304196,37.8864347 C28.1174874,38.1132805 27.7683233,38.1711112 27.4883949,38.0073196 C23.5938444,35.7254304 26.9516789,28.9256542 27.7369714,27.4574995 C28.2122898,27.4735429 28.4858732,27.5130917 28.4858732,27.5130917 C28.6976856,27.4211221 28.9053925,27.3382936 29.1157121,27.2502416 C29.194092,27.4384713 29.187747,27.6593475 29.079508,27.8496293 C29.0686841,27.8692171 25.3652313,34.3018613 27.7716825,36.5298374 C29.1020889,35.325279 33.2713425,32.1688396 37.2868222,35.6345802 C37.9463335,35.4642593 39.4252886,34.9430364 39.2806589,33.716465 L39.2778596,33.6849379 C38.8372523,29.6532023 34.2316836,30.9445068 34.2186203,30.9482378 L34.2186203,30.9482378 L34.2186203,30.9482378 Z M75.1559101,58.5058932 L75.1559101,58.5058932 C74.8894182,58.3301623 74.6723804,58.2156201 74.6524122,58.0466051 C74.6365496,57.9128482 74.8752352,57.5388139 75.2271985,56.9778557 C74.7854715,54.8722569 73.0909715,54.9358708 72.1683275,55.1397708 C71.7973291,54.2993595 71.1883915,52.4051228 71.9279623,50.1566262 C71.9387862,50.1299494 71.9479305,50.1028995 71.9555819,50.0754766 C72.9134969,47.3525813 77.3524149,48.4588274 77.365105,48.4621854 C77.4699849,48.4873697 77.5750513,48.4866235 77.6732129,48.4649836 C77.5911006,47.9978605 77.4625201,47.5260735 77.2811265,47.0527942 C76.0785541,46.8363953 72.5193577,46.4317666 71.0333111,48.8475993 C70.4538593,48.5052786 69.5957855,48.1913136 68.6699689,48.515912 C67.7730783,44.9932735 64.4820534,46.2866301 64.4717893,46.2905477 C64.1188929,46.4213198 63.9391789,46.8143823 64.0707452,47.1671498 C64.2017517,47.5199173 64.5949578,47.6993792 64.9476676,47.568234 C64.9534528,47.5659954 66.8726419,46.8093454 67.3916292,49.0776164 C66.1967082,49.4093037 63.7904436,50.3950381 63.4470647,52.9996601 C63.397984,53.3729483 63.6613033,53.7154555 64.035101,53.7641453 C64.4085255,53.8124619 64.7509713,53.5492388 64.7998654,53.1761372 C65.1061071,50.8520875 67.9434614,50.3280663 68.2437313,50.2790035 C68.3906004,50.2618408 68.5214202,50.1993463 68.6233142,50.1068171 C69.3376915,49.4917592 70.1009629,49.8475115 70.5100316,50.1320015 C69.9944035,52.012993 70.2519376,53.6734816 70.5951299,54.7972635 C67.2714466,54.0113251 65.3307963,56.3193314 65.0723291,56.6513918 C65.0454559,56.683292 65.0206356,56.7178039 64.9993611,56.7549275 C63.0891296,60.0969848 59.2177198,58.8017627 57.9979784,58.286696 C57.8789155,52.8129228 51.6721563,53.9409954 51.6538677,53.9441668 C51.2821227,54.0090865 51.0326132,54.3635329 51.0975566,54.7353287 C51.1626866,55.1071244 51.517076,55.3561697 51.8890075,55.29125 C51.9024441,55.289198 56.3266192,54.4862834 56.6196109,58.1046224 C51.3252317,58.7859059 50.3887779,63.5263479 50.3859786,63.5401527 C50.3107712,63.9093367 50.5492702,64.2697528 50.9180292,64.3447462 C51.2873481,64.4201128 51.6477092,64.182074 51.7229167,63.81289 C51.7253427,63.8015104 52.5154873,59.7966381 57.182267,59.4177534 C58.2122169,59.8930848 63.512568,62.0490523 66.1649829,57.469417 C66.3801546,57.1946277 68.2265623,55.0060139 71.5007916,56.5597954 C71.6745338,56.650459 71.8839202,56.6644504 72.0729652,56.5874049 L72.0737117,56.5887107 C72.0787504,56.5870318 73.9419539,55.807436 73.97032,58.0540672 C73.9749854,58.4303401 74.2838398,58.7319927 74.6604368,58.727329 C74.8573198,58.7260231 75.0333014,58.6405828 75.1559101,58.5058932 L75.1559101,58.5058932 L75.1559101,58.5058932 Z M72.9711622,42.11722 L72.9711622,42.11722 C72.9345849,42.1457623 72.8939019,42.1713197 72.8502331,42.1925865 C71.3016692,42.9529675 70.478493,44.741803 70.4762536,44.7468399 C70.3138951,45.0880413 69.9055729,45.2329912 69.5642469,45.070319 C69.2234807,44.9080198 69.0784778,44.4998466 69.2408362,44.1590184 C69.2434489,44.1526756 70.2536172,41.9541746 72.242042,40.9729175 C72.5678786,41.5909602 72.7266914,41.953615 72.7266914,41.953615 C72.8106699,42.0077147 72.8899829,42.0627472 72.9711622,42.11722 L72.9711622,42.11722 L72.9711622,42.11722 Z M14.3608725,35.8502329 L14.3608725,35.8502329 C14.2061654,36.1548703 14.0557505,36.4699546 13.9103743,36.7962319 C13.9103743,36.7962319 13.6750479,36.8835377 13.2840812,37.0721405 C13.2990107,37.1055331 13.3171127,37.1387392 13.3378275,37.1706393 C13.5446012,37.4866564 13.9682262,37.5750814 14.2845453,37.3687563 C14.4118194,37.2851815 14.6077693,37.1993682 14.8542929,37.1240016 C15.5283605,36.917863 16.5062438,36.8070519 17.494391,37.0165484 C18.4493201,37.2185829 19.4105943,37.7308514 20.0910069,38.7706854 C20.2186543,38.9660041 20.3364108,39.1788586 20.4437167,39.4105546 C19.1713488,39.6920598 16.982122,40.5671695 16.657965,43.2695442 C16.6137363,43.6445113 16.8817211,43.9844068 17.2568251,44.0286194 C17.6319292,44.0726453 17.9721355,43.8045719 18.0161776,43.4297913 C18.3028243,41.0410085 20.7660076,40.6958896 21.3008575,40.6486922 C23.6737173,41.3973205 23.828611,43.5325808 23.8295441,43.5383639 C23.8618291,43.913331 24.1925179,44.1911051 24.5674353,44.1586453 C24.9425394,44.1261854 25.2200418,43.795804 25.1879433,43.4208369 C25.1870102,43.412069 24.9727717,40.5018767 21.9180063,39.4178301 C21.7287747,38.8861604 21.4977405,38.4231413 21.2359141,38.0222437 C20.3263334,36.6320672 19.0470606,35.9483586 17.7780518,35.679912 C16.5420746,35.4178081 15.3105762,35.5592136 14.459034,35.819452 L14.3608725,35.8502329 L14.3608725,35.8502329 L14.3608725,35.8502329 Z M9.45559371,60.1466073 L9.45559371,60.1466073 C9.80382465,60.6124247 10.1632527,61.0319774 10.532385,61.4073176 C10.6801872,61.2864326 10.7764825,61.1043591 10.7824544,60.898407 C10.8412393,58.8789947 11.2848325,57.2744714 12.201878,56.18203 C12.8714667,55.3834061 13.8172515,54.8444609 15.0761828,54.6010121 C15.1717317,56.2982512 15.7687257,57.4205407 16.5758526,58.0639544 C16.5889159,58.0757071 16.6025391,58.0869001 16.6167222,58.0980931 C17.0987589,58.4683965 17.6487249,58.6691251 18.2119408,58.7221055 C18.7607871,58.7730339 19.3202707,58.6818106 19.8390713,58.4682099 C20.9110105,58.0264576 21.8209645,57.0582591 22.1055583,55.7503515 C22.1854312,55.3815406 21.9506646,55.0173935 21.5813457,54.9379228 C21.2125867,54.8580791 20.8483066,55.0929465 20.7686203,55.4617574 C20.5857337,56.3034746 20.0042291,56.9248753 19.3202707,57.2065669 C19.0015256,57.3380852 18.6622523,57.3949832 18.335296,57.3642024 C18.0228959,57.3351004 17.7183337,57.2237296 17.4512821,57.0185237 C17.4402715,57.0097559 17.4283279,57.0015476 17.4171308,56.9935259 C16.8845203,56.5653919 16.4920607,55.7529632 16.4342088,54.4581142 L16.4431666,54.4577411 C18.0652584,54.4120362 18.5930167,54.0135637 18.5709957,53.2541154 C18.5588654,52.8284065 18.3052503,52.4567974 17.9853854,51.9887414 C17.321022,51.0164387 16.2403118,49.4352343 18.1029554,47.1914014 C18.3438804,46.9005687 18.3033841,46.4696364 18.012072,46.229359 C17.7213197,45.9883354 17.2900433,46.0290034 17.0494915,46.3202092 C14.5306957,49.3546443 15.9712073,51.4621086 16.8574606,52.7590096 C17.052664,53.0442458 17.2071845,53.2705319 17.2077443,53.2914256 C17.2116633,53.4374948 17.0030234,53.0776384 16.4054695,53.094801 C14.0180535,53.1628921 12.3024656,53.9372644 11.1540127,55.3056144 C10.1460838,56.5064418 9.60619519,58.1443577 9.45559371,60.1466073 L9.45559371,60.1466073 L9.45559371,60.1466073 Z M22.9654984,63.2599534 L22.9654984,63.2599534 C23.3613172,63.0907519 23.5841402,62.9707997 23.5841402,62.9707997 C23.6261294,63.1976455 23.6750236,63.4196409 23.72821,63.6379053 L23.758069,63.6308164 C24.1227224,63.5349293 24.3405067,63.1612681 24.2445846,62.7967478 C23.9103501,61.5349183 24.1049936,58.9776801 25.4316676,56.6357215 C26.3447941,55.0246689 27.7994887,53.5322626 29.9959936,52.6685325 C30.2031406,52.6036128 30.3576611,52.448216 30.429696,52.258867 C30.6153818,51.8693489 32.1339001,48.8423759 34.2878559,49.3484881 C34.8105755,49.5497764 38.7452492,50.9628987 40.2727252,48.5869878 C41.8285673,48.7541373 46.5029984,48.8405104 47.228013,43.9724676 C49.1949766,43.7215568 55.5555098,42.4265212 56.0640464,36.1470352 C57.4612623,36.317356 60.276409,36.2397509 61.9994616,33.3332897 C62.1913059,33.0085047 62.0834402,32.5895117 61.7587232,32.397924 C61.4338197,32.2061498 61.0146735,32.3139762 60.822456,32.6387611 C59.3479798,35.1266024 56.8275044,34.9182251 55.9315469,34.7520084 C54.0847659,29.9108289 49.8055937,32.4529565 49.7929036,32.4604185 C49.4666937,32.6477155 49.3543491,33.0642834 49.5415279,33.3903742 C49.7288933,33.7166515 50.1459867,33.8291416 50.4721966,33.6416581 C50.4805944,33.6366212 53.4711629,31.858046 54.7265485,35.4401942 C54.6548868,41.1577893 48.9661817,42.3677577 47.1345169,42.6095275 C45.4806999,36.5790868 40.4933088,39.8278687 40.4787525,39.8370097 C40.1598207,40.0377384 40.0640852,40.4591566 40.2647006,40.7777854 C40.4655026,41.0966006 40.8872613,41.1923012 41.2061931,40.9917591 C41.2162705,40.9852298 44.8301462,38.629653 45.9200008,43.3934139 C45.4741682,48.0928148 40.3789114,47.2400912 40.0388917,47.1777832 C39.7251852,47.1100653 39.3972958,47.2718048 39.2668491,47.5779346 C38.4670004,49.4596724 35.1212961,48.2086628 34.7689595,48.0711749 C34.7312625,48.0540122 34.6916993,48.0400209 34.6500833,48.0297606 C34.4754079,47.9862943 34.3050248,47.9570058 34.1378143,47.9400297 C33.1087975,44.0069795 35.4340694,44.0273135 35.4407877,44.0273135 C35.8173847,44.0228363 36.1191475,43.7137216 36.1148553,43.3372621 C36.1101898,42.9609892 35.8013355,42.6597097 35.4249251,42.6641869 C35.4127948,42.6641869 31.4310932,42.6466511 32.767658,48.0846066 C30.934127,48.6686971 29.7252095,50.6681484 29.3202464,51.4322604 C26.8161935,52.0217609 26.3808115,50.3426173 26.3795052,50.337767 L26.3778256,50.3381401 C26.2988858,50.0407781 26.0243694,49.8251254 25.7030116,49.8324009 C23.9898497,49.8786655 23.9885434,48.0316261 23.9885434,48.0267758 C23.9827582,47.6505029 23.6725975,47.3501561 23.2961871,47.3559392 C22.9195901,47.3619088 22.6191336,47.6719562 22.6247322,48.0482292 C22.6247322,48.0566239 22.6251055,50.9401395 25.2582986,51.1806034 C25.5107941,51.6730975 26.0417249,52.4060555 27.0587981,52.7474435 C25.8295392,53.6643406 24.9111874,54.7856974 24.2445846,55.9620866 C22.7275592,58.6394635 22.5250777,61.6388271 22.9236957,63.1439188 C22.934333,63.18496 22.9487027,63.223576 22.9654984,63.2599534 L22.9654984,63.2599534 L22.9654984,63.2599534 Z M42.0610945,70.3638074 L42.0610945,70.3638074 C41.9358732,70.1091656 41.9789821,69.7931485 42.1898615,69.5810403 C42.6405463,69.1305201 43.0436432,67.5793503 42.9464147,65.9252045 C42.9107705,65.3170489 42.8019716,64.7046027 42.5965042,64.1425252 C42.3996212,63.6033934 42.1127879,63.1095935 41.7149163,62.7120538 L41.7137966,62.7107479 L41.7123037,62.7120538 C41.0275988,62.0272258 39.9838391,61.605621 38.4528173,61.6863975 C38.4251977,61.6895689 38.3972049,61.691621 38.3682789,61.691621 C38.3311418,61.691621 38.2945645,61.688263 38.2589202,61.6826665 C37.9478265,61.6483412 35.2202041,61.4050789 35.3993583,63.557875 C35.430337,63.934148 35.1500354,64.2649025 34.7734384,64.2956834 C34.397028,64.3264643 34.0667125,64.0468246 34.0359203,63.6703652 C33.7886502,60.7047673 36.3561536,60.3025638 37.6837607,60.2908111 L37.6837607,57.8641585 C33.5525773,58.0740281 34.8352092,53.228558 34.8385684,53.2138205 C34.9316912,52.8491137 35.3026897,52.6291703 35.6675297,52.721886 C36.0323697,52.8149749 36.2525801,53.1858378 36.1596438,53.5505446 C36.1572178,53.5600587 35.2601406,56.9537906 38.250709,56.4232402 C38.3708916,56.4023465 38.4895813,56.4142857 38.5968871,56.4525287 C39.0483183,56.5791966 43.6195492,57.7553994 45.4258339,53.8706658 C43.7404783,52.6422288 41.8037469,53.8889477 41.795909,53.8939846 C41.4767906,54.0945267 41.0552184,53.9988262 40.8544164,53.6800109 C40.6539877,53.3613821 40.7497232,52.9399639 41.0684683,52.7392352 C41.0843309,52.7291615 46.6129169,49.1727573 48.6121656,56.795409 C48.7065948,57.1597427 48.4875042,57.5320981 48.1226641,57.6266793 C47.7580107,57.721074 47.3855193,57.5020634 47.2910902,57.1373566 C47.0490454,56.2150495 46.745603,55.5041045 46.4055833,54.9601224 C44.4847146,58.395082 40.7497232,58.2271863 39.052424,57.9443753 L39.052424,60.3143165 C40.6722763,60.3611407 41.8483489,60.9131445 42.6799229,61.7442283 L42.6782433,61.7455341 C43.2282093,62.2954859 43.6182429,62.9605394 43.8798826,63.6772675 C44.1331245,64.3712365 44.2663704,65.1140817 44.309666,65.8449877 C44.4276092,67.8530203 43.828749,69.8507927 43.1724102,70.5279721 C42.852732,70.2600851 42.6735778,70.0619682 42.6735778,70.0619682 C42.4718427,70.1673694 42.2669351,70.2671741 42.0610945,70.3638074 L42.0610945,70.3638074 L42.0610945,70.3638074 Z M49.6368902,50.508834 L49.6368902,50.508834 C49.3521097,50.7552676 48.9208333,50.7243002 48.6741231,50.439064 C48.4277861,50.1540144 48.4587648,49.7232687 48.7439186,49.4768351 C48.7528763,49.4691865 50.7230124,47.7288542 52.9980839,47.9303291 C52.7995213,46.8334104 52.9327672,45.6924658 53.3672161,44.6716599 C53.8869499,43.4508716 54.8368402,42.3974193 56.1635143,41.7913158 C56.3911894,41.6872204 56.6308081,41.5961837 56.8819972,41.5198844 C58.5445853,41.0141452 59.6094329,41.4644788 60.2797681,42.1177797 C60.6498335,40.7337594 61.4823406,39.0018219 63.3541285,38.0459356 C66.9226558,36.2240806 69.475043,39.5273354 69.4826944,39.5368495 C69.7144751,39.8334653 69.6614753,40.2623455 69.3647512,40.4938551 C69.0680271,40.7253646 68.63955,40.6725707 68.4075827,40.375955 C68.4023574,40.3690526 66.5341152,37.9526602 63.9748231,39.2598216 C61.9550463,40.2907012 61.487006,42.5511371 61.3791403,43.6126111 C63.2328262,44.258823 62.5800332,47.7532924 62.5779804,47.7642989 C62.513037,48.1362811 62.158461,48.3853264 61.7867161,48.3202202 C61.4145979,48.2553005 61.1654616,47.9014137 61.230405,47.5290583 C61.2313381,47.5214097 61.7213994,44.8388094 60.686784,44.8744406 C60.3512432,44.885074 60.0649698,44.6511393 59.9977869,44.334003 L59.9966672,44.3347492 C59.9953609,44.3284065 59.5568064,42.1313979 57.2772561,42.824434 C57.0876512,42.8822648 56.9045781,42.9516617 56.7300894,43.0315054 C55.7322379,43.4876221 55.0167409,44.2828881 54.6237214,45.2063145 C54.2286491,46.1345912 54.1584804,47.1891628 54.4535249,48.1581076 C54.4764791,48.2345934 54.5020459,48.3107061 54.5307852,48.3866323 C55.4532426,48.8763281 56.3665557,49.7977024 57.1669643,51.3802128 C57.3367875,51.7165638 57.2014888,52.1271621 56.8646416,52.2967368 C56.5281677,52.4666845 56.117606,52.3312487 55.9477828,51.9945245 C53.4786276,47.1136097 49.6477141,50.49932 49.6368902,50.508834 L49.6368902,50.508834 Z M60.0625437,66.4844838 L60.0625437,66.4844838 C59.8792839,66.8133728 59.4640568,66.9318326 59.1344877,66.7490128 C58.8054785,66.5658199 58.6869755,66.1507444 58.8698621,65.8212957 C58.8775135,65.8078641 61.3940698,61.1821508 64.93815,63.1691032 C65.6411436,62.4219673 67.1962392,61.1302896 69.4705642,61.2355043 C73.0258415,61.4006017 72.5960581,64.3432538 72.5949384,64.3514621 C72.5462309,64.7247502 72.2035985,64.9883465 71.830174,64.9392836 C71.4571227,64.8905938 71.1936168,64.5482732 71.2421377,64.174985 C71.2428842,64.1708809 71.4621614,62.6937718 69.4117792,62.5988174 C67.6849942,62.5187871 66.504816,63.4901571 65.9662338,64.059137 C68.2360799,67.03257 64.8987734,70.0953608 64.8885094,70.1045018 C64.613993,70.3626881 64.1817835,70.349443 63.9235029,70.0752133 C63.6650357,69.800424 63.678099,69.3681858 63.9529887,69.1099995 C63.9604534,69.1029106 66.597379,66.6792428 64.6235105,64.5865161 C62.0810141,62.7805179 60.0681423,66.4738504 60.0625437,66.4844838 L60.0625437,66.4844838 L60.0625437,66.4844838 Z" id="Shape" fill="#EC4B53"></path>
                    <path d="M48.4701486,70.2524366 C48.9144883,71.2336937 48.1948857,71.3305136 48.0911255,71.738127 C48.7586615,72.3682956 51.6527479,73.9256216 53.7632215,75.7312466 C56.3232601,77.9219125 55.93248,78.7947836 57.6351912,78.8960807 C58.5007298,78.9473822 60.3170919,78.5664455 60.1691031,77.3409934 C59.9035444,75.1464099 55.9587933,71.6097801 55.9587933,71.6097801 C55.9587933,71.6097801 55.9627123,71.611459 55.9709235,71.6155632 L54.3624549,70.2895602 C52.4544629,71.6390686 50.4740627,71.2322013 48.4701486,70.2524366 L48.4701486,70.2524366 Z" id="Shape" fill="#F5A209"></path>
                    <path d="M48.4701486,70.2524366 C49.61151,71.4967303 55.4564151,76.3119792 56.6425651,77.6631666 C57.8283418,79.0143539 60.0013327,77.688724 59.4375569,76.1618058 C58.8735945,74.634328 54.3624549,70.2895602 54.3624549,70.2895602 C54.4063104,70.3164235 54.1226496,70.0918163 53.9627171,69.9599249 C51.408837,71.4006567 49.723668,70.2947836 48.4701486,70.2524366 L48.4701486,70.2524366 L48.4701486,70.2524366 Z" id="Shape" fill="#FBB429"></path>
                    <path d="M14.3554605,3.44785361 C6.90656566,3.44785361 0.867950105,9.48407742 0.867950105,16.9302521 C0.867950105,24.3766133 6.90656566,30.4132102 14.3554605,30.4132102 C16.5170677,30.4132102 18.5601718,29.9042996 20.3707487,29.0004611 L27.2275017,32.9476892 L23.0295087,27.2545323 C25.9728626,24.781615 27.8433442,21.0744778 27.8433442,16.9304386 C27.8431575,9.48407742 21.8047286,3.44785361 14.3554605,3.44785361 L14.3554605,3.44785361 L14.3554605,3.44785361 Z" id="Shape" fill="#20D0C2"></path>
                    <path d="M8.15150058,12.900382 C8.15150058,12.1164956 8.40548896,11.3199237 8.90991994,10.5110395 C9.41435093,9.70644596 10.1514957,9.03691518 11.1178086,8.5072975 C12.0884137,7.97786637 13.2152188,7.71538941 14.5079282,7.71538941 C15.7069549,7.71538941 16.7667638,7.93533279 17.6862353,8.38025641 C18.6017878,8.82070282 19.3092602,9.42232911 19.8093989,10.1849487 C20.3093511,10.9430911 20.5596071,11.7730556 20.5596071,12.6627163 C20.5596071,13.3661993 20.4157239,13.9844286 20.1313166,14.5138597 C19.8478424,15.043664 19.5085692,15.5008999 19.1148033,15.8822098 C18.7243964,16.2679968 18.0214029,16.9157011 17.0039565,17.8266286 C16.7204823,18.0805242 16.4956065,18.3053179 16.3261565,18.5006366 C16.1563333,18.6950225 16.029619,18.8731785 15.9486264,19.0341718 C15.8644612,19.1951652 15.8008242,19.3561585 15.7541694,19.5167787 C15.7114337,19.6779586 15.6395854,19.9618889 15.5509414,20.3681965 C15.3938083,21.2281957 14.902254,21.6563297 14.0716131,21.6563297 C13.6435093,21.6563297 13.2790425,21.5167897 12.9869838,21.2371501 C12.6900731,20.9528467 12.5461899,20.5379577 12.5461899,19.9831557 C12.5461899,19.288254 12.6521895,18.6868143 12.867921,18.1784634 C13.0845856,17.6697394 13.3682463,17.2251889 13.7243153,16.8397749 C14.0803842,16.454361 14.5635406,15.9969385 15.1650135,15.4673208 C15.694638,15.0057942 16.080566,14.6537728 16.3134664,14.4209574 C16.5510323,14.1838514 16.7499681,13.9208148 16.910647,13.6331535 C17.0718858,13.3449325 17.1523185,13.02705 17.1523185,12.6882737 C17.1523185,12.0275108 16.9065414,11.4682316 16.4151737,11.0150997 C15.9191406,10.5615948 15.2878087,10.33307 14.5079282,10.33307 C13.5970412,10.33307 12.9274524,10.5617813 12.4950563,11.023308 C12.0669525,11.4812901 11.7024857,12.1590292 11.4059482,13.052794 C11.1219142,13.9848017 10.5883707,14.4504325 9.80401127,14.4504325 C9.33783716,14.4504325 8.94817682,14.2896257 8.63017816,13.9594308 C8.31255273,13.63334 8.15150058,13.2813187 8.15150058,12.900382 L8.15150058,12.900382 Z M14.2072851,26.4984419 L14.2072851,26.4984419 C13.7030407,26.4984419 13.2624334,26.3327848 12.8850899,26.0068806 C12.5083063,25.6807898 12.3213141,25.2231807 12.3213141,24.6342399 C12.3213141,24.1133901 12.5036408,23.6768613 12.867921,23.3209224 C13.2323878,22.96517 13.6776605,22.7872006 14.2072851,22.7872006 C14.7286984,22.7872006 15.1689325,22.96517 15.5253746,23.3209224 C15.8808837,23.6766747 16.0591048,24.1132036 16.0591048,24.6342399 C16.0591048,25.2149725 15.8728591,25.6722085 15.4999944,26.0025899 C15.12657,26.3327848 14.6988394,26.4984419 14.2072851,26.4984419 L14.2072851,26.4984419 Z" id="Shape" fill="#FFFFFF"></path>
                    <path d="M69.1932484,3.44785361 C76.6425165,3.44785361 82.6811321,9.48407742 82.6811321,16.9302521 C82.6811321,24.3766133 76.6425165,30.4132102 69.1932484,30.4132102 C67.0316413,30.4132102 64.989097,29.9042996 63.1785201,29.0004611 L56.3215805,32.9476892 L60.5193869,27.2545323 C57.5762196,24.781615 55.7059246,21.0744778 55.7059246,16.9304386 C55.7059246,9.48407742 61.7443536,3.44785361 69.1932484,3.44785361 L69.1932484,3.44785361 L69.1932484,3.44785361 Z" id="Shape" fill="#20D0C2"></path>
                    <g id="Group" transform="translate(31.697025, 0.104117)">
                        <path d="M35.8317689,18.1439295 L35.4157953,11.9422352 C35.3407745,10.7345054 35.3010247,9.8633132 35.3010247,9.33686688 C35.3010247,8.62013876 35.4868971,8.06291156 35.8627477,7.66052151 C36.2389714,7.25794491 36.7301525,7.05870867 37.3407696,7.05870867 C38.0840729,7.05870867 38.5799194,7.31540255 38.8275627,7.82860377 C39.0798715,8.34180498 39.2037865,9.08483677 39.2037865,10.0493043 C39.2037865,10.6197766 39.1729944,11.1993899 39.1151425,11.787398 L38.5575251,18.1706063 C38.4959409,18.9311738 38.3671738,19.5152644 38.168238,19.9221316 C37.9735945,20.3247082 37.6464515,20.5282351 37.1860625,20.5282351 C36.7217546,20.5282351 36.3985306,20.3334761 36.217137,19.9398539 C36.0400357,19.5460452 35.907163,18.9488962 35.8317689,18.1439295 L35.8317689,18.1439295 L35.8317689,18.1439295 Z M37.2657488,26.6722853 L37.2657488,26.6722853 C36.7389236,26.6722853 36.2787213,26.4997258 35.8894342,26.1590841 C35.4956682,25.8184423 35.3010247,25.3408723 35.3010247,24.7258144 C35.3010247,24.1907867 35.4868971,23.7348566 35.8627477,23.3589568 C36.2389714,22.9832435 36.6948815,22.7974389 37.2390623,22.7974389 C37.7832431,22.7974389 38.2434454,22.9832435 38.6282537,23.3589568 C39.0134352,23.7350432 39.2037865,24.1907867 39.2037865,24.7258144 C39.2037865,25.3321044 39.0089563,25.8094879 38.6241481,26.1547934 C38.2344877,26.4997258 37.7832431,26.6722853 37.2657488,26.6722853 L37.2657488,26.6722853 L37.2657488,26.6722853 Z" id="Shape" fill="#FFFFFF"></path>
                        <path d="M10.0572677,20.8569376 C10.0040813,20.9119701 9.92962038,20.9462954 9.84713481,20.9462954 L9.83948343,20.9462954 L9.55227689,20.9462954 C9.46456599,20.9462954 9.38599942,20.9076794 9.33243978,20.8464908 C9.25779221,20.8317533 9.18743687,20.8013455 9.12435967,20.7589985 C9.08349012,20.7310158 9.0457931,20.6976232 9.01313478,20.6603131 C8.91515984,20.6306515 8.82856865,20.5752459 8.75951965,20.5011853 C8.66732989,20.4023133 8.60742521,20.2691161 8.59865412,20.1232334 L8.5826049,20.1232334 C8.4209929,20.1232334 8.27375056,20.0534634 8.16868409,19.9404136 C8.06902958,19.8331469 8.00669886,19.6859583 8.00669886,19.5260843 C8.00669886,19.4619108 8.01733614,19.3992298 8.03711774,19.339347 C7.95444555,19.240475 7.90555139,19.119217 7.90555139,18.9876987 C7.90555139,18.8759548 7.94026252,18.7729788 8.00072705,18.6841806 C7.94026252,18.5957555 7.90555139,18.4922198 7.90555139,18.3804759 C7.90555139,18.268732 7.93988928,18.1651963 8.00054043,18.0769578 C7.93988928,17.9883462 7.90555139,17.8848105 7.90555139,17.7732531 C7.90555139,17.6040515 7.97963911,17.6305418 7.95556527,17.622147 L7.95463217,17.6214008 L7.95444555,17.622147 C7.7922737,17.5641297 7.63905955,17.5092837 7.63905955,17.0402951 L7.63905955,15.0660281 C6.83977065,14.6281934 6.16588967,13.9827277 5.68945152,13.2008933 C5.19677753,12.3925688 4.91199703,11.4392942 4.91199703,10.4201673 C4.91199703,8.96693667 5.48958264,7.64970156 6.42361042,6.69530774 C7.35857129,5.74035426 8.65072081,5.14936137 10.0774226,5.14936137 C11.5039377,5.14936137 12.7960872,5.74016771 13.7312347,6.69530774 C14.6652625,7.64970156 15.243408,8.96656357 15.243408,10.4201673 C15.243408,11.3861273 14.9879267,12.2925775 14.5424673,13.0718002 L14.5322032,13.0882166 C14.0999938,13.8381508 13.4906829,14.4694387 12.7638022,14.9216378 L12.7638022,17.0401085 C12.7638022,17.7855655 12.4657717,17.7575828 12.1768856,17.7303464 L12.1757659,17.7301599 L12.1757659,17.7303464 C12.1386287,17.7269885 12.2489205,17.7376219 12.2489205,17.7730666 C12.2489205,17.8846239 12.2151425,17.9881596 12.1544913,18.0767712 C12.2149559,18.1650098 12.2489205,18.2685454 12.2489205,18.3802894 C12.2489205,18.4912871 12.2145826,18.5950093 12.1543047,18.6836209 C12.2145826,18.772046 12.2489205,18.8757683 12.2489205,18.9875122 C12.2489205,19.1190305 12.2000264,19.2399154 12.1181006,19.3389739 C12.137509,19.398297 12.1477731,19.4613512 12.1477731,19.5258978 C12.1477731,19.6853987 12.0858156,19.8316545 11.9863477,19.9391077 L11.9854146,19.9394808 L11.9863477,19.9404136 C11.8812812,20.0527172 11.734972,20.1228603 11.5720536,20.1228603 L11.556191,20.1228603 C11.5476066,20.2678102 11.4877019,20.4004478 11.3958854,20.4993198 L11.3949523,20.5002525 L11.3958854,20.5006256 C11.3272096,20.5744997 11.240805,20.6297188 11.1437632,20.6595669 C11.1103584,20.6979963 11.0724747,20.731762 11.0304855,20.7599312 L11.0034257,20.7765342 C10.9459471,20.8110461 10.8826833,20.8354843 10.8162469,20.8477966 C10.7628739,20.9084256 10.6846806,20.9461089 10.5977162,20.9461089 L10.5902514,20.9461089 L10.3026716,20.9461089 C10.2201861,20.9461089 10.1459117,20.9117835 10.0925387,20.8567511 L10.0572677,20.8567511 L10.0572677,20.8569376 L10.0572677,20.8569376 Z M9.54425228,20.274153 L9.54425228,20.274153 L9.55209027,20.274153 C9.60546329,20.274153 9.6558504,20.2887039 9.69970585,20.3142614 C9.74281482,20.2887039 9.79301532,20.274153 9.84713481,20.274153 L10.2953935,20.274153 L10.3026716,20.274153 C10.3567911,20.274153 10.4073649,20.2887039 10.4502872,20.3142614 C10.4937694,20.2887039 10.5439699,20.274153 10.5977162,20.274153 L10.706515,20.274153 C10.7518634,20.1722962 10.8533841,20.1014069 10.9715139,20.1004742 C10.9728202,20.0973028 10.9739399,20.092639 10.9739399,20.0870425 C10.9739399,20.0818191 10.9728202,20.0769688 10.9715139,20.0737974 L10.9698343,20.0713723 C10.8938804,20.0189515 10.8436799,19.930713 10.8436799,19.8316545 C10.8436799,19.6706612 10.9744998,19.5400756 11.1355519,19.5400756 L11.5621628,19.5400756 C11.5634692,19.5363446 11.5644023,19.5314943 11.5644023,19.5260843 L11.5634692,19.5165702 L11.5612297,19.5124661 L11.5599234,19.5096678 L11.5602966,19.5094813 C11.5078567,19.4749694 11.4664273,19.4232948 11.4447795,19.3593079 C11.3940192,19.2068959 11.4757583,19.041985 11.6282259,18.9914297 L11.636997,18.9878853 C11.618895,18.9807964 11.5965007,18.9765057 11.5709339,18.9757595 L11.5670149,18.9757595 L11.5670149,18.6880982 C11.5463002,18.6270961 11.5470467,18.5618033 11.5670149,18.502107 L11.5670149,18.3927883 L11.5707473,18.3927883 C11.5951944,18.3924152 11.6164689,18.3877514 11.6347576,18.380849 C11.6166556,18.373387 11.5951944,18.3690963 11.5707473,18.3689098 L11.5670149,18.3689098 L11.5670149,18.0844198 C11.5448073,18.0217388 11.5453671,17.9536477 11.5670149,17.8915263 L11.5670149,17.7853789 L11.5709339,17.7853789 C11.604712,17.7851924 11.6338245,17.7771707 11.654166,17.7650449 L11.6631237,17.7575828 L11.6633103,17.7579559 L11.6640568,17.7596349 L11.6649899,17.7609408 L11.6649899,17.7598215 L11.6634969,17.7577694 L11.6649899,17.7598215 C11.6687222,17.0990586 11.9452915,17.1251757 12.2298854,17.152039 C12.2498536,17.154091 12.1802448,17.1455097 12.1802448,17.0402951 L12.1802448,14.7580327 L12.180618,14.7580327 C12.1808046,14.6572953 12.2326847,14.5601024 12.3258075,14.5060026 C13.0297342,14.0998816 13.6185169,13.5085156 14.0275856,12.7983167 L14.0361701,12.7824599 C14.4321755,12.0894237 14.6592907,11.2820319 14.6592907,10.4203538 C14.6592907,9.12382588 14.145902,7.95098108 13.3163808,7.10348086 C12.4870463,6.25672684 11.3421391,5.73270568 10.0770493,5.73270568 C8.81214619,5.73270568 7.66705239,6.25672684 6.83809108,7.10348086 C6.00819666,7.95098108 5.49462135,9.12382588 5.49462135,10.4203538 C5.49462135,11.3310948 5.74767663,12.180274 6.18585789,12.8979348 C6.63411658,13.633318 7.2758991,14.2323326 8.03693112,14.6199852 C8.14554335,14.6627053 8.22168387,14.7679199 8.22168387,14.8914166 L8.22168387,17.0406682 C8.22168387,17.098872 8.11269841,17.0604426 8.14964896,17.0735011 L8.14964896,17.0736877 C8.31219406,17.131705 8.48481657,17.1951322 8.48836233,17.7564635 L8.4900419,17.7577694 C8.51131646,17.7741859 8.54416139,17.7850058 8.58316475,17.7853789 L8.58689713,17.7853789 L8.58689713,18.0735999 C8.60723859,18.1342289 8.60686536,18.1987755 8.58689713,18.2584717 L8.58689713,18.3689098 L8.58316475,18.3689098 C8.55834443,18.3690963 8.53651002,18.373387 8.51803474,18.3806625 C8.53651002,18.3877514 8.55871767,18.3918555 8.58316475,18.3927883 L8.58689713,18.3927883 L8.58689713,18.6810092 C8.60723859,18.7412651 8.60686536,18.8061848 8.58689713,18.8656945 L8.58689713,18.9755729 L8.58316475,18.9755729 C8.55815781,18.9763191 8.5363234,18.9807964 8.51784812,18.9880718 L8.51952769,18.988818 C8.58185842,19.0082193 8.63765748,19.0479546 8.67610098,19.1059719 C8.76455836,19.2399154 8.72798105,19.4206831 8.59380203,19.5094813 L8.5924957,19.5122795 L8.59137599,19.5115333 L8.59137599,19.5122795 C8.59025627,19.5139585 8.58988303,19.5191819 8.58988303,19.5258978 C8.58988303,19.5313077 8.59081613,19.5365311 8.59212246,19.5398891 L9.01817349,19.5398891 L9.01817349,19.5406353 C9.11017663,19.5406353 9.20068681,19.5846612 9.25741897,19.6661839 C9.34830239,19.7982619 9.31527084,19.9790296 9.18351787,20.0700664 L9.18314463,20.0711857 L9.1827714,20.0736109 L9.18202492,20.0734243 C9.18090521,20.0762226 9.18053197,20.0806998 9.18053197,20.086856 C9.18053197,20.0931987 9.18165168,20.0978625 9.18314463,20.1015935 C9.29380966,20.1019666 9.39887612,20.1665132 9.44683719,20.2735933 L9.44721043,20.2739664 L9.54425228,20.274153 L9.54425228,20.274153 L9.54425228,20.274153 Z M8.48892219,17.7734397 L8.48892219,17.7734397 C8.48892219,17.7837 8.48966866,17.758329 8.49041514,17.7587021 L8.48892219,17.7611273 L8.48892219,17.7734397 L8.48892219,17.7734397 Z M11.66443,19.0028093 L11.66443,19.0028093 L11.6640568,19.0026228 L11.6638702,19.0029959 L11.66443,19.0028093 L11.66443,19.0028093 L11.66443,19.0028093 Z M11.56011,19.5443663 L11.56011,19.5443663 L11.5604833,19.5441797 L11.5595502,19.5438066 L11.56011,19.5443663 L11.56011,19.5443663 L11.56011,19.5443663 Z M10.9698343,20.1045783 L10.9698343,20.1045783 L10.970021,20.1043917 L10.9690879,20.1043917 L10.9698343,20.1045783 L10.9698343,20.1045783 Z" id="Shape" fill="#FFCA4F"></path>
                        <polygon id="Shape" fill="#FFCA4F" points="8.5954816 10.4203538 9.43675977 16.5970504 10.0774226 16.5970504 10.7180854 16.5970504 11.592955 10.2966707 11.9228972 10.2543236 11.0168623 16.7800567 10.9974539 16.918664 10.857863 16.918664 10.0774226 16.918664 9.29679557 16.918664 9.15739122 16.918664 9.13798285 16.7800567 8.27748293 10.4647529 8.5954816 10.4203538"></polygon>
                        <polygon id="Shape" fill="#FFCA4F" points="10.5396777 9.49450229 10.436664 10.1994777 13.0838536 9.8041766 9.49535811 11.3010601 9.62748432 10.3315557 7.27309982 10.7779717 10.5396777 9.49450229"></polygon>
                        <path d="M4.11233489,18.6826882 L6.31667777,15.6564613 C6.40046967,15.5417326 6.56282814,15.5161751 6.67815865,15.5999364 L6.67853188,15.6003095 C6.79330253,15.6838843 6.81924256,15.8461835 6.73526404,15.9616584 L4.53017469,18.9871391 C4.4465694,19.102614 4.28421093,19.1281715 4.16925366,19.0440371 L4.16906704,19.0438505 C4.05373654,18.9600892 4.02798313,18.79779 4.11233489,18.6826882 L4.11233489,18.6826882 L4.11233489,18.6826882 Z M16.8794962,15.2553771 L16.8794962,15.2553771 L15.3456752,14.1814043 C15.2288517,14.1000681 15.0493243,14.1176039 14.985314,14.2450181 L14.9851274,14.2459508 C14.9214903,14.3728054 14.9321276,14.5242846 15.048951,14.6054342 L16.5822122,15.6794071 C16.6988491,15.7609298 16.8796828,15.7435805 16.9425734,15.6159798 L16.9435065,15.6156067 C17.0062105,15.488006 16.9965063,15.3368998 16.8794962,15.2553771 L16.8794962,15.2553771 Z M16.0426969,18.6826882 L16.0426969,18.6826882 C16.1264888,18.7979766 16.100922,18.9602758 15.9857781,19.0440371 L15.9855915,19.0442236 C15.870261,19.1281715 15.7079025,19.1028006 15.6241106,18.9873256 L13.4195811,15.961845 C13.3356026,15.84637 13.3609828,15.6840708 13.4764999,15.6004961 L13.4764999,15.600123 C13.592017,15.5163617 13.7543755,15.5419191 13.8379808,15.6566479 L16.0426969,18.6826882 L16.0426969,18.6826882 L16.0426969,18.6826882 Z M16.5333181,5.09414233 L16.5333181,5.09414233 L15.1133346,6.31418448 C15.0050956,6.40690022 14.9782225,6.58598898 15.0853417,6.67945092 L15.0862748,6.67945092 C15.1937673,6.77253976 15.3430625,6.79958963 15.4507416,6.70687389 L16.8705385,5.48664519 C16.9784042,5.39430255 17.0062105,5.21502724 16.8981581,5.12212495 L16.8979715,5.1211922 C16.7901057,5.02903611 16.6413704,5.00124004 16.5333181,5.09414233 L16.5333181,5.09414233 L16.5333181,5.09414233 Z M18.4502678,10.1647793 L18.4502678,10.1647793 L16.5795996,10.2461154 C16.4375826,10.2522716 16.3052697,10.3761413 16.3325161,10.5158679 L16.3327027,10.516241 C16.3595758,10.6557809 16.4599768,10.7695769 16.6019938,10.7632342 L18.4724754,10.6817115 C18.6144925,10.6755553 18.7473651,10.5520587 18.7199322,10.4123322 L18.7203054,10.4112129 C18.6924992,10.2716729 18.5930313,10.15825 18.4502678,10.1647793 L18.4502678,10.1647793 L18.4502678,10.1647793 Z M15.4158439,1.70190283 L15.4158439,1.70190283 C15.488252,1.57896586 15.6472514,1.53736503 15.7700466,1.60993329 C15.8928419,1.68194189 15.9346445,1.84051006 15.8627962,1.96382013 L13.9674943,5.1928277 C13.8954594,5.31520502 13.7370199,5.35736549 13.6134782,5.28535689 L13.6136648,5.28442414 C13.4903097,5.21278864 13.4488803,5.05403392 13.5212884,4.93109695 L15.4158439,1.70190283 L15.4158439,1.70190283 L15.4158439,1.70190283 Z M19.6489212,6.75127297 L19.6489212,6.75127297 C19.7810474,6.69829255 19.9320221,6.76339877 19.9846487,6.89622293 C20.0374618,7.02830089 19.9728917,7.17940703 19.8407655,7.2322009 L16.3623751,8.61976565 C16.2306222,8.67274608 16.0792742,8.6078264 16.0266477,8.475935 L16.0268343,8.47500224 C15.9736479,8.34292429 16.0380314,8.19181815 16.1705309,8.13939738 L19.6489212,6.75127297 L19.6489212,6.75127297 L19.6489212,6.75127297 Z M19.8915258,13.3350233 L19.8915258,13.3350233 L16.2931395,12.297801 C16.1567211,12.2582522 16.0124646,12.3375363 15.9734613,12.4746511 L15.9727148,12.4750242 C15.9335248,12.6117659 16.0132111,12.7555966 16.1496295,12.7949588 L19.7480159,13.8323677 C19.8849942,13.87173 20.0285041,13.7922593 20.068254,13.655331 L20.0680673,13.6549579 C20.1080038,13.5184028 20.0285041,13.3743856 19.8915258,13.3350233 L19.8915258,13.3350233 Z M11.9355873,2.30296946 L11.9355873,2.30296946 L11.5638424,4.1371368 C11.5354763,4.27723644 11.6239337,4.43487185 11.7659507,4.44252044 L11.7661373,4.44233389 C11.9081543,4.44960937 12.0427066,4.37983937 12.0712593,4.24029938 L12.4428176,2.4063186 C12.4709971,2.26677861 12.3829129,2.10765079 12.2407093,2.10112151 L12.2397762,2.10074841 C12.0979458,2.09403258 11.9635802,2.16305637 11.9355873,2.30296946 L11.9355873,2.30296946 L11.9355873,2.30296946 Z M9.80383922,0.266581074 L9.80383922,0.266581074 L9.83332501,4.00990916 C9.8342581,4.15187431 9.9514548,4.2671627 10.0944049,4.26585684 L10.0945915,4.26622994 C10.2371684,4.26492409 10.3517524,4.14739709 10.3508193,4.00543194 L10.3215201,0.261730754 C10.3204004,0.119392504 10.2026439,0.00485032046 10.0604403,0.00578307439 C9.91786339,0.00615617596 9.8027195,0.123123519 9.80383922,0.266581074 L9.80383922,0.266581074 L9.80383922,0.266581074 Z M8.21925783,2.30296946 L8.21925783,2.30296946 L8.59062951,4.1371368 C8.61955544,4.27723644 8.53072483,4.43487185 8.38889444,4.44252044 L8.38814796,4.44233389 C8.24613095,4.44960937 8.1115787,4.37983937 8.08339924,4.24029938 L7.71165432,2.4063186 C7.68328824,2.26677861 7.77174562,2.10765079 7.91376263,2.10112151 L7.91469572,2.10074841 C8.05689935,2.09403258 8.19126499,2.16305637 8.21925783,2.30296946 L8.21925783,2.30296946 L8.21925783,2.30296946 Z M4.73900128,1.70190283 L4.73900128,1.70190283 L6.6333701,4.93109695 C6.70559163,5.05403392 6.66397561,5.21278864 6.54062049,5.28442414 L6.54099373,5.28535689 C6.41782523,5.35736549 6.25901252,5.31520502 6.18735084,5.1928277 L4.29204892,1.96382013 C4.22001401,1.84069661 4.26200327,1.68194189 4.38479853,1.60993329 C4.5075938,1.53736503 4.66659313,1.57896586 4.73900128,1.70190283 L4.73900128,1.70190283 L4.73900128,1.70190283 Z M3.62152708,5.09414233 L3.62152708,5.09414233 C3.51347472,5.00105349 3.36473943,5.02903611 3.25687368,5.1211922 L3.25668706,5.12212495 C3.14826146,5.2152138 3.17606768,5.39430255 3.28393343,5.48664519 L4.70410354,6.70687389 C4.81196928,6.79940308 4.96126443,6.77235321 5.06857032,6.67945092 L5.06894356,6.67945092 C5.17643606,6.58598898 5.14974956,6.40708677 5.04095072,6.31418448 L3.62152708,5.09414233 L3.62152708,5.09414233 L3.62152708,5.09414233 Z M0.505923937,6.75127297 L0.505923937,6.75127297 L3.98450092,8.13958393 C4.1164405,8.1920047 4.18157051,8.34292429 4.1281975,8.47518879 L4.12838412,8.47612155 C4.07538434,8.60801295 3.92440962,8.67293263 3.79265665,8.6199522 L0.31407967,7.23238745 C0.181393606,7.17959358 0.117196692,7.02848744 0.17019647,6.89640949 C0.222636391,6.76339877 0.373611111,6.69829255 0.505923937,6.75127297 L0.505923937,6.75127297 L0.505923937,6.75127297 Z M1.70439075,10.1647793 L1.70439075,10.1647793 L3.57487235,10.2461154 C3.71744922,10.2522716 3.84920219,10.3761413 3.82232906,10.5158679 L3.82214244,10.516241 C3.79526931,10.6557809 3.69449509,10.7695769 3.55247808,10.7632342 L1.68199648,10.6817115 C1.53997946,10.6755553 1.4072934,10.5520587 1.43472638,10.4123322 L1.43435315,10.4112129 C1.46215937,10.2716729 1.56181388,10.15825 1.70439075,10.1647793 L1.70439075,10.1647793 L1.70439075,10.1647793 Z M0.263132701,13.3350233 L0.263132701,13.3350233 L3.86133242,12.297801 C3.9981241,12.2582522 4.14238054,12.3375363 4.18157051,12.4746511 L4.18157051,12.4750242 C4.22113373,12.6117659 4.14144744,12.7555966 4.00465576,12.7949588 L0.406269425,13.8323677 C0.269477744,13.87173 0.126154401,13.7922593 0.0864045677,13.655331 L0.0865911866,13.6549579 C0.0468413531,13.5184028 0.12634102,13.3743856 0.263132701,13.3350233 L0.263132701,13.3350233 Z M3.27553558,15.2553771 L3.27553558,15.2553771 C3.1585255,15.3368998 3.14826146,15.488006 3.2117119,15.6156067 L3.21208514,15.6159798 C3.27553558,15.7435805 3.45599609,15.7609298 3.57225968,15.6794071 L5.10608072,14.6054342 C5.2221577,14.5242846 5.23279498,14.3728054 5.16971778,14.2459508 L5.16897131,14.2450181 C5.10514763,14.1177904 4.92543359,14.1000681 4.80879676,14.1814043 L3.27553558,15.2553771 L3.27553558,15.2553771 Z" id="Shape" fill="#FFCA4F"></path>
                    </g>
                </g>
            </g>
        </g>
    </g>
</svg>