<?xml version="1.0" encoding="UTF-8"?>
<svg width="318px" height="409px" viewBox="0 0 318 409" version="1.1" xmlns="http://www.w3.org/2000/svg" xmlns:xlink="http://www.w3.org/1999/xlink">
    <!-- Generator: Sketch 40.1 (33804) - http://www.bohemiancoding.com/sketch -->
    <title>Layer_1</title>
    <desc>Created with Sketch.</desc>
    <defs>
        <filter x="-50%" y="-50%" width="200%" height="200%" filterUnits="objectBoundingBox" id="filter-1">
            <feOffset dx="1" dy="3" in="SourceAlpha" result="shadowOffsetOuter1"></feOffset>
            <feGaussianBlur stdDeviation="2" in="shadowOffsetOuter1" result="shadowBlurOuter1"></feGaussianBlur>
            <feColorMatrix values="0 0 0 0 0   0 0 0 0 0   0 0 0 0 0  0 0 0 0.193444293 0" type="matrix" in="shadowBlurOuter1" result="shadowMatrixOuter1"></feColorMatrix>
            <feMerge>
                <feMergeNode in="shadowMatrixOuter1"></feMergeNode>
                <feMergeNode in="SourceGraphic"></feMergeNode>
            </feMerge>
        </filter>
    </defs>
    <g id="website" stroke="none" stroke-width="1" fill="none" fill-rule="evenodd">
        <g id="poster" transform="translate(-250.000000, -80.000000)">
            <g id="curriculum" transform="translate(253.000000, 81.000000)">
                <g id="Layer_1" filter="url(#filter-1)">
                    <path d="M275.8,400.6 L18.6,400.6 C8.6,400.6 0.6,392.6 0.6,382.6 L0.6,45.8 C0.6,35.8 8.6,27.8 18.6,27.8 L275.8,27.8 C285.8,27.8 293.8,35.8 293.8,45.8 L293.8,382.6 C294.2,392.6 285.8,400.6 275.8,400.6 L275.8,400.6 Z" id="Shape" fill="#FFFFFF"></path>
                    <g id="Group" transform="translate(21.000000, 179.000000)" fill="#E6E9EE">
                        <rect id="Rectangle-path" x="0.4" y="0.8" width="252" height="10.4"></rect>
                        <rect id="Rectangle-path" x="0.4" y="31.2" width="252" height="10.4"></rect>
                        <rect id="Rectangle-path" x="0.4" y="61.2" width="252" height="10.4"></rect>
                        <rect id="Rectangle-path" x="0.4" y="91.2" width="252" height="10.4"></rect>
                        <rect id="Rectangle-path" x="0.4" y="121.6" width="252" height="10.4"></rect>
                        <polygon id="Shape" points="138 161.6 252.4 161.6 252.4 151.6 0.4 151.6 0.4 162 138 162"></polygon>
                        <rect id="Rectangle-path" x="0.4" y="181.6" width="138" height="10.4"></rect>
                    </g>
                    <path d="M206.6,151.4 L193.4,164.6 L177,148.2 C179.4,146.2 181.8,144.2 183.8,142.2 C185.8,140.2 188.2,137.8 189.8,135.4 L206.6,151.4 L206.6,151.4 Z" id="Shape" fill="#2B3B4E"></path>
                    <circle id="Oval" fill="#324A5E" cx="125.8" cy="83.4" r="82.8"></circle>
                    <circle id="Oval" fill="#FFFFFF" cx="125.8" cy="83.4" r="67.6"></circle>
                    <path d="M179,125 C166.6,141 147.4,151 125.8,151 C104.2,151 84.6,140.6 72.2,125 C81.8,116.2 93.8,111 104.2,108.6 C103.4,116.6 107.4,127 107.4,127 C111.4,117.4 125.8,116.6 125.8,116.6 C125.8,116.6 139.8,117.4 144.2,127 C144.2,127.4 148.6,116.6 147.4,108.6 C157.4,111 169.8,115.8 179,125 L179,125 Z" id="Shape" fill="#84DBFF"></path>
                    <path d="M143,101 C143,102.6 141.8,109.8 126.2,115.8 L125.4,115.8 L125.4,115.8 C109.8,109.8 108.6,102.6 108.6,101 L108.6,101 C108.6,98.2 109.4,95.4 110.6,92.6 C115,97.4 120.2,100.6 125.8,100.6 C131.4,100.6 136.6,97.4 141,92.6 C142.2,95.4 143,98.2 143,101 L143,101 Z" id="Shape" fill="#FFD05B"></path>
                    <g id="Group" transform="translate(115.000000, 116.000000)" fill="#F1543F">
                        <path d="M11.2,0.2 C11.2,0.2 10.8,0.2 11.2,0.2 L10.4,0.2 L11.2,0.2 L11.2,0.2 Z" id="Shape"></path>
                        <path d="M20,2.6 L16.4,9.8 L4.4,9.8 L0.8,2.6 C5.6,0.6 10.4,0.2 10.4,0.2 C10.4,0.2 15.6,0.6 20,2.6 L20,2.6 Z" id="Shape"></path>
                    </g>
                    <path d="M116.6,150.2 C119.8,150.6 122.6,151 125.8,151 C129,151 131.8,150.6 135,150.2 L131.8,125.4 L119.8,125.4 L116.6,150.2 L116.6,150.2 Z" id="Shape" fill="#FF7058"></path>
                    <g id="Group" transform="translate(104.000000, 101.000000)" fill="#54C0EB">
                        <path d="M39,0 C39,0 39.8,8.8 21.8,15.2 C21.8,15.2 35.8,16 40.2,25.6 C40.2,26 48.2,4.8 39,0 L39,0 Z" id="Shape"></path>
                        <path d="M4.6,0 C-4.6,5.2 3.4,26 3.4,26 C7.4,16.4 21.8,15.6 21.8,15.6 C3.8,8.4 4.6,0 4.6,0 L4.6,0 Z" id="Shape"></path>
                    </g>
                    <path d="M141.8,95 C137,99.8 131.8,103 125.8,103 C119.8,103 114.2,99.8 109.8,95 C110.2,94.2 110.2,93.4 110.6,92.6 C115,97.4 120.2,100.6 125.8,100.6 C131.4,100.6 136.6,97.4 141,92.6 C141.4,93.4 141.8,94.2 141.8,95 L141.8,95 Z" id="Shape" fill="#F9B54C"></path>
                    <path d="M155.4,78.2 C153,82.2 149.8,84.2 147,83.8 C141.8,93.4 134.2,100.6 125.8,100.6 C117.4,100.6 109.8,93.4 104.6,83.8 C101.8,84.2 98.6,81.8 96.2,78.2 C93.4,73.8 93.4,68.6 96.2,67 C96.6,66.6 97.4,66.6 98.2,66.6 C99.8,71 102.2,73.8 102.2,73.8 C99.8,59.8 109.8,58.6 108.2,45 C108.2,45 114.6,59.4 133,49.4 L131.4,52.2 C156.6,46.6 148.6,75.8 148.2,77.4 C151,73.8 153,70.2 154.2,66.6 C154.6,66.6 155,66.6 155.4,67 C158.2,69 158.2,73.8 155.4,78.2 L155.4,78.2 Z" id="Shape" fill="#FFD05B"></path>
                    <g id="Group" transform="translate(94.000000, 24.000000)" fill="#324A5E">
                        <path d="M4.2,10.6 C4.2,10.6 9.4,9.8 11,13.8 C11,13.8 9.4,8.2 11,5.8 C12.6,3.4 11,5 11,5 C11,5 10.2,8.6 11.8,10.6 C11.8,10.6 15.4,-2.6 37.4,1 C37.4,1 33,0.6 27.8,5 C27.8,5 43,-1.8 52.2,8.6 C52.2,8.6 48.6,7 46.6,7 C46.6,7 66.2,14.6 63.4,34.2 L62.2,29.8 C62.2,29.8 63.8,41.8 54.2,53.8 C54.2,53.8 63.4,22.6 37.4,28.6 L39,25.8 C20.6,35.8 14.2,21.4 14.2,21.4 C15.8,34.6 5.8,36.2 8.2,50.2 C8.2,50.2 -0.6,40.2 3,27 L0.2,30.2 C0.2,30.2 -1.8,18.2 9.8,14.2 C9.4,14.2 8.6,11.4 4.2,10.6 L4.2,10.6 Z" id="Shape"></path>
                        <path d="M213.4,226.6 L199,241 C195.8,244.2 190.6,244.2 187.8,241 L99,152.2 C95.8,149 95.8,143.8 99,141 L113.4,126.6 C116.6,123.4 121.8,123.4 124.6,126.6 L213,215 C216.2,218.6 216.2,223.4 213.4,226.6 L213.4,226.6 Z" id="Shape"></path>
                    </g>
                    <rect id="Rectangle-path" fill="#4CDBC4" transform="translate(250.066564, 207.663392) rotate(225.000000) translate(-250.066564, -207.663392) " x="195.067591" y="189.663564" width="109.997945" height="35.9996548"></rect>
                </g>
            </g>
        </g>
    </g>
</svg>