<?xml version="1.0" ?><svg height="512px" id="Layer_1" style="enable-background:new 0 0 512 512;" version="1.1" viewBox="0 0 512 512" width="512px" xml:space="preserve" xmlns="http://www.w3.org/2000/svg" xmlns:cc="http://creativecommons.org/ns#" xmlns:dc="http://purl.org/dc/elements/1.1/" xmlns:inkscape="http://www.inkscape.org/namespaces/inkscape" xmlns:rdf="http://www.w3.org/1999/02/22-rdf-syntax-ns#" xmlns:sodipodi="http://sodipodi.sourceforge.net/DTD/sodipodi-0.dtd" xmlns:svg="http://www.w3.org/2000/svg"><defs id="defs19"/><g id="g2996" transform="translate(0.32800146,0.07000866)"><g id="g2987" style="fill:none;stroke:#d93725;stroke-width:10.19920349000000000;stroke-miterlimit:4;stroke-opacity:1;stroke-dasharray:none" transform="matrix(0.98046874,0,0,0.98046874,4.9935963,4.9986352)"><path d="m 511.672,255.92999 c 0,141.3849 -114.61511,256 -256,256 -141.3849,0 -256.00000293,-114.6151 -256.00000293,-256 C -0.32800293,114.5451 114.2871,-0.07000732 255.672,-0.07000732 c 141.38489,0 256,114.61510732 256,255.99999732 z" id="path2989" style="fill:none;stroke:#d93725;stroke-width:10.19920349000000000;stroke-miterlimit:4;stroke-opacity:1;stroke-dasharray:none"/></g><g id="g3898" transform="translate(-0.32800146,-0.07000766)"><g id="g3132"><g id="g3905" style="fill:#d93725;fill-opacity:1"><path d="m 296,95.983998 c 0,0 -73.472,0 -98.624,0 -45.12,0 -87.6,31.664002 -87.6,71.248002 0,40.448 30.752,71.904 76.656,71.904 3.2,0 6.304,-0.72 9.344,-0.944 -3.008,5.68 -5.088,11.792 -5.088,18.464 0,11.248 6.032,20.224 13.664,27.664 -5.728,0 -11.344,0.08 -17.44,0.08 C 131.024,284.416 88,319.984 88,356.896 c 0,36.352 47.168,59.12 103.056,59.12 63.728,0 98.928,-36.192 98.928,-72.544 0,-29.136 -8.608,-46.608 -35.184,-65.456 -9.104,-6.416 -26.496,-22.08 -26.496,-31.296 0,-10.784 3.072,-16.096 19.328,-28.8 16.624,-12.992 28.416,-28.496 28.416,-49.776 0,-25.296 -10.88,-56.16 -32.048,-56.16 h 36 L 296,95.983998 z M 262.896,337.168 c 0.768,3.392 1.232,6.864 1.232,10.384 0,29.376 -18.96,52.336 -73.28,52.336 -38.64,0 -66.528,-24.448 -66.528,-53.824 0,-28.784 34.608,-52.768 73.264,-52.336 8.992,0.096 17.408,1.552 25.024,3.984 20.976,14.608 36.016,22.848 40.288,39.456 z M 201.008,227.584 c -25.936,-0.752 -50.592,-29.008 -55.056,-63.04 -4.464,-34.08 12.928,-60.144 38.848,-59.376 25.92,0.8 50.592,28.128 55.056,62.176 4.48,34.048 -12.912,61.008 -38.848,60.24 z" id="path3197" style="fill:#d93725;fill-opacity:1"/><polygon id="polygon3199" points="24,13.993 24,10.993 22,10.993 22,13.993 19,13.993 19,15.993 22,15.993 22,18.993 24,18.993 24,15.993 27,15.993 27,13.993 " style="fill:#d93725;fill-opacity:1" transform="matrix(16,0,0,16,-8,-0.016)"/></g></g><g id="Layer_1_1_-2"/></g></g><g id="Layer_1_1_"/></svg>