<?xml version="1.0" encoding="UTF-8"?>
<svg width="100px" height="100px" viewBox="0 0 100 100" version="1.1" xmlns="http://www.w3.org/2000/svg" xmlns:xlink="http://www.w3.org/1999/xlink">
    <!-- Generator: Sketch 40.1 (33804) - http://www.bohemiancoding.com/sketch -->
    <title>analytics</title>
    <desc>Created with Sketch.</desc>
    <defs></defs>
    <g id="Page-1" stroke="none" stroke-width="1" fill="none" fill-rule="evenodd">
        <g id="Competitions" transform="translate(-877.000000, -727.000000)" fill="#01579B">
            <g id="Group-12" transform="translate(815.000000, 706.000000)">
                <g id="Group-6" transform="translate(62.000000, 21.000000)">
                    <g id="analytics">
                        <g id="Layer_1">
                            <g id="Group">
                                <path d="M87.0967742,9.67741935 L87.0967742,45.1612903 L100,45.1612903 L100,9.67741935 L87.0967742,9.67741935 L87.0967742,9.67741935 Z M96.7741935,41.9354839 L90.3225806,41.9354839 L90.3225806,12.9032258 L96.7741935,12.9032258 L96.7741935,41.9354839 L96.7741935,41.9354839 Z" id="Shape"></path>
                                <path d="M70.9677419,25.9935484 C69.9354839,25.0709677 68.8596774,24.2064516 67.7419355,23.4048387 L67.7419355,22.5806452 L66.5274194,22.5806452 C60.2419355,18.4225806 52.8112903,16.1290323 45.1612903,16.1290323 L43.5483871,16.1290323 L43.5483871,56.4516129 L83.8709677,56.4516129 L83.8709677,54.8387097 C83.8709677,51.5612903 83.4370968,48.3193548 82.6225806,45.1612903 L83.8709677,45.1612903 L83.8709677,16.1290323 L70.9677419,16.1290323 L70.9677419,25.9935484 L70.9677419,25.9935484 Z M46.7741935,53.2258065 L46.7741935,19.3903226 C51.3387097,19.6 55.7854839,20.7080645 59.8854839,22.5806452 L54.8387097,22.5806452 L54.8387097,45.1612903 L67.7419355,45.1612903 L67.7419355,27.5274194 C68.8709677,28.4596774 69.9548387,29.4483871 70.9677419,30.5225806 L70.9677419,45.1612903 L79.283871,45.1612903 C80.0290323,47.7919355 80.4854839,50.4919355 80.6096774,53.2258065 L46.7741935,53.2258065 L46.7741935,53.2258065 Z M64.516129,25.8064516 L64.516129,41.9354839 L58.0645161,41.9354839 L58.0645161,25.8064516 L64.516129,25.8064516 L64.516129,25.8064516 Z M74.1935484,19.3548387 L80.6451613,19.3548387 L80.6451613,41.9354839 L74.1935484,41.9354839 L74.1935484,19.3548387 L74.1935484,19.3548387 Z" id="Shape"></path>
                                <rect id="Rectangle-path" transform="translate(20.563918, 56.854262) rotate(-45.000000) translate(-20.563918, -56.854262) " x="10.8705632" y="55.2413742" width="19.3867092" height="3.22577552"></rect>
                                <path d="M19.3548387,50 C19.3548387,47.3322581 17.183871,45.1612903 14.516129,45.1612903 C11.8483871,45.1612903 9.67741935,47.3322581 9.67741935,50 C9.67741935,52.6677419 11.8483871,54.8387097 14.516129,54.8387097 C17.183871,54.8387097 19.3548387,52.6677419 19.3548387,50 L19.3548387,50 Z M12.9032258,50 C12.9032258,49.1096774 13.6258065,48.3870968 14.516129,48.3870968 C15.4064516,48.3870968 16.1290323,49.1096774 16.1290323,50 C16.1290323,50.8903226 15.4064516,51.6129032 14.516129,51.6129032 C13.6258065,51.6129032 12.9032258,50.8903226 12.9032258,50 L12.9032258,50 Z" id="Shape"></path>
                                <path d="M27.4193548,58.0645161 C24.7516129,58.0645161 22.5806452,60.2354839 22.5806452,62.9032258 C22.5806452,65.5709677 24.7516129,67.7419355 27.4193548,67.7419355 C30.0870968,67.7419355 32.2580645,65.5709677 32.2580645,62.9032258 C32.2580645,60.2354839 30.0870968,58.0645161 27.4193548,58.0645161 L27.4193548,58.0645161 Z M27.4193548,64.516129 C26.5290323,64.516129 25.8064516,63.7935484 25.8064516,62.9032258 C25.8064516,62.0129032 26.5290323,61.2903226 27.4193548,61.2903226 C28.3096774,61.2903226 29.0322581,62.0129032 29.0322581,62.9032258 C29.0322581,63.7935484 28.3096774,64.516129 27.4193548,64.516129 L27.4193548,64.516129 Z" id="Shape"></path>
                                <path d="M70.7370968,82.9725806 C75.0951613,76.5516129 77.4193548,69.0951613 77.4193548,61.2903226 L77.4193548,59.6774194 L40.3225806,59.6774194 L40.3225806,22.5806452 L38.7096774,22.5806452 C37.116129,22.5806452 35.4951613,22.7209677 33.8709677,22.9258065 L33.8709677,0 L0,0 L0,22.5806452 L20.3,22.5806452 L23.45,25.7306452 C9.33064516,31.7935484 0,45.7709677 0,61.2903226 C0,82.633871 17.366129,100 38.7096774,100 C48.0693548,100 56.9854839,96.616129 64.0306452,90.5048387 L69.0209677,95.4951613 C70.0016129,96.4758065 71.2919355,96.9677419 72.5806452,96.9677419 C73.8693548,96.9677419 75.1596774,96.4758065 76.1403226,95.4951613 C78.1032258,93.5322581 78.1032258,90.3387097 76.1403226,88.3758065 L70.7370968,82.9725806 L70.7370968,82.9725806 Z M21.6354839,19.3548387 L3.22580645,19.3548387 L3.22580645,3.22580645 L30.6451613,3.22580645 L30.6451613,28.3645161 L21.6354839,19.3548387 L21.6354839,19.3548387 Z M38.7096774,96.7741935 C19.1435484,96.7741935 3.22580645,80.8564516 3.22580645,61.2903226 C3.22580645,46.6274194 12.316129,33.4725806 25.9306452,28.2112903 L33.8709677,36.1516129 L33.8709677,26.1612903 C34.95,26.0129032 36.0290323,25.8935484 37.0967742,25.8435484 L37.0967742,62.9032258 L74.1580645,62.9032258 C73.8758065,69.266129 71.9,75.3354839 68.4193548,80.6548387 L65.8467742,78.0822581 C66.0241935,77.3516129 66.1290323,76.5919355 66.1290323,75.8064516 C66.1290323,70.4693548 61.7887097,66.1290323 56.4516129,66.1290323 C51.1145161,66.1290323 46.7741935,70.4693548 46.7741935,75.8064516 C46.7741935,81.1435484 51.1145161,85.483871 56.4516129,85.483871 C57.2370968,85.483871 57.9967742,85.3790323 58.7274194,85.2016129 L61.7435484,88.2177419 C55.3145161,93.7274194 47.2129032,96.7741935 38.7096774,96.7741935 L38.7096774,96.7741935 Z M62.9032258,75.8064516 C62.9032258,79.3645161 60.0096774,82.2580645 56.4516129,82.2580645 C52.8935484,82.2580645 50,79.3645161 50,75.8064516 C50,72.2483871 52.8935484,69.3548387 56.4516129,69.3548387 C60.0096774,69.3548387 62.9032258,72.2483871 62.9032258,75.8064516 L62.9032258,75.8064516 Z M73.8596774,93.2145161 C73.1532258,93.9209677 72.0080645,93.9209677 71.3016129,93.2145161 L61.8919355,83.8048387 C62.8967742,83.1193548 63.7645161,82.2516129 64.45,81.2467742 L73.8596774,90.6564516 C74.5645161,91.3629032 74.5645161,92.5080645 73.8596774,93.2145161 L73.8596774,93.2145161 Z" id="Shape"></path>
                                <rect id="Rectangle-path" x="6.4516129" y="6.4516129" width="20.9677419" height="3.22580645"></rect>
                                <rect id="Rectangle-path" x="6.4516129" y="12.9032258" width="20.9677419" height="3.22580645"></rect>
                                <rect id="Rectangle-path" x="54.8387097" y="74.1935484" width="3.22580645" height="3.22580645"></rect>
                                <rect id="Rectangle-path" x="40.3225806" y="74.1935484" width="3.22580645" height="3.22580645"></rect>
                                <rect id="Rectangle-path" x="33.8709677" y="74.1935484" width="3.22580645" height="3.22580645"></rect>
                                <rect id="Rectangle-path" x="27.4193548" y="74.1935484" width="3.22580645" height="3.22580645"></rect>
                            </g>
                        </g>
                    </g>
                </g>
            </g>
        </g>
    </g>
</svg>