<?xml version="1.0" encoding="UTF-8"?>
<svg width="101px" height="85px" viewBox="0 0 101 85" version="1.1" xmlns="http://www.w3.org/2000/svg" xmlns:xlink="http://www.w3.org/1999/xlink">
    <!-- Generator: Sketch 40.1 (33804) - http://www.bohemiancoding.com/sketch -->
    <title>Layer_1</title>
    <desc>Created with Sketch.</desc>
    <defs></defs>
    <g id="Page-1" stroke="none" stroke-width="1" fill="none" fill-rule="evenodd">
        <g id="Competitions" transform="translate(-584.000000, -389.000000)" fill="#01579B">
            <g id="Group-10" transform="translate(522.500000, 357.000000)">
                <g id="Group-7" transform="translate(62.000000, 32.000000)">
                    <g id="icon">
                        <g id="Layer_1">
                            <g id="browser-html-tags">
                                <path d="M61.0520303,56.8390608 C61.2992167,57.4446856 61.8835927,57.8125 62.5,57.8125 C62.6968742,57.8125 62.895155,57.7759384 63.0890608,57.6981247 L81.8390608,50.0746847 C82.4234367,49.8367191 82.8064025,49.2706239 82.8125,48.6404717 C82.8185916,48.0087519 82.4433148,47.4365652 81.8634391,47.1893728 L63.1134391,39.1876548 C62.3261273,38.851875 61.4014089,39.2165631 61.0626578,40.0115639 C60.7239067,40.805 61.0931217,41.7235941 61.8865609,42.0623452 L77.1865606,48.5915602 L61.9110942,54.8018753 C61.1114084,55.1268756 60.726875,56.039375 61.0520303,56.8390608 L61.0520303,56.8390608 Z" id="Shape"></path>
                                <path d="M21.2860942,50.0746847 L40.0360942,57.6981247 C40.229845,57.7759384 40.4281258,57.8125 40.625,57.8125 C41.2414073,57.8125 41.8259383,57.4446856 42.0731247,56.8390608 C42.398125,56.039375 42.0136273,55.1268756 41.2140637,54.8018753 L25.9384394,48.5915602 L41.2384391,42.0623452 C42.0318752,41.7235941 42.4011259,40.805 42.0623452,40.0115639 C41.7221873,39.2165631 40.7974989,38.8504684 40.0115639,39.1876548 L21.2615639,47.1893728 C20.6817195,47.4365652 20.3064069,48.0087519 20.3125016,48.6404717 C20.3185945,49.2706239 20.7015633,49.8367191 21.2860942,50.0746847 L21.2860942,50.0746847 Z" id="Shape"></path>
                                <path d="M44.6778119,63.9282822 C44.8837489,64.0198409 45.0989067,64.0625 45.3109383,64.0625 C45.9106236,64.0625 46.4814066,63.7160956 46.7407822,63.1346881 L59.2407822,35.0096881 C59.5901906,34.2209369 59.2360912,33.297655 58.447343,32.9467177 C57.6600014,32.597345 56.7367195,32.9543739 56.3842177,33.7401569 L43.8842177,61.8651569 C43.5348452,62.6540602 43.8889056,63.577342 44.6778119,63.9282822 L44.6778119,63.9282822 Z" id="Shape"></path>
                                <path d="M93.75,0 L6.25,0 C2.79812625,0 1.24999997e-06,2.79812516 1.24999997e-06,6.25 L1.24999997e-06,14.0625 L1.24999997e-06,17.1875 L1.24999997e-06,78.125 C1.24999997e-06,81.5767169 2.79812625,84.375 6.25000094,84.375 L93.7500009,84.375 C97.2018728,84.375 100.000001,81.5767169 100.000001,78.125 L100.000001,17.1875 L100.000001,14.0625 L100.000001,6.25 C100,2.79812516 97.2018719,0 93.75,0 L93.75,0 Z M96.875,78.125 C96.875,79.8481227 95.4731227,81.25 93.75,81.25 L6.25,81.25 C4.52687547,81.25 3.12500031,79.8481227 3.12500031,78.125 L3.12500031,17.1875 L96.8750003,17.1875 L96.8750003,78.125 L96.875,78.125 Z M96.875,14.0625 L3.125,14.0625 L3.125,6.25 C3.125,4.52687516 4.52687516,3.125 6.24999969,3.125 L93.7499997,3.125 C95.4731223,3.125 96.8749997,4.52687516 96.8749997,6.25 L96.8749997,14.0625 L96.875,14.0625 Z" id="Shape"></path>
                                <path d="M9.37500078,6.25 C7.86718875,6.25 6.64062578,7.47656219 6.64062578,8.984375 C6.64062578,10.4920313 7.86718875,11.71875 9.37500078,11.71875 C10.8828128,11.71875 12.1093758,10.4920313 12.1093758,8.984375 C12.1093758,7.47656219 10.8828134,6.25 9.37500078,6.25 L9.37500078,6.25 Z M9.37500078,10.15625 C8.72781359,10.15625 8.20312578,9.63156219 8.20312578,8.984375 C8.20312578,8.33718781 8.72781359,7.8125 9.37500078,7.8125 C10.0221888,7.8125 10.5468758,8.33718781 10.5468758,8.984375 C10.5468758,9.63156219 10.0221888,10.15625 9.37500078,10.15625 L9.37500078,10.15625 Z" id="Shape"></path>
                                <path d="M25,6.25 C23.4921888,6.25 22.265625,7.47656219 22.265625,8.984375 C22.265625,10.4920313 23.4921888,11.71875 25,11.71875 C26.5078113,11.71875 27.734375,10.4920313 27.734375,8.984375 C27.734375,7.47656219 26.5078128,6.25 25,6.25 L25,6.25 Z M25,10.15625 C24.3528128,10.15625 23.828125,9.63156219 23.828125,8.984375 C23.828125,8.33718781 24.3528128,7.8125 25,7.8125 C25.6471872,7.8125 26.171875,8.33718781 26.171875,8.984375 C26.171875,9.63156219 25.6471872,10.15625 25,10.15625 L25,10.15625 Z" id="Shape"></path>
                                <path d="M17.1875016,6.25 C15.6796888,6.25 14.4531266,7.47656219 14.4531266,8.984375 C14.4531266,10.4920313 15.6796888,11.71875 17.1875016,11.71875 C18.6953144,11.71875 19.9218766,10.4920313 19.9218766,8.984375 C19.9218766,7.47656219 18.6953128,6.25 17.1875016,6.25 L17.1875016,6.25 Z M17.1875016,10.15625 C16.5403128,10.15625 16.0156266,9.63156219 16.0156266,8.984375 C16.0156266,8.33718781 16.5403128,7.8125 17.1875016,7.8125 C17.8346888,7.8125 18.3593766,8.33718781 18.3593766,8.984375 C18.3593766,9.63156219 17.8346888,10.15625 17.1875016,10.15625 L17.1875016,10.15625 Z" id="Shape"></path>
                            </g>
                        </g>
                    </g>
                </g>
            </g>
        </g>
    </g>
</svg>