<?xml version="1.0" encoding="UTF-8"?>
<svg width="64px" height="63px" viewBox="0 0 64 63" version="1.1" xmlns="http://www.w3.org/2000/svg" xmlns:xlink="http://www.w3.org/1999/xlink">
    <!-- Generator: Sketch 40.1 (33804) - http://www.bohemiancoding.com/sketch -->
    <title>ei-logo</title>
    <desc>Created with Sketch.</desc>
    <defs>
        <path d="M48.3294416,53.8609894 C47.4807107,53.6211809 46.9309645,53.2662643 45.8796954,52.2398839 C44.3269036,50.7338866 43.8446701,49.6979138 43.8446701,47.8657769 C43.8446701,46.1391557 44.2304569,45.2662527 45.628934,43.8274017 C47.1624365,42.2446656 48.8309645,41.6211635 50.7116751,41.9089337 C52.0040609,42.1103728 52.9878173,42.6667286 54.3766497,43.9808792 C55.7172589,45.247068 56.0741117,46.1007863 56.0741117,48.009662 C56.064467,49.0072653 56.035533,49.2662585 55.8040609,49.92813 C55.186802,51.7123052 53.7883249,53.1031945 51.9558376,53.736289 C51.1649746,54.0048745 49.1203046,54.0816132 48.3294416,53.8609894 L48.3294416,53.8609894 Z" id="path-1"></path>
        <filter x="-50%" y="-50%" width="200%" height="200%" filterUnits="objectBoundingBox" id="filter-2">
            <feOffset dx="0" dy="-5" in="SourceAlpha" result="shadowOffsetOuter1"></feOffset>
            <feGaussianBlur stdDeviation="2" in="shadowOffsetOuter1" result="shadowBlurOuter1"></feGaussianBlur>
            <feColorMatrix values="0 0 0 0 0   0 0 0 0 0   0 0 0 0 0  0 0 0 0.5 0" type="matrix" in="shadowBlurOuter1"></feColorMatrix>
        </filter>
        <path d="M21.7005076,48.9017496 C19.5979695,47.4437139 17.8522843,45.8513855 16.5791878,44.2206877 C13.8304569,40.7002989 11.9304569,36.2878224 11.342132,32.0863775 C11.0431472,29.8897316 11.0624365,28.6331351 11.4385787,27.3861309 C11.5543147,27.0024373 11.5543147,26.8873292 11.457868,26.8297751 C11.3903553,26.7914058 10.7730964,26.4556739 10.0883249,26.0815726 C4.62944162,23.1463166 1.33096447,19.4532656 0.366497462,15.2134513 C0.106091371,14.0719629 0.0868020305,11.961648 0.318274112,11.002414 C0.974111675,8.36452053 2.63299492,6.30216742 5.43959391,4.64269259 C8.64162437,2.74340926 12.1812183,1.71702887 17.4568528,1.13189613 C19.2507614,0.940049325 24.6324873,0.968826346 26.2335025,1.17985783 C29.1654822,1.58273611 31.1040609,2.10072247 33.4284264,3.12710286 L34.4025381,3.55875816 L35.7527919,6.31175976 C36.5050761,7.82734948 37.2766497,9.45804729 37.4791878,9.92807196 C37.9614213,11.0695604 39.1477157,14.2350326 39.1091371,14.273402 C39.0994924,14.2925867 38.6365482,14.0815552 38.086802,13.8129697 C33.2258883,11.3861076 30.7568528,10.4268736 28.3071066,10.014403 C26.6192893,9.73622516 22.684264,9.90888728 19.5304569,10.4172813 C15.6918782,11.0311911 12.9431472,12.0959408 11.3614213,13.6019382 C10.6091371,14.3117714 10.1654822,15.0599739 9.91472081,16.0383926 C9.73147208,16.7674104 9.72182741,16.9208879 9.82791878,17.7746061 C9.8857868,18.2925925 10.0401015,19.0503873 10.1847716,19.4532656 C10.5319797,20.4892384 11.371066,22.0336051 12.219797,23.1942783 L12.9431472,24.1822893 L13.386802,23.7698187 C13.9944162,23.2038706 14.5538071,22.8297693 15.5857868,22.311783 C17.5532995,21.3045873 20.3695431,20.3741303 21.7680203,20.2686145 C22.4238579,20.2206528 22.6939086,20.2494299 23.3401015,20.4316843 C23.8898477,20.5851618 24.1502538,20.7098622 24.2274112,20.8537473 C24.2852792,20.9688554 24.757868,21.7074655 25.2690355,22.4940374 C26.4071066,24.2398433 26.9761421,25.2374467 27.3812183,26.177496 C27.5451777,26.5611896 27.680203,26.8873292 27.680203,26.9065139 C27.680203,26.9256985 27.448731,26.9640679 27.1786802,27.0024373 C22.0573604,27.6739011 18.7010152,30.8777426 18.2091371,35.5588046 C18.0258883,37.3046105 18.2670051,39.0983781 18.884264,40.5372291 L19.1446701,41.1703235 L19.7715736,41.1127695 C20.5817259,41.0456231 22.0959391,40.6523372 23.1954315,40.2206819 C26.571066,38.8873466 29.8984772,36.585185 33.5827411,33.0168345 L35.0969543,31.5492064 L35.193401,31.9137154 C35.2416244,32.1151545 35.4248731,32.863357 35.5888325,33.5731902 C35.7527919,34.2830234 36.0614213,35.5588046 36.2736041,36.3933382 C36.6883249,38.0911824 36.7461929,38.9161236 36.5050761,40.0192427 C36.1096447,41.889749 35.048731,43.4341158 33.0522843,45.0744059 C30.9497462,46.7914348 29.3390863,47.6547454 26.9761421,48.3358015 C25.9248731,48.6331641 24.3142132,48.9593036 23.3401015,49.0648194 C23.0507614,49.0935964 22.6553299,49.1415581 22.4720812,49.1607428 C22.2116751,49.1991121 22.0380711,49.1415581 21.7005076,48.9017496 L21.7005076,48.9017496 Z" id="path-3"></path>
        <filter x="-50%" y="-50%" width="200%" height="200%" filterUnits="objectBoundingBox" id="filter-4">
            <feOffset dx="0" dy="-5" in="SourceAlpha" result="shadowOffsetOuter1"></feOffset>
            <feGaussianBlur stdDeviation="2" in="shadowOffsetOuter1" result="shadowBlurOuter1"></feGaussianBlur>
            <feColorMatrix values="0 0 0 0 0   0 0 0 0 0   0 0 0 0 0  0 0 0 0.5 0" type="matrix" in="shadowBlurOuter1"></feColorMatrix>
        </filter>
        <path d="M54.6852792,39.4149253 C50.7213198,37.9377049 44.9055838,36.4125228 41.5106599,35.9712752 L40.6329949,35.8561671 L40.0832487,33.5540055 C39.7746193,32.2878166 39.5431472,31.2326592 39.5720812,31.2134745 C39.6010152,31.1846975 40.0446701,31.0791818 40.5654822,30.9640737 C41.8385787,30.7050805 43.2852792,30.6858958 43.9121827,30.9257043 C44.1725888,31.0216277 44.3944162,31.0791818 44.4233503,31.0599971 C44.4715736,31.0024431 44.2111675,23.8849267 44.0761421,21.7746119 C43.8639594,18.4556623 43.642132,15.8849151 43.3431472,13.4964225 C43.2563452,12.8153663 43.2081218,12.2398259 43.2370558,12.2206412 C43.3335025,12.1151255 49.6411168,12.6522965 53.3350254,13.0743595 L55.215736,13.285391 L55.2253807,19.8561439 C55.2446701,26.1583113 55.3604061,30.8489656 55.5532995,32.9976498 C55.6401015,33.8993298 55.9390863,39.0600087 55.9390863,39.5971797 C55.9390863,39.7122878 55.8812183,39.8082112 55.8233503,39.7986189 C55.7558376,39.7986189 55.2446701,39.6259568 54.6852792,39.4149253 L54.6852792,39.4149253 Z" id="path-5"></path>
        <filter x="-50%" y="-50%" width="200%" height="200%" filterUnits="objectBoundingBox" id="filter-6">
            <feOffset dx="0" dy="-5" in="SourceAlpha" result="shadowOffsetOuter1"></feOffset>
            <feGaussianBlur stdDeviation="2" in="shadowOffsetOuter1" result="shadowBlurOuter1"></feGaussianBlur>
            <feColorMatrix values="0 0 0 0 0   0 0 0 0 0   0 0 0 0 0  0 0 0 0.5 0" type="matrix" in="shadowBlurOuter1"></feColorMatrix>
        </filter>
    </defs>
    <g id="Page-1" stroke="none" stroke-width="1" fill="none" fill-rule="evenodd">
        <g id="login" transform="translate(-500.000000, -192.000000)">
            <g id="ei-logo" transform="translate(504.000000, 192.000000)">
                <g id="Group" transform="translate(28.500000, 27.098361) scale(1, -1) translate(-28.500000, -27.098361) ">
                    <g id="Shape">
                        <use fill="black" fill-opacity="1" filter="url(#filter-2)" xlink:href="#path-1"></use>
                        <use fill="#000000" fill-rule="evenodd" xlink:href="#path-1"></use>
                    </g>
                    <g id="Shape">
                        <use fill="black" fill-opacity="1" filter="url(#filter-4)" xlink:href="#path-3"></use>
                        <use fill="#000000" fill-rule="evenodd" xlink:href="#path-3"></use>
                    </g>
                    <g id="Shape">
                        <use fill="black" fill-opacity="1" filter="url(#filter-6)" xlink:href="#path-5"></use>
                        <use fill="#000000" fill-rule="evenodd" xlink:href="#path-5"></use>
                    </g>
                </g>
            </g>
        </g>
    </g>
</svg>