<?xml version="1.0" encoding="UTF-8"?>
<svg width="100px" height="100px" viewBox="0 0 100 100" version="1.1" xmlns="http://www.w3.org/2000/svg" xmlns:xlink="http://www.w3.org/1999/xlink">
    <!-- Generator: Sketch 40.1 (33804) - http://www.bohemiancoding.com/sketch -->
    <title>books</title>
    <desc>Created with Sketch.</desc>
    <defs></defs>
    <g id="Page-1" stroke="none" stroke-width="1" fill="none" fill-rule="evenodd">
        <g id="Competitions" transform="translate(-584.000000, -730.000000)" fill="#01579B">
            <g id="Group-13" transform="translate(523.000000, 706.000000)">
                <g id="Group-5" transform="translate(61.000000, 24.000000)">
                    <g id="books">
                        <g id="Layer_1">
                            <g id="Group">
                                <path d="M71.6666016,33.3333984 L68.3332031,33.3333984 C67.4132813,33.3333984 66.6666016,34.0800781 66.6666016,35 C66.6666016,35.9199219 67.4132813,36.6666016 68.3332031,36.6666016 L71.6666016,36.6666016 C72.5865234,36.6666016 73.3332031,35.9199219 73.3332031,35 C73.3332031,34.0800781 72.5867188,33.3333984 71.6666016,33.3333984 L71.6666016,33.3333984 Z" id="Shape"></path>
                                <path d="M71.6666016,40 L68.3332031,40 C67.4132813,40 66.6666016,40.7466797 66.6666016,41.6666016 C66.6666016,42.5865234 67.4132813,43.3332031 68.3332031,43.3332031 L71.6666016,43.3332031 C72.5865234,43.3332031 73.3332031,42.5865234 73.3332031,41.6666016 C73.3333984,40.7466797 72.5867188,40 71.6666016,40 L71.6666016,40 Z" id="Shape"></path>
                                <path d="M71.6666016,26.6666016 L68.3332031,26.6666016 C67.4132813,26.6666016 66.6666016,27.4132812 66.6666016,28.3332031 C66.6666016,29.253125 67.4132813,29.9998047 68.3332031,29.9998047 L71.6666016,29.9998047 C72.5865234,29.9998047 73.3332031,29.253125 73.3332031,28.3332031 C73.3333984,27.4132812 72.5867188,26.6666016 71.6666016,26.6666016 L71.6666016,26.6666016 Z" id="Shape"></path>
                                <path d="M71.6666016,80 L68.3332031,80 C67.4132813,80 66.6666016,80.7466797 66.6666016,81.6666016 C66.6666016,82.5865234 67.4132813,83.3332031 68.3332031,83.3332031 L71.6666016,83.3332031 C72.5865234,83.3332031 73.3332031,82.5865234 73.3332031,81.6666016 C73.3332031,80.7466797 72.5867188,80 71.6666016,80 L71.6666016,80 Z" id="Shape"></path>
                                <path d="M35,26.6666016 L25,26.6666016 C24.0800781,26.6666016 23.3333984,27.4132812 23.3333984,28.3332031 L23.3333984,51.6666016 C23.3333984,52.5865234 24.0800781,53.3332031 25,53.3332031 L35,53.3332031 C35.9199219,53.3332031 36.6666016,52.5865234 36.6666016,51.6666016 L36.6666016,28.3333984 C36.6666016,27.4132812 35.9199219,26.6666016 35,26.6666016 L35,26.6666016 Z M33.3333984,50 L26.6667969,50 L26.6667969,30 L33.3333984,30 L33.3333984,50 L33.3333984,50 Z" id="Shape"></path>
                                <path d="M35,80 L25,80 C24.0800781,80 23.3333984,80.7466797 23.3333984,81.6666016 C23.3333984,82.5865234 24.0800781,83.3332031 25,83.3332031 L35,83.3332031 C35.9199219,83.3332031 36.6666016,82.5865234 36.6666016,81.6666016 C36.6666016,80.7466797 35.9199219,80 35,80 L35,80 Z" id="Shape"></path>
                                <path d="M35,86.6666016 L25,86.6666016 C24.0800781,86.6666016 23.3333984,87.4132812 23.3333984,88.3332031 C23.3333984,89.253125 24.0800781,89.9998047 25,89.9998047 L35,89.9998047 C35.9199219,89.9998047 36.6666016,89.253125 36.6666016,88.3332031 C36.6666016,87.4132812 35.9199219,86.6666016 35,86.6666016 L35,86.6666016 Z" id="Shape"></path>
                                <path d="M71.6666016,86.6666016 L68.3332031,86.6666016 C67.4132813,86.6666016 66.6666016,87.4132812 66.6666016,88.3332031 C66.6666016,89.253125 67.4132813,89.9998047 68.3332031,89.9998047 L71.6666016,89.9998047 C72.5865234,89.9998047 73.3332031,89.253125 73.3332031,88.3332031 C73.3333984,87.4132812 72.5867188,86.6666016 71.6666016,86.6666016 L71.6666016,86.6666016 Z" id="Shape"></path>
                                <path d="M91.6666016,86.6666016 L85,86.6666016 C84.0800781,86.6666016 83.3333984,87.4132812 83.3333984,88.3332031 C83.3333984,89.253125 84.0800781,89.9998047 85,89.9998047 L91.6666016,89.9998047 C92.5865234,89.9998047 93.3332031,89.253125 93.3332031,88.3332031 C93.3333984,87.4132812 92.5867187,86.6666016 91.6666016,86.6666016 L91.6666016,86.6666016 Z" id="Shape"></path>
                                <path d="M56.6666016,28.3333984 C56.6666016,27.4134766 55.9199219,26.6667969 55,26.6667969 L48.3333984,26.6667969 C47.4134766,26.6667969 46.6667969,27.4134766 46.6667969,28.3333984 L46.6667969,51.6667969 C46.6667969,52.5867187 47.4134766,53.3333984 48.3333984,53.3333984 L55,53.3333984 C55.9199219,53.3333984 56.6666016,52.5867187 56.6666016,51.6667969 L56.6666016,28.3333984 L56.6666016,28.3333984 Z M53.3333984,50 L50,50 L50,30 L53.3333984,30 L53.3333984,50 L53.3333984,50 Z" id="Shape"></path>
                                <path d="M91.6666016,80 L85,80 C84.0800781,80 83.3333984,80.7466797 83.3333984,81.6666016 C83.3333984,82.5865234 84.0800781,83.3332031 85,83.3332031 L91.6666016,83.3332031 C92.5865234,83.3332031 93.3332031,82.5865234 93.3332031,81.6666016 C93.3332031,80.7466797 92.5867187,80 91.6666016,80 L91.6666016,80 Z" id="Shape"></path>
                                <path d="M55,86.6666016 L48.3333984,86.6666016 C47.4134766,86.6666016 46.6667969,87.4132812 46.6667969,88.3332031 C46.6667969,89.253125 47.4134766,89.9998047 48.3333984,89.9998047 L55,89.9998047 C55.9199219,89.9998047 56.6666016,89.253125 56.6666016,88.3332031 C56.6666016,87.4132812 55.9199219,86.6666016 55,86.6666016 L55,86.6666016 Z" id="Shape"></path>
                                <path d="M85,60 C85.9199219,60 86.6666016,59.2533203 86.6666016,58.3333984 L86.6666016,41.6667969 C86.6666016,40.746875 85.9199219,40.0001953 85,40.0001953 C84.0800781,40.0001953 83.3333984,40.746875 83.3333984,41.6667969 L83.3333984,58.3333984 C83.3333984,59.2533203 84.0800781,60 85,60 L85,60 Z" id="Shape"></path>
                                <path d="M93.3333984,41.6666016 C93.3333984,40.7466797 92.5867188,40 91.6667969,40 C90.746875,40 90.0001953,40.7466797 90.0001953,41.6666016 L90.0001953,58.3332031 C90.0001953,59.253125 90.746875,59.9998047 91.6667969,59.9998047 C92.5867188,59.9998047 93.3333984,59.253125 93.3333984,58.3332031 L93.3333984,41.6666016 L93.3333984,41.6666016 Z" id="Shape"></path>
                                <path d="M95,13.3333984 L85,13.3333984 C84.0800781,13.3333984 83.3333984,14.0800781 83.3333984,15 C83.3333984,15.9199219 84.0800781,16.6666016 85,16.6666016 L95,16.6666016 C95.9183594,16.6666016 96.6666016,17.4148437 96.6666016,18.3332031 L96.6666016,95 C96.6666016,95.9183594 95.9183594,96.6666016 95,96.6666016 L80,96.6666016 L80,26.6666016 L90,26.6666016 C90.9199219,26.6666016 91.6666016,25.9199219 91.6666016,25 C91.6666016,24.0800781 90.9199219,23.3333984 90,23.3333984 L80,23.3333984 L80,8.33339844 C80,5.53007813 77.8033203,3.33339844 75,3.33339844 L65,3.33339844 C62.2433594,3.33339844 60,5.57675781 60,8.33339844 L60,96.6667969 L43.3333984,96.6667969 L43.3333984,10 L55,10 C55.9199219,10 56.6666016,9.25332031 56.6666016,8.33339844 C56.6666016,7.41347656 55.9199219,6.66679688 55,6.66679688 L43.3333984,6.66679688 L43.3333984,5 C43.3333984,2.19667969 41.1367188,0 38.3333984,0 L21.6667969,0 C18.9101563,0 16.6667969,2.24335938 16.6667969,5 L16.6667969,20 L8.33339844,20 C7.41347656,20 6.66679688,20.7466797 6.66679688,21.6666016 C6.66679688,22.5865234 7.41347656,23.3332031 8.33339844,23.3332031 L16.6667969,23.3332031 L16.6667969,96.6666016 L5,96.6666016 C4.08164063,96.6666016 3.33339844,95.9183594 3.33339844,95 L3.33339844,15 C3.33339844,14.0816406 4.08164063,13.3333984 5,13.3333984 L11.6666016,13.3333984 C12.5865234,13.3333984 13.3332031,12.5867188 13.3332031,11.6667969 C13.3332031,10.746875 12.5867188,10 11.6666016,10 L5,10 C2.24335938,10 0,12.2433594 0,15 L0,95 C0,97.7566406 2.24335938,100 5,100 L95,100 C97.7566406,100 100,97.7566406 100,95 L100,18.3333984 C100,15.5767578 97.7566406,13.3333984 95,13.3333984 L95,13.3333984 Z M40,96.6666016 L20,96.6666016 L20,13.3333984 L35,13.3333984 C35.9199219,13.3333984 36.6666016,12.5867188 36.6666016,11.6667969 C36.6666016,10.746875 35.9199219,10 35,10 L20,10 L20,5 C20,4.06503906 20.7316406,3.33339844 21.6666016,3.33339844 L38.3332031,3.33339844 C39.2832031,3.33339844 39.9998047,4.05 39.9998047,5 L39.9998047,96.6666016 L40,96.6666016 Z M76.6666016,96.6666016 L63.3332031,96.6666016 L63.3332031,16.6666016 L71.6666016,16.6666016 C72.5865234,16.6666016 73.3332031,15.9199219 73.3332031,15 C73.3332031,14.0800781 72.5865234,13.3333984 71.6666016,13.3333984 L63.3332031,13.3333984 L63.3332031,8.33339844 C63.3332031,7.3984375 64.0648437,6.66679687 64.9998047,6.66679687 L75,6.66679687 C75.95,6.66679687 76.6666016,7.38339844 76.6666016,8.33339844 L76.6666016,96.6666016 L76.6666016,96.6666016 Z" id="Shape"></path>
                                <path d="M11.6666016,80 L8.33339844,80 C7.41347656,80 6.66679688,80.7466797 6.66679688,81.6666016 C6.66679688,82.5865234 7.41347656,83.3332031 8.33339844,83.3332031 L11.6667969,83.3332031 C12.5867188,83.3332031 13.3333984,82.5865234 13.3333984,81.6666016 C13.3333984,80.7466797 12.5867188,80 11.6666016,80 L11.6666016,80 Z" id="Shape"></path>
                                <path d="M11.6666016,86.6666016 L8.33339844,86.6666016 C7.41347656,86.6666016 6.66679688,87.4132812 6.66679688,88.3332031 C6.66679688,89.253125 7.41347656,89.9998047 8.33339844,89.9998047 L11.6667969,89.9998047 C12.5867188,89.9998047 13.3333984,89.253125 13.3333984,88.3332031 C13.3333984,87.4132812 12.5867188,86.6666016 11.6666016,86.6666016 L11.6666016,86.6666016 Z" id="Shape"></path>
                                <path d="M55,80 L48.3333984,80 C47.4134766,80 46.6667969,80.7466797 46.6667969,81.6666016 C46.6667969,82.5865234 47.4134766,83.3332031 48.3333984,83.3332031 L55,83.3332031 C55.9199219,83.3332031 56.6666016,82.5865234 56.6666016,81.6666016 C56.6666016,80.7466797 55.9199219,80 55,80 L55,80 Z" id="Shape"></path>
                                <path d="M11.6666016,40 L8.33339844,40 C7.41347656,40 6.66679688,40.7466797 6.66679688,41.6666016 C6.66679688,42.5865234 7.41347656,43.3332031 8.33339844,43.3332031 L11.6667969,43.3332031 C12.5867188,43.3332031 13.3333984,42.5865234 13.3333984,41.6666016 C13.3333984,40.7466797 12.5867188,40 11.6666016,40 L11.6666016,40 Z" id="Shape"></path>
                                <path d="M11.6666016,46.6666016 L8.33339844,46.6666016 C7.41347656,46.6666016 6.66679688,47.4132812 6.66679688,48.3332031 C6.66679688,49.253125 7.41328125,50 8.33339844,50 L11.6667969,50 C12.5867188,50 13.3333984,49.2533203 13.3333984,48.3333984 C13.3333984,47.4134766 12.5867188,46.6666016 11.6666016,46.6666016 L11.6666016,46.6666016 Z" id="Shape"></path>
                            </g>
                        </g>
                    </g>
                </g>
            </g>
        </g>
    </g>
</svg>