<?xml version="1.0" encoding="UTF-8"?>
<svg width="45px" height="34px" viewBox="0 0 45 34" version="1.1" xmlns="http://www.w3.org/2000/svg" xmlns:xlink="http://www.w3.org/1999/xlink">
    <!-- Generator: Sketch 40.1 (33804) - http://www.bohemiancoding.com/sketch -->
    <title>Previous-logo-Unit</title>
    <desc>Created with Sketch.</desc>
    <defs></defs>
    <g id="Page-1" stroke="none" stroke-width="1" fill="none" fill-rule="evenodd">
        <g id="Home-Page" transform="translate(-34.000000, -24.000000)">
            <g id="Previous-logo-Unit" transform="translate(34.000000, 24.000000)">
                <g id="Line1" transform="translate(0.000000, 4.928840)">
                    <ellipse id="Oval-Copy" fill="#42A5F5" cx="14.4507128" cy="1.72509398" rx="1.56893453" ry="1.56079931"></ellipse>
                    <ellipse id="Oval-Copy" fill="#FFEE58" cx="5.2022566" cy="25.219231" rx="1.56893453" ry="1.56079931"></ellipse>
                    <ellipse id="Oval-Copy" fill="#42A5F5" cx="6.32528391" cy="20.7832751" rx="1.56893453" ry="1.56079931"></ellipse>
                    <rect id="Rectangle" fill="#42A5F5" transform="translate(8.964810, 14.313338) rotate(23.000000) translate(-8.964810, -14.313338) " x="7.78071358" y="9.76214617" width="2.36819337" height="9.10238276" rx="1.18409669"></rect>
                    <rect id="Rectangle" fill="#42A5F5" transform="translate(12.309396, 6.542045) rotate(23.000000) translate(-12.309396, -6.542045) " x="11.2028843" y="3.03818097" width="2.21302338" height="7.00772895" rx="1.10651169"></rect>
                    <ellipse id="Oval" fill="#FFEE58" cx="1.56893453" cy="27.190767" rx="1.56893453" ry="1.56079931"></ellipse>
                </g>
                <g id="Line2" transform="translate(10.569664, 0.000000)">
                    <ellipse id="Oval-Copy" fill="#EF5350" cx="19.7355448" cy="9.93982718" rx="1.56893453" ry="1.56079931"></ellipse>
                    <ellipse id="Oval-Copy" fill="#26A69A" cx="13.4598067" cy="7.17967636" rx="1.56893453" ry="1.56079931"></ellipse>
                    <ellipse id="Oval-Copy" fill="#EF5350" cx="22.9394733" cy="11.3527623" rx="1.56893453" ry="1.56079931"></ellipse>
                    <ellipse id="Oval-Copy" fill="#26A69A" cx="1.73408553" cy="1.72509398" rx="1.56893453" ry="1.56079931"></ellipse>
                    <ellipse id="Oval-Copy" fill="#26A69A" cx="16.5976758" cy="8.46117523" rx="1.56893453" ry="1.56079931"></ellipse>
                    <rect id="Rectangle" fill="#26A69A" transform="translate(7.648521, 4.380328) rotate(-65.000000) translate(-7.648521, -4.380328) " x="6.45943391" y="-0.231893795" width="2.37817438" height="9.2244435" rx="1.18908719"></rect>
                </g>
                <g id="Line3" transform="translate(7.266644, 8.871912)">
                    <ellipse id="Oval-Copy" fill="#FFEE58" cx="1.66802614" cy="19.4689178" rx="1.56893453" ry="1.56079931"></ellipse>
                    <path d="M11.5439445,8.67898555 C11.5439445,8.00606214 12.0863995,7.46054993 12.7660619,7.46054993 L12.7660619,7.46054993 C13.4410187,7.46054993 13.9881794,8.00035224 13.9881794,8.6785601 L13.9881794,10.9152844 L13.9881794,18.8357904 C13.9881794,19.505622 13.4457244,20.0486279 12.7660619,20.0486279 L12.7660619,20.0486279 C12.0911051,20.0486279 11.5439445,19.507734 11.5439445,18.8301923 L11.5439445,8.67898555 L11.5439445,8.67898555 Z" id="Rectangle" fill="#EF5350" transform="translate(12.766062, 13.754589) rotate(62.000000) translate(-12.766062, -13.754589) "></path>
                    <rect id="Rectangle" fill="#7E57C2" transform="translate(26.313444, 6.536599) rotate(62.000000) translate(-26.313444, -6.536599) " x="25.0913269" y="-1.6238255" width="2.44423488" height="16.3208491" rx="1.22211744"></rect>
                    <ellipse id="Oval-Copy" fill="#FFEE58" cx="5.03710559" cy="17.6616764" rx="1.56893453" ry="1.56079931"></ellipse>
                    <ellipse id="Oval-Copy" fill="#7E57C2" cx="35.5900412" cy="1.56079931" rx="1.56893453" ry="1.56079931"></ellipse>
                </g>
            </g>
        </g>
    </g>
</svg>