<?xml version="1.0" encoding="UTF-8"?>
<svg width="520px" height="319px" viewBox="0 0 520 319" version="1.1" xmlns="http://www.w3.org/2000/svg" xmlns:xlink="http://www.w3.org/1999/xlink">
    <!-- Generator: Sketch 40.1 (33804) - http://www.bohemiancoding.com/sketch -->
    <title>OuterBoundary</title>
    <desc>Created with Sketch.</desc>
    <defs></defs>
    <g id="Page-1" stroke="none" stroke-width="1" fill="none" fill-rule="evenodd">
        <g id="Home-Page" transform="translate(-380.000000, -174.000000)" fill="#FFFFFF">
            <g id="Group-5" transform="translate(380.000000, 174.000000)">
                <g id="OuterBoundary">
                    <path d="M101,27.5724115 C101,27.0201268 100.552285,26.5724115 100,26.5724115 C99.4477153,26.5724115 99,27.0201268 99,27.5724115 L99,32.5724115 C99,33.1246963 99.4477153,33.5724115 100,33.5724115 C100.552285,33.5724115 101,33.1246963 101,32.5724115 L101,27.5724115 Z M101,17.5724115 C101,17.0201268 100.552285,16.5724115 100,16.5724115 C99.4477153,16.5724115 99,17.0201268 99,17.5724115 L99,22.5724115 C99,23.1246963 99.4477153,23.5724115 100,23.5724115 C100.552285,23.5724115 101,23.1246963 101,22.5724115 L101,17.5724115 Z M109.427588,18 C109.979873,18 110.427588,17.5522847 110.427588,17 C110.427588,16.4477153 109.979873,16 109.427588,16 L104.427588,16 C103.875304,16 103.427588,16.4477153 103.427588,17 C103.427588,17.5522847 103.875304,18 104.427588,18 L109.427588,18 Z M119.427588,18 C119.979873,18 120.427588,17.5522847 120.427588,17 C120.427588,16.4477153 119.979873,16 119.427588,16 L114.427588,16 C113.875304,16 113.427588,16.4477153 113.427588,17 C113.427588,17.5522847 113.875304,18 114.427588,18 L119.427588,18 Z M129.427588,18 C129.979873,18 130.427588,17.5522847 130.427588,17 C130.427588,16.4477153 129.979873,16 129.427588,16 L124.427588,16 C123.875304,16 123.427588,16.4477153 123.427588,17 C123.427588,17.5522847 123.875304,18 124.427588,18 L129.427588,18 Z M139.427588,18 C139.979873,18 140.427588,17.5522847 140.427588,17 C140.427588,16.4477153 139.979873,16 139.427588,16 L134.427588,16 C133.875304,16 133.427588,16.4477153 133.427588,17 C133.427588,17.5522847 133.875304,18 134.427588,18 L139.427588,18 Z M149.427588,18 C149.979873,18 150.427588,17.5522847 150.427588,17 C150.427588,16.4477153 149.979873,16 149.427588,16 L144.427588,16 C143.875304,16 143.427588,16.4477153 143.427588,17 C143.427588,17.5522847 143.875304,18 144.427588,18 L149.427588,18 Z M159.427588,18 C159.979873,18 160.427588,17.5522847 160.427588,17 C160.427588,16.4477153 159.979873,16 159.427588,16 L154.427588,16 C153.875304,16 153.427588,16.4477153 153.427588,17 C153.427588,17.5522847 153.875304,18 154.427588,18 L159.427588,18 Z M169.427588,18 C169.979873,18 170.427588,17.5522847 170.427588,17 C170.427588,16.4477153 169.979873,16 169.427588,16 L164.427588,16 C163.875304,16 163.427588,16.4477153 163.427588,17 C163.427588,17.5522847 163.875304,18 164.427588,18 L169.427588,18 Z M179.427588,18 C179.979873,18 180.427588,17.5522847 180.427588,17 C180.427588,16.4477153 179.979873,16 179.427588,16 L174.427588,16 C173.875304,16 173.427588,16.4477153 173.427588,17 C173.427588,17.5522847 173.875304,18 174.427588,18 L179.427588,18 Z M189.427588,18 C189.979873,18 190.427588,17.5522847 190.427588,17 C190.427588,16.4477153 189.979873,16 189.427588,16 L184.427588,16 C183.875304,16 183.427588,16.4477153 183.427588,17 C183.427588,17.5522847 183.875304,18 184.427588,18 L189.427588,18 Z M199.427588,18 C199.979873,18 200.427588,17.5522847 200.427588,17 C200.427588,16.4477153 199.979873,16 199.427588,16 L194.427588,16 C193.875304,16 193.427588,16.4477153 193.427588,17 C193.427588,17.5522847 193.875304,18 194.427588,18 L199.427588,18 Z M209.427588,18 C209.979873,18 210.427588,17.5522847 210.427588,17 C210.427588,16.4477153 209.979873,16 209.427588,16 L204.427588,16 C203.875304,16 203.427588,16.4477153 203.427588,17 C203.427588,17.5522847 203.875304,18 204.427588,18 L209.427588,18 Z M219.427588,18 C219.979873,18 220.427588,17.5522847 220.427588,17 C220.427588,16.4477153 219.979873,16 219.427588,16 L214.427588,16 C213.875304,16 213.427588,16.4477153 213.427588,17 C213.427588,17.5522847 213.875304,18 214.427588,18 L219.427588,18 Z M229.427588,18 C229.979873,18 230.427588,17.5522847 230.427588,17 C230.427588,16.4477153 229.979873,16 229.427588,16 L224.427588,16 C223.875304,16 223.427588,16.4477153 223.427588,17 C223.427588,17.5522847 223.875304,18 224.427588,18 L229.427588,18 Z M239.427588,18 C239.979873,18 240.427588,17.5522847 240.427588,17 C240.427588,16.4477153 239.979873,16 239.427588,16 L234.427588,16 C233.875304,16 233.427588,16.4477153 233.427588,17 C233.427588,17.5522847 233.875304,18 234.427588,18 L239.427588,18 Z M249.427588,18 C249.979873,18 250.427588,17.5522847 250.427588,17 C250.427588,16.4477153 249.979873,16 249.427588,16 L244.427588,16 C243.875304,16 243.427588,16.4477153 243.427588,17 C243.427588,17.5522847 243.875304,18 244.427588,18 L249.427588,18 Z M259.427588,18 C259.979873,18 260.427588,17.5522847 260.427588,17 C260.427588,16.4477153 259.979873,16 259.427588,16 L254.427588,16 C253.875304,16 253.427588,16.4477153 253.427588,17 C253.427588,17.5522847 253.875304,18 254.427588,18 L259.427588,18 Z M269.427588,18 C269.979873,18 270.427588,17.5522847 270.427588,17 C270.427588,16.4477153 269.979873,16 269.427588,16 L264.427588,16 C263.875304,16 263.427588,16.4477153 263.427588,17 C263.427588,17.5522847 263.875304,18 264.427588,18 L269.427588,18 Z M279.427588,18 C279.979873,18 280.427588,17.5522847 280.427588,17 C280.427588,16.4477153 279.979873,16 279.427588,16 L274.427588,16 C273.875304,16 273.427588,16.4477153 273.427588,17 C273.427588,17.5522847 273.875304,18 274.427588,18 L279.427588,18 Z M289.427588,18 C289.979873,18 290.427588,17.5522847 290.427588,17 C290.427588,16.4477153 289.979873,16 289.427588,16 L284.427588,16 C283.875304,16 283.427588,16.4477153 283.427588,17 C283.427588,17.5522847 283.875304,18 284.427588,18 L289.427588,18 Z M299.427588,18 C299.979873,18 300.427588,17.5522847 300.427588,17 C300.427588,16.4477153 299.979873,16 299.427588,16 L294.427588,16 C293.875304,16 293.427588,16.4477153 293.427588,17 C293.427588,17.5522847 293.875304,18 294.427588,18 L299.427588,18 Z M309.427588,18 C309.979873,18 310.427588,17.5522847 310.427588,17 C310.427588,16.4477153 309.979873,16 309.427588,16 L304.427588,16 C303.875304,16 303.427588,16.4477153 303.427588,17 C303.427588,17.5522847 303.875304,18 304.427588,18 L309.427588,18 Z M319.427588,18 C319.979873,18 320.427588,17.5522847 320.427588,17 C320.427588,16.4477153 319.979873,16 319.427588,16 L314.427588,16 C313.875304,16 313.427588,16.4477153 313.427588,17 C313.427588,17.5522847 313.875304,18 314.427588,18 L319.427588,18 Z M329.427588,18 C329.979873,18 330.427588,17.5522847 330.427588,17 C330.427588,16.4477153 329.979873,16 329.427588,16 L324.427588,16 C323.875304,16 323.427588,16.4477153 323.427588,17 C323.427588,17.5522847 323.875304,18 324.427588,18 L329.427588,18 Z M339.427588,18 C339.979873,18 340.427588,17.5522847 340.427588,17 C340.427588,16.4477153 339.979873,16 339.427588,16 L334.427588,16 C333.875304,16 333.427588,16.4477153 333.427588,17 C333.427588,17.5522847 333.875304,18 334.427588,18 L339.427588,18 Z M349.427588,18 C349.979873,18 350.427588,17.5522847 350.427588,17 C350.427588,16.4477153 349.979873,16 349.427588,16 L344.427588,16 C343.875304,16 343.427588,16.4477153 343.427588,17 C343.427588,17.5522847 343.875304,18 344.427588,18 L349.427588,18 Z M359.427588,18 C359.979873,18 360.427588,17.5522847 360.427588,17 C360.427588,16.4477153 359.979873,16 359.427588,16 L354.427588,16 C353.875304,16 353.427588,16.4477153 353.427588,17 C353.427588,17.5522847 353.875304,18 354.427588,18 L359.427588,18 Z M369.427588,18 C369.979873,18 370.427588,17.5522847 370.427588,17 C370.427588,16.4477153 369.979873,16 369.427588,16 L364.427588,16 C363.875304,16 363.427588,16.4477153 363.427588,17 C363.427588,17.5522847 363.875304,18 364.427588,18 L369.427588,18 Z M379.427588,18 C379.979873,18 380.427588,17.5522847 380.427588,17 C380.427588,16.4477153 379.979873,16 379.427588,16 L374.427588,16 C373.875304,16 373.427588,16.4477153 373.427588,17 C373.427588,17.5522847 373.875304,18 374.427588,18 L379.427588,18 Z M389.427588,18 C389.979873,18 390.427588,17.5522847 390.427588,17 C390.427588,16.4477153 389.979873,16 389.427588,16 L384.427588,16 C383.875304,16 383.427588,16.4477153 383.427588,17 C383.427588,17.5522847 383.875304,18 384.427588,18 L389.427588,18 Z M399.427588,18 C399.979873,18 400.427588,17.5522847 400.427588,17 C400.427588,16.4477153 399.979873,16 399.427588,16 L394.427588,16 C393.875304,16 393.427588,16.4477153 393.427588,17 C393.427588,17.5522847 393.875304,18 394.427588,18 L399.427588,18 Z M409.427588,18 C409.979873,18 410.427588,17.5522847 410.427588,17 C410.427588,16.4477153 409.979873,16 409.427588,16 L404.427588,16 C403.875304,16 403.427588,16.4477153 403.427588,17 C403.427588,17.5522847 403.875304,18 404.427588,18 L409.427588,18 Z M419.427588,18 C419.979873,18 420.427588,17.5522847 420.427588,17 C420.427588,16.4477153 419.979873,16 419.427588,16 L414.427588,16 C413.875304,16 413.427588,16.4477153 413.427588,17 C413.427588,17.5522847 413.875304,18 414.427588,18 L419.427588,18 Z M429.427588,18 C429.979873,18 430.427588,17.5522847 430.427588,17 C430.427588,16.4477153 429.979873,16 429.427588,16 L424.427588,16 C423.875304,16 423.427588,16.4477153 423.427588,17 C423.427588,17.5522847 423.875304,18 424.427588,18 L429.427588,18 Z M439.427588,18 C439.979873,18 440.427588,17.5522847 440.427588,17 C440.427588,16.4477153 439.979873,16 439.427588,16 L434.427588,16 C433.875304,16 433.427588,16.4477153 433.427588,17 C433.427588,17.5522847 433.875304,18 434.427588,18 L439.427588,18 Z M449.427588,18 C449.979873,18 450.427588,17.5522847 450.427588,17 C450.427588,16.4477153 449.979873,16 449.427588,16 L444.427588,16 C443.875304,16 443.427588,16.4477153 443.427588,17 C443.427588,17.5522847 443.875304,18 444.427588,18 L449.427588,18 Z M459.427588,18 C459.979873,18 460.427588,17.5522847 460.427588,17 C460.427588,16.4477153 459.979873,16 459.427588,16 L454.427588,16 C453.875304,16 453.427588,16.4477153 453.427588,17 C453.427588,17.5522847 453.875304,18 454.427588,18 L459.427588,18 Z M469.427588,18 C469.979873,18 470.427588,17.5522847 470.427588,17 C470.427588,16.4477153 469.979873,16 469.427588,16 L464.427588,16 C463.875304,16 463.427588,16.4477153 463.427588,17 C463.427588,17.5522847 463.875304,18 464.427588,18 L469.427588,18 Z M479.427588,18 C479.979873,18 480.427588,17.5522847 480.427588,17 C480.427588,16.4477153 479.979873,16 479.427588,16 L474.427588,16 C473.875304,16 473.427588,16.4477153 473.427588,17 C473.427588,17.5522847 473.875304,18 474.427588,18 L479.427588,18 Z M487.703902,18 L486.703902,17 L486.703902,18.7236866 C486.703902,19.2759714 487.151617,19.7236866 487.703902,19.7236866 C488.256187,19.7236866 488.703902,19.2759714 488.703902,18.7236866 L488.703902,17 L487.703902,16 L484.427588,16 C483.875304,16 483.427588,16.4477153 483.427588,17 C483.427588,17.5522847 483.875304,18 484.427588,18 L487.703902,18 Z M486.703902,28.7236866 C486.703902,29.2759714 487.151617,29.7236866 487.703902,29.7236866 C488.256187,29.7236866 488.703902,29.2759714 488.703902,28.7236866 L488.703902,23.7236866 C488.703902,23.1714019 488.256187,22.7236866 487.703902,22.7236866 C487.151617,22.7236866 486.703902,23.1714019 486.703902,23.7236866 L486.703902,28.7236866 Z M486.703902,38.7236866 C486.703902,39.2759714 487.151617,39.7236866 487.703902,39.7236866 C488.256187,39.7236866 488.703902,39.2759714 488.703902,38.7236866 L488.703902,33.7236866 C488.703902,33.1714019 488.256187,32.7236866 487.703902,32.7236866 C487.151617,32.7236866 486.703902,33.1714019 486.703902,33.7236866 L486.703902,38.7236866 Z M486.703902,48.7236866 C486.703902,49.2759714 487.151617,49.7236866 487.703902,49.7236866 C488.256187,49.7236866 488.703902,49.2759714 488.703902,48.7236866 L488.703902,43.7236866 C488.703902,43.1714019 488.256187,42.7236866 487.703902,42.7236866 C487.151617,42.7236866 486.703902,43.1714019 486.703902,43.7236866 L486.703902,48.7236866 Z M486.703902,58.7236866 C486.703902,59.2759714 487.151617,59.7236866 487.703902,59.7236866 C488.256187,59.7236866 488.703902,59.2759714 488.703902,58.7236866 L488.703902,53.7236866 C488.703902,53.1714019 488.256187,52.7236866 487.703902,52.7236866 C487.151617,52.7236866 486.703902,53.1714019 486.703902,53.7236866 L486.703902,58.7236866 Z M486.703902,68.7236866 C486.703902,69.2759714 487.151617,69.7236866 487.703902,69.7236866 C488.256187,69.7236866 488.703902,69.2759714 488.703902,68.7236866 L488.703902,63.7236866 C488.703902,63.1714019 488.256187,62.7236866 487.703902,62.7236866 C487.151617,62.7236866 486.703902,63.1714019 486.703902,63.7236866 L486.703902,68.7236866 Z M486.703902,78.7236866 C486.703902,79.2759714 487.151617,79.7236866 487.703902,79.7236866 C488.256187,79.7236866 488.703902,79.2759714 488.703902,78.7236866 L488.703902,73.7236866 C488.703902,73.1714019 488.256187,72.7236866 487.703902,72.7236866 C487.151617,72.7236866 486.703902,73.1714019 486.703902,73.7236866 L486.703902,78.7236866 Z M486.703902,88.7236866 C486.703902,89.2759714 487.151617,89.7236866 487.703902,89.7236866 C488.256187,89.7236866 488.703902,89.2759714 488.703902,88.7236866 L488.703902,83.7236866 C488.703902,83.1714019 488.256187,82.7236866 487.703902,82.7236866 C487.151617,82.7236866 486.703902,83.1714019 486.703902,83.7236866 L486.703902,88.7236866 Z M486.703902,95.4641763 C486.703902,96.016461 487.151617,96.4641763 487.703902,96.4641763 C488.256187,96.4641763 488.703902,96.016461 488.703902,95.4641763 L488.703902,93.7236866 C488.703902,93.1714019 488.256187,92.7236866 487.703902,92.7236866 C487.151617,92.7236866 486.703902,93.1714019 486.703902,93.7236866 L486.703902,95.4641763 Z" id="Path-2"></path>
                    <path d="M474.5,126 C474.5,126.552285 474.947715,127 475.5,127 C476.052285,127 476.5,126.552285 476.5,126 L476.5,121 C476.5,120.447715 476.052285,120 475.5,120 C474.947715,120 474.5,120.447715 474.5,121 L474.5,126 Z M474.5,136 C474.5,136.552285 474.947715,137 475.5,137 C476.052285,137 476.5,136.552285 476.5,136 L476.5,131 C476.5,130.447715 476.052285,130 475.5,130 C474.947715,130 474.5,130.447715 474.5,131 L474.5,136 Z M474.5,146 C474.5,146.552285 474.947715,147 475.5,147 C476.052285,147 476.5,146.552285 476.5,146 L476.5,141 C476.5,140.447715 476.052285,140 475.5,140 C474.947715,140 474.5,140.447715 474.5,141 L474.5,146 Z M474.5,156 C474.5,156.552285 474.947715,157 475.5,157 C476.052285,157 476.5,156.552285 476.5,156 L476.5,151 C476.5,150.447715 476.052285,150 475.5,150 C474.947715,150 474.5,150.447715 474.5,151 L474.5,156 Z M474.5,166 C474.5,166.552285 474.947715,167 475.5,167 C476.052285,167 476.5,166.552285 476.5,166 L476.5,161 C476.5,160.447715 476.052285,160 475.5,160 C474.947715,160 474.5,160.447715 474.5,161 L474.5,166 Z M474.5,176 C474.5,176.552285 474.947715,177 475.5,177 C476.052285,177 476.5,176.552285 476.5,176 L476.5,171 C476.5,170.447715 476.052285,170 475.5,170 C474.947715,170 474.5,170.447715 474.5,171 L474.5,176 Z M474.5,186 C474.5,186.552285 474.947715,187 475.5,187 C476.052285,187 476.5,186.552285 476.5,186 L476.5,181 C476.5,180.447715 476.052285,180 475.5,180 C474.947715,180 474.5,180.447715 474.5,181 L474.5,186 Z M485.246648,187.253352 C485.798932,187.253352 486.246648,186.805637 486.246648,186.253352 C486.246648,185.701068 485.798932,185.253352 485.246648,185.253352 L480.246648,185.253352 C479.694363,185.253352 479.246648,185.701068 479.246648,186.253352 C479.246648,186.805637 479.694363,187.253352 480.246648,187.253352 L485.246648,187.253352 Z M495.246648,187.253352 C495.798932,187.253352 496.246648,186.805637 496.246648,186.253352 C496.246648,185.701068 495.798932,185.253352 495.246648,185.253352 L490.246648,185.253352 C489.694363,185.253352 489.246648,185.701068 489.246648,186.253352 C489.246648,186.805637 489.694363,187.253352 490.246648,187.253352 L495.246648,187.253352 Z M504.509784,187.253352 L505.509784,186.253352 L505.509784,185.516488 C505.509784,184.964204 505.062068,184.516488 504.509784,184.516488 C503.957499,184.516488 503.509784,184.964204 503.509784,185.516488 L503.509784,186.253352 L504.509784,186.253352 L504.509784,185.253352 L500.246648,185.253352 C499.694363,185.253352 499.246648,185.701068 499.246648,186.253352 C499.246648,186.805637 499.694363,187.253352 500.246648,187.253352 L504.509784,187.253352 Z M505.509784,175.516488 C505.509784,174.964204 505.062068,174.516488 504.509784,174.516488 C503.957499,174.516488 503.509784,174.964204 503.509784,175.516488 L503.509784,180.516488 C503.509784,181.068773 503.957499,181.516488 504.509784,181.516488 C505.062068,181.516488 505.509784,181.068773 505.509784,180.516488 L505.509784,175.516488 Z M505.509784,165.516488 C505.509784,164.964204 505.062068,164.516488 504.509784,164.516488 C503.957499,164.516488 503.509784,164.964204 503.509784,165.516488 L503.509784,170.516488 C503.509784,171.068773 503.957499,171.516488 504.509784,171.516488 C505.062068,171.516488 505.509784,171.068773 505.509784,170.516488 L505.509784,165.516488 Z M505.509784,155.516488 C505.509784,154.964204 505.062068,154.516488 504.509784,154.516488 C503.957499,154.516488 503.509784,154.964204 503.509784,155.516488 L503.509784,160.516488 C503.509784,161.068773 503.957499,161.516488 504.509784,161.516488 C505.062068,161.516488 505.509784,161.068773 505.509784,160.516488 L505.509784,155.516488 Z M505.509784,145.516488 C505.509784,144.964204 505.062068,144.516488 504.509784,144.516488 C503.957499,144.516488 503.509784,144.964204 503.509784,145.516488 L503.509784,150.516488 C503.509784,151.068773 503.957499,151.516488 504.509784,151.516488 C505.062068,151.516488 505.509784,151.068773 505.509784,150.516488 L505.509784,145.516488 Z M505.509784,135.516488 C505.509784,134.964204 505.062068,134.516488 504.509784,134.516488 C503.957499,134.516488 503.509784,134.964204 503.509784,135.516488 L503.509784,140.516488 C503.509784,141.068773 503.957499,141.516488 504.509784,141.516488 C505.062068,141.516488 505.509784,141.068773 505.509784,140.516488 L505.509784,135.516488 Z M505.509784,125.516488 C505.509784,124.964204 505.062068,124.516488 504.509784,124.516488 C503.957499,124.516488 503.509784,124.964204 503.509784,125.516488 L503.509784,130.516488 C503.509784,131.068773 503.957499,131.516488 504.509784,131.516488 C505.062068,131.516488 505.509784,131.068773 505.509784,130.516488 L505.509784,125.516488 Z M505.509784,115.516488 C505.509784,114.964204 505.062068,114.516488 504.509784,114.516488 C503.957499,114.516488 503.509784,114.964204 503.509784,115.516488 L503.509784,120.516488 C503.509784,121.068773 503.957499,121.516488 504.509784,121.516488 C505.062068,121.516488 505.509784,121.068773 505.509784,120.516488 L505.509784,115.516488 Z M505.509784,105.516488 C505.509784,104.964204 505.062068,104.516488 504.509784,104.516488 C503.957499,104.516488 503.509784,104.964204 503.509784,105.516488 L503.509784,110.516488 C503.509784,111.068773 503.957499,111.516488 504.509784,111.516488 C505.062068,111.516488 505.509784,111.068773 505.509784,110.516488 L505.509784,105.516488 Z M505.509784,95.5164883 C505.509784,94.9642036 505.062068,94.5164883 504.509784,94.5164883 C503.957499,94.5164883 503.509784,94.9642036 503.509784,95.5164883 L503.509784,100.516488 C503.509784,101.068773 503.957499,101.516488 504.509784,101.516488 C505.062068,101.516488 505.509784,101.068773 505.509784,100.516488 L505.509784,95.5164883 Z M505.509784,85.5164883 C505.509784,84.9642036 505.062068,84.5164883 504.509784,84.5164883 C503.957499,84.5164883 503.509784,84.9642036 503.509784,85.5164883 L503.509784,90.5164883 C503.509784,91.0687731 503.957499,91.5164883 504.509784,91.5164883 C505.062068,91.5164883 505.509784,91.0687731 505.509784,90.5164883 L505.509784,85.5164883 Z M505.509784,75.5164883 C505.509784,74.9642036 505.062068,74.5164883 504.509784,74.5164883 C503.957499,74.5164883 503.509784,74.9642036 503.509784,75.5164883 L503.509784,80.5164883 C503.509784,81.0687731 503.957499,81.5164883 504.509784,81.5164883 C505.062068,81.5164883 505.509784,81.0687731 505.509784,80.5164883 L505.509784,75.5164883 Z M505.509784,65.5164883 C505.509784,64.9642036 505.062068,64.5164883 504.509784,64.5164883 C503.957499,64.5164883 503.509784,64.9642036 503.509784,65.5164883 L503.509784,70.5164883 C503.509784,71.0687731 503.957499,71.5164883 504.509784,71.5164883 C505.062068,71.5164883 505.509784,71.0687731 505.509784,70.5164883 L505.509784,65.5164883 Z M505.509784,55.5164883 C505.509784,54.9642036 505.062068,54.5164883 504.509784,54.5164883 C503.957499,54.5164883 503.509784,54.9642036 503.509784,55.5164883 L503.509784,60.5164883 C503.509784,61.0687731 503.957499,61.5164883 504.509784,61.5164883 C505.062068,61.5164883 505.509784,61.0687731 505.509784,60.5164883 L505.509784,55.5164883 Z M505.509784,45.5164883 C505.509784,44.9642036 505.062068,44.5164883 504.509784,44.5164883 C503.957499,44.5164883 503.509784,44.9642036 503.509784,45.5164883 L503.509784,50.5164883 C503.509784,51.0687731 503.957499,51.5164883 504.509784,51.5164883 C505.062068,51.5164883 505.509784,51.0687731 505.509784,50.5164883 L505.509784,45.5164883 Z M505.509784,35.5164883 C505.509784,34.9642036 505.062068,34.5164883 504.509784,34.5164883 C503.957499,34.5164883 503.509784,34.9642036 503.509784,35.5164883 L503.509784,40.5164883 C503.509784,41.0687731 503.957499,41.5164883 504.509784,41.5164883 C505.062068,41.5164883 505.509784,41.0687731 505.509784,40.5164883 L505.509784,35.5164883 Z M494.924227,34.1020448 C494.371942,34.1020448 493.924227,34.5497601 493.924227,35.1020448 C493.924227,35.6543296 494.371942,36.1020448 494.924227,36.1020448 L499.924227,36.1020448 C500.476512,36.1020448 500.924227,35.6543296 500.924227,35.1020448 C500.924227,34.5497601 500.476512,34.1020448 499.924227,34.1020448 L494.924227,34.1020448 Z M484.924227,34.1020448 C484.371942,34.1020448 483.924227,34.5497601 483.924227,35.1020448 C483.924227,35.6543296 484.371942,36.1020448 484.924227,36.1020448 L489.924227,36.1020448 C490.476512,36.1020448 490.924227,35.6543296 490.924227,35.1020448 C490.924227,34.5497601 490.476512,34.1020448 489.924227,34.1020448 L484.924227,34.1020448 Z M474.924227,34.1020448 C474.371942,34.1020448 473.924227,34.5497601 473.924227,35.1020448 C473.924227,35.6543296 474.371942,36.1020448 474.924227,36.1020448 L479.924227,36.1020448 C480.476512,36.1020448 480.924227,35.6543296 480.924227,35.1020448 C480.924227,34.5497601 480.476512,34.1020448 479.924227,34.1020448 L474.924227,34.1020448 Z M464.924227,34.1020448 C464.371942,34.1020448 463.924227,34.5497601 463.924227,35.1020448 C463.924227,35.6543296 464.371942,36.1020448 464.924227,36.1020448 L469.924227,36.1020448 C470.476512,36.1020448 470.924227,35.6543296 470.924227,35.1020448 C470.924227,34.5497601 470.476512,34.1020448 469.924227,34.1020448 L464.924227,34.1020448 Z M454.924227,34.1020448 C454.371942,34.1020448 453.924227,34.5497601 453.924227,35.1020448 C453.924227,35.6543296 454.371942,36.1020448 454.924227,36.1020448 L459.924227,36.1020448 C460.476512,36.1020448 460.924227,35.6543296 460.924227,35.1020448 C460.924227,34.5497601 460.476512,34.1020448 459.924227,34.1020448 L454.924227,34.1020448 Z" id="Path-3"></path>
                    <path d="M514,163 C513.447715,163 513,163.447715 513,164 C513,164.552285 513.447715,165 514,165 L519,165 C519.552285,165 520,164.552285 520,164 C520,163.447715 519.552285,163 519,163 L514,163 Z M504,163 C503.447715,163 503,163.447715 503,164 C503,164.552285 503.447715,165 504,165 L509,165 C509.552285,165 510,164.552285 510,164 C510,163.447715 509.552285,163 509,163 L504,163 Z M494,163 C493.447715,163 493,163.447715 493,164 C493,164.552285 493.447715,165 494,165 L499,165 C499.552285,165 500,164.552285 500,164 C500,163.447715 499.552285,163 499,163 L494,163 Z M484,163 C483.447715,163 483,163.447715 483,164 C483,164.552285 483.447715,165 484,165 L489,165 C489.552285,165 490,164.552285 490,164 C490,163.447715 489.552285,163 489,163 L484,163 Z M474,163 C473.447715,163 473,163.447715 473,164 C473,164.552285 473.447715,165 474,165 L479,165 C479.552285,165 480,164.552285 480,164 C480,163.447715 479.552285,163 479,163 L474,163 Z M464.769013,163 L463.769013,164 L463.769013,164.769013 C463.769013,165.321297 464.216728,165.769013 464.769013,165.769013 C465.321297,165.769013 465.769013,165.321297 465.769013,164.769013 L465.769013,164 L464.769013,164 L464.769013,165 L469,165 C469.552285,165 470,164.552285 470,164 C470,163.447715 469.552285,163 469,163 L464.769013,163 Z M463.769013,174.769013 C463.769013,175.321297 464.216728,175.769013 464.769013,175.769013 C465.321297,175.769013 465.769013,175.321297 465.769013,174.769013 L465.769013,169.769013 C465.769013,169.216728 465.321297,168.769013 464.769013,168.769013 C464.216728,168.769013 463.769013,169.216728 463.769013,169.769013 L463.769013,174.769013 Z M463.769013,184.769013 C463.769013,185.321297 464.216728,185.769013 464.769013,185.769013 C465.321297,185.769013 465.769013,185.321297 465.769013,184.769013 L465.769013,179.769013 C465.769013,179.216728 465.321297,178.769013 464.769013,178.769013 C464.216728,178.769013 463.769013,179.216728 463.769013,179.769013 L463.769013,184.769013 Z M463.769013,194.769013 C463.769013,195.321297 464.216728,195.769013 464.769013,195.769013 C465.321297,195.769013 465.769013,195.321297 465.769013,194.769013 L465.769013,189.769013 C465.769013,189.216728 465.321297,188.769013 464.769013,188.769013 C464.216728,188.769013 463.769013,189.216728 463.769013,189.769013 L463.769013,194.769013 Z M463.769013,204.769013 C463.769013,205.321297 464.216728,205.769013 464.769013,205.769013 C465.321297,205.769013 465.769013,205.321297 465.769013,204.769013 L465.769013,199.769013 C465.769013,199.216728 465.321297,198.769013 464.769013,198.769013 C464.216728,198.769013 463.769013,199.216728 463.769013,199.769013 L463.769013,204.769013 Z M463.769013,214.769013 C463.769013,215.321297 464.216728,215.769013 464.769013,215.769013 C465.321297,215.769013 465.769013,215.321297 465.769013,214.769013 L465.769013,209.769013 C465.769013,209.216728 465.321297,208.769013 464.769013,208.769013 C464.216728,208.769013 463.769013,209.216728 463.769013,209.769013 L463.769013,214.769013 Z M463.769013,224.769013 C463.769013,225.321297 464.216728,225.769013 464.769013,225.769013 C465.321297,225.769013 465.769013,225.321297 465.769013,224.769013 L465.769013,219.769013 C465.769013,219.216728 465.321297,218.769013 464.769013,218.769013 C464.216728,218.769013 463.769013,219.216728 463.769013,219.769013 L463.769013,224.769013 Z M463.769013,234.769013 C463.769013,235.321297 464.216728,235.769013 464.769013,235.769013 C465.321297,235.769013 465.769013,235.321297 465.769013,234.769013 L465.769013,229.769013 C465.769013,229.216728 465.321297,228.769013 464.769013,228.769013 C464.216728,228.769013 463.769013,229.216728 463.769013,229.769013 L463.769013,234.769013 Z M463.769013,244.769013 C463.769013,245.321297 464.216728,245.769013 464.769013,245.769013 C465.321297,245.769013 465.769013,245.321297 465.769013,244.769013 L465.769013,239.769013 C465.769013,239.216728 465.321297,238.769013 464.769013,238.769013 C464.216728,238.769013 463.769013,239.216728 463.769013,239.769013 L463.769013,244.769013 Z M463.769013,254.769013 C463.769013,255.321297 464.216728,255.769013 464.769013,255.769013 C465.321297,255.769013 465.769013,255.321297 465.769013,254.769013 L465.769013,249.769013 C465.769013,249.216728 465.321297,248.769013 464.769013,248.769013 C464.216728,248.769013 463.769013,249.216728 463.769013,249.769013 L463.769013,254.769013 Z M463.769013,264.769013 C463.769013,265.321297 464.216728,265.769013 464.769013,265.769013 C465.321297,265.769013 465.769013,265.321297 465.769013,264.769013 L465.769013,259.769013 C465.769013,259.216728 465.321297,258.769013 464.769013,258.769013 C464.216728,258.769013 463.769013,259.216728 463.769013,259.769013 L463.769013,264.769013 Z M463.769013,274.769013 C463.769013,275.321297 464.216728,275.769013 464.769013,275.769013 C465.321297,275.769013 465.769013,275.321297 465.769013,274.769013 L465.769013,269.769013 C465.769013,269.216728 465.321297,268.769013 464.769013,268.769013 C464.216728,268.769013 463.769013,269.216728 463.769013,269.769013 L463.769013,274.769013 Z M463.769013,284.769013 C463.769013,285.321297 464.216728,285.769013 464.769013,285.769013 C465.321297,285.769013 465.769013,285.321297 465.769013,284.769013 L465.769013,279.769013 C465.769013,279.216728 465.321297,278.769013 464.769013,278.769013 C464.216728,278.769013 463.769013,279.216728 463.769013,279.769013 L463.769013,284.769013 Z M457.632901,286.632901 C457.080616,286.632901 456.632901,287.080616 456.632901,287.632901 C456.632901,288.185186 457.080616,288.632901 457.632901,288.632901 L462.632901,288.632901 C463.185186,288.632901 463.632901,288.185186 463.632901,287.632901 C463.632901,287.080616 463.185186,286.632901 462.632901,286.632901 L457.632901,286.632901 Z M447.632901,286.632901 C447.080616,286.632901 446.632901,287.080616 446.632901,287.632901 C446.632901,288.185186 447.080616,288.632901 447.632901,288.632901 L452.632901,288.632901 C453.185186,288.632901 453.632901,288.185186 453.632901,287.632901 C453.632901,287.080616 453.185186,286.632901 452.632901,286.632901 L447.632901,286.632901 Z M437.632901,286.632901 C437.080616,286.632901 436.632901,287.080616 436.632901,287.632901 C436.632901,288.185186 437.080616,288.632901 437.632901,288.632901 L442.632901,288.632901 C443.185186,288.632901 443.632901,288.185186 443.632901,287.632901 C443.632901,287.080616 443.185186,286.632901 442.632901,286.632901 L437.632901,286.632901 Z M427.632901,286.632901 C427.080616,286.632901 426.632901,287.080616 426.632901,287.632901 C426.632901,288.185186 427.080616,288.632901 427.632901,288.632901 L432.632901,288.632901 C433.185186,288.632901 433.632901,288.185186 433.632901,287.632901 C433.632901,287.080616 433.185186,286.632901 432.632901,286.632901 L427.632901,286.632901 Z M417.632901,286.632901 C417.080616,286.632901 416.632901,287.080616 416.632901,287.632901 C416.632901,288.185186 417.080616,288.632901 417.632901,288.632901 L422.632901,288.632901 C423.185186,288.632901 423.632901,288.185186 423.632901,287.632901 C423.632901,287.080616 423.185186,286.632901 422.632901,286.632901 L417.632901,286.632901 Z M407.632901,286.632901 C407.080616,286.632901 406.632901,287.080616 406.632901,287.632901 C406.632901,288.185186 407.080616,288.632901 407.632901,288.632901 L412.632901,288.632901 C413.185186,288.632901 413.632901,288.185186 413.632901,287.632901 C413.632901,287.080616 413.185186,286.632901 412.632901,286.632901 L407.632901,286.632901 Z M397.632901,286.632901 C397.080616,286.632901 396.632901,287.080616 396.632901,287.632901 C396.632901,288.185186 397.080616,288.632901 397.632901,288.632901 L402.632901,288.632901 C403.185186,288.632901 403.632901,288.185186 403.632901,287.632901 C403.632901,287.080616 403.185186,286.632901 402.632901,286.632901 L397.632901,286.632901 Z M387.632901,286.632901 C387.080616,286.632901 386.632901,287.080616 386.632901,287.632901 C386.632901,288.185186 387.080616,288.632901 387.632901,288.632901 L392.632901,288.632901 C393.185186,288.632901 393.632901,288.185186 393.632901,287.632901 C393.632901,287.080616 393.185186,286.632901 392.632901,286.632901 L387.632901,286.632901 Z M377.632901,286.632901 C377.080616,286.632901 376.632901,287.080616 376.632901,287.632901 C376.632901,288.185186 377.080616,288.632901 377.632901,288.632901 L382.632901,288.632901 C383.185186,288.632901 383.632901,288.185186 383.632901,287.632901 C383.632901,287.080616 383.185186,286.632901 382.632901,286.632901 L377.632901,286.632901 Z M367.632901,286.632901 C367.080616,286.632901 366.632901,287.080616 366.632901,287.632901 C366.632901,288.185186 367.080616,288.632901 367.632901,288.632901 L372.632901,288.632901 C373.185186,288.632901 373.632901,288.185186 373.632901,287.632901 C373.632901,287.080616 373.185186,286.632901 372.632901,286.632901 L367.632901,286.632901 Z M357.632901,286.632901 C357.080616,286.632901 356.632901,287.080616 356.632901,287.632901 C356.632901,288.185186 357.080616,288.632901 357.632901,288.632901 L362.632901,288.632901 C363.185186,288.632901 363.632901,288.185186 363.632901,287.632901 C363.632901,287.080616 363.185186,286.632901 362.632901,286.632901 L357.632901,286.632901 Z M347.632901,286.632901 C347.080616,286.632901 346.632901,287.080616 346.632901,287.632901 C346.632901,288.185186 347.080616,288.632901 347.632901,288.632901 L352.632901,288.632901 C353.185186,288.632901 353.632901,288.185186 353.632901,287.632901 C353.632901,287.080616 353.185186,286.632901 352.632901,286.632901 L347.632901,286.632901 Z M337.632901,286.632901 C337.080616,286.632901 336.632901,287.080616 336.632901,287.632901 C336.632901,288.185186 337.080616,288.632901 337.632901,288.632901 L342.632901,288.632901 C343.185186,288.632901 343.632901,288.185186 343.632901,287.632901 C343.632901,287.080616 343.185186,286.632901 342.632901,286.632901 L337.632901,286.632901 Z M327.632901,286.632901 C327.080616,286.632901 326.632901,287.080616 326.632901,287.632901 C326.632901,288.185186 327.080616,288.632901 327.632901,288.632901 L332.632901,288.632901 C333.185186,288.632901 333.632901,288.185186 333.632901,287.632901 C333.632901,287.080616 333.185186,286.632901 332.632901,286.632901 L327.632901,286.632901 Z M317.632901,286.632901 C317.080616,286.632901 316.632901,287.080616 316.632901,287.632901 C316.632901,288.185186 317.080616,288.632901 317.632901,288.632901 L322.632901,288.632901 C323.185186,288.632901 323.632901,288.185186 323.632901,287.632901 C323.632901,287.080616 323.185186,286.632901 322.632901,286.632901 L317.632901,286.632901 Z M307.632901,286.632901 C307.080616,286.632901 306.632901,287.080616 306.632901,287.632901 C306.632901,288.185186 307.080616,288.632901 307.632901,288.632901 L312.632901,288.632901 C313.185186,288.632901 313.632901,288.185186 313.632901,287.632901 C313.632901,287.080616 313.185186,286.632901 312.632901,286.632901 L307.632901,286.632901 Z M297.632901,286.632901 C297.080616,286.632901 296.632901,287.080616 296.632901,287.632901 C296.632901,288.185186 297.080616,288.632901 297.632901,288.632901 L302.632901,288.632901 C303.185186,288.632901 303.632901,288.185186 303.632901,287.632901 C303.632901,287.080616 303.185186,286.632901 302.632901,286.632901 L297.632901,286.632901 Z M287.632901,286.632901 C287.080616,286.632901 286.632901,287.080616 286.632901,287.632901 C286.632901,288.185186 287.080616,288.632901 287.632901,288.632901 L292.632901,288.632901 C293.185186,288.632901 293.632901,288.185186 293.632901,287.632901 C293.632901,287.080616 293.185186,286.632901 292.632901,286.632901 L287.632901,286.632901 Z M277.632901,286.632901 C277.080616,286.632901 276.632901,287.080616 276.632901,287.632901 C276.632901,288.185186 277.080616,288.632901 277.632901,288.632901 L282.632901,288.632901 C283.185186,288.632901 283.632901,288.185186 283.632901,287.632901 C283.632901,287.080616 283.185186,286.632901 282.632901,286.632901 L277.632901,286.632901 Z M267.632901,286.632901 C267.080616,286.632901 266.632901,287.080616 266.632901,287.632901 C266.632901,288.185186 267.080616,288.632901 267.632901,288.632901 L272.632901,288.632901 C273.185186,288.632901 273.632901,288.185186 273.632901,287.632901 C273.632901,287.080616 273.185186,286.632901 272.632901,286.632901 L267.632901,286.632901 Z M257.632901,286.632901 C257.080616,286.632901 256.632901,287.080616 256.632901,287.632901 C256.632901,288.185186 257.080616,288.632901 257.632901,288.632901 L262.632901,288.632901 C263.185186,288.632901 263.632901,288.185186 263.632901,287.632901 C263.632901,287.080616 263.185186,286.632901 262.632901,286.632901 L257.632901,286.632901 Z M247.632901,286.632901 C247.080616,286.632901 246.632901,287.080616 246.632901,287.632901 C246.632901,288.185186 247.080616,288.632901 247.632901,288.632901 L252.632901,288.632901 C253.185186,288.632901 253.632901,288.185186 253.632901,287.632901 C253.632901,287.080616 253.185186,286.632901 252.632901,286.632901 L247.632901,286.632901 Z M237.632901,286.632901 C237.080616,286.632901 236.632901,287.080616 236.632901,287.632901 C236.632901,288.185186 237.080616,288.632901 237.632901,288.632901 L242.632901,288.632901 C243.185186,288.632901 243.632901,288.185186 243.632901,287.632901 C243.632901,287.080616 243.185186,286.632901 242.632901,286.632901 L237.632901,286.632901 Z M227.632901,286.632901 C227.080616,286.632901 226.632901,287.080616 226.632901,287.632901 C226.632901,288.185186 227.080616,288.632901 227.632901,288.632901 L232.632901,288.632901 C233.185186,288.632901 233.632901,288.185186 233.632901,287.632901 C233.632901,287.080616 233.185186,286.632901 232.632901,286.632901 L227.632901,286.632901 Z M217.632901,286.632901 C217.080616,286.632901 216.632901,287.080616 216.632901,287.632901 C216.632901,288.185186 217.080616,288.632901 217.632901,288.632901 L222.632901,288.632901 C223.185186,288.632901 223.632901,288.185186 223.632901,287.632901 C223.632901,287.080616 223.185186,286.632901 222.632901,286.632901 L217.632901,286.632901 Z M207.632901,286.632901 C207.080616,286.632901 206.632901,287.080616 206.632901,287.632901 C206.632901,288.185186 207.080616,288.632901 207.632901,288.632901 L212.632901,288.632901 C213.185186,288.632901 213.632901,288.185186 213.632901,287.632901 C213.632901,287.080616 213.185186,286.632901 212.632901,286.632901 L207.632901,286.632901 Z M197.632901,286.632901 C197.080616,286.632901 196.632901,287.080616 196.632901,287.632901 C196.632901,288.185186 197.080616,288.632901 197.632901,288.632901 L202.632901,288.632901 C203.185186,288.632901 203.632901,288.185186 203.632901,287.632901 C203.632901,287.080616 203.185186,286.632901 202.632901,286.632901 L197.632901,286.632901 Z M187.632901,286.632901 C187.080616,286.632901 186.632901,287.080616 186.632901,287.632901 C186.632901,288.185186 187.080616,288.632901 187.632901,288.632901 L192.632901,288.632901 C193.185186,288.632901 193.632901,288.185186 193.632901,287.632901 C193.632901,287.080616 193.185186,286.632901 192.632901,286.632901 L187.632901,286.632901 Z M177.632901,286.632901 C177.080616,286.632901 176.632901,287.080616 176.632901,287.632901 C176.632901,288.185186 177.080616,288.632901 177.632901,288.632901 L182.632901,288.632901 C183.185186,288.632901 183.632901,288.185186 183.632901,287.632901 C183.632901,287.080616 183.185186,286.632901 182.632901,286.632901 L177.632901,286.632901 Z M167.632901,286.632901 C167.080616,286.632901 166.632901,287.080616 166.632901,287.632901 C166.632901,288.185186 167.080616,288.632901 167.632901,288.632901 L172.632901,288.632901 C173.185186,288.632901 173.632901,288.185186 173.632901,287.632901 C173.632901,287.080616 173.185186,286.632901 172.632901,286.632901 L167.632901,286.632901 Z M157.632901,286.632901 C157.080616,286.632901 156.632901,287.080616 156.632901,287.632901 C156.632901,288.185186 157.080616,288.632901 157.632901,288.632901 L162.632901,288.632901 C163.185186,288.632901 163.632901,288.185186 163.632901,287.632901 C163.632901,287.080616 163.185186,286.632901 162.632901,286.632901 L157.632901,286.632901 Z M147.632901,286.632901 C147.080616,286.632901 146.632901,287.080616 146.632901,287.632901 C146.632901,288.185186 147.080616,288.632901 147.632901,288.632901 L152.632901,288.632901 C153.185186,288.632901 153.632901,288.185186 153.632901,287.632901 C153.632901,287.080616 153.185186,286.632901 152.632901,286.632901 L147.632901,286.632901 Z M137.632901,286.632901 C137.080616,286.632901 136.632901,287.080616 136.632901,287.632901 C136.632901,288.185186 137.080616,288.632901 137.632901,288.632901 L142.632901,288.632901 C143.185186,288.632901 143.632901,288.185186 143.632901,287.632901 C143.632901,287.080616 143.185186,286.632901 142.632901,286.632901 L137.632901,286.632901 Z M127.632901,286.632901 C127.080616,286.632901 126.632901,287.080616 126.632901,287.632901 C126.632901,288.185186 127.080616,288.632901 127.632901,288.632901 L132.632901,288.632901 C133.185186,288.632901 133.632901,288.185186 133.632901,287.632901 C133.632901,287.080616 133.185186,286.632901 132.632901,286.632901 L127.632901,286.632901 Z M117.632901,286.632901 C117.080616,286.632901 116.632901,287.080616 116.632901,287.632901 C116.632901,288.185186 117.080616,288.632901 117.632901,288.632901 L122.632901,288.632901 C123.185186,288.632901 123.632901,288.185186 123.632901,287.632901 C123.632901,287.080616 123.185186,286.632901 122.632901,286.632901 L117.632901,286.632901 Z M107.632901,286.632901 C107.080616,286.632901 106.632901,287.080616 106.632901,287.632901 C106.632901,288.185186 107.080616,288.632901 107.632901,288.632901 L112.632901,288.632901 C113.185186,288.632901 113.632901,288.185186 113.632901,287.632901 C113.632901,287.080616 113.185186,286.632901 112.632901,286.632901 L107.632901,286.632901 Z M97.632901,286.632901 C97.0806163,286.632901 96.632901,287.080616 96.632901,287.632901 C96.632901,288.185186 97.0806163,288.632901 97.632901,288.632901 L102.632901,288.632901 C103.185186,288.632901 103.632901,288.185186 103.632901,287.632901 C103.632901,287.080616 103.185186,286.632901 102.632901,286.632901 L97.632901,286.632901 Z M87.632901,286.632901 C87.0806163,286.632901 86.632901,287.080616 86.632901,287.632901 C86.632901,288.185186 87.0806163,288.632901 87.632901,288.632901 L92.632901,288.632901 C93.1851858,288.632901 93.632901,288.185186 93.632901,287.632901 C93.632901,287.080616 93.1851858,286.632901 92.632901,286.632901 L87.632901,286.632901 Z M77.632901,286.632901 C77.0806163,286.632901 76.632901,287.080616 76.632901,287.632901 C76.632901,288.185186 77.0806163,288.632901 77.632901,288.632901 L82.632901,288.632901 C83.1851858,288.632901 83.632901,288.185186 83.632901,287.632901 C83.632901,287.080616 83.1851858,286.632901 82.632901,286.632901 L77.632901,286.632901 Z M67.632901,286.632901 C67.0806163,286.632901 66.632901,287.080616 66.632901,287.632901 C66.632901,288.185186 67.0806163,288.632901 67.632901,288.632901 L72.632901,288.632901 C73.1851858,288.632901 73.632901,288.185186 73.632901,287.632901 C73.632901,287.080616 73.1851858,286.632901 72.632901,286.632901 L67.632901,286.632901 Z M57.632901,286.632901 C57.0806163,286.632901 56.632901,287.080616 56.632901,287.632901 C56.632901,288.185186 57.0806163,288.632901 57.632901,288.632901 L62.632901,288.632901 C63.1851858,288.632901 63.632901,288.185186 63.632901,287.632901 C63.632901,287.080616 63.1851858,286.632901 62.632901,286.632901 L57.632901,286.632901 Z M47.632901,286.632901 C47.0806163,286.632901 46.632901,287.080616 46.632901,287.632901 C46.632901,288.185186 47.0806163,288.632901 47.632901,288.632901 L52.632901,288.632901 C53.1851858,288.632901 53.632901,288.185186 53.632901,287.632901 C53.632901,287.080616 53.1851858,286.632901 52.632901,286.632901 L47.632901,286.632901 Z M37.632901,286.632901 C37.0806163,286.632901 36.632901,287.080616 36.632901,287.632901 C36.632901,288.185186 37.0806163,288.632901 37.632901,288.632901 L42.632901,288.632901 C43.1851858,288.632901 43.632901,288.185186 43.632901,287.632901 C43.632901,287.080616 43.1851858,286.632901 42.632901,286.632901 L37.632901,286.632901 Z M27.632901,286.632901 C27.0806163,286.632901 26.632901,287.080616 26.632901,287.632901 C26.632901,288.185186 27.0806163,288.632901 27.632901,288.632901 L32.632901,288.632901 C33.1851858,288.632901 33.632901,288.185186 33.632901,287.632901 C33.632901,287.080616 33.1851858,286.632901 32.632901,286.632901 L27.632901,286.632901 Z M17.632901,286.632901 C17.0806163,286.632901 16.632901,287.080616 16.632901,287.632901 C16.632901,288.185186 17.0806163,288.632901 17.632901,288.632901 L22.632901,288.632901 C23.1851858,288.632901 23.632901,288.185186 23.632901,287.632901 C23.632901,287.080616 23.1851858,286.632901 22.632901,286.632901 L17.632901,286.632901 Z M10.9402002,286.632901 L11.9402002,287.632901 L11.9402002,284.325602 C11.9402002,283.773317 11.492485,283.325602 10.9402002,283.325602 C10.3879155,283.325602 9.94020022,283.773317 9.94020022,284.325602 L9.94020022,287.632901 L10.9402002,288.632901 L12.632901,288.632901 C13.1851858,288.632901 13.632901,288.185186 13.632901,287.632901 C13.632901,287.080616 13.1851858,286.632901 12.632901,286.632901 L10.9402002,286.632901 Z M11.9402002,274.325602 C11.9402002,273.773317 11.492485,273.325602 10.9402002,273.325602 C10.3879155,273.325602 9.94020022,273.773317 9.94020022,274.325602 L9.94020022,279.325602 C9.94020022,279.877887 10.3879155,280.325602 10.9402002,280.325602 C11.492485,280.325602 11.9402002,279.877887 11.9402002,279.325602 L11.9402002,274.325602 Z M11.9402002,264.325602 C11.9402002,263.773317 11.492485,263.325602 10.9402002,263.325602 C10.3879155,263.325602 9.94020022,263.773317 9.94020022,264.325602 L9.94020022,269.325602 C9.94020022,269.877887 10.3879155,270.325602 10.9402002,270.325602 C11.492485,270.325602 11.9402002,269.877887 11.9402002,269.325602 L11.9402002,264.325602 Z M11.9402002,254.325602 C11.9402002,253.773317 11.492485,253.325602 10.9402002,253.325602 C10.3879155,253.325602 9.94020022,253.773317 9.94020022,254.325602 L9.94020022,259.325602 C9.94020022,259.877887 10.3879155,260.325602 10.9402002,260.325602 C11.492485,260.325602 11.9402002,259.877887 11.9402002,259.325602 L11.9402002,254.325602 Z M11.9402002,244.325602 C11.9402002,243.773317 11.492485,243.325602 10.9402002,243.325602 C10.3879155,243.325602 9.94020022,243.773317 9.94020022,244.325602 L9.94020022,249.325602 C9.94020022,249.877887 10.3879155,250.325602 10.9402002,250.325602 C11.492485,250.325602 11.9402002,249.877887 11.9402002,249.325602 L11.9402002,244.325602 Z M11.9402002,234.325602 C11.9402002,233.773317 11.492485,233.325602 10.9402002,233.325602 C10.3879155,233.325602 9.94020022,233.773317 9.94020022,234.325602 L9.94020022,239.325602 C9.94020022,239.877887 10.3879155,240.325602 10.9402002,240.325602 C11.492485,240.325602 11.9402002,239.877887 11.9402002,239.325602 L11.9402002,234.325602 Z M11.9402002,224.325602 C11.9402002,223.773317 11.492485,223.325602 10.9402002,223.325602 C10.3879155,223.325602 9.94020022,223.773317 9.94020022,224.325602 L9.94020022,229.325602 C9.94020022,229.877887 10.3879155,230.325602 10.9402002,230.325602 C11.492485,230.325602 11.9402002,229.877887 11.9402002,229.325602 L11.9402002,224.325602 Z M11.9402002,214.325602 C11.9402002,213.773317 11.492485,213.325602 10.9402002,213.325602 C10.3879155,213.325602 9.94020022,213.773317 9.94020022,214.325602 L9.94020022,219.325602 C9.94020022,219.877887 10.3879155,220.325602 10.9402002,220.325602 C11.492485,220.325602 11.9402002,219.877887 11.9402002,219.325602 L11.9402002,214.325602 Z M11.9402002,204.325602 C11.9402002,203.773317 11.492485,203.325602 10.9402002,203.325602 C10.3879155,203.325602 9.94020022,203.773317 9.94020022,204.325602 L9.94020022,209.325602 C9.94020022,209.877887 10.3879155,210.325602 10.9402002,210.325602 C11.492485,210.325602 11.9402002,209.877887 11.9402002,209.325602 L11.9402002,204.325602 Z M11.9402002,194.325602 C11.9402002,193.773317 11.492485,193.325602 10.9402002,193.325602 C10.3879155,193.325602 9.94020022,193.773317 9.94020022,194.325602 L9.94020022,199.325602 C9.94020022,199.877887 10.3879155,200.325602 10.9402002,200.325602 C11.492485,200.325602 11.9402002,199.877887 11.9402002,199.325602 L11.9402002,194.325602 Z M11.9402002,184.325602 C11.9402002,183.773317 11.492485,183.325602 10.9402002,183.325602 C10.3879155,183.325602 9.94020022,183.773317 9.94020022,184.325602 L9.94020022,189.325602 C9.94020022,189.877887 10.3879155,190.325602 10.9402002,190.325602 C11.492485,190.325602 11.9402002,189.877887 11.9402002,189.325602 L11.9402002,184.325602 Z M11.9402002,174.325602 C11.9402002,173.773317 11.492485,173.325602 10.9402002,173.325602 C10.3879155,173.325602 9.94020022,173.773317 9.94020022,174.325602 L9.94020022,179.325602 C9.94020022,179.877887 10.3879155,180.325602 10.9402002,180.325602 C11.492485,180.325602 11.9402002,179.877887 11.9402002,179.325602 L11.9402002,174.325602 Z M11.9402002,164.325602 C11.9402002,163.773317 11.492485,163.325602 10.9402002,163.325602 C10.3879155,163.325602 9.94020022,163.773317 9.94020022,164.325602 L9.94020022,169.325602 C9.94020022,169.877887 10.3879155,170.325602 10.9402002,170.325602 C11.492485,170.325602 11.9402002,169.877887 11.9402002,169.325602 L11.9402002,164.325602 Z M11.9402002,154.325602 C11.9402002,153.773317 11.492485,153.325602 10.9402002,153.325602 C10.3879155,153.325602 9.94020022,153.773317 9.94020022,154.325602 L9.94020022,159.325602 C9.94020022,159.877887 10.3879155,160.325602 10.9402002,160.325602 C11.492485,160.325602 11.9402002,159.877887 11.9402002,159.325602 L11.9402002,154.325602 Z M11.9402002,144.325602 C11.9402002,143.773317 11.492485,143.325602 10.9402002,143.325602 C10.3879155,143.325602 9.94020022,143.773317 9.94020022,144.325602 L9.94020022,149.325602 C9.94020022,149.877887 10.3879155,150.325602 10.9402002,150.325602 C11.492485,150.325602 11.9402002,149.877887 11.9402002,149.325602 L11.9402002,144.325602 Z M11.9402002,134.325602 C11.9402002,133.773317 11.492485,133.325602 10.9402002,133.325602 C10.3879155,133.325602 9.94020022,133.773317 9.94020022,134.325602 L9.94020022,139.325602 C9.94020022,139.877887 10.3879155,140.325602 10.9402002,140.325602 C11.492485,140.325602 11.9402002,139.877887 11.9402002,139.325602 L11.9402002,134.325602 Z M11.9402002,124.325602 C11.9402002,123.773317 11.492485,123.325602 10.9402002,123.325602 C10.3879155,123.325602 9.94020022,123.773317 9.94020022,124.325602 L9.94020022,129.325602 C9.94020022,129.877887 10.3879155,130.325602 10.9402002,130.325602 C11.492485,130.325602 11.9402002,129.877887 11.9402002,129.325602 L11.9402002,124.325602 Z M16.6073417,120.992743 C17.1596264,120.992743 17.6073417,120.545028 17.6073417,119.992743 C17.6073417,119.440459 17.1596264,118.992743 16.6073417,118.992743 L11.6073417,118.992743 C11.0550569,118.992743 10.6073417,119.440459 10.6073417,119.992743 C10.6073417,120.545028 11.0550569,120.992743 11.6073417,120.992743 L16.6073417,120.992743 Z M26.6073417,120.992743 C27.1596264,120.992743 27.6073417,120.545028 27.6073417,119.992743 C27.6073417,119.440459 27.1596264,118.992743 26.6073417,118.992743 L21.6073417,118.992743 C21.0550569,118.992743 20.6073417,119.440459 20.6073417,119.992743 C20.6073417,120.545028 21.0550569,120.992743 21.6073417,120.992743 L26.6073417,120.992743 Z M36.6073417,120.992743 C37.1596264,120.992743 37.6073417,120.545028 37.6073417,119.992743 C37.6073417,119.440459 37.1596264,118.992743 36.6073417,118.992743 L31.6073417,118.992743 C31.0550569,118.992743 30.6073417,119.440459 30.6073417,119.992743 C30.6073417,120.545028 31.0550569,120.992743 31.6073417,120.992743 L36.6073417,120.992743 Z M46.6073417,120.992743 C47.1596264,120.992743 47.6073417,120.545028 47.6073417,119.992743 C47.6073417,119.440459 47.1596264,118.992743 46.6073417,118.992743 L41.6073417,118.992743 C41.0550569,118.992743 40.6073417,119.440459 40.6073417,119.992743 C40.6073417,120.545028 41.0550569,120.992743 41.6073417,120.992743 L46.6073417,120.992743 Z M56.6073417,120.992743 C57.1596264,120.992743 57.6073417,120.545028 57.6073417,119.992743 C57.6073417,119.440459 57.1596264,118.992743 56.6073417,118.992743 L51.6073417,118.992743 C51.0550569,118.992743 50.6073417,119.440459 50.6073417,119.992743 C50.6073417,120.545028 51.0550569,120.992743 51.6073417,120.992743 L56.6073417,120.992743 Z M66.6073417,120.992743 C67.1596264,120.992743 67.6073417,120.545028 67.6073417,119.992743 C67.6073417,119.440459 67.1596264,118.992743 66.6073417,118.992743 L61.6073417,118.992743 C61.0550569,118.992743 60.6073417,119.440459 60.6073417,119.992743 C60.6073417,120.545028 61.0550569,120.992743 61.6073417,120.992743 L66.6073417,120.992743 Z" id="Path-4"></path>
                    <path d="M33,238 C33,238.552285 33.4477153,239 34,239 C34.5522847,239 35,238.552285 35,238 L35,233 C35,232.447715 34.5522847,232 34,232 C33.4477153,232 33,232.447715 33,233 L33,238 Z M33,248 C33,248.552285 33.4477153,249 34,249 C34.5522847,249 35,248.552285 35,248 L35,243 C35,242.447715 34.5522847,242 34,242 C33.4477153,242 33,242.447715 33,243 L33,248 Z M33,258 C33,258.552285 33.4477153,259 34,259 C34.5522847,259 35,258.552285 35,258 L35,253 C35,252.447715 34.5522847,252 34,252 C33.4477153,252 33,252.447715 33,253 L33,258 Z M33,268 C33,268.552285 33.4477153,269 34,269 C34.5522847,269 35,268.552285 35,268 L35,263 C35,262.447715 34.5522847,262 34,262 C33.4477153,262 33,262.447715 33,263 L33,268 Z M33,278 C33,278.552285 33.4477153,279 34,279 C34.5522847,279 35,278.552285 35,278 L35,273 C35,272.447715 34.5522847,272 34,272 C33.4477153,272 33,272.447715 33,273 L33,278 Z M33,288 C33,288.552285 33.4477153,289 34,289 C34.5522847,289 35,288.552285 35,288 L35,283 C35,282.447715 34.5522847,282 34,282 C33.4477153,282 33,282.447715 33,283 L33,288 Z M33,298 C33,298.552285 33.4477153,299 34,299 C34.5522847,299 35,298.552285 35,298 L35,293 C35,292.447715 34.5522847,292 34,292 C33.4477153,292 33,292.447715 33,293 L33,298 Z M33,308 C33,308.552285 33.4477153,309 34,309 C34.5522847,309 35,308.552285 35,308 L35,303 C35,302.447715 34.5522847,302 34,302 C33.4477153,302 33,302.447715 33,303 L33,308 Z M33,318 C33,318.552285 33.4477153,319 34,319 C34.5522847,319 35,318.552285 35,318 L35,313 C35,312.447715 34.5522847,312 34,312 C33.4477153,312 33,312.447715 33,313 L33,318 Z" id="Path-5"></path>
                    <path d="M22.5,302 C23.0522847,302 23.5,301.552285 23.5,301 C23.5,300.447715 23.0522847,300 22.5,300 L17.5,300 C16.9477153,300 16.5,300.447715 16.5,301 C16.5,301.552285 16.9477153,302 17.5,302 L22.5,302 Z M32.5,302 C33.0522847,302 33.5,301.552285 33.5,301 C33.5,300.447715 33.0522847,300 32.5,300 L27.5,300 C26.9477153,300 26.5,300.447715 26.5,301 C26.5,301.552285 26.9477153,302 27.5,302 L32.5,302 Z M42.5,302 C43.0522847,302 43.5,301.552285 43.5,301 C43.5,300.447715 43.0522847,300 42.5,300 L37.5,300 C36.9477153,300 36.5,300.447715 36.5,301 C36.5,301.552285 36.9477153,302 37.5,302 L42.5,302 Z M52.5,302 C53.0522847,302 53.5,301.552285 53.5,301 C53.5,300.447715 53.0522847,300 52.5,300 L47.5,300 C46.9477153,300 46.5,300.447715 46.5,301 C46.5,301.552285 46.9477153,302 47.5,302 L52.5,302 Z M62.5,302 C63.0522847,302 63.5,301.552285 63.5,301 C63.5,300.447715 63.0522847,300 62.5,300 L57.5,300 C56.9477153,300 56.5,300.447715 56.5,301 C56.5,301.552285 56.9477153,302 57.5,302 L62.5,302 Z M72.5,302 C73.0522847,302 73.5,301.552285 73.5,301 C73.5,300.447715 73.0522847,300 72.5,300 L67.5,300 C66.9477153,300 66.5,300.447715 66.5,301 C66.5,301.552285 66.9477153,302 67.5,302 L72.5,302 Z M82.5,302 C83.0522847,302 83.5,301.552285 83.5,301 C83.5,300.447715 83.0522847,300 82.5,300 L77.5,300 C76.9477153,300 76.5,300.447715 76.5,301 C76.5,301.552285 76.9477153,302 77.5,302 L82.5,302 Z M92.5,302 C93.0522847,302 93.5,301.552285 93.5,301 C93.5,300.447715 93.0522847,300 92.5,300 L87.5,300 C86.9477153,300 86.5,300.447715 86.5,301 C86.5,301.552285 86.9477153,302 87.5,302 L92.5,302 Z M102.5,302 C103.052285,302 103.5,301.552285 103.5,301 C103.5,300.447715 103.052285,300 102.5,300 L97.5,300 C96.9477153,300 96.5,300.447715 96.5,301 C96.5,301.552285 96.9477153,302 97.5,302 L102.5,302 Z M112.5,302 C113.052285,302 113.5,301.552285 113.5,301 C113.5,300.447715 113.052285,300 112.5,300 L107.5,300 C106.947715,300 106.5,300.447715 106.5,301 C106.5,301.552285 106.947715,302 107.5,302 L112.5,302 Z M122.5,302 C123.052285,302 123.5,301.552285 123.5,301 C123.5,300.447715 123.052285,300 122.5,300 L117.5,300 C116.947715,300 116.5,300.447715 116.5,301 C116.5,301.552285 116.947715,302 117.5,302 L122.5,302 Z M132.5,302 C133.052285,302 133.5,301.552285 133.5,301 C133.5,300.447715 133.052285,300 132.5,300 L127.5,300 C126.947715,300 126.5,300.447715 126.5,301 C126.5,301.552285 126.947715,302 127.5,302 L132.5,302 Z M142.5,302 C143.052285,302 143.5,301.552285 143.5,301 C143.5,300.447715 143.052285,300 142.5,300 L137.5,300 C136.947715,300 136.5,300.447715 136.5,301 C136.5,301.552285 136.947715,302 137.5,302 L142.5,302 Z M152.5,302 C153.052285,302 153.5,301.552285 153.5,301 C153.5,300.447715 153.052285,300 152.5,300 L147.5,300 C146.947715,300 146.5,300.447715 146.5,301 C146.5,301.552285 146.947715,302 147.5,302 L152.5,302 Z M162.5,302 C163.052285,302 163.5,301.552285 163.5,301 C163.5,300.447715 163.052285,300 162.5,300 L157.5,300 C156.947715,300 156.5,300.447715 156.5,301 C156.5,301.552285 156.947715,302 157.5,302 L162.5,302 Z M172.5,302 C173.052285,302 173.5,301.552285 173.5,301 C173.5,300.447715 173.052285,300 172.5,300 L167.5,300 C166.947715,300 166.5,300.447715 166.5,301 C166.5,301.552285 166.947715,302 167.5,302 L172.5,302 Z M182.5,302 C183.052285,302 183.5,301.552285 183.5,301 C183.5,300.447715 183.052285,300 182.5,300 L177.5,300 C176.947715,300 176.5,300.447715 176.5,301 C176.5,301.552285 176.947715,302 177.5,302 L182.5,302 Z M192.5,302 C193.052285,302 193.5,301.552285 193.5,301 C193.5,300.447715 193.052285,300 192.5,300 L187.5,300 C186.947715,300 186.5,300.447715 186.5,301 C186.5,301.552285 186.947715,302 187.5,302 L192.5,302 Z M202.5,302 C203.052285,302 203.5,301.552285 203.5,301 C203.5,300.447715 203.052285,300 202.5,300 L197.5,300 C196.947715,300 196.5,300.447715 196.5,301 C196.5,301.552285 196.947715,302 197.5,302 L202.5,302 Z M212.5,302 C213.052285,302 213.5,301.552285 213.5,301 C213.5,300.447715 213.052285,300 212.5,300 L207.5,300 C206.947715,300 206.5,300.447715 206.5,301 C206.5,301.552285 206.947715,302 207.5,302 L212.5,302 Z M222.5,302 C223.052285,302 223.5,301.552285 223.5,301 C223.5,300.447715 223.052285,300 222.5,300 L217.5,300 C216.947715,300 216.5,300.447715 216.5,301 C216.5,301.552285 216.947715,302 217.5,302 L222.5,302 Z M232.5,302 C233.052285,302 233.5,301.552285 233.5,301 C233.5,300.447715 233.052285,300 232.5,300 L227.5,300 C226.947715,300 226.5,300.447715 226.5,301 C226.5,301.552285 226.947715,302 227.5,302 L232.5,302 Z M242.5,302 C243.052285,302 243.5,301.552285 243.5,301 C243.5,300.447715 243.052285,300 242.5,300 L237.5,300 C236.947715,300 236.5,300.447715 236.5,301 C236.5,301.552285 236.947715,302 237.5,302 L242.5,302 Z M252.5,302 C253.052285,302 253.5,301.552285 253.5,301 C253.5,300.447715 253.052285,300 252.5,300 L247.5,300 C246.947715,300 246.5,300.447715 246.5,301 C246.5,301.552285 246.947715,302 247.5,302 L252.5,302 Z M262.5,302 C263.052285,302 263.5,301.552285 263.5,301 C263.5,300.447715 263.052285,300 262.5,300 L257.5,300 C256.947715,300 256.5,300.447715 256.5,301 C256.5,301.552285 256.947715,302 257.5,302 L262.5,302 Z M272.5,302 C273.052285,302 273.5,301.552285 273.5,301 C273.5,300.447715 273.052285,300 272.5,300 L267.5,300 C266.947715,300 266.5,300.447715 266.5,301 C266.5,301.552285 266.947715,302 267.5,302 L272.5,302 Z" id="Path-6"></path>
                    <path d="M23,129.5 C23,128.947715 22.5522847,128.5 22,128.5 C21.4477153,128.5 21,128.947715 21,129.5 L21,134.5 C21,135.052285 21.4477153,135.5 22,135.5 C22.5522847,135.5 23,135.052285 23,134.5 L23,129.5 Z M23,119.5 C23,118.947715 22.5522847,118.5 22,118.5 C21.4477153,118.5 21,118.947715 21,119.5 L21,124.5 C21,125.052285 21.4477153,125.5 22,125.5 C22.5522847,125.5 23,125.052285 23,124.5 L23,119.5 Z M23,109.5 C23,108.947715 22.5522847,108.5 22,108.5 C21.4477153,108.5 21,108.947715 21,109.5 L21,114.5 C21,115.052285 21.4477153,115.5 22,115.5 C22.5522847,115.5 23,115.052285 23,114.5 L23,109.5 Z M23,99.5 C23,98.9477153 22.5522847,98.5 22,98.5 C21.4477153,98.5 21,98.9477153 21,99.5 L21,104.5 C21,105.052285 21.4477153,105.5 22,105.5 C22.5522847,105.5 23,105.052285 23,104.5 L23,99.5 Z M23,89.5 C23,88.9477153 22.5522847,88.5 22,88.5 C21.4477153,88.5 21,88.9477153 21,89.5 L21,94.5 C21,95.0522847 21.4477153,95.5 22,95.5 C22.5522847,95.5 23,95.0522847 23,94.5 L23,89.5 Z M23,79.5 C23,78.9477153 22.5522847,78.5 22,78.5 C21.4477153,78.5 21,78.9477153 21,79.5 L21,84.5 C21,85.0522847 21.4477153,85.5 22,85.5 C22.5522847,85.5 23,85.0522847 23,84.5 L23,79.5 Z M23,69.5 C23,68.9477153 22.5522847,68.5 22,68.5 C21.4477153,68.5 21,68.9477153 21,69.5 L21,74.5 C21,75.0522847 21.4477153,75.5 22,75.5 C22.5522847,75.5 23,75.0522847 23,74.5 L23,69.5 Z M23,59.5 C23,58.9477153 22.5522847,58.5 22,58.5 C21.4477153,58.5 21,58.9477153 21,59.5 L21,64.5 C21,65.0522847 21.4477153,65.5 22,65.5 C22.5522847,65.5 23,65.0522847 23,64.5 L23,59.5 Z M23,51.5105428 L22,52.5105428 L24.0105428,52.5105428 C24.5628276,52.5105428 25.0105428,52.0628276 25.0105428,51.5105428 C25.0105428,50.9582581 24.5628276,50.5105428 24.0105428,50.5105428 L22,50.5105428 L21,51.5105428 L21,54.5 C21,55.0522847 21.4477153,55.5 22,55.5 C22.5522847,55.5 23,55.0522847 23,54.5 L23,51.5105428 Z M34.0105428,52.5105428 C34.5628276,52.5105428 35.0105428,52.0628276 35.0105428,51.5105428 C35.0105428,50.9582581 34.5628276,50.5105428 34.0105428,50.5105428 L29.0105428,50.5105428 C28.4582581,50.5105428 28.0105428,50.9582581 28.0105428,51.5105428 C28.0105428,52.0628276 28.4582581,52.5105428 29.0105428,52.5105428 L34.0105428,52.5105428 Z M44.0105428,52.5105428 C44.5628276,52.5105428 45.0105428,52.0628276 45.0105428,51.5105428 C45.0105428,50.9582581 44.5628276,50.5105428 44.0105428,50.5105428 L39.0105428,50.5105428 C38.4582581,50.5105428 38.0105428,50.9582581 38.0105428,51.5105428 C38.0105428,52.0628276 38.4582581,52.5105428 39.0105428,52.5105428 L44.0105428,52.5105428 Z M54.0105428,52.5105428 C54.5628276,52.5105428 55.0105428,52.0628276 55.0105428,51.5105428 C55.0105428,50.9582581 54.5628276,50.5105428 54.0105428,50.5105428 L49.0105428,50.5105428 C48.4582581,50.5105428 48.0105428,50.9582581 48.0105428,51.5105428 C48.0105428,52.0628276 48.4582581,52.5105428 49.0105428,52.5105428 L54.0105428,52.5105428 Z M64.0105428,52.5105428 C64.5628276,52.5105428 65.0105428,52.0628276 65.0105428,51.5105428 C65.0105428,50.9582581 64.5628276,50.5105428 64.0105428,50.5105428 L59.0105428,50.5105428 C58.4582581,50.5105428 58.0105428,50.9582581 58.0105428,51.5105428 C58.0105428,52.0628276 58.4582581,52.5105428 59.0105428,52.5105428 L64.0105428,52.5105428 Z M74.0105428,52.5105428 C74.5628276,52.5105428 75.0105428,52.0628276 75.0105428,51.5105428 C75.0105428,50.9582581 74.5628276,50.5105428 74.0105428,50.5105428 L69.0105428,50.5105428 C68.4582581,50.5105428 68.0105428,50.9582581 68.0105428,51.5105428 C68.0105428,52.0628276 68.4582581,52.5105428 69.0105428,52.5105428 L74.0105428,52.5105428 Z M84.0105428,52.5105428 C84.5628276,52.5105428 85.0105428,52.0628276 85.0105428,51.5105428 C85.0105428,50.9582581 84.5628276,50.5105428 84.0105428,50.5105428 L79.0105428,50.5105428 C78.4582581,50.5105428 78.0105428,50.9582581 78.0105428,51.5105428 C78.0105428,52.0628276 78.4582581,52.5105428 79.0105428,52.5105428 L84.0105428,52.5105428 Z M94.0105428,52.5105428 C94.5628276,52.5105428 95.0105428,52.0628276 95.0105428,51.5105428 C95.0105428,50.9582581 94.5628276,50.5105428 94.0105428,50.5105428 L89.0105428,50.5105428 C88.4582581,50.5105428 88.0105428,50.9582581 88.0105428,51.5105428 C88.0105428,52.0628276 88.4582581,52.5105428 89.0105428,52.5105428 L94.0105428,52.5105428 Z M104.010543,52.5105428 C104.562828,52.5105428 105.010543,52.0628276 105.010543,51.5105428 C105.010543,50.9582581 104.562828,50.5105428 104.010543,50.5105428 L99.0105428,50.5105428 C98.4582581,50.5105428 98.0105428,50.9582581 98.0105428,51.5105428 C98.0105428,52.0628276 98.4582581,52.5105428 99.0105428,52.5105428 L104.010543,52.5105428 Z M114.010543,52.5105428 C114.562828,52.5105428 115.010543,52.0628276 115.010543,51.5105428 C115.010543,50.9582581 114.562828,50.5105428 114.010543,50.5105428 L109.010543,50.5105428 C108.458258,50.5105428 108.010543,50.9582581 108.010543,51.5105428 C108.010543,52.0628276 108.458258,52.5105428 109.010543,52.5105428 L114.010543,52.5105428 Z M124.010543,52.5105428 C124.562828,52.5105428 125.010543,52.0628276 125.010543,51.5105428 C125.010543,50.9582581 124.562828,50.5105428 124.010543,50.5105428 L119.010543,50.5105428 C118.458258,50.5105428 118.010543,50.9582581 118.010543,51.5105428 C118.010543,52.0628276 118.458258,52.5105428 119.010543,52.5105428 L124.010543,52.5105428 Z M134.010543,52.5105428 C134.562828,52.5105428 135.010543,52.0628276 135.010543,51.5105428 C135.010543,50.9582581 134.562828,50.5105428 134.010543,50.5105428 L129.010543,50.5105428 C128.458258,50.5105428 128.010543,50.9582581 128.010543,51.5105428 C128.010543,52.0628276 128.458258,52.5105428 129.010543,52.5105428 L134.010543,52.5105428 Z M144.010543,52.5105428 C144.562828,52.5105428 145.010543,52.0628276 145.010543,51.5105428 C145.010543,50.9582581 144.562828,50.5105428 144.010543,50.5105428 L139.010543,50.5105428 C138.458258,50.5105428 138.010543,50.9582581 138.010543,51.5105428 C138.010543,52.0628276 138.458258,52.5105428 139.010543,52.5105428 L144.010543,52.5105428 Z M154.010543,52.5105428 C154.562828,52.5105428 155.010543,52.0628276 155.010543,51.5105428 C155.010543,50.9582581 154.562828,50.5105428 154.010543,50.5105428 L149.010543,50.5105428 C148.458258,50.5105428 148.010543,50.9582581 148.010543,51.5105428 C148.010543,52.0628276 148.458258,52.5105428 149.010543,52.5105428 L154.010543,52.5105428 Z M164.010543,52.5105428 C164.562828,52.5105428 165.010543,52.0628276 165.010543,51.5105428 C165.010543,50.9582581 164.562828,50.5105428 164.010543,50.5105428 L159.010543,50.5105428 C158.458258,50.5105428 158.010543,50.9582581 158.010543,51.5105428 C158.010543,52.0628276 158.458258,52.5105428 159.010543,52.5105428 L164.010543,52.5105428 Z M174.010543,52.5105428 C174.562828,52.5105428 175.010543,52.0628276 175.010543,51.5105428 C175.010543,50.9582581 174.562828,50.5105428 174.010543,50.5105428 L169.010543,50.5105428 C168.458258,50.5105428 168.010543,50.9582581 168.010543,51.5105428 C168.010543,52.0628276 168.458258,52.5105428 169.010543,52.5105428 L174.010543,52.5105428 Z M184.010543,52.5105428 C184.562828,52.5105428 185.010543,52.0628276 185.010543,51.5105428 C185.010543,50.9582581 184.562828,50.5105428 184.010543,50.5105428 L179.010543,50.5105428 C178.458258,50.5105428 178.010543,50.9582581 178.010543,51.5105428 C178.010543,52.0628276 178.458258,52.5105428 179.010543,52.5105428 L184.010543,52.5105428 Z M194.010543,52.5105428 C194.562828,52.5105428 195.010543,52.0628276 195.010543,51.5105428 C195.010543,50.9582581 194.562828,50.5105428 194.010543,50.5105428 L189.010543,50.5105428 C188.458258,50.5105428 188.010543,50.9582581 188.010543,51.5105428 C188.010543,52.0628276 188.458258,52.5105428 189.010543,52.5105428 L194.010543,52.5105428 Z M204.010543,52.5105428 C204.562828,52.5105428 205.010543,52.0628276 205.010543,51.5105428 C205.010543,50.9582581 204.562828,50.5105428 204.010543,50.5105428 L199.010543,50.5105428 C198.458258,50.5105428 198.010543,50.9582581 198.010543,51.5105428 C198.010543,52.0628276 198.458258,52.5105428 199.010543,52.5105428 L204.010543,52.5105428 Z" id="Path-7"></path>
                    <path d="M6.5,71.5 C7.05228475,71.5 7.5,71.0522847 7.5,70.5 C7.5,69.9477153 7.05228475,69.5 6.5,69.5 L1.5,69.5 C0.94771525,69.5 0.5,69.9477153 0.5,70.5 C0.5,71.0522847 0.94771525,71.5 1.5,71.5 L6.5,71.5 Z M16.5,71.5 C17.0522847,71.5 17.5,71.0522847 17.5,70.5 C17.5,69.9477153 17.0522847,69.5 16.5,69.5 L11.5,69.5 C10.9477153,69.5 10.5,69.9477153 10.5,70.5 C10.5,71.0522847 10.9477153,71.5 11.5,71.5 L16.5,71.5 Z M26.5,71.5 C27.0522847,71.5 27.5,71.0522847 27.5,70.5 C27.5,69.9477153 27.0522847,69.5 26.5,69.5 L21.5,69.5 C20.9477153,69.5 20.5,69.9477153 20.5,70.5 C20.5,71.0522847 20.9477153,71.5 21.5,71.5 L26.5,71.5 Z M36.5,71.5 C37.0522847,71.5 37.5,71.0522847 37.5,70.5 C37.5,69.9477153 37.0522847,69.5 36.5,69.5 L31.5,69.5 C30.9477153,69.5 30.5,69.9477153 30.5,70.5 C30.5,71.0522847 30.9477153,71.5 31.5,71.5 L36.5,71.5 Z M46.5,71.5 C47.0522847,71.5 47.5,71.0522847 47.5,70.5 C47.5,69.9477153 47.0522847,69.5 46.5,69.5 L41.5,69.5 C40.9477153,69.5 40.5,69.9477153 40.5,70.5 C40.5,71.0522847 40.9477153,71.5 41.5,71.5 L46.5,71.5 Z M51.0231903,64.0231903 C51.0231903,63.4709056 50.5754751,63.0231903 50.0231903,63.0231903 C49.4709056,63.0231903 49.0231903,63.4709056 49.0231903,64.0231903 L49.0231903,69.0231903 C49.0231903,69.5754751 49.4709056,70.0231903 50.0231903,70.0231903 C50.5754751,70.0231903 51.0231903,69.5754751 51.0231903,69.0231903 L51.0231903,64.0231903 Z M51.0231903,54.0231903 C51.0231903,53.4709056 50.5754751,53.0231903 50.0231903,53.0231903 C49.4709056,53.0231903 49.0231903,53.4709056 49.0231903,54.0231903 L49.0231903,59.0231903 C49.0231903,59.5754751 49.4709056,60.0231903 50.0231903,60.0231903 C50.5754751,60.0231903 51.0231903,59.5754751 51.0231903,59.0231903 L51.0231903,54.0231903 Z M51.0231903,44.0231903 C51.0231903,43.4709056 50.5754751,43.0231903 50.0231903,43.0231903 C49.4709056,43.0231903 49.0231903,43.4709056 49.0231903,44.0231903 L49.0231903,49.0231903 C49.0231903,49.5754751 49.4709056,50.0231903 50.0231903,50.0231903 C50.5754751,50.0231903 51.0231903,49.5754751 51.0231903,49.0231903 L51.0231903,44.0231903 Z M51.0231903,34.0231903 C51.0231903,33.4709056 50.5754751,33.0231903 50.0231903,33.0231903 C49.4709056,33.0231903 49.0231903,33.4709056 49.0231903,34.0231903 L49.0231903,39.0231903 C49.0231903,39.5754751 49.4709056,40.0231903 50.0231903,40.0231903 C50.5754751,40.0231903 51.0231903,39.5754751 51.0231903,39.0231903 L51.0231903,34.0231903 Z M51.0231903,24.4747883 C51.0231903,23.9225036 50.5754751,23.4747883 50.0231903,23.4747883 C49.4709056,23.4747883 49.0231903,23.9225036 49.0231903,24.4747883 L49.0231903,29.0231903 C49.0231903,29.5754751 49.4709056,30.0231903 50.0231903,30.0231903 C50.5754751,30.0231903 51.0231903,29.5754751 51.0231903,29.0231903 L51.0231903,24.4747883 Z" id="Path-8"></path>
                    <path d="M486.5,278.5 C486.5,277.947715 486.052285,277.5 485.5,277.5 C484.947715,277.5 484.5,277.947715 484.5,278.5 L484.5,283.5 C484.5,284.052285 484.947715,284.5 485.5,284.5 C486.052285,284.5 486.5,284.052285 486.5,283.5 L486.5,278.5 Z M486.5,268.5 C486.5,267.947715 486.052285,267.5 485.5,267.5 C484.947715,267.5 484.5,267.947715 484.5,268.5 L484.5,273.5 C484.5,274.052285 484.947715,274.5 485.5,274.5 C486.052285,274.5 486.5,274.052285 486.5,273.5 L486.5,268.5 Z M486.5,258.5 C486.5,257.947715 486.052285,257.5 485.5,257.5 C484.947715,257.5 484.5,257.947715 484.5,258.5 L484.5,263.5 C484.5,264.052285 484.947715,264.5 485.5,264.5 C486.052285,264.5 486.5,264.052285 486.5,263.5 L486.5,258.5 Z M486.5,248.5 C486.5,247.947715 486.052285,247.5 485.5,247.5 C484.947715,247.5 484.5,247.947715 484.5,248.5 L484.5,253.5 C484.5,254.052285 484.947715,254.5 485.5,254.5 C486.052285,254.5 486.5,254.052285 486.5,253.5 L486.5,248.5 Z M486.5,238.5 C486.5,237.947715 486.052285,237.5 485.5,237.5 C484.947715,237.5 484.5,237.947715 484.5,238.5 L484.5,243.5 C484.5,244.052285 484.947715,244.5 485.5,244.5 C486.052285,244.5 486.5,244.052285 486.5,243.5 L486.5,238.5 Z M486.5,228.5 C486.5,227.947715 486.052285,227.5 485.5,227.5 C484.947715,227.5 484.5,227.947715 484.5,228.5 L484.5,233.5 C484.5,234.052285 484.947715,234.5 485.5,234.5 C486.052285,234.5 486.5,234.052285 486.5,233.5 L486.5,228.5 Z M486.5,218.5 C486.5,217.947715 486.052285,217.5 485.5,217.5 C484.947715,217.5 484.5,217.947715 484.5,218.5 L484.5,223.5 C484.5,224.052285 484.947715,224.5 485.5,224.5 C486.052285,224.5 486.5,224.052285 486.5,223.5 L486.5,218.5 Z M486.5,208.5 C486.5,207.947715 486.052285,207.5 485.5,207.5 C484.947715,207.5 484.5,207.947715 484.5,208.5 L484.5,213.5 C484.5,214.052285 484.947715,214.5 485.5,214.5 C486.052285,214.5 486.5,214.052285 486.5,213.5 L486.5,208.5 Z M486.5,198.5 C486.5,197.947715 486.052285,197.5 485.5,197.5 C484.947715,197.5 484.5,197.947715 484.5,198.5 L484.5,203.5 C484.5,204.052285 484.947715,204.5 485.5,204.5 C486.052285,204.5 486.5,204.052285 486.5,203.5 L486.5,198.5 Z M486.5,188.5 C486.5,187.947715 486.052285,187.5 485.5,187.5 C484.947715,187.5 484.5,187.947715 484.5,188.5 L484.5,193.5 C484.5,194.052285 484.947715,194.5 485.5,194.5 C486.052285,194.5 486.5,194.052285 486.5,193.5 L486.5,188.5 Z M486.5,180.378712 L485.5,181.378712 L487.378712,181.378712 C487.930997,181.378712 488.378712,180.930997 488.378712,180.378712 C488.378712,179.826427 487.930997,179.378712 487.378712,179.378712 L485.5,179.378712 L484.5,180.378712 L484.5,183.5 C484.5,184.052285 484.947715,184.5 485.5,184.5 C486.052285,184.5 486.5,184.052285 486.5,183.5 L486.5,180.378712 Z M497.378712,181.378712 C497.930997,181.378712 498.378712,180.930997 498.378712,180.378712 C498.378712,179.826427 497.930997,179.378712 497.378712,179.378712 L492.378712,179.378712 C491.826427,179.378712 491.378712,179.826427 491.378712,180.378712 C491.378712,180.930997 491.826427,181.378712 492.378712,181.378712 L497.378712,181.378712 Z M498.527549,188.229875 C498.527549,188.78216 498.975264,189.229875 499.527549,189.229875 C500.079834,189.229875 500.527549,188.78216 500.527549,188.229875 L500.527549,183.229875 C500.527549,182.67759 500.079834,182.229875 499.527549,182.229875 C498.975264,182.229875 498.527549,182.67759 498.527549,183.229875 L498.527549,188.229875 Z M498.527549,198.229875 C498.527549,198.78216 498.975264,199.229875 499.527549,199.229875 C500.079834,199.229875 500.527549,198.78216 500.527549,198.229875 L500.527549,193.229875 C500.527549,192.67759 500.079834,192.229875 499.527549,192.229875 C498.975264,192.229875 498.527549,192.67759 498.527549,193.229875 L498.527549,198.229875 Z M498.527549,208.229875 C498.527549,208.78216 498.975264,209.229875 499.527549,209.229875 C500.079834,209.229875 500.527549,208.78216 500.527549,208.229875 L500.527549,203.229875 C500.527549,202.67759 500.079834,202.229875 499.527549,202.229875 C498.975264,202.229875 498.527549,202.67759 498.527549,203.229875 L498.527549,208.229875 Z M498.527549,218.229875 C498.527549,218.78216 498.975264,219.229875 499.527549,219.229875 C500.079834,219.229875 500.527549,218.78216 500.527549,218.229875 L500.527549,213.229875 C500.527549,212.67759 500.079834,212.229875 499.527549,212.229875 C498.975264,212.229875 498.527549,212.67759 498.527549,213.229875 L498.527549,218.229875 Z M498.527549,228.229875 C498.527549,228.78216 498.975264,229.229875 499.527549,229.229875 C500.079834,229.229875 500.527549,228.78216 500.527549,228.229875 L500.527549,223.229875 C500.527549,222.67759 500.079834,222.229875 499.527549,222.229875 C498.975264,222.229875 498.527549,222.67759 498.527549,223.229875 L498.527549,228.229875 Z M498.527549,238.229875 C498.527549,238.78216 498.975264,239.229875 499.527549,239.229875 C500.079834,239.229875 500.527549,238.78216 500.527549,238.229875 L500.527549,233.229875 C500.527549,232.67759 500.079834,232.229875 499.527549,232.229875 C498.975264,232.229875 498.527549,232.67759 498.527549,233.229875 L498.527549,238.229875 Z M498.527549,248.229875 C498.527549,248.78216 498.975264,249.229875 499.527549,249.229875 C500.079834,249.229875 500.527549,248.78216 500.527549,248.229875 L500.527549,243.229875 C500.527549,242.67759 500.079834,242.229875 499.527549,242.229875 C498.975264,242.229875 498.527549,242.67759 498.527549,243.229875 L498.527549,248.229875 Z M498.527549,258.229875 C498.527549,258.78216 498.975264,259.229875 499.527549,259.229875 C500.079834,259.229875 500.527549,258.78216 500.527549,258.229875 L500.527549,253.229875 C500.527549,252.67759 500.079834,252.229875 499.527549,252.229875 C498.975264,252.229875 498.527549,252.67759 498.527549,253.229875 L498.527549,258.229875 Z M498.527549,267.47154 L499.527549,267.47154 L499.527549,266.47154 L498.769214,266.47154 C498.216929,266.47154 497.769214,266.919255 497.769214,267.47154 C497.769214,268.023825 498.216929,268.47154 498.769214,268.47154 L499.527549,268.47154 L500.527549,267.47154 L500.527549,263.229875 C500.527549,262.67759 500.079834,262.229875 499.527549,262.229875 C498.975264,262.229875 498.527549,262.67759 498.527549,263.229875 L498.527549,267.47154 Z M488.769214,266.47154 C488.216929,266.47154 487.769214,266.919255 487.769214,267.47154 C487.769214,268.023825 488.216929,268.47154 488.769214,268.47154 L493.769214,268.47154 C494.321499,268.47154 494.769214,268.023825 494.769214,267.47154 C494.769214,266.919255 494.321499,266.47154 493.769214,266.47154 L488.769214,266.47154 Z M478.769214,266.47154 C478.216929,266.47154 477.769214,266.919255 477.769214,267.47154 C477.769214,268.023825 478.216929,268.47154 478.769214,268.47154 L483.769214,268.47154 C484.321499,268.47154 484.769214,268.023825 484.769214,267.47154 C484.769214,266.919255 484.321499,266.47154 483.769214,266.47154 L478.769214,266.47154 Z M468.769214,266.47154 C468.216929,266.47154 467.769214,266.919255 467.769214,267.47154 C467.769214,268.023825 468.216929,268.47154 468.769214,268.47154 L473.769214,268.47154 C474.321499,268.47154 474.769214,268.023825 474.769214,267.47154 C474.769214,266.919255 474.321499,266.47154 473.769214,266.47154 L468.769214,266.47154 Z M458.769214,266.47154 C458.216929,266.47154 457.769214,266.919255 457.769214,267.47154 C457.769214,268.023825 458.216929,268.47154 458.769214,268.47154 L463.769214,268.47154 C464.321499,268.47154 464.769214,268.023825 464.769214,267.47154 C464.769214,266.919255 464.321499,266.47154 463.769214,266.47154 L458.769214,266.47154 Z M448.769214,266.47154 C448.216929,266.47154 447.769214,266.919255 447.769214,267.47154 C447.769214,268.023825 448.216929,268.47154 448.769214,268.47154 L453.769214,268.47154 C454.321499,268.47154 454.769214,268.023825 454.769214,267.47154 C454.769214,266.919255 454.321499,266.47154 453.769214,266.47154 L448.769214,266.47154 Z M438.769214,266.47154 C438.216929,266.47154 437.769214,266.919255 437.769214,267.47154 C437.769214,268.023825 438.216929,268.47154 438.769214,268.47154 L443.769214,268.47154 C444.321499,268.47154 444.769214,268.023825 444.769214,267.47154 C444.769214,266.919255 444.321499,266.47154 443.769214,266.47154 L438.769214,266.47154 Z" id="Path-9"></path>
                    <path d="M240,6.5 C240,7.05228475 240.447715,7.5 241,7.5 C241.552285,7.5 242,7.05228475 242,6.5 L242,1.5 C242,0.94771525 241.552285,0.5 241,0.5 C240.447715,0.5 240,0.94771525 240,1.5 L240,6.5 Z M240,16.5 C240,17.0522847 240.447715,17.5 241,17.5 C241.552285,17.5 242,17.0522847 242,16.5 L242,11.5 C242,10.9477153 241.552285,10.5 241,10.5 C240.447715,10.5 240,10.9477153 240,11.5 L240,16.5 Z M240,26.5 C240,27.0522847 240.447715,27.5 241,27.5 C241.552285,27.5 242,27.0522847 242,26.5 L242,21.5 C242,20.9477153 241.552285,20.5 241,20.5 C240.447715,20.5 240,20.9477153 240,21.5 L240,26.5 Z M240,36.5 C240,37.0522847 240.447715,37.5 241,37.5 C241.552285,37.5 242,37.0522847 242,36.5 L242,31.5 C242,30.9477153 241.552285,30.5 241,30.5 C240.447715,30.5 240,30.9477153 240,31.5 L240,36.5 Z M240,46.1567862 L241,47.1567862 L241.343214,47.1567862 C241.895499,47.1567862 242.343214,46.7090709 242.343214,46.1567862 C242.343214,45.6045014 241.895499,45.1567862 241.343214,45.1567862 L241,45.1567862 L241,46.1567862 L242,46.1567862 L242,41.5 C242,40.9477153 241.552285,40.5 241,40.5 C240.447715,40.5 240,40.9477153 240,41.5 L240,46.1567862 Z M251.343214,47.1567862 C251.895499,47.1567862 252.343214,46.7090709 252.343214,46.1567862 C252.343214,45.6045014 251.895499,45.1567862 251.343214,45.1567862 L246.343214,45.1567862 C245.790929,45.1567862 245.343214,45.6045014 245.343214,46.1567862 C245.343214,46.7090709 245.790929,47.1567862 246.343214,47.1567862 L251.343214,47.1567862 Z M261.343214,47.1567862 C261.895499,47.1567862 262.343214,46.7090709 262.343214,46.1567862 C262.343214,45.6045014 261.895499,45.1567862 261.343214,45.1567862 L256.343214,45.1567862 C255.790929,45.1567862 255.343214,45.6045014 255.343214,46.1567862 C255.343214,46.7090709 255.790929,47.1567862 256.343214,47.1567862 L261.343214,47.1567862 Z M271.343214,47.1567862 C271.895499,47.1567862 272.343214,46.7090709 272.343214,46.1567862 C272.343214,45.6045014 271.895499,45.1567862 271.343214,45.1567862 L266.343214,45.1567862 C265.790929,45.1567862 265.343214,45.6045014 265.343214,46.1567862 C265.343214,46.7090709 265.790929,47.1567862 266.343214,47.1567862 L271.343214,47.1567862 Z M281.343214,47.1567862 C281.895499,47.1567862 282.343214,46.7090709 282.343214,46.1567862 C282.343214,45.6045014 281.895499,45.1567862 281.343214,45.1567862 L276.343214,45.1567862 C275.790929,45.1567862 275.343214,45.6045014 275.343214,46.1567862 C275.343214,46.7090709 275.790929,47.1567862 276.343214,47.1567862 L281.343214,47.1567862 Z M291.343214,47.1567862 C291.895499,47.1567862 292.343214,46.7090709 292.343214,46.1567862 C292.343214,45.6045014 291.895499,45.1567862 291.343214,45.1567862 L286.343214,45.1567862 C285.790929,45.1567862 285.343214,45.6045014 285.343214,46.1567862 C285.343214,46.7090709 285.790929,47.1567862 286.343214,47.1567862 L291.343214,47.1567862 Z M301.343214,47.1567862 C301.895499,47.1567862 302.343214,46.7090709 302.343214,46.1567862 C302.343214,45.6045014 301.895499,45.1567862 301.343214,45.1567862 L296.343214,45.1567862 C295.790929,45.1567862 295.343214,45.6045014 295.343214,46.1567862 C295.343214,46.7090709 295.790929,47.1567862 296.343214,47.1567862 L301.343214,47.1567862 Z M311.343214,47.1567862 C311.895499,47.1567862 312.343214,46.7090709 312.343214,46.1567862 C312.343214,45.6045014 311.895499,45.1567862 311.343214,45.1567862 L306.343214,45.1567862 C305.790929,45.1567862 305.343214,45.6045014 305.343214,46.1567862 C305.343214,46.7090709 305.790929,47.1567862 306.343214,47.1567862 L311.343214,47.1567862 Z M321.343214,47.1567862 C321.895499,47.1567862 322.343214,46.7090709 322.343214,46.1567862 C322.343214,45.6045014 321.895499,45.1567862 321.343214,45.1567862 L316.343214,45.1567862 C315.790929,45.1567862 315.343214,45.6045014 315.343214,46.1567862 C315.343214,46.7090709 315.790929,47.1567862 316.343214,47.1567862 L321.343214,47.1567862 Z M331.343214,47.1567862 C331.895499,47.1567862 332.343214,46.7090709 332.343214,46.1567862 C332.343214,45.6045014 331.895499,45.1567862 331.343214,45.1567862 L326.343214,45.1567862 C325.790929,45.1567862 325.343214,45.6045014 325.343214,46.1567862 C325.343214,46.7090709 325.790929,47.1567862 326.343214,47.1567862 L331.343214,47.1567862 Z M341.343214,47.1567862 C341.895499,47.1567862 342.343214,46.7090709 342.343214,46.1567862 C342.343214,45.6045014 341.895499,45.1567862 341.343214,45.1567862 L336.343214,45.1567862 C335.790929,45.1567862 335.343214,45.6045014 335.343214,46.1567862 C335.343214,46.7090709 335.790929,47.1567862 336.343214,47.1567862 L341.343214,47.1567862 Z M351.343214,47.1567862 C351.895499,47.1567862 352.343214,46.7090709 352.343214,46.1567862 C352.343214,45.6045014 351.895499,45.1567862 351.343214,45.1567862 L346.343214,45.1567862 C345.790929,45.1567862 345.343214,45.6045014 345.343214,46.1567862 C345.343214,46.7090709 345.790929,47.1567862 346.343214,47.1567862 L351.343214,47.1567862 Z M360.023068,47.1567862 L361.023068,46.1567862 L361.023068,44.8366401 C361.023068,44.2843553 360.575352,43.8366401 360.023068,43.8366401 C359.470783,43.8366401 359.023068,44.2843553 359.023068,44.8366401 L359.023068,46.1567862 L360.023068,45.1567862 L356.343214,45.1567862 C355.790929,45.1567862 355.343214,45.6045014 355.343214,46.1567862 C355.343214,46.7090709 355.790929,47.1567862 356.343214,47.1567862 L360.023068,47.1567862 Z M361.023068,34.8366401 C361.023068,34.2843553 360.575352,33.8366401 360.023068,33.8366401 C359.470783,33.8366401 359.023068,34.2843553 359.023068,34.8366401 L359.023068,39.8366401 C359.023068,40.3889248 359.470783,40.8366401 360.023068,40.8366401 C360.575352,40.8366401 361.023068,40.3889248 361.023068,39.8366401 L361.023068,34.8366401 Z M361.023068,24.8366401 C361.023068,24.2843553 360.575352,23.8366401 360.023068,23.8366401 C359.470783,23.8366401 359.023068,24.2843553 359.023068,24.8366401 L359.023068,29.8366401 C359.023068,30.3889248 359.470783,30.8366401 360.023068,30.8366401 C360.575352,30.8366401 361.023068,30.3889248 361.023068,29.8366401 L361.023068,24.8366401 Z M361.023068,14.8366401 C361.023068,14.2843553 360.575352,13.8366401 360.023068,13.8366401 C359.470783,13.8366401 359.023068,14.2843553 359.023068,14.8366401 L359.023068,19.8366401 C359.023068,20.3889248 359.470783,20.8366401 360.023068,20.8366401 C360.575352,20.8366401 361.023068,20.3889248 361.023068,19.8366401 L361.023068,14.8366401 Z M361.023068,4.8366401 C361.023068,4.28435535 360.575352,3.8366401 360.023068,3.8366401 C359.470783,3.8366401 359.023068,4.28435535 359.023068,4.8366401 L359.023068,9.8366401 C359.023068,10.3889248 359.470783,10.8366401 360.023068,10.8366401 C360.575352,10.8366401 361.023068,10.3889248 361.023068,9.8366401 L361.023068,4.8366401 Z" id="Path-10"></path>
                </g>
            </g>
        </g>
    </g>
</svg>