<?xml version="1.0" encoding="UTF-8"?>
<svg width="46px" height="46px" viewBox="0 0 46 46" version="1.1" xmlns="http://www.w3.org/2000/svg" xmlns:xlink="http://www.w3.org/1999/xlink">
    <!-- Generator: Sketch 40.1 (33804) - http://www.bohemiancoding.com/sketch -->
    <title>Group 2</title>
    <desc>Created with Sketch.</desc>
    <defs>
        <path d="M20.9063827,41.8696049 C32.452659,41.8696049 41.8127654,32.4967746 41.8127654,20.9348024 C41.8127654,9.37283031 32.452659,0 20.9063827,0 C9.36010636,0 0,9.37283031 0,20.9348024 C0,32.4967746 9.36010636,41.8696049 20.9063827,41.8696049 Z" id="path-1"></path>
        <filter x="-50%" y="-50%" width="200%" height="200%" filterUnits="objectBoundingBox" id="filter-2">
            <feOffset dx="0" dy="1" in="SourceAlpha" result="shadowOffsetOuter1"></feOffset>
            <feGaussianBlur stdDeviation="1" in="shadowOffsetOuter1" result="shadowBlurOuter1"></feGaussianBlur>
            <feColorMatrix values="0 0 0 0 0   0 0 0 0 0   0 0 0 0 0  0 0 0 0.124377264 0" type="matrix" in="shadowBlurOuter1"></feColorMatrix>
        </filter>
    </defs>
    <g id="Page-1" stroke="none" stroke-width="1" fill="none" fill-rule="evenodd">
        <g id="A4" transform="translate(-8.000000, -9.000000)">
            <g id="Group-2" transform="translate(10.000000, 10.000000)">
                <g id="Oval-1">
                    <use fill="black" fill-opacity="1" filter="url(#filter-2)" xlink:href="#path-1"></use>
                    <use fill="#FFFFFF" fill-rule="evenodd" xlink:href="#path-1"></use>
                </g>
                <g id="Page-1" transform="translate(7.027356, 9.147981)">
                    <path d="M9.97764442,3.50874902 C10.5661384,3.50874902 11.0428589,3.98416444 11.0428589,4.57104731 C11.0428589,5.15748252 10.5661384,5.63334559 9.97764442,5.63334559 C9.38915043,5.63334559 8.91242989,5.15748252 8.91242989,4.57104731 C8.91242989,3.98416444 9.38915043,3.50874902 9.97764442,3.50874902" id="Fill-2" fill="#589FD7"></path>
                    <path d="M3.69880406,19.4983303 C4.28729805,19.4983303 4.76401859,19.9737457 4.76401859,20.5606286 C4.76401859,21.1470638 4.28729805,21.6229269 3.69880406,21.6229269 C3.11031007,21.6229269 2.63358954,21.1470638 2.63358954,20.5606286 C2.63358954,19.9737457 3.11031007,19.4983303 3.69880406,19.4983303" id="Fill-4" fill="#FDEC58"></path>
                    <path d="M4.46124269,16.4793081 C5.04973668,16.4793081 5.52645722,16.9547236 5.52645722,17.5416064 C5.52645722,18.1280416 5.04973668,18.6039047 4.46124269,18.6039047 C3.8727487,18.6039047 3.39602817,18.1280416 3.39602817,17.5416064 C3.39602817,16.9547236 3.8727487,16.4793081 4.46124269,16.4793081" id="Fill-6" fill="#589FD7"></path>
                    <path d="M7.4668265,10.2870895 L7.4668265,10.2870895 C7.87531584,10.4598864 8.06609384,10.9308253 7.89282253,11.3381963 L6.09367385,15.5650064 C5.92040255,15.9723774 5.44817091,16.1626331 5.03968156,15.9893885 L5.03968156,15.9893885 C4.63074333,15.8165916 4.44041423,15.3456528 4.61368553,14.9382817 L6.41283421,10.7119193 C6.58610551,10.3041006 7.05833715,10.1142926 7.4668265,10.2870895" id="Fill-8" fill="#589FD7"></path>
                    <path d="M9.45818961,5.65420657 L9.45818961,5.65420657 C9.84019449,5.815812 10.0184036,6.25586224 9.8563545,6.63637364 L8.57477529,9.64733793 C8.41227733,10.028297 7.97146795,10.2060182 7.58946308,10.0444128 C7.20745821,9.88280734 7.02969801,9.4427571 7.19174708,9.0622457 L8.47332629,6.05128141 C8.63537536,5.67032235 9.07618474,5.49260114 9.45818961,5.65420657" id="Fill-10" fill="#589FD7"></path>
                    <path d="M1.23211197,20.8401478 C1.82060596,20.8401478 2.2973265,21.3155632 2.2973265,21.9024461 C2.2973265,22.4888813 1.82060596,22.9647444 1.23211197,22.9647444 C0.64361798,22.9647444 0.166897447,22.4888813 0.166897447,21.9024461 C0.166897447,21.3155632 0.64361798,20.8401478 1.23211197,20.8401478" id="Fill-12" fill="#FDEC58"></path>
                    <path d="M20.7413836,5.74508165 C21.3298776,5.74508165 21.8065981,6.22049706 21.8065981,6.80737993 C21.8065981,7.39381514 21.3298776,7.86967822 20.7413836,7.86967822 C20.1528896,7.86967822 19.676169,7.39381514 19.676169,6.80737993 C19.676169,6.22049706 20.1528896,5.74508165 20.7413836,5.74508165" id="Fill-14" fill="#EE5451"></path>
                    <path d="M16.4807499,3.86656403 C17.0692439,3.86656403 17.5459644,4.34197945 17.5459644,4.92886232 C17.5459644,5.51529753 17.0692439,5.99116061 16.4807499,5.99116061 C15.8922559,5.99116061 15.4155354,5.51529753 15.4155354,4.92886232 C15.4155354,4.34197945 15.8922559,3.86656403 16.4807499,3.86656403" id="Fill-16" fill="#26A69A"></path>
                    <path d="M22.9165669,6.70665633 C23.5050609,6.70665633 23.9817814,7.18207174 23.9817814,7.76895462 C23.9817814,8.35538983 23.5050609,8.8312529 22.9165669,8.8312529 C22.3280729,8.8312529 21.8513524,8.35538983 21.8513524,7.76895462 C21.8513524,7.18207174 22.3280729,6.70665633 22.9165669,6.70665633" id="Fill-18" fill="#EE5451"></path>
                    <path d="M8.52005568,0.154294849 C9.10854967,0.154294849 9.5852702,0.629710264 9.5852702,1.21659314 C9.5852702,1.80302835 9.10854967,2.27889142 8.52005568,2.27889142 C7.93156169,2.27889142 7.45484115,1.80302835 7.45484115,1.21659314 C7.45484115,0.629710264 7.93156169,0.154294849 8.52005568,0.154294849" id="Fill-20" fill="#26A69A"></path>
                    <path d="M18.6110443,4.73869615 C19.1995383,4.73869615 19.6762588,5.21411157 19.6762588,5.80099444 C19.6762588,6.38742965 19.1995383,6.86329273 18.6110443,6.86329273 C18.0225503,6.86329273 17.5458298,6.38742965 17.5458298,5.80099444 C17.5458298,5.21411157 18.0225503,4.73869615 18.6110443,4.73869615" id="Fill-22" fill="#26A69A"></path>
                    <path d="M9.58980398,1.8957836 L9.77564419,1.4982611 C9.91255546,1.2050435 10.2622403,1.07835558 10.5562628,1.21489203 L15.1968814,3.37306313 C15.4909039,3.50959958 15.6179396,3.85832708 15.4810283,4.15154468 L15.2951881,4.54906718 C15.1582769,4.84228478 14.808592,4.9689727 14.5145695,4.83243625 L9.87395097,2.67426515 C9.57992842,2.5377287 9.45289272,2.1890012 9.58980398,1.8957836" id="Fill-24" fill="#26A69A"></path>
                    <path d="M6.23273979,18.2683832 C6.82123378,18.2683832 7.29795431,18.7437986 7.29795431,19.3306815 C7.29795431,19.9171167 6.82123378,20.3929798 6.23273979,20.3929798 C5.64424579,20.3929798 5.16752526,19.9171167 5.16752526,19.3306815 C5.16752526,18.7437986 5.64424579,18.2683832 6.23273979,18.2683832" id="Fill-26" fill="#FDEC58"></path>
                    <path d="M16.6519563,12.9748429 C16.9383478,12.823086 17.2938682,12.9314199 17.4460417,13.2170273 L17.6736286,13.6440953 C17.8258021,13.9297027 17.7185175,14.2833545 17.4294328,14.436902 L15.8677466,15.2650739 L10.8819321,17.9085089 C10.5959896,18.0602658 10.240918,17.9514843 10.0882957,17.665877 L9.86115762,17.2392565 C9.70853523,16.9536492 9.81626868,16.5995497 10.1035579,16.4473452 L16.6519563,12.9748429 Z" id="Fill-28" fill="#EE5451"></path>
                    <path d="M27.7681634,7.70847569 L27.9957503,8.13509611 C28.1479238,8.42070349 28.0392926,8.77569824 27.7529012,8.92745514 L18.9555669,13.5920772 C18.6691755,13.7438341 18.3136551,13.6355003 18.1614816,13.3498929 L17.9338946,12.9232725 C17.7817211,12.6376651 17.8903524,12.2826703 18.1767438,12.1309134 L26.9736292,7.46629137 C27.2600206,7.31453448 27.6159899,7.42286831 27.7681634,7.70847569" id="Fill-30" fill="#775BA7"></path>
                    <path d="M8.52005568,17.0383913 C9.10854967,17.0383913 9.5852702,17.5138067 9.5852702,18.1006896 C9.5852702,18.6871248 9.10854967,19.1629879 8.52005568,19.1629879 C7.93156169,19.1629879 7.45484115,18.6871248 7.45484115,18.1006896 C7.45484115,17.5138067 7.93156169,17.0383913 8.52005568,17.0383913" id="Fill-32" fill="#FDEC58"></path>
                    <path d="M29.2626958,6.08051363 C29.8511898,6.08051363 30.3279103,6.55592905 30.3279103,7.14281192 C30.3279103,7.72924713 29.8511898,8.20511021 29.2626958,8.20511021 C28.6742018,8.20511021 28.1974812,7.72924713 28.1974812,7.14281192 C28.1974812,6.55592905 28.6742018,6.08051363 29.2626958,6.08051363" id="Fill-34" fill="#775BA7"></path>
                </g>
            </g>
        </g>
    </g>
</svg>