<?xml version="1.0" encoding="UTF-8"?>
<svg width="126px" height="73px" viewBox="0 0 126 73" version="1.1" xmlns="http://www.w3.org/2000/svg" xmlns:xlink="http://www.w3.org/1999/xlink">
    <!-- Generator: Sketch 40.1 (33804) - http://www.bohemiancoding.com/sketch -->
    <title>Group 7</title>
    <desc>Created with Sketch.</desc>
    <defs></defs>
    <g id="Page-1" stroke="none" stroke-width="1" fill="none" fill-rule="evenodd">
        <g id="A4" transform="translate(-235.000000, -62.000000)" fill="#001B24">
            <g id="Group-9" transform="translate(0.000000, 9.000000)">
                <g id="Group-7" transform="translate(235.000000, 53.000000)">
                    <g id="Group-3" transform="translate(0.000000, 36.906250)">
                        <g id="Group-5">
                            <g id="Group-4">
                                <g id="Group-2">
                                    <g id="Main-Logo-Unit">
                                        <g id="Group-Copy">
                                            <path d="M12.1023044,7.84621293 C13.1426775,8.30062906 14.0610177,8.92381903 14.8573527,9.71580143 C15.6536876,10.5077839 16.2766177,11.4295856 16.7261617,12.4812345 C17.1757056,13.5328833 17.4004742,14.6689066 17.4004742,15.8893385 C17.4004742,17.0838038 17.1757056,18.2133356 16.7261617,19.2779677 C16.2766177,20.3425998 15.6536876,21.2773847 14.8573527,22.0823505 C14.0610177,22.8873162 13.1426775,23.5169977 12.1023044,23.9714139 C11.0619312,24.42583 9.93808829,24.6530347 8.73074173,24.6530347 L3.52890222,24.6530347 L3.52890222,33.8278672 L0.0995413729,33.8278672 L0.0995413729,15.8893385 C0.0995413729,14.6689066 0.324309967,13.5328833 0.773853897,12.4812345 C1.22339783,11.4295856 1.83990597,10.5077839 2.62339683,9.71580143 C3.40688768,8.92381903 4.32522794,8.30062906 5.37844516,7.84621293 C6.43166236,7.39179675 7.5490834,7.16459212 8.73074173,7.16459212 C9.93808829,7.16459212 11.0619312,7.39179675 12.1023044,7.84621293 L12.1023044,7.84621293 Z M8.73074173,21.186506 C9.45001202,21.186506 10.1307397,21.0501832 10.7729454,20.7775335 C11.415151,20.5048838 11.9738615,20.1283732 12.4490936,19.6479904 C12.9243258,19.1676077 13.2967995,18.6028418 13.5665258,17.9536758 C13.8362522,17.3045099 13.9711134,16.6164044 13.9711134,15.8893385 C13.9711134,15.1622727 13.8362522,14.4806587 13.5665258,13.8444761 C13.2967995,13.2082935 12.9243258,12.6500191 12.4490936,12.1696364 C11.9738615,11.6892536 11.415151,11.312743 10.7729454,11.0400933 C10.1307397,10.7674436 9.45001202,10.6311208 8.73074173,10.6311208 C8.01147143,10.6311208 7.33716564,10.7674436 6.70780415,11.0400933 C6.0784426,11.312743 5.52615408,11.6892536 5.05092192,12.1696364 C4.57568977,12.6500191 4.2032161,13.2082935 3.93348974,13.8444761 C3.66376338,14.4806587 3.52890222,15.1622727 3.52890222,15.8893385 L3.52890222,21.186506 L8.73074173,21.186506 L8.73074173,21.186506 Z M18.5564385,0.0757356459 L21.9857994,0.0757356459 L21.9857994,24.5751352 L18.5564385,24.5751352 L18.5564385,0.0757356459 L18.5564385,0.0757356459 Z M23.2958923,7.08669256 L26.686721,7.08669256 L26.686721,24.5751352 L23.2958923,24.5751352 L23.2958923,7.08669256 L23.2958923,7.08669256 Z M27.8041532,15.8503888 C27.8041532,14.6299568 28.0289218,13.4939335 28.4784657,12.4422847 C28.9280096,11.3906359 29.5445178,10.4688341 30.3280086,9.67685167 C31.1114995,8.88486927 32.0298397,8.2616793 33.0830569,7.80726318 C34.1362741,7.35284699 35.2536952,7.12564237 36.4353535,7.12564237 C37.6427001,7.12564237 38.766543,7.35284699 39.8069161,7.80726318 C40.8472893,8.2616793 41.7656295,8.88486927 42.5619645,9.67685167 C43.3582994,10.4688341 43.9812295,11.3906359 44.4307735,12.4422847 C44.8803174,13.4939335 45.105086,14.6299568 45.105086,15.8503888 L45.105086,24.6140849 L41.6757251,24.6140849 L41.6757251,15.8503888 C41.6757251,15.1233229 41.540864,14.4417089 41.2711376,13.8055263 C41.0014112,13.1693437 40.6289376,12.6110694 40.1537055,12.1306866 C39.6784733,11.6503038 39.1197628,11.2737932 38.4775571,11.0011435 C37.8353516,10.7284939 37.1546238,10.5921711 36.4353535,10.5921711 C35.7160832,10.5921711 35.0417774,10.7284939 34.4124159,11.0011435 C33.7830544,11.2737932 33.2307659,11.6503038 32.7555337,12.1306866 C32.2803016,12.6110694 31.9078279,13.1693437 31.6381015,13.8055263 C31.3683752,14.4417089 31.233514,15.1233229 31.233514,15.8503888 L31.233514,24.6140849 L27.8041532,24.6140849 L27.8041532,15.8503888 L27.8041532,15.8503888 Z M56.6261973,21.1086064 L56.6261973,24.5751352 L54.9307826,24.5751352 C53.7491247,24.5751352 52.6317033,24.3479305 51.5784862,23.8935143 C50.525269,23.4390982 49.6005068,22.8094167 48.8041718,22.0044509 C48.0078369,21.1994852 47.3849068,20.2647003 46.9353628,19.2000682 C46.4858189,18.1354361 46.2610503,17.0059043 46.2610503,15.811439 L46.2610503,0.0757356459 L49.6904112,0.0757356459 L49.6904112,10.5921711 L56.6261973,10.5921711 L56.6261973,14.0586998 L49.6904112,14.0586998 L49.6904112,15.811439 C49.6904112,16.5385048 49.8252723,17.2266104 50.0949987,17.8757763 C50.3647251,18.5249423 50.7371987,19.0897081 51.2124309,19.5700909 C51.687663,20.0504737 52.2463735,20.4269843 52.8885793,20.699634 C53.530785,20.9722837 54.2115127,21.1086064 54.9307826,21.1086064 L56.6261973,21.1086064 L56.6261973,21.1086064 Z M66.5289583,7.08669256 C67.7363048,7.08669256 68.8601477,7.31389724 69.9005207,7.76831342 C70.9408941,8.22272955 71.859234,8.84591946 72.6555692,9.63790192 C73.4519043,10.4298843 74.0748344,11.3516861 74.5243784,12.4033349 C74.9739219,13.4549838 75.198691,14.591007 75.198691,15.811439 L75.198691,24.5751352 L71.7693299,24.5751352 L71.7693299,15.811439 C71.7693299,15.0843731 71.6344686,14.4027592 71.3647422,13.7665766 C71.0950158,13.1303939 70.7225423,12.5721196 70.2473102,12.0917369 C69.7720782,11.6113541 69.2133677,11.2348435 68.5711621,10.9621938 C67.9289565,10.6895441 67.2482287,10.5532213 66.5289583,10.5532213 C65.8096879,10.5532213 65.1353822,10.6895441 64.5060206,10.9621938 C63.876659,11.2348435 63.3243705,11.6113541 62.8491385,12.0917369 C62.3739064,12.5721196 62.0014324,13.1303939 61.7317065,13.7665766 C61.4619801,14.4027592 61.3271188,15.0843731 61.3271188,15.811439 L61.3271188,24.5751352 L57.8977577,24.5751352 L57.8977577,0.0757356459 L61.3271188,0.0757356459 L61.3271188,8.8783816 C62.0463892,8.30711556 62.8491343,7.86568938 63.7353777,7.55408974 C64.6216217,7.24249009 65.5528055,7.08669256 66.5289583,7.08669256 L66.5289583,7.08669256 L66.5289583,7.08669256 Z" id="plinth"></path>
                                        </g>
                                        <text id="2017" font-family="HelveticaNeue, Helvetica Neue" font-size="19.1160015" font-weight="normal">
                                            <tspan x="82.5854922" y="23.9506579">2017</tspan>
                                        </text>
                                        <path d="M6.94120775,27.487672 L6.94120775,33.8094878 L6.57154656,33.8094878 L6.57154656,27.487672 L4.89637306,27.487672 L4.89637306,27.1085526 L8.61638126,27.1085526 L8.61638126,27.487672 L6.94120775,27.487672 Z M9.09834458,31.0324383 L12.6639373,31.0324383 C12.5765908,30.744938 12.4284159,30.4953535 12.2194081,30.2836775 C11.8513048,29.9108749 11.4083397,29.7244764 10.8904995,29.7244764 C10.3726593,29.7244764 9.92969417,29.9108749 9.56159089,30.2836775 C9.34322453,30.5079909 9.18881064,30.7575754 9.09834458,31.0324383 L9.09834458,31.0324383 Z M9.02815575,31.4162967 C9.01879719,31.4826429 9.01411798,31.5537271 9.01411798,31.6295513 C9.01411798,32.1540024 9.19738699,32.6010429 9.56393052,32.9706861 C9.93047404,33.3403294 10.3726593,33.5251483 10.8904995,33.5251483 C11.4083397,33.5251483 11.8513048,33.3387498 12.2194081,32.9659472 C12.2817985,32.9027603 12.3410684,32.836415 12.3972198,32.7669095 L12.7949565,32.9090792 C12.7481637,32.9880628 12.6499003,33.1017975 12.5001634,33.2502867 C12.0571917,33.7020729 11.5206424,33.9279626 10.8904995,33.9279626 C10.2665956,33.9279626 9.73238594,33.7028627 9.28785444,33.2526562 C8.84332293,32.8024497 8.62106051,32.2614201 8.62106051,31.6295513 C8.62106051,30.9913638 8.84332293,30.4479648 9.28785444,29.999338 C9.73238594,29.5507111 10.2665956,29.326401 10.8904995,29.326401 C11.5206424,29.326401 12.0571917,29.5507111 12.5001634,29.999338 C12.8901033,30.3974153 13.0850704,30.8697301 13.0850704,31.4162967 L9.02815575,31.4162967 Z M17.2262116,32.8190384 L17.619269,32.9659472 C17.5475201,33.0638868 17.4664138,33.1586657 17.3759477,33.2502867 C16.932976,33.7020729 16.3964267,33.9279626 15.7662838,33.9279626 C15.1423799,33.9279626 14.6081703,33.7028627 14.1636388,33.2526562 C13.7191073,32.8024497 13.4968448,32.2598405 13.4968448,31.6248123 C13.4968448,30.9897842 13.7191073,30.4479648 14.1636388,29.999338 C14.6081703,29.5507111 15.1423799,29.326401 15.7662838,29.326401 C16.3964267,29.326401 16.932976,29.5507111 17.3759477,29.999338 C17.4664138,30.0909589 17.5475201,30.1857378 17.619269,30.2836775 L17.2262116,30.4305863 C17.1856578,30.3800368 17.1419852,30.329488 17.0951924,30.2789385 C16.7270891,29.9092953 16.284124,29.7244764 15.7662838,29.7244764 C15.2515631,29.7244764 14.8109376,29.9100851 14.4443941,30.281308 C14.0778506,30.6525309 13.8945816,31.1003612 13.8945816,31.6248123 C13.8945816,32.1492634 14.0778506,32.5970937 14.4443941,32.9683167 C14.8109376,33.3395396 15.2515631,33.5251483 15.7662838,33.5251483 C16.284124,33.5251483 16.7270891,33.3387498 17.0951924,32.9659472 C17.1419852,32.918557 17.1856578,32.8695879 17.2262116,32.8190384 L17.2262116,32.8190384 Z M18.3024403,27.1085526 L18.6767808,27.1085526 L18.6767808,29.9092971 C18.9887327,29.6028407 19.3661889,29.4496148 19.8091606,29.4496148 C20.2864471,29.4496148 20.6756013,29.6020509 20.9766349,29.9069276 C21.2776685,30.2118043 21.4328623,30.594869 21.4422208,31.0561332 L21.4422208,33.8094878 L21.0678804,33.8094878 L21.0678804,31.0940452 C21.0678804,30.743358 20.9431015,30.4448045 20.69354,30.1983756 C20.4439784,29.9519468 20.1491883,29.8287342 19.8091606,29.8287342 C19.4660135,29.8287342 19.1712234,29.9503672 18.9247813,30.1936366 C18.8124786,30.3042137 18.7298126,30.419528 18.6767808,30.5395831 L18.6767808,33.8094878 L18.3024403,33.8094878 L18.3024403,27.1085526 Z M22.7196576,30.615407 L22.7196576,33.8094878 L22.3453172,33.8094878 L22.3453172,29.6960424 L22.7196576,29.6960424 L22.7196576,29.961426 C23.0565657,29.6202169 23.4496193,29.4496148 23.89883,29.4496148 C24.379236,29.4496148 24.7699499,29.6020509 25.0709836,29.9069276 C25.3720172,30.2118043 25.5256512,30.594869 25.5318902,31.0561332 L25.5318902,33.8094878 L25.162229,33.8094878 L25.162229,31.0940452 C25.162229,30.743358 25.0374501,30.4448045 24.7878886,30.1983756 C24.5383271,29.9519468 24.2419772,29.8287342 23.89883,29.8287342 C23.5588024,29.8287342 23.2640123,29.9503672 23.0144507,30.1936366 C22.8803114,30.3294884 22.782048,30.4700771 22.7196576,30.615407 L22.7196576,30.615407 Z M28.6014819,29.326401 C29.2316248,29.326401 29.7673942,29.5507111 30.2088062,29.999338 C30.6502182,30.4479648 30.8709209,30.9913638 30.8709209,31.6295513 C30.8709209,32.2614201 30.6502182,32.8024497 30.2088062,33.2526562 C29.7673942,33.7028627 29.2316248,33.9279626 28.6014819,33.9279626 C27.977578,33.9279626 27.4433684,33.7028627 26.9988369,33.2526562 C26.5543054,32.8024497 26.3320429,32.2614201 26.3320429,31.6295513 C26.3320429,30.9913638 26.5543054,30.4479648 26.9988369,29.999338 C27.4433684,29.5507111 27.977578,29.326401 28.6014819,29.326401 L28.6014819,29.326401 Z M27.274913,30.2836775 C26.9083694,30.6564801 26.7251004,31.1051002 26.7251004,31.6295513 C26.7251004,32.1540024 26.9083694,32.6010429 27.274913,32.9706861 C27.6414565,33.3403294 28.0836417,33.5251483 28.6014819,33.5251483 C29.1193221,33.5251483 29.5615074,33.3403294 29.9280509,32.9706861 C30.2945944,32.6010429 30.4778634,32.1540024 30.4778634,31.6295513 C30.4778634,31.1051002 30.2945944,30.6564801 29.9280509,30.2836775 C29.5615074,29.9108749 29.1193221,29.7244764 28.6014819,29.7244764 C28.0836417,29.7244764 27.6414565,29.9108749 27.274913,30.2836775 L27.274913,30.2836775 Z M31.4324315,31.1414351 L33.7720593,31.1414351 L33.7720593,31.5205545 L31.4324315,31.5205545 L31.4324315,31.1414351 Z M40.3089794,27.1085526 L40.3089794,33.8094878 L39.934639,33.8094878 L39.934639,27.516106 L37.3750862,30.9139635 L34.8108541,27.516106 L34.8108541,33.8094878 L34.4365136,33.8094878 L34.4365136,27.1085526 L34.9793073,27.1085526 L37.3750862,30.2836775 L39.7661858,27.1085526 L40.3089794,27.1085526 Z M45.5778212,33.8094878 L45.2034808,33.8094878 L45.2034808,32.9706861 C45.1317318,33.0686258 45.053745,33.1618251 44.969518,33.2502867 C44.5265462,33.7020729 43.989997,33.9279626 43.3598541,33.9279626 C42.7359502,33.9279626 42.2017405,33.7028627 41.757209,33.2526562 C41.3126775,32.8024497 41.0904151,32.2614201 41.0904151,31.6295513 C41.0904151,30.9913638 41.3126775,30.4479648 41.757209,29.999338 C42.2017405,29.5507111 42.7359502,29.326401 43.3598541,29.326401 C43.989997,29.326401 44.5265462,29.5507111 44.969518,29.999338 C45.053745,30.0877996 45.1317318,30.1809988 45.2034808,30.2789385 L45.2034808,29.6960424 L45.5778212,29.6960424 L45.5778212,33.8094878 Z M45.2034808,31.9991927 L45.2034808,31.2551709 C45.1348513,30.8855277 44.9632804,30.5616998 44.6887627,30.2836775 C44.3206594,29.9108749 43.8776943,29.7244764 43.3598541,29.7244764 C42.8420139,29.7244764 42.3998286,29.9108749 42.0332851,30.2836775 C41.6667416,30.6564801 41.4834726,31.1051002 41.4834726,31.6295513 C41.4834726,32.1540024 41.6667416,32.6010429 42.0332851,32.9706861 C42.3998286,33.3403294 42.8420139,33.5251483 43.3598541,33.5251483 C43.8776943,33.5251483 44.3206594,33.3387498 44.6887627,32.9659472 C44.9632804,32.6879249 45.1348513,32.3656766 45.2034808,31.9991927 L45.2034808,31.9991927 Z M46.8318617,30.615407 L46.8318617,33.8094878 L46.4575213,33.8094878 L46.4575213,29.6960424 L46.8318617,29.6960424 L46.8318617,29.961426 C47.1687698,29.6202169 47.5618233,29.4496148 48.0110341,29.4496148 C48.4914401,29.4496148 48.882154,29.6020509 49.1831877,29.9069276 C49.4842213,30.2118043 49.6378553,30.594869 49.6440943,31.0561332 L49.6440943,33.8094878 L49.2744331,33.8094878 L49.2744331,31.0940452 C49.2744331,30.743358 49.1496542,30.4448045 48.9000927,30.1983756 C48.6505311,29.9519468 48.3541813,29.8287342 48.0110341,29.8287342 C47.6710065,29.8287342 47.3762164,29.9503672 47.1266548,30.1936366 C46.9925155,30.3294884 46.8942521,30.4700771 46.8318617,30.615407 L46.8318617,30.615407 Z M54.9410117,33.8094878 L54.5666712,33.8094878 L54.5666712,32.9706861 C54.4949223,33.0686258 54.4169355,33.1618251 54.3327084,33.2502867 C53.8897367,33.7020729 53.3531874,33.9279626 52.7230445,33.9279626 C52.0991407,33.9279626 51.564931,33.7028627 51.1203995,33.2526562 C50.675868,32.8024497 50.4536056,32.2614201 50.4536056,31.6295513 C50.4536056,30.9913638 50.675868,30.4479648 51.1203995,29.999338 C51.564931,29.5507111 52.0991407,29.326401 52.7230445,29.326401 C53.3531874,29.326401 53.8897367,29.5507111 54.3327084,29.999338 C54.4169355,30.0877996 54.4949223,30.1809988 54.5666712,30.2789385 L54.5666712,29.6960424 L54.9410117,29.6960424 L54.9410117,33.8094878 Z M54.5666712,31.9991927 L54.5666712,31.2551709 C54.4980418,30.8855277 54.3264708,30.5616998 54.0519531,30.2836775 C53.6838498,29.9108749 53.2408847,29.7244764 52.7230445,29.7244764 C52.2052043,29.7244764 51.7630191,29.9108749 51.3964756,30.2836775 C51.029932,30.6564801 50.846663,31.1051002 50.846663,31.6295513 C50.846663,32.1540024 51.029932,32.6010429 51.3964756,32.9706861 C51.7630191,33.3403294 52.2052043,33.5251483 52.7230445,33.5251483 C53.2408847,33.5251483 53.6838498,33.3387498 54.0519531,32.9659472 C54.3264708,32.6879249 54.4980418,32.3656766 54.5666712,31.9991927 L54.5666712,31.9991927 Z M59.7091731,31.236215 C59.6374242,30.8760497 59.4674129,30.5585404 59.1991343,30.2836775 C58.831031,29.9108749 58.3880659,29.7244764 57.8702257,29.7244764 C57.3523855,29.7244764 56.9102002,29.9108749 56.5436567,30.2836775 C56.1771132,30.6564801 55.9938442,31.1051002 55.9938442,31.6295513 C55.9938442,32.1540024 56.1771132,32.6018327 56.5436567,32.9730556 C56.9102002,33.3442786 57.3523855,33.5298872 57.8702257,33.5298872 C58.3880659,33.5298872 58.831031,33.3434887 59.1991343,32.9706861 C59.4642934,32.7021419 59.6343047,32.3877919 59.7091731,32.0276267 L59.7091731,31.236215 Z M59.7044939,32.9943811 C59.6327449,33.0828427 59.5578776,33.1681438 59.4798896,33.2502867 C59.0369179,33.7020729 58.5003686,33.9279626 57.8702257,33.9279626 C57.2463218,33.9279626 56.7121121,33.7028627 56.2675806,33.2526562 C55.8230491,32.8024497 55.6007867,32.2614201 55.6007867,31.6295513 C55.6007867,30.9913638 55.8230491,30.4487546 56.2675806,30.0017075 C56.7121121,29.5546603 57.2463218,29.33114 57.8702257,29.33114 C58.5003686,29.33114 59.0369179,29.5538704 59.4798896,29.999338 C59.5641166,30.0877996 59.6421034,30.1809988 59.7138524,30.2789385 L59.7138524,29.6960424 L60.0881928,29.6960424 L60.0881928,32.8901233 C60.0881928,33.5093547 59.8713895,34.0369572 59.4377763,34.4729467 C58.9948046,34.9247329 58.459815,35.1506226 57.8327916,35.1506226 C57.2057682,35.1506226 56.669219,34.9247329 56.2231277,34.4729467 C56.1326616,34.3813257 56.0515554,34.2865468 55.9798064,34.1886072 L56.3728639,34.0416984 C56.4134176,34.0922479 56.45865,34.141217 56.5085623,34.1886072 C56.8735461,34.5614098 57.3149514,34.7478083 57.8327916,34.7478083 C58.3475123,34.7478083 58.7889177,34.5614098 59.157021,34.1886072 C59.4908095,33.8505574 59.6732987,33.452486 59.7044939,32.9943811 L59.7044939,32.9943811 Z M61.1457046,31.0324383 L64.7112974,31.0324383 C64.6239508,30.744938 64.4757759,30.4953535 64.2667681,30.2836775 C63.8986648,29.9108749 63.4556997,29.7244764 62.9378595,29.7244764 C62.4200193,29.7244764 61.9770542,29.9108749 61.6089509,30.2836775 C61.3905845,30.5079909 61.2361707,30.7575754 61.1457046,31.0324383 L61.1457046,31.0324383 Z M61.0755158,31.4162967 C61.0661572,31.4826429 61.061478,31.5537271 61.061478,31.6295513 C61.061478,32.1540024 61.244747,32.6010429 61.6112905,32.9706861 C61.977834,33.3403294 62.4200193,33.5251483 62.9378595,33.5251483 C63.4556997,33.5251483 63.8986648,33.3387498 64.2667681,32.9659472 C64.3291585,32.9027603 64.3884284,32.836415 64.4445798,32.7669095 L64.8423165,32.9090792 C64.7955237,32.9880628 64.6972603,33.1017975 64.5475234,33.2502867 C64.1045517,33.7020729 63.5680024,33.9279626 62.9378595,33.9279626 C62.3139556,33.9279626 61.7797459,33.7028627 61.3352144,33.2526562 C60.8906829,32.8024497 60.6684205,32.2614201 60.6684205,31.6295513 C60.6684205,30.9913638 60.8906829,30.4479648 61.3352144,29.999338 C61.7797459,29.5507111 62.3139556,29.326401 62.9378595,29.326401 C63.5680024,29.326401 64.1045517,29.5507111 64.5475234,29.999338 C64.9374633,30.3974153 65.1324304,30.8697301 65.1324304,31.4162967 L61.0755158,31.4162967 Z M65.7641299,29.6960424 L66.1384703,29.6960424 L66.1384703,29.7955613 C66.3693147,29.5680885 66.6453881,29.4543538 66.9666986,29.4543538 C67.3004871,29.4543538 67.5843591,29.5728275 67.8183231,29.8097783 C67.8807135,29.8729651 67.9353042,29.9424697 67.982097,30.0182939 C68.0320093,29.945629 68.0897196,29.8761245 68.1552295,29.8097783 C68.3891934,29.5728275 68.6730654,29.4543538 69.006854,29.4543538 C69.3406426,29.4543538 69.6245146,29.5728275 69.8584785,29.8097783 C70.0799644,30.0404104 70.1969446,30.3152692 70.2094227,30.6343629 L70.2094227,33.8094878 L69.8350822,33.8094878 L69.8350822,30.6343629 L69.8397615,30.6343629 C69.8304029,30.4163682 69.7492966,30.2315493 69.5964402,30.0799008 C69.4311057,29.9156149 69.2345789,29.8334732 69.006854,29.8334732 C68.7760096,29.8334732 68.5787029,29.9156149 68.4149282,30.0799008 C68.2511534,30.2441867 68.1692672,30.449541 68.1692672,30.6959698 L68.1692672,33.8094878 L67.7996061,33.8094878 L67.7996061,30.6343629 L67.8042853,30.6343629 C67.7918072,30.4163682 67.7091412,30.2315493 67.5562848,30.0799008 C67.3909502,29.9156149 67.1944235,29.8334732 66.9666986,29.8334732 C66.7389736,29.8334732 66.5440066,29.9156149 66.3817916,30.0799008 C66.2382937,30.2220713 66.1571874,30.3958326 66.1384703,30.60119 L66.1384703,33.8094878 L65.7641299,33.8094878 L65.7641299,29.6960424 Z M71.3932743,31.0324383 L74.9588671,31.0324383 C74.8715206,30.744938 74.7233456,30.4953535 74.5143378,30.2836775 C74.1462346,29.9108749 73.7032695,29.7244764 73.1854292,29.7244764 C72.667589,29.7244764 72.2246239,29.9108749 71.8565207,30.2836775 C71.6381543,30.5079909 71.4837404,30.7575754 71.3932743,31.0324383 L71.3932743,31.0324383 Z M71.3230855,31.4162967 C71.313727,31.4826429 71.3090477,31.5537271 71.3090477,31.6295513 C71.3090477,32.1540024 71.4923168,32.6010429 71.8588603,32.9706861 C72.2254038,33.3403294 72.667589,33.5251483 73.1854292,33.5251483 C73.7032695,33.5251483 74.1462346,33.3387498 74.5143378,32.9659472 C74.5767282,32.9027603 74.6359982,32.836415 74.6921495,32.7669095 L75.0898863,32.9090792 C75.0430935,32.9880628 74.9448301,33.1017975 74.7950932,33.2502867 C74.3521214,33.7020729 73.8155721,33.9279626 73.1854292,33.9279626 C72.5615254,33.9279626 72.0273157,33.7028627 71.5827842,33.2526562 C71.1382527,32.8024497 70.9159903,32.2614201 70.9159903,31.6295513 C70.9159903,30.9913638 71.1382527,30.4479648 71.5827842,29.999338 C72.0273157,29.5507111 72.5615254,29.326401 73.1854292,29.326401 C73.8155721,29.326401 74.3521214,29.5507111 74.7950932,29.999338 C75.1850331,30.3974153 75.3800001,30.8697301 75.3800001,31.4162967 L71.3230855,31.4162967 Z M76.3860401,30.615407 L76.3860401,33.8094878 L76.0116996,33.8094878 L76.0116996,29.6960424 L76.3860401,29.6960424 L76.3860401,29.961426 C76.7229482,29.6202169 77.1160017,29.4496148 77.5652125,29.4496148 C78.0456185,29.4496148 78.4363324,29.6020509 78.737366,29.9069276 C79.0383996,30.2118043 79.1920336,30.594869 79.1982727,31.0561332 L79.1982727,33.8094878 L78.8286115,33.8094878 L78.8286115,31.0940452 C78.8286115,30.743358 78.7038326,30.4448045 78.454271,30.1983756 C78.2047095,29.9519468 77.9083596,29.8287342 77.5652125,29.8287342 C77.2251849,29.8287342 76.9303947,29.9503672 76.6808332,30.1936366 C76.5466938,30.3294884 76.4484305,30.4700771 76.3860401,30.615407 L76.3860401,30.615407 Z M80.6394834,29.6960424 L80.6394834,27.9473543 L81.0091446,27.9473543 L81.0091446,29.6960424 L81.8373728,29.6960424 L81.8373728,30.0751618 L81.0091446,30.0751618 L81.0091446,33.8094878 L80.6394834,33.8094878 L80.6394834,30.0751618 L79.8112552,30.0751618 L79.8112552,29.6960424 L80.6394834,29.6960424 Z M84.8882475,33.8094878 L84.8882475,27.1085526 L85.2625879,27.1085526 L85.2625879,33.4303684 L87.7847067,33.4303684 L87.7847067,33.8094878 L84.8882475,33.8094878 Z M88.9545206,29.6960424 L88.9545206,33.8094878 L88.5848594,33.8094878 L88.5848594,29.6960424 L88.9545206,29.6960424 Z M89.0317283,28.3501686 C89.105037,28.4228335 89.1416908,28.5097142 89.1416908,28.6108132 C89.1416908,28.7182309 89.105037,28.8082709 89.0317283,28.8809358 C88.9584196,28.9536007 88.8718543,28.9899326 88.7720296,28.9899326 C88.6690855,28.9899326 88.5809604,28.9536007 88.5076517,28.8809358 C88.434343,28.8082709 88.3976892,28.7182309 88.3976892,28.6108132 C88.3976892,28.5097142 88.434343,28.4228335 88.5076517,28.3501686 C88.5809604,28.2775037 88.6690855,28.2411718 88.7720296,28.2411718 C88.8718543,28.2411718 88.9584196,28.2775037 89.0317283,28.3501686 L89.0317283,28.3501686 Z M90.4893164,29.6960424 L90.4893164,27.9473543 L90.8589776,27.9473543 L90.8589776,29.6960424 L91.6872059,29.6960424 L91.6872059,30.0751618 L90.8589776,30.0751618 L90.8589776,33.8094878 L90.4893164,33.8094878 L90.4893164,30.0751618 L89.6610882,30.0751618 L89.6610882,29.6960424 L90.4893164,29.6960424 Z M92.5575474,31.0324383 L96.1231402,31.0324383 C96.0357936,30.744938 95.8876187,30.4953535 95.6786109,30.2836775 C95.3105076,29.9108749 94.8675425,29.7244764 94.3497023,29.7244764 C93.8318621,29.7244764 93.388897,29.9108749 93.0207937,30.2836775 C92.8024274,30.5079909 92.6480135,30.7575754 92.5575474,31.0324383 L92.5575474,31.0324383 Z M92.4873586,31.4162967 C92.478,31.4826429 92.4733208,31.5537271 92.4733208,31.6295513 C92.4733208,32.1540024 92.6565898,32.6010429 93.0231333,32.9706861 C93.3896769,33.3403294 93.8318621,33.5251483 94.3497023,33.5251483 C94.8675425,33.5251483 95.3105076,33.3387498 95.6786109,32.9659472 C95.7410013,32.9027603 95.8002713,32.836415 95.8564226,32.7669095 L96.2541593,32.9090792 C96.2073665,32.9880628 96.1091032,33.1017975 95.9593662,33.2502867 C95.5163945,33.7020729 94.9798452,33.9279626 94.3497023,33.9279626 C93.7257984,33.9279626 93.1915888,33.7028627 92.7470573,33.2526562 C92.3025258,32.8024497 92.0802633,32.2614201 92.0802633,31.6295513 C92.0802633,30.9913638 92.3025258,30.4479648 92.7470573,29.999338 C93.1915888,29.5507111 93.7257984,29.326401 94.3497023,29.326401 C94.9798452,29.326401 95.5163945,29.5507111 95.9593662,29.999338 C96.3493062,30.3974153 96.5442732,30.8697301 96.5442732,31.4162967 L92.4873586,31.4162967 Z M98.6125042,30.0277719 C98.347345,30.0688434 98.0868691,30.2394454 97.8310685,30.5395831 C97.5752679,30.8397208 97.4473695,31.1430132 97.4473695,31.4494696 L97.4473695,33.8094878 L97.0730291,33.8094878 L97.0730291,29.6960424 L97.4473695,29.6960424 L97.4473695,30.586973 C97.6033455,30.1730989 97.9230914,29.8650675 98.4066169,29.6628695 L98.6125042,30.0277719 Z M103.446175,33.8094878 L103.071835,33.8094878 L103.071835,32.9706861 C103.000086,33.0686258 102.922099,33.1618251 102.837872,33.2502867 C102.3949,33.7020729 101.858351,33.9279626 101.228208,33.9279626 C100.604304,33.9279626 100.070095,33.7028627 99.625563,33.2526562 C99.1810315,32.8024497 98.9587691,32.2614201 98.9587691,31.6295513 C98.9587691,30.9913638 99.1810315,30.4479648 99.625563,29.999338 C100.070095,29.5507111 100.604304,29.326401 101.228208,29.326401 C101.858351,29.326401 102.3949,29.5507111 102.837872,29.999338 C102.922099,30.0877996 103.000086,30.1809988 103.071835,30.2789385 L103.071835,29.6960424 L103.446175,29.6960424 L103.446175,33.8094878 Z M103.071835,31.9991927 L103.071835,31.2551709 C103.003205,30.8855277 102.831634,30.5616998 102.557117,30.2836775 C102.189013,29.9108749 101.746048,29.7244764 101.228208,29.7244764 C100.710368,29.7244764 100.268183,29.9108749 99.9016391,30.2836775 C99.5350956,30.6564801 99.3518265,31.1051002 99.3518265,31.6295513 C99.3518265,32.1540024 99.5350956,32.6010429 99.9016391,32.9706861 C100.268183,33.3403294 100.710368,33.5251483 101.228208,33.5251483 C101.746048,33.5251483 102.189013,33.3387498 102.557117,32.9659472 C102.831634,32.6879249 103.003205,32.3656766 103.071835,31.9991927 L103.071835,31.9991927 Z M105.762407,30.0277719 C105.497248,30.0688434 105.236772,30.2394454 104.980971,30.5395831 C104.72517,30.8397208 104.597272,31.1430132 104.597272,31.4494696 L104.597272,33.8094878 L104.222932,33.8094878 L104.222932,29.6960424 L104.597272,29.6960424 L104.597272,30.586973 C104.753248,30.1730989 105.072994,29.8650675 105.556519,29.6628695 L105.762407,30.0277719 Z M107.255089,35.3733553 L106.838635,35.3733553 L107.910185,33.04651 L106.366031,29.6960424 L106.782484,29.6960424 L108.116072,32.5678718 L109.454339,29.6960424 L109.870793,29.6960424 L107.255089,35.3733553 Z M115.73858,27.1085526 L115.73858,27.487672 L113.216461,27.487672 L113.216461,30.2694605 L115.73858,30.2694605 L115.73858,30.6485799 L113.216461,30.6485799 L113.216461,33.8094878 L112.84212,33.8094878 L112.84212,27.1085526 L115.73858,27.1085526 Z M116.49194,31.0324383 L120.057533,31.0324383 C119.970186,30.744938 119.822011,30.4953535 119.613003,30.2836775 C119.2449,29.9108749 118.801935,29.7244764 118.284095,29.7244764 C117.766254,29.7244764 117.323289,29.9108749 116.955186,30.2836775 C116.73682,30.5079909 116.582406,30.7575754 116.49194,31.0324383 L116.49194,31.0324383 Z M116.421751,31.4162967 C116.412392,31.4826429 116.407713,31.5537271 116.407713,31.6295513 C116.407713,32.1540024 116.590982,32.6010429 116.957526,32.9706861 C117.324069,33.3403294 117.766254,33.5251483 118.284095,33.5251483 C118.801935,33.5251483 119.2449,33.3387498 119.613003,32.9659472 C119.675394,32.9027603 119.734664,32.836415 119.790815,32.7669095 L120.188552,32.9090792 C120.141759,32.9880628 120.043496,33.1017975 119.893759,33.2502867 C119.450787,33.7020729 118.914238,33.9279626 118.284095,33.9279626 C117.660191,33.9279626 117.125981,33.7028627 116.68145,33.2526562 C116.236918,32.8024497 116.014656,32.2614201 116.014656,31.6295513 C116.014656,30.9913638 116.236918,30.4479648 116.68145,29.999338 C117.125981,29.5507111 117.660191,29.326401 118.284095,29.326401 C118.914238,29.326401 119.450787,29.5507111 119.893759,29.999338 C120.283699,30.3974153 120.478666,30.8697301 120.478666,31.4162967 L116.421751,31.4162967 Z M122.163198,31.6011174 C121.848126,31.4273534 121.629763,31.2788665 121.508102,31.1556521 C121.317811,30.9629321 121.222667,30.7307238 121.222667,30.4590202 C121.222667,30.1873166 121.317811,29.9543185 121.508102,29.7600188 C121.698392,29.5657192 121.927674,29.4685708 122.195952,29.4685708 C122.464231,29.4685708 122.687273,29.5586108 122.865086,29.7386934 C123.036659,29.9124573 123.122445,30.111493 123.122445,30.3358064 L123.122445,30.3547624 L122.799576,30.4874542 C122.771501,30.2757781 122.705992,30.1162336 122.603048,30.0088159 C122.500103,29.9013982 122.364406,29.8476902 122.195952,29.8476902 C122.030618,29.8476902 121.888682,29.9077168 121.77014,30.0277719 C121.651598,30.147827 121.592328,30.291575 121.592328,30.4590202 C121.592328,30.6264654 121.651598,30.7702134 121.77014,30.8902685 C121.83877,30.9629334 121.983825,31.0703495 122.205311,31.21252 C122.557817,31.40524 122.808934,31.5774216 122.958671,31.7290702 C123.192635,31.9691803 123.309615,32.2550966 123.309615,32.5868278 C123.309615,32.9280369 123.192635,33.2179024 122.958671,33.4564329 C122.724707,33.6949633 122.440835,33.8142268 122.107047,33.8142268 C121.773258,33.8142268 121.489386,33.6949633 121.255422,33.4564329 C121.021458,33.2179024 120.904478,32.9564706 120.904478,32.6721296 L121.274139,32.5773498 C121.274139,32.8206193 121.356025,33.0251837 121.5198,33.1910493 C121.683575,33.3569149 121.879322,33.4398464 122.107047,33.4398464 C122.334771,33.4398464 122.531298,33.3569149 122.696633,33.1910493 C122.861967,33.0251837 122.944633,32.8237786 122.944633,32.5868278 C122.944633,32.3561957 122.861967,32.1587396 122.696633,31.9944537 C122.609286,31.9059921 122.431476,31.7748813 122.163198,31.6011174 L122.163198,31.6011174 Z M124.638524,29.6960424 L124.638524,27.9473543 L125.008185,27.9473543 L125.008185,29.6960424 L125.836413,29.6960424 L125.836413,30.0751618 L125.008185,30.0751618 L125.008185,33.8094878 L124.638524,33.8094878 L124.638524,30.0751618 L123.810296,30.0751618 L123.810296,29.6960424 L124.638524,29.6960424 Z" id="Techno-Management-Li"></path>
                                    </g>
                                </g>
                            </g>
                        </g>
                    </g>
                    <g id="Group-6" transform="translate(19.866242, 0.000000)">
                        <text id="EngineerIndya-presen" font-family="Exo2-Light, Exo 2" font-size="7.34832117" font-weight="300">
                            <tspan x="7.55866091" y="31">EngineerIndya </tspan>
                            <tspan x="56.4103" y="31" font-size="5.24880083">presents</tspan>
                        </text>
                        <g id="ei-logo" transform="translate(31.249878, 0.000000)">
                            <g id="Group" transform="translate(11.883880, 11.425734) scale(1, -1) translate(-11.883880, -11.425734) translate(0.000000, 0.005062)">
                                <path d="M20.3560885,22.545664 C20.0021861,22.4430625 19.7729539,22.2912124 19.3345976,21.8520783 C18.6871171,21.2077413 18.4860363,20.7645031 18.4860363,19.9806282 C18.4860363,19.2418979 18.646901,18.8684287 19.2300355,18.2528201 C19.8694728,17.5756506 20.5652126,17.3088869 21.3494281,17.4320086 C21.8883249,17.5181938 22.2985299,17.7562292 22.8776428,18.318485 C23.4366477,18.8602206 23.5854476,19.2254817 23.5854476,20.042189 C23.5814259,20.469011 23.5693611,20.5798205 23.4728423,20.8630005 C23.2154587,21.6263551 22.6323242,22.2214434 21.8682168,22.4923112 C21.5384441,22.6072248 20.6858612,22.6400573 20.3560885,22.545664 L20.3560885,22.545664 Z" id="Shape"></path>
                                <path d="M8.98314803,20.4931683 C8.10643536,19.8693516 7.37852254,19.1880781 6.847669,18.4903884 C5.70150794,16.9841994 4.90924924,15.0963331 4.66393056,13.298756 C4.53926041,12.3589269 4.54730365,11.8212954 4.70414674,11.287768 C4.75240615,11.1236057 4.75240615,11.074357 4.71218998,11.0497326 C4.68403865,11.0333164 4.42665511,10.8896744 4.14112025,10.7296162 C1.86488461,9.47377465 0.489491338,7.89371262 0.0873295628,6.07971932 C-0.0212541164,5.59133651 -0.0292973519,4.68844391 0.0672214741,4.27803819 C0.340691481,3.14942245 1.03240973,2.26705014 2.2027005,1.55704824 C3.53787759,0.744444908 5.01381131,0.305310783 7.21363622,0.0549632916 C7.96165712,-0.0271178531 10.2057198,-0.0148056814 10.8733084,0.0754835778 C12.0958802,0.247853982 12.9042253,0.469473073 13.8734352,0.908607197 L14.2796186,1.09328977 L14.8426451,2.2711542 C15.1563313,2.91959524 15.4780607,3.61728497 15.5625147,3.81838378 C15.7635956,4.30676659 16.2582545,5.66110548 16.2421681,5.67752171 C16.2381464,5.68572982 16.0451088,5.59544056 15.8158766,5.48052696 C13.7889812,4.44220048 12.7594471,4.03179476 11.7379562,3.85532029 C11.0341731,3.73630263 9.39335304,3.81017567 8.07828403,4.0276907 C6.47768017,4.29035036 5.33151911,4.74590072 4.6719738,5.3902377 C4.35828761,5.69393794 4.1732932,6.0140544 4.06873114,6.43266824 C3.9923204,6.74457659 3.98829878,6.81024151 4.03253658,7.1755026 C4.05666628,7.39712169 4.12101217,7.72134221 4.18133643,7.89371262 C4.32611467,8.3369508 4.67599542,8.99770402 5.02989778,9.49429494 L5.33151911,9.91701284 L5.51651353,9.74053838 C5.76987544,9.498399 6.00312927,9.33834077 6.43344237,9.11672168 C7.25385239,8.68579566 8.42816478,8.28770211 9.01129935,8.24255748 C9.28476936,8.2220372 9.39737465,8.23434937 9.66682304,8.31232646 C9.89605525,8.37799137 10.0046389,8.43134412 10.0368119,8.49290497 C10.0609416,8.54215366 10.2580009,8.85816607 10.4711466,9.19469876 C10.9456975,9.94163718 11.1829729,10.3684591 11.3518809,10.7706567 C11.4202484,10.934819 11.476551,11.074357 11.476551,11.0825651 C11.476551,11.0907732 11.3800322,11.1071894 11.2674269,11.1236057 C9.13194788,11.4108897 7.73242491,12.7816448 7.5273224,14.7844247 C7.45091166,15.5313631 7.55145211,16.2988218 7.80883564,16.9144304 L7.91741932,17.1852982 L8.17882448,17.1606739 C8.51664037,17.1319455 9.14803435,16.9636791 9.60649878,16.7789965 C11.014065,16.2085326 12.4015231,15.2235588 13.9377811,13.6968496 L14.5691751,13.0689288 L14.6093913,13.224883 C14.6294993,13.3110682 14.7059101,13.6311846 14.7742776,13.9348849 C14.8426451,14.2385851 14.9713369,14.7844247 15.0598124,15.1414777 C15.232742,15.8678958 15.2568717,16.2208448 15.1563313,16.6928113 C14.9914449,17.4931025 14.549067,18.1538557 13.7165921,18.8556495 C12.8398794,19.5902757 12.1682693,19.9596409 11.1829729,20.251029 C10.7446166,20.3782547 10.0730064,20.5177927 9.66682304,20.5629373 C9.54617451,20.5752495 9.38128818,20.5957698 9.30487745,20.6039779 C9.19629377,20.6203941 9.12390465,20.5957698 8.98314803,20.4931683 L8.98314803,20.4931683 Z" id="Shape"></path>
                                <path d="M22.6762403,16.5353286 C21.0233554,15.9033037 18.5983199,15.2507586 17.1827105,15.061972 L16.8167433,15.0127233 L16.587511,14.0277496 C16.4588193,13.486014 16.3623005,13.0345677 16.3743653,13.0263596 C16.3864302,13.0140475 16.5714246,12.9689028 16.7885919,12.9196541 C17.3194455,12.8088446 17.9226881,12.8006365 18.1840933,12.9032379 C18.292677,12.9442785 18.3851742,12.9689028 18.397239,12.9606947 C18.4173471,12.9360704 18.3087634,9.89085989 18.2524608,8.9879673 C18.1639852,7.5679635 18.071488,6.46807616 17.9468178,5.4461659 C17.9106233,5.15477784 17.8905152,4.90853441 17.9025801,4.90032629 C17.9427962,4.85518166 20.5729342,5.08500887 22.1132138,5.26558739 L22.8974293,5.35587664 L22.9014509,8.16715585 C22.9094941,10.8635215 22.9577536,12.8704054 23.0381859,13.7897143 C23.0743805,14.1754957 23.1990506,16.3834784 23.1990506,16.6133057 C23.1990506,16.6625543 23.1749209,16.7035949 23.1507912,16.6994909 C23.1226399,16.6994909 22.9094941,16.6256178 22.6762403,16.5353286 L22.6762403,16.5353286 Z" id="Shape"></path>
                            </g>
                        </g>
                    </g>
                </g>
            </g>
        </g>
    </g>
</svg>