<?xml version="1.0" encoding="UTF-8"?>
<svg width="100px" height="108px" viewBox="0 0 100 108" version="1.1" xmlns="http://www.w3.org/2000/svg" xmlns:xlink="http://www.w3.org/1999/xlink">
    <!-- Generator: Sketch 40.1 (33804) - http://www.bohemiancoding.com/sketch -->
    <title>brainstorm</title>
    <desc>Created with Sketch.</desc>
    <defs></defs>
    <g id="Page-1" stroke="none" stroke-width="1" fill="none" fill-rule="evenodd">
        <g id="Competitions" transform="translate(-292.000000, -731.000000)" fill="#01579B">
            <g id="Group-14" transform="translate(230.000000, 706.000000)">
                <g id="Group-4" transform="translate(62.000000, 25.000000)">
                    <g id="brainstorm">
                        <g id="Capa_1">
                            <g id="Group">
                                <path d="M96.919571,31.2209115 C95.0986595,29.9163539 92.8576408,29.541555 90.7252011,30.1710456 C88.7986595,22.6624665 85.1707775,16.2321716 79.9587131,11.2064343 C72.4643432,3.97989276 61.8723861,0 50.1340483,0 C38.3957105,0 27.8037534,3.97989276 20.3093834,11.2064343 C15.0753351,16.2533512 11.4386059,22.7163539 9.51849866,30.2659517 L9.49785523,30.2589812 C7.28042895,29.5069705 4.91849866,29.8576408 3.01662198,31.2209115 C1.1150134,32.5839142 0.0243967828,34.7075067 0.0243967828,37.047185 L0.0243967828,49.8731903 C0.0243967828,55.2533512 4.40160858,59.630563 9.78203753,59.630563 L10.044504,59.630563 C12.0689008,67.058445 15.5072386,73.8683646 20.1938338,79.5707775 C23.0959786,83.1018767 26.3504021,86.052815 29.8608579,88.3825737 L29.8608579,105.968097 C29.8608579,106.782574 30.5211796,107.442627 31.3353887,107.442627 C32.1495979,107.442627 32.8099196,106.782574 32.8099196,105.968097 L32.8099196,90.1616622 C38.183378,93.0855228 44.058445,94.6252011 50.1343164,94.6252011 C56.2101877,94.6252011 62.0852547,93.0855228 67.4587131,90.1616622 L67.4587131,105.968097 C67.4587131,106.782574 68.1190349,107.442627 68.933244,107.442627 C69.7474531,107.442627 70.4077748,106.782574 70.4077748,105.968097 L70.4077748,88.3825737 C73.9179625,86.052815 77.1726542,83.1021448 80.0747989,79.5707775 C84.7616622,73.8678284 88.2005362,67.0571046 90.2246649,59.6286863 C95.5726542,59.5906166 99.9120643,55.2297587 99.9120643,49.8731903 L99.9120643,37.047185 C99.9117962,34.7075067 98.8211796,32.5839142 96.919571,31.2209115 L96.919571,31.2209115 Z M2.97345845,49.8731903 L2.97345845,37.047185 C2.97345845,35.6699732 3.6155496,34.4201072 4.73458445,33.6179625 C5.85469169,32.8152815 7.24530831,32.6091153 8.55013405,33.0517426 L8.87587131,33.1624665 C8.24879357,36.4605898 7.92815013,39.9436997 7.92815013,43.5903485 C7.92815013,48.063807 8.40375335,52.4490617 9.32064343,56.6646113 C5.78123324,56.4262735 2.97345845,53.4723861 2.97345845,49.8731903 L2.97345845,49.8731903 Z M50.1340483,91.6764075 C28.4879357,91.6764075 10.8774799,70.1050938 10.8774799,43.5900804 C10.8774799,31.0343164 14.8469169,20.5705094 22.3560322,13.3294906 C29.2981233,6.63538874 39.1632708,2.94906166 50.1340483,2.94906166 C61.1048257,2.94906166 70.9699732,6.63538874 77.9117962,13.3294906 C85.4211796,20.5705094 89.3903485,31.0345845 89.3903485,43.5900804 C89.3906166,70.1048257 71.7801609,91.6764075 50.1340483,91.6764075 L50.1340483,91.6764075 Z M96.9627346,49.8731903 C96.9627346,53.3565684 94.3324397,56.2356568 90.9538874,56.6329759 C91.8662198,52.4270777 92.3396783,48.0522788 92.3396783,43.5898123 C92.3396783,39.9045576 92.0128686,36.3855228 91.3723861,33.0560322 L91.3855228,33.0514745 C92.6911528,32.6088472 94.0815013,32.8150134 95.2013405,33.6176944 C96.3206434,34.4198391 96.9624665,35.6697051 96.9624665,37.0469169 L96.9624665,49.8731903 L96.9627346,49.8731903 Z" id="Shape"></path>
                                <path d="M74.1815013,23.2262735 C73.513941,18.6648794 69.575067,15.1512064 64.8313673,15.1512064 L60.5756032,15.1512064 C59.8656836,10.6383378 55.949866,7.17587131 51.2407507,7.17587131 L48.4702413,7.17587131 C43.7613941,7.17587131 39.8455764,10.6386059 39.1356568,15.1512064 L34.8796247,15.1512064 C30.1359249,15.1512064 26.197319,18.6648794 25.5297587,23.2262735 C20.9680965,23.8938338 17.4546917,27.8327078 17.4546917,32.5764075 C17.4546917,37.7871314 21.6941019,42.0262735 26.9045576,42.0262735 L53.5758713,42.0262735 L42.8412869,56.1565684 C42.5024129,56.602681 42.4455764,57.2021448 42.6946381,57.7037534 C42.9436997,58.2053619 43.4552279,58.5230563 44.0155496,58.5230563 L52.536193,58.5230563 L40.183378,79.3680965 C39.8008043,80.0136729 39.9640751,80.8434316 40.5624665,81.2959786 C40.8273458,81.4962466 41.1399464,81.59437 41.4512064,81.59437 C41.8431635,81.59437 42.2327078,81.4386059 42.5206434,81.1353887 L69.5798928,52.6522788 C69.986059,52.224933 70.0986595,51.5967828 69.8656836,51.0549598 C69.633244,50.5131367 69.1005362,50.1621984 68.5107239,50.1621984 L62.1715818,50.1621984 L70.5335121,42.0262735 L72.8064343,42.0262735 C78.0171582,42.0262735 82.2563003,37.7871314 82.2563003,32.5764075 C82.2565684,27.8324397 78.7431635,23.8938338 74.1815013,23.2262735 L74.1815013,23.2262735 Z M57.5136729,50.5796247 C57.0836461,50.9981233 56.9495979,51.6353887 57.1756032,52.1914209 C57.4016086,52.7474531 57.941555,53.110992 58.5418231,53.110992 L65.0761394,53.110992 L49.3798928,69.633244 L56.3922252,57.7997319 C56.6624665,57.3439678 56.6670241,56.7782842 56.4048257,56.3179625 C56.1426273,55.8576408 55.6536193,55.5734584 55.1238606,55.5734584 L46.9873995,55.5734584 L57.2793566,42.0257373 L66.3050938,42.0257373 L57.5136729,50.5796247 L57.5136729,50.5796247 Z M72.8067024,39.0769437 L67.2729223,39.0769437 L67.2729223,38.2729223 C67.2729223,35.7876676 69.2949062,33.7659517 71.7801609,33.7659517 L73.489008,33.7659517 C74.3032172,33.7659517 74.9635389,33.1058981 74.9635389,32.2914209 C74.9635389,31.4769437 74.3032172,30.8168901 73.489008,30.8168901 L62.8404826,30.8168901 C63.7941019,29.5640751 64.3619303,28.0024129 64.3619303,26.3099196 C64.3619303,25.4954424 63.7016086,24.8353887 62.8873995,24.8353887 C62.0731903,24.8353887 61.4128686,25.4954424 61.4128686,26.3099196 C61.4128686,28.7951743 59.3911528,30.8168901 56.9058981,30.8168901 L55.544504,30.8168901 C54.7302949,30.8168901 54.0699732,31.4769437 54.0699732,32.2914209 C54.0699732,33.1058981 54.7302949,33.7659517 55.544504,33.7659517 L65.8453083,33.7659517 C64.8914209,35.0187668 64.3238606,36.580429 64.3238606,38.2729223 L64.3238606,39.0769437 L51.3297587,39.0769437 L51.3297587,29.4187668 C51.3297587,27.5619303 52.8404826,26.0512064 54.6975871,26.0512064 L55.6957105,26.0512064 C56.5099196,26.0512064 57.1702413,25.3911528 57.1702413,24.5766756 C57.1702413,23.7621984 56.5099196,23.1021448 55.6957105,23.1021448 L54.6975871,23.1021448 C53.4600536,23.1021448 52.3053619,23.461126 51.3297587,24.0785523 L51.3297587,15.7713137 C51.3297587,14.9568365 50.669437,14.2967828 49.8552279,14.2967828 C49.0410188,14.2967828 48.3806971,14.9568365 48.3806971,15.7713137 L48.3806971,24.0785523 C47.4050938,23.461126 46.2506702,23.1021448 45.0131367,23.1021448 L44.0150134,23.1021448 C43.2008043,23.1021448 42.5404826,23.7621984 42.5404826,24.5766756 C42.5404826,25.3911528 43.2008043,26.0512064 44.0150134,26.0512064 L45.0131367,26.0512064 C46.8699732,26.0512064 48.3806971,27.5619303 48.3806971,29.4187668 L48.3806971,39.0769437 L35.3865952,39.0769437 L35.3865952,38.2729223 C35.3865952,36.580429 34.8187668,35.0187668 33.8651475,33.7659517 L44.1662198,33.7659517 C44.980429,33.7659517 45.6407507,33.1058981 45.6407507,32.2914209 C45.6407507,31.4769437 44.980429,30.8168901 44.1662198,30.8168901 L42.8048257,30.8168901 C40.319571,30.8168901 38.2975871,28.7949062 38.2975871,26.3099196 C38.2975871,25.4954424 37.6372654,24.8353887 36.8230563,24.8353887 C36.0088472,24.8353887 35.3485255,25.4954424 35.3485255,26.3099196 C35.3485255,28.0024129 35.9163539,29.5640751 36.8699732,30.8168901 L26.2214477,30.8168901 C25.4072386,30.8168901 24.7469169,31.4769437 24.7469169,32.2914209 C24.7469169,33.1058981 25.4072386,33.7659517 26.2214477,33.7659517 L27.930563,33.7659517 C30.4158177,33.7659517 32.4375335,35.7879357 32.4375335,38.2729223 L32.4375335,39.0769437 L26.9040214,39.0769437 C23.319571,39.0769437 20.4032172,36.1608579 20.4032172,32.5761394 C20.4032172,28.9914209 23.319571,26.0753351 26.9040214,26.0753351 L31.8506702,26.0753351 C32.6648794,26.0753351 33.3252011,25.4152815 33.3252011,24.6008043 C33.3252011,23.7863271 32.6648794,23.1262735 31.8506702,23.1262735 L28.5495979,23.1262735 C29.219571,20.249866 31.8021448,18.1 34.8793566,18.1 L39.0203753,18.1 L39.0203753,20.8981233 C39.0203753,21.7126005 39.6806971,22.3726542 40.4949062,22.3726542 C41.3091153,22.3726542 41.969437,21.7126005 41.969437,20.8981233 L41.969437,16.6257373 C41.969437,13.0412869 44.8855228,10.124933 48.4699732,10.124933 L51.2404826,10.124933 C54.824933,10.124933 57.7412869,13.0412869 57.7412869,16.6257373 L57.7412869,20.8981233 C57.7412869,21.7126005 58.4016086,22.3726542 59.2158177,22.3726542 C60.0300268,22.3726542 60.6903485,21.7126005 60.6903485,20.8981233 L60.6903485,18.1002681 L64.8310992,18.1002681 C67.908311,18.1002681 70.4911528,20.250134 71.161126,23.1265416 L67.8597855,23.1265416 C67.0455764,23.1265416 66.3852547,23.7865952 66.3852547,24.6010724 C66.3852547,25.4155496 67.0455764,26.0756032 67.8597855,26.0756032 L72.8064343,26.0756032 C76.3908847,26.0756032 79.3072386,28.991689 79.3072386,32.5764075 C79.3075067,36.1608579 76.3911528,39.0769437 72.8067024,39.0769437 L72.8067024,39.0769437 Z" id="Shape"></path>
                            </g>
                        </g>
                    </g>
                </g>
            </g>
        </g>
    </g>
</svg>