<?xml version="1.0" encoding="UTF-8"?>
<svg width="100px" height="100px" viewBox="0 0 100 100" version="1.1" xmlns="http://www.w3.org/2000/svg" xmlns:xlink="http://www.w3.org/1999/xlink">
    <!-- Generator: Sketch 40.1 (33804) - http://www.bohemiancoding.com/sketch -->
    <title>industrial-robot</title>
    <desc>Created with Sketch.</desc>
    <defs></defs>
    <g id="Page-1" stroke="none" stroke-width="1" fill="none" fill-rule="evenodd">
        <g id="Competitions" transform="translate(-877.000000, -380.000000)" fill="#01579B">
            <g id="Group-11" transform="translate(815.000000, 357.000000)">
                <g id="Group-8" transform="translate(62.000000, 23.000000)">
                    <g id="industrial-robot">
                        <g id="Layer_1">
                            <g id="Group">
                                <rect id="Rectangle-path" x="14.516129" y="46.7741935" width="3.22580645" height="3.22580645"></rect>
                                <rect id="Rectangle-path" x="11.2903226" y="41.9354839" width="3.22580645" height="3.22580645"></rect>
                                <rect id="Rectangle-path" x="25.8064516" y="50" width="3.22580645" height="3.22580645"></rect>
                                <rect id="Rectangle-path" x="32.2580645" y="46.7741935" width="3.22580645" height="3.22580645"></rect>
                                <path d="M79.0322581,93.5483871 C84.3693548,93.5483871 88.7096774,89.2080645 88.7096774,83.8709677 C88.7096774,78.533871 84.3693548,74.1935484 79.0322581,74.1935484 C73.6951613,74.1935484 69.3548387,78.533871 69.3548387,83.8709677 C69.3548387,89.2080645 73.6951613,93.5483871 79.0322581,93.5483871 L79.0322581,93.5483871 Z M72.8403226,82.1596774 L75.4322581,83.6564516 L77.0451613,80.8629032 L74.4354839,79.3548387 C75.2419355,78.533871 76.2709677,77.9467742 77.4193548,77.6483871 L77.4193548,80.6451613 L80.6451613,80.6451613 L80.6451613,77.6483871 C81.7919355,77.9467742 82.8225806,78.533871 83.6290323,79.3548387 L81.0209677,80.8612903 L82.633871,83.6548387 L85.2258065,82.1580645 C85.3758065,82.7080645 85.483871,83.2741935 85.483871,83.8709677 C85.483871,84.4677419 85.3758065,85.033871 85.2241935,85.5822581 L82.6322581,84.0854839 L81.0193548,86.8790323 L83.6290323,88.3870968 C82.8225806,89.2080645 81.7919355,89.7951613 80.6451613,90.0935484 L80.6451613,87.0967742 L77.4193548,87.0967742 L77.4193548,90.0935484 C76.2725806,89.7951613 75.2419355,89.2080645 74.4354839,88.3870968 L77.0435484,86.8806452 L75.4306452,84.0870968 L72.8387097,85.583871 C72.6887097,85.033871 72.5806452,84.4677419 72.5806452,83.8709677 C72.5806452,83.2741935 72.6887097,82.7080645 72.8403226,82.1596774 L72.8403226,82.1596774 Z" id="Shape"></path>
                                <path d="M96.7741935,96.7741935 L96.7741935,67.7419355 L93.5483871,67.7419355 L93.5483871,58.0645161 L88.7096774,58.0645161 L88.7096774,39.6564516 C89.7274194,37.9612903 90.3225806,35.9870968 90.3225806,33.8709677 C90.3225806,29.866129 88.2193548,26.35 85.0677419,24.3451613 L70.4887097,8.05322581 C69.0935484,3.4016129 64.7774194,0 59.6774194,0 C55.716129,0 52.2306452,2.05645161 50.2145161,5.15322581 L31.4322581,22.9951613 C29.7564516,24.5870968 28.816129,26.7370968 28.7854839,29.0483871 C28.7645161,30.7322581 29.2403226,32.3387097 30.1258065,33.7225806 L21.4403226,42.4080645 L23.7209677,44.6887097 L32.3564516,36.0532258 C33.8306452,37.1129032 35.5516129,37.6693548 37.2870968,37.6677419 C39.35,37.6677419 41.4177419,36.916129 43.0548387,35.4048387 L57.2419355,22.3080645 C57.7274194,22.416129 58.2241935,22.4903226 58.7322581,22.5322581 L67.8,32.7322581 C67.7612903,33.1080645 67.7419355,33.4870968 67.7419355,33.8709677 C67.7419355,35.9870968 68.3387097,37.9612903 69.3548387,39.6564516 L69.3548387,58.0645161 L64.516129,58.0645161 L64.516129,67.7419355 L61.2903226,67.7419355 L61.2903226,96.7741935 L32.2580645,96.7741935 L32.2580645,67.7419355 L29.0322581,67.7419355 L29.0322581,64.516129 L32.2580645,64.516129 L32.2580645,61.2903226 L28.8693548,61.2903226 C28.1193548,57.6145161 24.8629032,54.8387097 20.9677419,54.8387097 L6.4516129,54.8387097 L6.4516129,61.2903226 L3.22580645,61.2903226 L3.22580645,64.516129 L6.4516129,64.516129 L6.4516129,67.7419355 L3.22580645,67.7419355 L3.22580645,96.7741935 L0,96.7741935 L0,100 L3.22580645,100 L32.2580645,100 L61.2903226,100 L96.7741935,100 L100,100 L100,96.7741935 L96.7741935,96.7741935 L96.7741935,96.7741935 Z M9.67741935,58.0645161 L20.9677419,58.0645161 C23.0677419,58.0645161 24.8419355,59.4177419 25.5096774,61.2903226 L9.67741935,61.2903226 L9.67741935,58.0645161 L9.67741935,58.0645161 Z M9.67741935,64.516129 L25.8064516,64.516129 L25.8064516,67.7419355 L9.67741935,67.7419355 L9.67741935,64.516129 L9.67741935,64.516129 Z M29.0322581,80.6451613 L25.8064516,80.6451613 L25.8064516,83.8709677 L29.0322581,83.8709677 L29.0322581,96.7741935 L6.4516129,96.7741935 L6.4516129,83.8709677 L22.5806452,83.8709677 L22.5806452,80.6451613 L6.4516129,80.6451613 L6.4516129,70.9677419 L29.0322581,70.9677419 L29.0322581,80.6451613 L29.0322581,80.6451613 Z M87.0967742,33.8709677 C87.0967742,38.3177419 83.4790323,41.9354839 79.0322581,41.9354839 C74.5854839,41.9354839 70.9677419,38.3177419 70.9677419,33.8709677 C70.9677419,29.4241935 74.5854839,25.8064516 79.0322581,25.8064516 C83.4790323,25.8064516 87.0967742,29.4241935 87.0967742,33.8709677 L87.0967742,33.8709677 Z M85.483871,43.1225806 L85.483871,58.0645161 L72.5806452,58.0645161 L72.5806452,43.1225806 C74.4112903,44.4032258 76.633871,45.1612903 79.0322581,45.1612903 C81.4306452,45.1612903 83.6532258,44.4032258 85.483871,43.1225806 L85.483871,43.1225806 Z M40.8677419,33.033871 C38.7774194,34.9629032 35.5693548,34.9 33.5580645,32.8887097 C32.5435484,31.8741935 31.9935484,30.5241935 32.0129032,29.0903226 C32.0322581,27.6564516 32.6145161,26.3209677 33.6548387,25.333871 L48.3903226,11.333871 C48.4064516,15.4370968 50.6274194,19.0209677 53.9225806,20.983871 L40.8677419,33.033871 L40.8677419,33.033871 Z M59.666129,19.3548387 C55.2241935,19.3467742 51.6129032,15.7322581 51.6129032,11.2903226 C51.6129032,6.84354839 55.2306452,3.22580645 59.6774194,3.22580645 C64.1241935,3.22580645 67.7419355,6.84354839 67.7419355,11.2903226 C67.7419355,15.733871 64.1274194,19.35 59.683871,19.3548387 L59.666129,19.3548387 L59.666129,19.3548387 Z M68.8387097,29.05 L62.7096774,22.1548387 C66.8564516,20.9951613 70.0403226,17.5274194 70.7887097,13.2258065 L79.1645161,22.5870968 C79.1209677,22.5870968 79.0774194,22.5806452 79.0322581,22.5806452 C74.533871,22.5806452 70.6516129,25.2322581 68.8387097,29.05 L68.8387097,29.05 Z M67.7419355,61.2903226 L69.3548387,61.2903226 L88.7096774,61.2903226 L90.3225806,61.2903226 L90.3225806,67.7419355 L67.7419355,67.7419355 L67.7419355,61.2903226 L67.7419355,61.2903226 Z M93.5483871,96.7741935 L64.516129,96.7741935 L64.516129,70.9677419 L93.5483871,70.9677419 L93.5483871,96.7741935 L93.5483871,96.7741935 Z" id="Shape"></path>
                            </g>
                        </g>
                    </g>
                </g>
            </g>
        </g>
    </g>
</svg>