<?xml version="1.0" encoding="UTF-8"?>
<svg width="100px" height="100px" viewBox="0 0 100 100" version="1.1" xmlns="http://www.w3.org/2000/svg" xmlns:xlink="http://www.w3.org/1999/xlink">
    <!-- Generator: Sketch 40.1 (33804) - http://www.bohemiancoding.com/sketch -->
    <title>saturn</title>
    <desc>Created with Sketch.</desc>
    <defs></defs>
    <g id="Page-1" stroke="none" stroke-width="1" fill="none" fill-rule="evenodd">
        <g id="Competitions" transform="translate(-290.000000, -380.000000)" fill="#01579B">
            <g id="Group-3" transform="translate(230.000000, 357.000000)">
                <g id="saturn" transform="translate(60.000000, 23.000000)">
                    <g id="Layer_1">
                        <g id="Group">
                            <path d="M77.8741935,33.8387097 C72.2806452,24.2306452 61.8951613,17.7419355 50,17.7419355 C38.1048387,17.7419355 27.7193548,24.2306452 22.1258065,33.8387097 C8.06129032,37.4016129 0,43.2709677 0,50 C0,56.8193548 8.67741935,62.7096774 22.0806452,66.1467742 C27.8435484,76.0919355 38.4967742,82.2580645 50,82.2580645 C61.4870968,82.2580645 72.166129,76.0870968 77.9258065,66.1451613 C91.3258065,62.7080645 100,56.8193548 100,50 C100,43.2709677 91.9370968,37.4016129 77.8741935,33.8387097 L77.8741935,33.8387097 Z M50,20.9677419 C66.0080645,20.9677419 79.0322581,33.9919355 79.0322581,50 C79.0322581,51.4887097 78.8854839,52.9725806 78.6612903,54.4387097 C72.5467742,56.4419355 62.6177419,58.0645161 50,58.0645161 C46.5112903,58.0645161 43.2516129,57.9306452 40.1951613,57.7080645 C40.2596774,57.2935484 40.3225806,56.8774194 40.3225806,56.4516129 C40.3225806,52.0048387 36.7048387,48.3870968 32.2580645,48.3870968 C28.2032258,48.3870968 24.8709677,51.4048387 24.3096774,55.3064516 C23.2306452,55.0290323 22.2532258,54.7370968 21.3403226,54.4387097 C21.1145161,52.9725806 20.9677419,51.4887097 20.9677419,50 C20.9677419,33.9919355 33.9919355,20.9677419 50,20.9677419 L50,20.9677419 Z M37.0967742,56.4516129 C37.0967742,56.7854839 37.0629032,57.1145161 36.9983871,57.433871 C33.4467742,57.0790323 30.2516129,56.5951613 27.4629032,56.0225806 C27.683871,53.5580645 29.7370968,51.6129032 32.2580645,51.6129032 C34.9258065,51.6129032 37.0967742,53.783871 37.0967742,56.4516129 L37.0967742,56.4516129 Z M54.8822581,78.6 C55.1048387,76.1370968 57.1564516,74.1935484 59.6774194,74.1935484 C61.0709677,74.1935484 62.366129,74.7983871 63.2693548,75.7983871 C60.65,77.1483871 57.8225806,78.0951613 54.8822581,78.6 L54.8822581,78.6 Z M66.0774194,74.1564516 C64.5709677,72.1854839 62.2241935,70.9677419 59.6774194,70.9677419 C55.25,70.9677419 51.6483871,74.5564516 51.6177419,78.9774194 C51.0806452,79.0080645 50.5419355,79.0322581 50,79.0322581 C40.7080645,79.0322581 32.0322581,74.5596774 26.6016129,67.1725806 C33.5467742,68.5677419 41.4903226,69.3548387 50,69.3548387 C58.5080645,69.3548387 66.4483871,68.5677419 73.3935484,67.1741935 C71.3612903,69.9354839 68.8806452,72.2935484 66.0774194,74.1564516 L66.0774194,74.1564516 Z M50,66.1290323 C22.0209677,66.1290323 3.22580645,57.7887097 3.22580645,50 C3.22580645,45.4 9.64516129,40.8177419 20.1854839,37.7145161 C19.4629032,39.4612903 18.8935484,41.2854839 18.4854839,43.1693548 C13.7290323,45.0435484 11.2903226,47.3354839 11.2903226,50 C11.2903226,57.4129032 30.7629032,61.2903226 50,61.2903226 C69.2370968,61.2903226 88.7096774,57.4129032 88.7096774,50 C88.7096774,47.3354839 86.2693548,45.0435484 81.5145161,43.1693548 C81.1064516,41.2854839 80.5370968,39.4612903 79.8145161,37.716129 C90.3548387,40.8177419 96.7741935,45.4016129 96.7741935,50 C96.7741935,57.7887097 77.9790323,66.1290323 50,66.1290323 L50,66.1290323 Z M17.8919355,53.083871 C15.7112903,52.0322581 14.516129,50.9532258 14.516129,50 C14.516129,49.2903226 15.4596774,48.1516129 17.8967742,46.9403226 C17.8016129,47.9483871 17.7419355,48.9677419 17.7419355,50 C17.7419355,51.0290323 17.7951613,52.0596774 17.8919355,53.083871 L17.8919355,53.083871 Z M82.1032258,46.9419355 C84.5403226,48.1516129 85.483871,49.2903226 85.483871,50 C85.483871,50.9532258 84.2887097,52.0322581 82.1096774,53.0822581 C82.2080645,52.0580645 82.2580645,51.0290323 82.2580645,50 C82.2580645,48.9677419 82.1983871,47.9483871 82.1032258,46.9419355 L82.1032258,46.9419355 Z" id="Shape"></path>
                            <path d="M38.7096774,37.0967742 C41.3774194,37.0967742 43.5483871,34.9258065 43.5483871,32.2580645 C43.5483871,29.5903226 41.3774194,27.4193548 38.7096774,27.4193548 C36.0419355,27.4193548 33.8709677,29.5903226 33.8709677,32.2580645 C33.8709677,34.9258065 36.0419355,37.0967742 38.7096774,37.0967742 L38.7096774,37.0967742 Z M38.7096774,30.6451613 C39.6,30.6451613 40.3225806,31.3677419 40.3225806,32.2580645 C40.3225806,33.1483871 39.6,33.8709677 38.7096774,33.8709677 C37.8193548,33.8709677 37.0967742,33.1483871 37.0967742,32.2580645 C37.0967742,31.3677419 37.8193548,30.6451613 38.7096774,30.6451613 L38.7096774,30.6451613 Z" id="Shape"></path>
                            <path d="M61.2903226,48.3870968 C64.8483871,48.3870968 67.7419355,45.4935484 67.7419355,41.9354839 C67.7419355,38.3774194 64.8483871,35.483871 61.2903226,35.483871 C57.7322581,35.483871 54.8387097,38.3774194 54.8387097,41.9354839 C54.8387097,45.4935484 57.7322581,48.3870968 61.2903226,48.3870968 L61.2903226,48.3870968 Z M61.2903226,38.7096774 C63.0693548,38.7096774 64.516129,40.1564516 64.516129,41.9354839 C64.516129,43.7145161 63.0693548,45.1612903 61.2903226,45.1612903 C59.5112903,45.1612903 58.0645161,43.7145161 58.0645161,41.9354839 C58.0645161,40.1564516 59.5112903,38.7096774 61.2903226,38.7096774 L61.2903226,38.7096774 Z" id="Shape"></path>
                            <rect id="Rectangle-path" x="43.5483871" y="0" width="3.22580645" height="3.22580645"></rect>
                            <rect id="Rectangle-path" x="43.5483871" y="6.4516129" width="3.22580645" height="3.22580645"></rect>
                            <rect id="Rectangle-path" x="46.7741935" y="3.22580645" width="3.22580645" height="3.22580645"></rect>
                            <rect id="Rectangle-path" x="40.3225806" y="3.22580645" width="3.22580645" height="3.22580645"></rect>
                            <rect id="Rectangle-path" x="11.2903226" y="16.1290323" width="3.22580645" height="3.22580645"></rect>
                            <rect id="Rectangle-path" x="11.2903226" y="22.5806452" width="3.22580645" height="3.22580645"></rect>
                            <rect id="Rectangle-path" x="14.516129" y="19.3548387" width="3.22580645" height="3.22580645"></rect>
                            <rect id="Rectangle-path" x="8.06451613" y="19.3548387" width="3.22580645" height="3.22580645"></rect>
                            <rect id="Rectangle-path" x="93.5483871" y="24.1935484" width="3.22580645" height="3.22580645"></rect>
                            <rect id="Rectangle-path" x="93.5483871" y="30.6451613" width="3.22580645" height="3.22580645"></rect>
                            <rect id="Rectangle-path" x="96.7741935" y="27.4193548" width="3.22580645" height="3.22580645"></rect>
                            <rect id="Rectangle-path" x="90.3225806" y="27.4193548" width="3.22580645" height="3.22580645"></rect>
                            <rect id="Rectangle-path" x="64.516129" y="90.3225806" width="3.22580645" height="3.22580645"></rect>
                            <rect id="Rectangle-path" x="64.516129" y="96.7741935" width="3.22580645" height="3.22580645"></rect>
                            <rect id="Rectangle-path" x="67.7419355" y="93.5483871" width="3.22580645" height="3.22580645"></rect>
                            <rect id="Rectangle-path" x="61.2903226" y="93.5483871" width="3.22580645" height="3.22580645"></rect>
                            <rect id="Rectangle-path" x="11.2903226" y="80.6451613" width="3.22580645" height="3.22580645"></rect>
                            <rect id="Rectangle-path" x="11.2903226" y="87.0967742" width="3.22580645" height="3.22580645"></rect>
                            <rect id="Rectangle-path" x="14.516129" y="83.8709677" width="3.22580645" height="3.22580645"></rect>
                            <rect id="Rectangle-path" x="8.06451613" y="83.8709677" width="3.22580645" height="3.22580645"></rect>
                            <rect id="Rectangle-path" x="80.6451613" y="69.3548387" width="3.22580645" height="3.22580645"></rect>
                            <rect id="Rectangle-path" x="80.6451613" y="75.8064516" width="3.22580645" height="3.22580645"></rect>
                            <rect id="Rectangle-path" x="83.8709677" y="72.5806452" width="3.22580645" height="3.22580645"></rect>
                            <rect id="Rectangle-path" x="77.4193548" y="72.5806452" width="3.22580645" height="3.22580645"></rect>
                            <rect id="Rectangle-path" x="53.2258065" y="9.67741935" width="3.22580645" height="3.22580645"></rect>
                            <rect id="Rectangle-path" x="80.6451613" y="3.22580645" width="3.22580645" height="3.22580645"></rect>
                            <rect id="Rectangle-path" x="0" y="70.9677419" width="3.22580645" height="3.22580645"></rect>
                            <rect id="Rectangle-path" x="37.0967742" y="90.3225806" width="3.22580645" height="3.22580645"></rect>
                            <rect id="Rectangle-path" x="20.9677419" y="6.4516129" width="3.22580645" height="3.22580645"></rect>
                            <rect id="Rectangle-path" x="87.0967742" y="87.0967742" width="3.22580645" height="3.22580645"></rect>
                        </g>
                    </g>
                </g>
            </g>
        </g>
    </g>
</svg>