<?xml version="1.0" ?><!DOCTYPE svg  PUBLIC '-//W3C//DTD SVG 1.1//EN'  'http://www.w3.org/Graphics/SVG/1.1/DTD/svg11.dtd'><svg enable-background="new 0 0 48 48" height="48px" id="Layer_1" version="1.1" viewBox="0 0 48 48" width="48px" xml:space="preserve" xmlns="http://www.w3.org/2000/svg" xmlns:xlink="http://www.w3.org/1999/xlink"><path d="M24,0C10.746,0,0,10.745,0,24s10.746,24,24,24c13.256,0,24-10.745,24-24S37.256,0,24,0z M24,13.713  c2.809,0,5.084,2.275,5.084,5.083c0,2.809-2.275,5.084-5.084,5.084c-2.807,0-5.083-2.275-5.083-5.084  C18.917,15.988,21.193,13.713,24,13.713z M32.582,37.69c-2.491,1.537-5.416,2.439-8.559,2.439c-3.161,0-6.104-0.913-8.604-2.467  V27.326c0-0.904,0.733-1.638,1.638-1.638h13.888c0.904,0,1.638,0.733,1.638,1.638V37.69z" fill="#231F20"/></svg>