<?xml version="1.0" encoding="UTF-8"?>
<svg width="20px" height="20px" viewBox="0 0 20 20" version="1.1" xmlns="http://www.w3.org/2000/svg" xmlns:xlink="http://www.w3.org/1999/xlink">
    <!-- Generator: Sketch 40.1 (33804) - http://www.bohemiancoding.com/sketch -->
    <title>behance</title>
    <desc>Created with Sketch.</desc>
    <defs></defs>
    <g id="webite-white" stroke="none" stroke-width="1" fill="none" fill-rule="evenodd">
        <g id="contactus" transform="translate(-1010.000000, -484.000000)" fill="#000000">
            <g id="behance" transform="translate(1010.000000, 484.000000)">
                <path d="M8.3576,8.2744 C8.3576,7.5144 7.8404,7.5144 7.8404,7.5144 L7.5664,7.5144 L5.7128,7.5144 L5.712,7.5144 L5.712,9.1456 L7.7084,9.1456 C8.0536,9.1456 8.3576,9.0356 8.3576,8.2744 L8.3576,8.2744 Z" id="Shape"></path>
                <path d="M13.2884,9.1456 C12.16,9.1456 12.0024,10.2712 12.0024,10.2712 L14.4032,10.2712 C14.4032,10.272 14.418,9.1456 13.2884,9.1456 L13.2884,9.1456 Z" id="Shape"></path>
                <path d="M7.8404,10.272 L5.7132,10.272 L5.7132,12.2264 L7.5976,12.2264 C7.6296,12.2264 7.6768,12.228 7.7332,12.2264 C8.036,12.2188 8.6116,12.1324 8.6116,11.2768 C8.6116,10.2624 7.8404,10.272 7.8404,10.272 L7.8404,10.272 Z" id="Shape"></path>
                <path d="M9.9304,0 C4.4548,0 0,4.4548 0,9.9304 C0,15.4056 4.4548,19.8608 9.9304,19.8608 C15.4056,19.8608 19.8608,15.4056 19.8608,9.9304 C19.8608,4.4548 15.4064,0 9.9304,0 L9.9304,0 Z M11.6876,6.646 L14.7032,6.646 L14.7032,7.5464 L11.6876,7.5464 L11.6876,6.646 L11.6876,6.646 Z M10.1628,11.3676 C10.1628,13.5984 7.8404,13.5256 7.8404,13.5256 L5.7132,13.5256 L5.6508,13.5256 L4.0372,13.5256 L4.0372,6.2156 L5.6508,6.2156 L5.7132,6.2156 L7.8404,6.2156 C8.9968,6.2156 9.9092,6.8544 9.9092,8.1624 C9.9092,9.47 8.794,9.5532 8.794,9.5532 C10.264,9.5528 10.1628,11.3676 10.1628,11.3676 L10.1628,11.3676 Z M15.8048,11.2476 L12.0164,11.2476 C12.0164,12.606 13.3032,12.5204 13.3032,12.5204 C14.5176,12.5204 14.4752,11.734 14.4752,11.734 L15.7628,11.734 C15.7628,13.8212 13.2612,13.6776 13.2612,13.6776 C10.26,13.6776 10.4528,10.8836 10.4528,10.8836 C10.4528,10.8836 10.45,8.0748 13.2612,8.0748 C16.2196,8.0748 15.804,11.2476 15.8048,11.2476 L15.8048,11.2476 Z" id="Shape"></path>
            </g>
        </g>
    </g>
</svg>