<?xml version="1.0" encoding="UTF-8"?>
<svg width="11px" height="22px" viewBox="0 0 11 22" version="1.1" xmlns="http://www.w3.org/2000/svg" xmlns:xlink="http://www.w3.org/1999/xlink">
    <!-- Generator: Sketch 40.1 (33804) - http://www.bohemiancoding.com/sketch -->
    <title>mobile</title>
    <desc>Created with Sketch.</desc>
    <defs></defs>
    <g id="webite-white" stroke="none" stroke-width="1" fill="none" fill-rule="evenodd">
        <g id="contactus" transform="translate(-633.000000, -357.000000)" fill="#222222">
            <g id="mobile" transform="translate(633.000000, 357.000000)">
                <path d="M1.58785942,0.184754625 C1.20646229,0.184792907 0.827116422,0.341167932 0.557428115,0.61027932 C0.287739323,0.879390223 0.13102878,1.25792391 0.130990415,1.63850447 L0.130990415,19.5680859 C0.13102878,19.948668 0.287739323,20.3272002 0.557428115,20.5963135 C0.827116422,20.8654268 1.20646229,21.021797 1.58785942,21.0218358 L8.87220447,21.0218358 C9.25360161,21.021797 9.63294748,20.8654268 9.90263578,20.5963135 C10.1723246,20.3272002 10.3290351,19.948668 10.3290735,19.5680859 L10.3290735,1.63850447 C10.3290351,1.25792391 10.1723246,0.879390223 9.90263578,0.61027932 C9.63294748,0.341167932 9.25360161,0.184792907 8.87220447,0.184754625 L1.58785942,0.184754625 L1.58785942,0.184754625 Z M4.46669329,1.15392119 C4.47023387,1.15384398 4.47377572,1.15384398 4.47731629,1.15392119 C4.48540495,1.15351716 4.49350879,1.15351716 4.50159744,1.15392119 L5.95846645,1.15392119 C6.046033,1.15268543 6.12748302,1.19859378 6.17162769,1.27406704 C6.21577236,1.34954029 6.21577236,1.44288537 6.17162769,1.51835863 C6.12748302,1.59383188 6.046033,1.63974023 5.95846645,1.63850447 L4.50159744,1.63850447 C4.36749636,1.64812234 4.2509724,1.54744151 4.24133388,1.41362754 C4.23169537,1.27981357 4.33259221,1.16353908 4.46669329,1.15392119 L4.46669329,1.15392119 Z M0.616613419,2.60767104 L9.84345048,2.60767104 L9.84345048,18.3566277 L0.616613419,18.3566277 L0.616613419,2.60767104 L0.616613419,2.60767104 Z M5.23003195,18.841211 C5.63233516,18.841211 5.95846645,19.1666441 5.95846645,19.5680859 C5.95846645,19.9695293 5.63233516,20.2949609 5.23003195,20.2949609 C4.82772874,20.2949609 4.50159744,19.9695293 4.50159744,19.5680859 C4.50159744,19.1666441 4.82772874,18.841211 5.23003195,18.841211 L5.23003195,18.841211 Z" id="rect3010"></path>
            </g>
        </g>
    </g>
</svg>