<?xml version="1.0" encoding="UTF-8"?>
<svg width="87px" height="56px" viewBox="0 0 87 56" version="1.1" xmlns="http://www.w3.org/2000/svg" xmlns:xlink="http://www.w3.org/1999/xlink">
    <!-- Generator: Sketch 40.1 (33804) - http://www.bohemiancoding.com/sketch -->
    <title>plane</title>
    <desc>Created with Sketch.</desc>
    <defs></defs>
    <g id="webite-white" stroke="none" stroke-width="1" fill="none" fill-rule="evenodd">
        <g id="Home" transform="translate(-221.000000, -558.000000)">
            <g id="plane" transform="translate(221.000000, 558.000000)">
                <g id="flight" transform="translate(28.000000, 28.000000) scale(-1, 1) translate(-28.000000, -28.000000) ">
                    <polygon id="Shape" fill="#4377A1" points="29.2405312 26.0125469 19.0304844 0 24.7635937 0 41.3123594 26.0125469"></polygon>
                    <path d="M52.8717656,27.58175 L52.1340312,26.0194375 C50.0185,24.50875 46.7854844,23.358125 41.8759687,23.358125 L5.93315625,23.358125 L3.66242187,17.5377344 L0,17.5377344 L0,32.6719531 L28.1868125,32.6719531 L19.0304844,56 L24.7635937,56 C27.1222656,51.9495156 39.0870156,33.4705 39.6041406,32.6718437 L56,32.6718437 C56,31.8821562 55.7111406,30.125375 54.4641562,28.3478125 L52.8717656,27.58175 Z" id="Shape" fill="#4377A1"></path>
                    <path d="M52.276,28.6662031 L53.6030469,28.6662031 C53.9317187,28.6662031 54.2319531,28.5461094 54.4636094,28.34825 C53.9018594,27.5474062 53.1455312,26.7427344 52.1335937,26.0200937 C51.4677187,26.0911875 50.9489531,26.6545781 50.9489531,27.3392656 C50.9489531,28.0719687 51.5430781,28.6662031 52.276,28.6662031 L52.276,28.6662031 Z" id="Shape" fill="#96C8EA"></path>
                    <path d="M46.9679219,28.6662031 L45.640875,28.6662031 C44.9079531,28.6662031 44.3138281,28.0719687 44.3138281,27.3391562 C44.3138281,26.6063437 44.9079531,26.0121094 45.640875,26.0121094 L46.9679219,26.0121094 C47.7008437,26.0121094 48.2949687,26.6063437 48.2949687,27.3391562 C48.2949687,28.0719687 47.7007344,28.6662031 46.9679219,28.6662031 L46.9679219,28.6662031 Z" id="Shape" fill="#96C8EA"></path>
                    <path d="M40.3329062,28.6662031 L39.0058594,28.6662031 C38.2729375,28.6662031 37.6788125,28.0719687 37.6788125,27.3391562 C37.6788125,26.6063437 38.2729375,26.0121094 39.0058594,26.0121094 L40.3329062,26.0121094 C41.0658281,26.0121094 41.6599531,26.6063437 41.6599531,27.3391562 C41.6599531,28.0719687 41.0656094,28.6662031 40.3329062,28.6662031 L40.3329062,28.6662031 Z" id="Shape" fill="#96C8EA"></path>
                    <path d="M33.6977813,28.6662031 L32.3707344,28.6662031 C31.6378125,28.6662031 31.0436875,28.0719687 31.0436875,27.3391562 C31.0436875,26.6063437 31.6378125,26.0121094 32.3707344,26.0121094 L33.6977813,26.0121094 C34.4307031,26.0121094 35.0248281,26.6063437 35.0248281,27.3391562 C35.0248281,28.0719687 34.4305937,28.6662031 33.6977813,28.6662031 L33.6977813,28.6662031 Z" id="Shape" fill="#96C8EA"></path>
                    <path d="M27.0627656,28.6662031 L25.7357187,28.6662031 C25.0027969,28.6662031 24.4086719,28.0719687 24.4086719,27.3391562 C24.4086719,26.6063437 25.0027969,26.0121094 25.7357187,26.0121094 L27.0627656,26.0121094 C27.7956875,26.0121094 28.3898125,26.6063437 28.3898125,27.3391562 C28.3898125,28.0719687 27.7954688,28.6662031 27.0627656,28.6662031 L27.0627656,28.6662031 Z" id="Shape" fill="#96C8EA"></path>
                    <path d="M20.4276406,28.6662031 L19.1005938,28.6662031 C18.3676719,28.6662031 17.7735469,28.0719687 17.7735469,27.3391562 C17.7735469,26.6063437 18.3676719,26.0121094 19.1005938,26.0121094 L20.4276406,26.0121094 C21.1605625,26.0121094 21.7546875,26.6063437 21.7546875,27.3391562 C21.7546875,28.0719687 21.1604531,28.6662031 20.4276406,28.6662031 L20.4276406,28.6662031 Z" id="Shape" fill="#96C8EA"></path>
                    <path d="M13.792625,28.6662031 L12.4655781,28.6662031 C11.7326562,28.6662031 11.1385312,28.0719687 11.1385312,27.3391562 C11.1385312,26.6063437 11.7326562,26.0121094 12.4655781,26.0121094 L13.792625,26.0121094 C14.5255469,26.0121094 15.1196719,26.6063437 15.1196719,27.3391562 C15.1196719,28.0719687 14.5253281,28.6662031 13.792625,28.6662031 L13.792625,28.6662031 Z" id="Shape" fill="#96C8EA"></path>
                </g>
                <g id="Group-9" transform="translate(59.652174, 20.695652)" stroke="#4377A1" stroke-linecap="square">
                    <path d="M0.608695652,1.82608696 L22.5555295,1.82608696" id="Line"></path>
                    <path d="M4.26086957,5.47826087 L26.2077034,5.47826087" id="Line"></path>
                    <path d="M4.26086957,7.91304348 L26.2077034,7.91304348" id="Line"></path>
                    <path d="M0.608695652,11.5652174 L22.5555295,11.5652174" id="Line"></path>
                </g>
            </g>
        </g>
    </g>
</svg>