<?xml version="1.0" encoding="iso-8859-1"?>
<!-- Generator: Adobe Illustrator 19.0.0, SVG Export Plug-In . SVG Version: 6.00 Build 0)  -->
<svg version="1.1" id="Layer_1" xmlns="http://www.w3.org/2000/svg" xmlns:xlink="http://www.w3.org/1999/xlink" x="0px" y="0px"
	 viewBox="0 0 512 512" style="enable-background:new 0 0 512 512;" xml:space="preserve">
<circle style="fill:#FFEDB5;" cx="256" cy="256" r="256"/>
<path style="fill:#FEE187;" d="M511.664,269.236L386.986,144.558L153.141,312.315l-52.167,41.782l157.868,157.868
	C394.488,510.485,504.823,403.53,511.664,269.236z"/>
<path style="fill:#808183;" d="M373.734,344.242H138.266c-10.487,0-18.989-8.502-18.989-18.989V158.146
	c0-10.487,8.502-18.989,18.989-18.989h235.468c10.487,0,18.989,8.502,18.989,18.989v167.107
	C392.723,335.739,384.222,344.242,373.734,344.242z"/>
<path style="fill:#59595B;" d="M373.734,139.155H254.852v205.086h118.882c10.487,0,18.989-8.502,18.989-18.989V158.146
	C392.723,147.658,384.222,139.155,373.734,139.155z"/>
<rect x="134.809" y="155.72" style="fill:#71E2EF;" width="242.381" height="171.942"/>
<rect x="254.845" y="155.72" style="fill:#38C6D9;" width="122.335" height="171.942"/>
<path style="fill:#59595B;" d="M111.711,358.967h288.578c7.904,0,14.31-6.408,14.31-14.31v-15.594c0-7.904-6.408-14.31-14.31-14.31
	H111.711c-7.904,0-14.31,6.408-14.31,14.31v15.594C97.401,352.559,103.807,358.967,111.711,358.967z"/>
<path style="fill:#272525;" d="M400.289,314.751H254.852v44.215h145.437c7.902,0,14.31-6.408,14.31-14.31v-15.594
	C414.599,321.158,408.192,314.751,400.289,314.751z"/>
<g>
	<rect x="183.131" y="241.898" style="fill:#121149;" width="35.476" height="52.183"/>
	<rect x="289.547" y="221.039" style="fill:#121149;" width="35.476" height="73.059"/>
</g>
<rect x="236.33" y="231.469" style="fill:#386895;" width="35.476" height="62.612"/>
<rect x="254.845" y="231.469" style="fill:#273B7A;" width="16.963" height="62.612"/>
<g>
</g>
<g>
</g>
<g>
</g>
<g>
</g>
<g>
</g>
<g>
</g>
<g>
</g>
<g>
</g>
<g>
</g>
<g>
</g>
<g>
</g>
<g>
</g>
<g>
</g>
<g>
</g>
<g>
</g>
</svg>
